<?xml version="1.0" encoding="utf-8"?>
<!-- Generator: Adobe Illustrator 23.0.4, SVG Export Plug-In . SVG Version: 6.00 Build 0)  -->
<svg version="1.1" id="Layer_1" xmlns="http://www.w3.org/2000/svg" xmlns:xlink="http://www.w3.org/1999/xlink" x="0px" y="0px"
	 viewBox="0 0 550 550" style="enable-background:new 0 0 550 550;" xml:space="preserve">
<style type="text/css">
	.st0{opacity:0.2;fill-rule:evenodd;clip-rule:evenodd;fill:#0C5093;enable-background:new    ;}
	.st1{fill-rule:evenodd;clip-rule:evenodd;fill:#DAEAFA;}
	.st2{fill-rule:evenodd;clip-rule:evenodd;fill:url(#SVGID_1_);}
	.st3{fill-rule:evenodd;clip-rule:evenodd;fill:#FFFFFF;}
	.st4{fill-rule:evenodd;clip-rule:evenodd;fill:url(#SVGID_2_);}
	.st5{display:none;fill-rule:evenodd;clip-rule:evenodd;fill:#DAEAFA;}
	.st6{fill-rule:evenodd;clip-rule:evenodd;fill:url(#SVGID_3_);}
	.st7{fill-rule:evenodd;clip-rule:evenodd;fill:url(#SVGID_4_);}
	.st8{fill-rule:evenodd;clip-rule:evenodd;fill:url(#SVGID_5_);}
	.st9{fill-rule:evenodd;clip-rule:evenodd;fill:#48202D;}
	.st10{fill-rule:evenodd;clip-rule:evenodd;fill:url(#SVGID_6_);}
	.st11{fill-rule:evenodd;clip-rule:evenodd;fill:#DA9569;}
	.st12{fill-rule:evenodd;clip-rule:evenodd;fill:url(#SVGID_7_);}
	.st13{fill-rule:evenodd;clip-rule:evenodd;fill:#33B4D5;}
	.st14{fill-rule:evenodd;clip-rule:evenodd;fill:#B4CEE7;}
	.st15{fill-rule:evenodd;clip-rule:evenodd;fill:url(#SVGID_8_);}
	.st16{fill-rule:evenodd;clip-rule:evenodd;fill:url(#SVGID_9_);}
	.st17{fill-rule:evenodd;clip-rule:evenodd;fill:url(#SVGID_10_);}
	.st18{fill-rule:evenodd;clip-rule:evenodd;fill:url(#SVGID_11_);}
	.st19{fill-rule:evenodd;clip-rule:evenodd;fill:url(#SVGID_12_);}
	.st20{fill-rule:evenodd;clip-rule:evenodd;fill:#632E40;}
	.st21{fill-rule:evenodd;clip-rule:evenodd;fill:url(#SVGID_13_);}
	.st22{fill-rule:evenodd;clip-rule:evenodd;fill:#A60FB2;}
	.st23{fill-rule:evenodd;clip-rule:evenodd;fill:url(#SVGID_14_);}
	.st24{fill-rule:evenodd;clip-rule:evenodd;fill:url(#SVGID_15_);}
	.st25{fill-rule:evenodd;clip-rule:evenodd;fill:url(#SVGID_16_);}
	.st26{fill-rule:evenodd;clip-rule:evenodd;fill:#0A3C5F;}
	.st27{fill-rule:evenodd;clip-rule:evenodd;fill:url(#SVGID_17_);}
	.st28{fill-rule:evenodd;clip-rule:evenodd;fill:#262728;}
	.st29{fill-rule:evenodd;clip-rule:evenodd;fill:url(#SVGID_18_);}
	.st30{fill-rule:evenodd;clip-rule:evenodd;fill:url(#SVGID_19_);}
	.st31{fill-rule:evenodd;clip-rule:evenodd;fill:url(#SVGID_20_);}
	.st32{fill-rule:evenodd;clip-rule:evenodd;fill:url(#SVGID_21_);}
	.st33{fill-rule:evenodd;clip-rule:evenodd;fill:url(#SVGID_22_);}
	.st34{display:none;}
	.st35{display:inline;}
	.st36{fill-rule:evenodd;clip-rule:evenodd;fill:url(#SVGID_23_);}
	.st37{fill-rule:evenodd;clip-rule:evenodd;fill:url(#SVGID_24_);}
	.st38{fill-rule:evenodd;clip-rule:evenodd;fill:#155DB0;}
	.st39{fill-rule:evenodd;clip-rule:evenodd;fill:url(#SVGID_25_);}
	.st40{fill-rule:evenodd;clip-rule:evenodd;fill:url(#SVGID_26_);}
	.st41{fill-rule:evenodd;clip-rule:evenodd;fill:#1866C0;}
	.st42{fill-rule:evenodd;clip-rule:evenodd;fill:url(#SVGID_27_);}
	.st43{opacity:0.5;fill-rule:evenodd;clip-rule:evenodd;fill:url(#SVGID_28_);enable-background:new    ;}
	.st44{opacity:0.4;fill-rule:evenodd;clip-rule:evenodd;fill:#BDD1E7;enable-background:new    ;}
	.st45{fill-rule:evenodd;clip-rule:evenodd;fill:url(#SVGID_29_);}
	.st46{fill-rule:evenodd;clip-rule:evenodd;fill:url(#SVGID_30_);}
	.st47{fill-rule:evenodd;clip-rule:evenodd;fill:url(#SVGID_31_);}
	.st48{fill-rule:evenodd;clip-rule:evenodd;fill:url(#SVGID_32_);}
	.st49{fill-rule:evenodd;clip-rule:evenodd;fill:url(#SVGID_33_);}
	.st50{fill-rule:evenodd;clip-rule:evenodd;fill:url(#SVGID_34_);}
	.st51{fill-rule:evenodd;clip-rule:evenodd;fill:url(#SVGID_35_);}
	.st52{fill-rule:evenodd;clip-rule:evenodd;fill:url(#SVGID_36_);}
	.st53{fill-rule:evenodd;clip-rule:evenodd;fill:url(#SVGID_37_);}
	.st54{fill-rule:evenodd;clip-rule:evenodd;fill:url(#SVGID_38_);}
	.st55{fill-rule:evenodd;clip-rule:evenodd;fill:url(#SVGID_39_);}
	.st56{fill-rule:evenodd;clip-rule:evenodd;fill:url(#SVGID_40_);}
	.st57{fill-rule:evenodd;clip-rule:evenodd;fill:#D59367;}
	.st58{fill-rule:evenodd;clip-rule:evenodd;fill:url(#SVGID_41_);}
	.st59{opacity:0.35;fill-rule:evenodd;clip-rule:evenodd;fill:#BDD1E7;enable-background:new    ;}
	.st60{fill-rule:evenodd;clip-rule:evenodd;fill:url(#SVGID_42_);}
	.st61{fill-rule:evenodd;clip-rule:evenodd;fill:url(#SVGID_43_);}
	.st62{fill-rule:evenodd;clip-rule:evenodd;fill:url(#SVGID_44_);}
	.st63{fill-rule:evenodd;clip-rule:evenodd;fill:url(#SVGID_45_);}
	.st64{opacity:0.5;fill-rule:evenodd;clip-rule:evenodd;fill:url(#SVGID_46_);enable-background:new    ;}
	.st65{fill-rule:evenodd;clip-rule:evenodd;fill:url(#SVGID_47_);}
	.st66{fill-rule:evenodd;clip-rule:evenodd;fill:url(#SVGID_48_);}
	.st67{fill-rule:evenodd;clip-rule:evenodd;fill:url(#SVGID_49_);}
	.st68{fill-rule:evenodd;clip-rule:evenodd;fill:url(#SVGID_50_);}
	.st69{fill-rule:evenodd;clip-rule:evenodd;fill:url(#SVGID_51_);}
	.st70{fill-rule:evenodd;clip-rule:evenodd;fill:url(#SVGID_52_);}
	.st71{fill-rule:evenodd;clip-rule:evenodd;fill:#26B2FC;}
	.st72{fill-rule:evenodd;clip-rule:evenodd;fill:#005C9E;}
</style>
<g>
	<ellipse class="st0" cx="274.2" cy="521.2" rx="263.8" ry="15.2"/>
	<ellipse class="st0" cx="274.2" cy="521.2" rx="248" ry="7.3"/>
</g>
<g>
	<g id="people">
		<g>
			<path class="st1" d="M163.5,8.2h215.3c14,0,25.4,11.4,25.4,25.4v447.7c0,14-11.4,25.4-25.4,25.4H163.5c-14,0-25.4-11.4-25.4-25.4
				V33.6C138.1,19.6,149.5,8.2,163.5,8.2z"/>
			
				<linearGradient id="SVGID_1_" gradientUnits="userSpaceOnUse" x1="310.5673" y1="-62.4494" x2="218.6459" y2="212.6094" gradientTransform="matrix(1 0 0 1 0 202)">
				<stop  offset="0" style="stop-color:#105B91"/>
				<stop  offset="1" style="stop-color:#0A3C5F"/>
			</linearGradient>
			<path class="st2" d="M171.8,19.3h198.7c12.8,0,23.3,10.5,23.3,23.3v429.8c0,12.8-10.5,23.3-23.3,23.3H171.8
				c-12.8,0-23.3-10.5-23.3-23.3V42.6C148.5,29.8,159,19.3,171.8,19.3z"/>
		</g>
		<g>
			<path class="st3" d="M169.9,164.6h69.4c4.9,0,8.9,4,8.9,8.9v75.7c0,4.9-4,8.9-8.9,8.9h-69.4c-4.9,0-8.9-4-8.9-8.9v-75.7
				C161,168.7,165,164.6,169.9,164.6z"/>
			<g>
				
					<linearGradient id="SVGID_2_" gradientUnits="userSpaceOnUse" x1="207.0506" y1="31.5911" x2="203.1857" y2="55.9933" gradientTransform="matrix(1 0 0 1 0 202)">
					<stop  offset="0" style="stop-color:#31ADCC"/>
					<stop  offset="1" style="stop-color:#198AA6"/>
				</linearGradient>
				<path class="st4" d="M248.2,249.5c-1-3.7-2-6.8-3-8c-8-9.8-20.1-14-31.7-15.5c-2.9-0.4-5.9-0.6-9-0.6c-3,0-6,0.2-9,0.6
					c-11.6,1.5-23.6,5.7-31.7,15.5c-1,1.2-2,4.3-3,8c0.2,4.8,4.1,8.6,8.9,8.6h69.4C244.1,258.1,248,254.3,248.2,249.5z"/>
				<path class="st5" d="M248.2,249.5c-1-3.7-2-6.8-3-8c-8-9.8-20.1-14-31.7-15.5c-2.9-0.4-5.9-0.6-9-0.6c-3,0-6,0.2-9,0.6
					c-11.6,1.5-23.6,5.7-31.7,15.5c-1,1.2-2,4.3-3,8c0.2,4.8,4.1,8.6,8.9,8.6H188c-1.7-10.5,1.4-23.5,2.8-27.8
					c1.7-5.1,18.9-4.7,21.9-1.8c3.4,3.3,7.7,12.6,11.2,29.6h15.2C244.1,258.1,248,254.3,248.2,249.5z"/>
				<g>
					
						<linearGradient id="SVGID_3_" gradientUnits="userSpaceOnUse" x1="201.6185" y1="23.6095" x2="206.2664" y2="27.4412" gradientTransform="matrix(1 0 0 1 0 202)">
						<stop  offset="0" style="stop-color:#E8A476"/>
						<stop  offset="1" style="stop-color:#F1B287"/>
					</linearGradient>
					<path class="st6" d="M193.4,216.1c-0.2,4.1-0.4,7.4-1.2,11.4c1.8,6.3,7.7,10.4,13.5,9.6c5-0.7,6.3-7.5,4.6-11.7
						c-0.2-2-0.3-3.8-0.4-5.8l-12.7-3.7L193.4,216.1z"/>
					
						<linearGradient id="SVGID_4_" gradientUnits="userSpaceOnUse" x1="202.0067" y1="17.3915" x2="201.6065" y2="20.9895" gradientTransform="matrix(1 0 0 1 0 202)">
						<stop  offset="0" style="stop-color:#CF8D61"/>
						<stop  offset="1" style="stop-color:#E8A476"/>
					</linearGradient>
					<path class="st7" d="M193.4,216.1c-0.1,1.2-0.1,2.3-0.2,3.4c5.4,6,12.6,7,17.1,6c-0.2-2-0.3-3.8-0.4-5.8l-12.7-3.7L193.4,216.1
						z"/>
				</g>
				
					<linearGradient id="SVGID_5_" gradientUnits="userSpaceOnUse" x1="204.4697" y1="-22.0589" x2="189.8484" y2="-2.6266" gradientTransform="matrix(1 0 0 1 0 202)">
					<stop  offset="0" style="stop-color:#632E38"/>
					<stop  offset="1" style="stop-color:#48202D"/>
				</linearGradient>
				<path class="st8" d="M191.4,211.2c-3.3,0.6-4.1-0.5-4.8-2.7c-0.8-2.2-0.7-1.6-2.1-3.3c-0.7-0.8-1.1-1.6-1.4-2.5
					c-1-2.8-0.5-4.4-0.5-6.6c-0.1-2.6-1.2-3.6-1.7-5.3c-2.3-8.3,4.8-15.5,12.6-11.7c2.8-5,7.2-5.1,11.3-2.8
					c4.7-2.9,9.3-2.5,12.5,1.1c6.2,7.1,0.4,14.2-3.9,16.1l-13.6,9.7L191.4,211.2z"/>
				<path class="st9" d="M191.4,211.2c-3.3,0.6-4.1-0.5-4.8-2.7c-0.8-2.2-0.7-1.6-2.1-3.3c-0.7-0.8-1.1-1.6-1.4-2.5
					c-1-2.8-0.5-4.4-0.5-6.6V196c2,3.5,6.3,4.1,6.7-0.7c2.1-1.7,3.5-3.8,3.8-6.2c0.4-3.1,1.7-4.8,5.1-3.8c8,2.3,14.6,6.5,21.7-0.2
					c-0.5,4-3.8,7.3-6.5,8.5l-13.6,9.7L191.4,211.2z"/>
				<g>
					
						<linearGradient id="SVGID_6_" gradientUnits="userSpaceOnUse" x1="204.3055" y1="2.611" x2="210.5199" y2="7.7459" gradientTransform="matrix(1 0 0 1 0 202)">
						<stop  offset="0" style="stop-color:#E8A476"/>
						<stop  offset="1" style="stop-color:#F1B287"/>
					</linearGradient>
					<path class="st10" d="M214.9,192.7c0.6,8.4,1.9,17.1-1.3,25.1c-1.2,2.9-3.1,4.7-7.6,3.8c-3.1-0.7-6.4-2.1-9.3-3.3
						c-4.4-1.8-3.8-3.6-4.5-5.1c-0.3-0.6-0.8-1.3-1.4-2.1c-1.7-2-4.7-3.3-4.8-6.2c-0.1-2.7,1.9-4.1,2.9-2.3c1.4,2.5,4.7,6.9,2.2-6.6
						c2.7-2,3.2-2.8,3.9-5c0.7-2.1,1.4-3.8,4-2.5C204.2,191.3,208.8,194,214.9,192.7z"/>
					<path class="st11" d="M214.9,192.7c0.1,0.8,0.1,1.6,0.2,2.5c-8.2,1.4-12.3-2.2-17.5-5.5c-1.9,3.2-2.4,4.1-5,6.7
						c0.1,0.9,1,6.1,0.4,8.7c-0.5,2.1-1.6,1.8-2.8,0.5c-0.8-0.8-2.6-4.6-4.1-2.2c0.5-1.6,1.9-2.2,2.8-0.8c1.4,2.5,4.7,6.9,2.2-6.6
						c2.7-2,3.2-2.8,3.9-5c0.7-2.1,1.4-3.8,4-2.5C204.2,191.3,208.8,194,214.9,192.7z"/>
				</g>
				<g>
					
						<linearGradient id="SVGID_7_" gradientUnits="userSpaceOnUse" x1="212.9668" y1="41.971" x2="204.4464" y2="50.2785" gradientTransform="matrix(1 0 0 1 0 202)">
						<stop  offset="0" style="stop-color:#105B91"/>
						<stop  offset="1" style="stop-color:#0A3C5F"/>
					</linearGradient>
					<path class="st12" d="M204.5,244.7l0.2,13.4h11.1l-7.9-14.4c1.4-4.3,1-5.2,0.1-5.9c-1-0.7,0-0.8-3.2-0.4
						c-2.1,0.3-4.3,0.5-4,2.8C201.1,241.9,202.6,243.2,204.5,244.7z"/>
					<path class="st13" d="M192.6,224.7c-1.8,0.6-3.2,1.2-3.5,2.4c-1.1,4,5.9,15.4,10.4,16.5c1.5-2.9,2.8-4.5,5.6-6.3
						C197.5,235,193.4,231.3,192.6,224.7z"/>
					<path class="st13" d="M210.3,225.2c1.4,0,2.6,0.5,2.8,0.8c1.9,2.1,2,11.2-1.1,16.4c-2.6-2.6-4.9-4-7.2-5
						C211.5,233.3,211,229.4,210.3,225.2z"/>
				</g>
			</g>
		</g>
		<g>
			<path class="st14" d="M263.7,55.7c140.5,0-29.8,0,110.8,0c3.4,0,6.2,2.4,6.2,5.3v6c0,2.9-2.8,5.3-6.2,5.3
				c-140.5,0,29.8,0-110.8,0c-3.4,0-6.2-2.4-6.2-5.3v-6C257.6,58.1,260.3,55.7,263.7,55.7z"/>
			<path class="st14" d="M260.9,86.3c75.3,0,41.1,0.1,116.4,0.1c1.8,0,3.3,1.3,3.3,2.9v3.2c0,1.6-1.5,2.9-3.3,2.9
				c-75.3,0-41.1-0.1-116.4-0.1c-1.8,0-3.3-1.3-3.3-2.9v-3.2C257.6,87.6,259,86.3,260.9,86.3z"/>
			<path class="st14" d="M260.9,110.8c75.3,0,41.1,0.1,116.4,0.1c1.8,0,3.3,1.3,3.3,2.9v3.2c0,1.6-1.5,2.9-3.3,2.9
				c-75.3,0-41.1-0.1-116.4-0.1c-1.8,0-3.3-1.3-3.3-2.9v-3.2C257.6,112.1,259,110.8,260.9,110.8z"/>
			<path class="st14" d="M260.9,135.3c75.3,0-16,0.1,59.3,0.1c1.8,0,3.3,1.3,3.3,2.9v3.2c0,1.6-1.5,2.9-3.3,2.9
				c-75.3,0,16-0.1-59.3-0.1c-1.8,0-3.3-1.3-3.3-2.9v-3.2C257.6,136.6,259,135.3,260.9,135.3z"/>
		</g>
		<g>
			<path class="st3" d="M169.9,53.3h69.4c4.9,0,8.9,4,8.9,8.9v75.7c0,4.9-4,8.9-8.9,8.9h-69.4c-4.9,0-8.9-4-8.9-8.9V62.2
				C161,57.3,165,53.3,169.9,53.3z"/>
			<g>
				<g>
					
						<linearGradient id="SVGID_8_" gradientUnits="userSpaceOnUse" x1="188.0788" y1="-122.2419" x2="193.8639" y2="-74.6584" gradientTransform="matrix(1 0 0 1 0 202)">
						<stop  offset="0" style="stop-color:#632E38"/>
						<stop  offset="1" style="stop-color:#48202D"/>
					</linearGradient>
					<path class="st15" d="M203,69.5c-10.5-4.5-15.8,0.1-19.9,7.6c-4.3,7.8-4.8,11.8-7.7,14.8c-3.5,3.5-7.6,4-14.4,4.3v41.7
						c0,1.5,0.4,2.9,1,4.2h49c-0.7-4.8-1.9-8.2-1.5-10.6c2.8-13.5,14.9-9.4,15.7-24.6c0.5-8.5-7.5-14.4-6.6-25.1
						C228.2,62.5,209.9,62.7,203,69.5z"/>
					<path class="st9" d="M210.2,146.8c-0.5-6.3-1-13.8-0.7-15.3c2.8-13.5,14.9-9.4,15.7-24.6c0.5-8.5-7.5-14.4-6.6-25.1
						c0.2-0.4,0.4-0.7,0.5-1.1c-5.1,1.4-12,0.3-19.6-3.4c-1.8,4.5-1.7,9.5-2.1,14.4c-4.9-2.8-6.3,0.8-6.7,6
						c-0.5,7.6-0.8,9.4-3.3,10.6c-14.3,6.9-16.7,8.8-26.4,20.1v9.4c0,4.9,4,8.9,8.9,8.9L210.2,146.8L210.2,146.8z"/>
				</g>
				
					<linearGradient id="SVGID_9_" gradientUnits="userSpaceOnUse" x1="209.6012" y1="-81.5451" x2="205.7451" y2="-55.0379" gradientTransform="matrix(1 0 0 1 0 202)">
					<stop  offset="0" style="stop-color:#31ADCC"/>
					<stop  offset="1" style="stop-color:#198AA6"/>
				</linearGradient>
				<path class="st16" d="M248.2,128.3c-0.1-0.1-0.1-0.1-0.2-0.2c-7.7-9.3-19.1-13.4-30.2-14.8c-2.8-0.4-5.6-0.6-8.5-0.6
					s-5.8,0.2-8.5,0.6c-11.1,1.4-22.5,5.4-30.2,14.8c-1.9,2.3-3.8,10.2-5.8,17c1.4,1,3.2,1.6,5.1,1.6h69.4c4.9,0,8.9-4,8.9-8.9
					V128.3L248.2,128.3z"/>
				<path class="st5" d="M248.2,128.3c-0.1-0.1-0.1-0.1-0.2-0.2c-7.7-9.3-19.1-13.4-30.2-14.8c-2.8-0.4-5.6-0.6-8.5-0.6
					s-5.8,0.2-8.5,0.6c-11.1,1.4-22.5,5.4-30.2,14.8c-1.9,2.3-3.8,10.2-5.8,17c1.4,1,3.2,1.6,5.1,1.6h19
					c-0.2-13.3,2.8-31.7,15.8-32.4c14-0.7,21.3,16.6,21.2,32.4h13.4c4.9,0,8.9-4,8.9-8.9V128.3z"/>
				<g>
					<g>
						<g>
							
								<linearGradient id="SVGID_10_" gradientUnits="userSpaceOnUse" x1="205.1736" y1="-90.6728" x2="207.5613" y2="-80.7453" gradientTransform="matrix(1 0 0 1 0 202)">
								<stop  offset="0" style="stop-color:#E8A476"/>
								<stop  offset="1" style="stop-color:#F1B287"/>
							</linearGradient>
							<path class="st17" d="M200.7,103.9c0,5.5-0.1,7.1-1.5,12.4c1.5,5.5,11.1,8.7,13.5,0.1c-0.8-2.6-0.8-4.4-0.7-6.5l-4.5-4
								L200.7,103.9z"/>
							
								<linearGradient id="SVGID_11_" gradientUnits="userSpaceOnUse" x1="206.8478" y1="-93.6646" x2="205.5542" y2="-91.0157" gradientTransform="matrix(1 0 0 1 0 202)">
								<stop  offset="0" style="stop-color:#CF8D61"/>
								<stop  offset="1" style="stop-color:#E8A476"/>
							</linearGradient>
							<path class="st18" d="M200.7,103.9c0,1.6,0,2.9-0.1,4c1.6,3.1,7.2,7.2,11.6,6.5c-0.3-1.6-0.3-3-0.2-4.6l-4.5-4L200.7,103.9z"
								/>
						</g>
						<g>
							
								<linearGradient id="SVGID_12_" gradientUnits="userSpaceOnUse" x1="210.5538" y1="-107.7079" x2="216.5015" y2="-103.1906" gradientTransform="matrix(1 0 0 1 0 202)">
								<stop  offset="0" style="stop-color:#E8A476"/>
								<stop  offset="1" style="stop-color:#F1B287"/>
							</linearGradient>
							<path class="st19" d="M220.4,83.7c0.6,8.8,1.9,15.9-1.3,22.6c-2.7,5.8-6.8,5.2-11.1,3.1s-6.6-3.5-9.6-7.2
								c-1.1-0.6-2.3-0.6-3.5-1.9c-1.8-1.8-2.9-5.1-1.5-7.2c0.6-0.9,2.2-0.3,3.2,1.5c1.3,2.2,2,0.1,2.1-1.5
								c0.1-4.4,1.3-7.1,2.2-11.7C206.8,84.4,214.5,88.2,220.4,83.7z"/>
							<path class="st11" d="M220.4,83.7c0.1,1.4,0.2,2.7,0.3,4c-6,2.2-12.3,0.9-18.8-4c-1.4,4-0.7,7.2-1.5,10.1
								c-0.7,2.3-1.7,3.4-3.1,2.9c-2-0.7-1.7-2.1-4.2-2.7c0.1-0.3,0.2-0.5,0.4-0.8c0.6-0.9,2.2-0.3,3.2,1.5c1.3,2.2,2,0.1,2.1-1.5
								c0.1-4.4,1.3-7.1,2.1-11.7C206.8,84.4,214.5,88.2,220.4,83.7z"/>
						</g>
					</g>
					<g>
						<path class="st20" d="M216.5,85.8c-6.7,1.1-17.2-3.1-17.4-9.7c-0.2-6,6.6-10,12.5-11.1C227.7,62.1,231.2,83.4,216.5,85.8z"/>
						<path class="st9" d="M216.5,85.8c-6.2,1-15.5-2.5-17.1-8.1c0-0.1,0.1-0.2,0.1-0.3c11.6,5.7,21.6,5.3,26.3-1
							C225.5,80.6,222.5,84.8,216.5,85.8z"/>
					</g>
				</g>
			</g>
		</g>
		<g>
			<g>
				<path class="st14" d="M263.7,280.6c140.5,0-29.8,0,110.8,0c3.4,0,6.2,2.4,6.2,5.3v6c0,2.9-2.8,5.3-6.2,5.3
					c-140.5,0,29.8,0-110.8,0c-3.4,0-6.2-2.4-6.2-5.3v-6C257.6,283,260.3,280.6,263.7,280.6z"/>
				<path class="st14" d="M260.9,311.2c75.3,0,41.1,0.1,116.4,0.1c1.8,0,3.3,1.3,3.3,2.9v3.2c0,1.6-1.5,2.9-3.3,2.9
					c-75.3,0-41.1-0.1-116.4-0.1c-1.8,0-3.3-1.3-3.3-2.9V314C257.6,312.5,259,311.2,260.9,311.2z"/>
				<path class="st14" d="M260.9,335.7c75.3,0,41.1,0.1,116.4,0.1c1.8,0,3.3,1.3,3.3,2.9v3.2c0,1.6-1.5,2.9-3.3,2.9
					c-75.3,0-41.1-0.1-116.4-0.1c-1.8,0-3.3-1.3-3.3-2.9v-3.2C257.6,337,259,335.7,260.9,335.7z"/>
				<path class="st14" d="M260.9,360.2c75.3,0-16,0.1,59.3,0.1c1.8,0,3.3,1.3,3.3,2.9v3.2c0,1.6-1.5,2.9-3.3,2.9
					c-75.3,0,16-0.1-59.3-0.1c-1.8,0-3.3-1.3-3.3-2.9v-3.2C257.6,361.5,259,360.2,260.9,360.2z"/>
			</g>
			<g>
				<path class="st3" d="M169.9,278.2h69.4c4.9,0,8.9,4,8.9,8.9v75.7c0,4.9-4,8.9-8.9,8.9h-69.4c-4.9,0-8.9-4-8.9-8.9v-75.7
					C161,282.2,165,278.2,169.9,278.2z"/>
				<g>
					<g>
						
							<linearGradient id="SVGID_13_" gradientUnits="userSpaceOnUse" x1="190.0033" y1="100.7409" x2="195.256" y2="132.9552" gradientTransform="matrix(1 0 0 1 0 202)">
							<stop  offset="0" style="stop-color:#632E38"/>
							<stop  offset="1" style="stop-color:#48202D"/>
						</linearGradient>
						<path class="st21" d="M203,294.4c-10.5-4.5-15.8,0.1-19.9,7.6c-4.3,7.8-4.8,11.8-7.7,14.8c-2.1,2.1-4.6,2.8-7.6,3.7
							c-8.7,2.7-8.7,14.4,5.8,21.1c16.4,7.6,48.5,9,51.7-9.8c1.4-8.4-7.5-14.4-6.6-25.1C228.2,287.4,209.9,287.6,203,294.4z"/>
						<path class="st9" d="M225.2,331.8c1-8.4-3.9-14.5-3-25.2c0.2-0.4-3.3-0.6-3.1-1c-5.2,1.4-12,0.3-19.6-3.4
							c-1.8,4.5-1.7,9.5-2.1,14.4c-4.9-2.8-6.4,0.8-6.7,6c-0.5,7.6-0.8,9.4-3.3,10.6c-5.6,2.7-26.1,0.8-22.5-11.3
							c-5.3,4.7-3.9,13.5,7.9,19.2C190.7,349.9,223,351.1,225.2,331.8z"/>
					</g>
					<path class="st22" d="M248.2,353.2c-0.1-0.1-0.1-0.2-0.2-0.2c-7.7-9.3-19.1-13.4-30.2-14.8c-2.8-0.4-5.6-0.6-8.5-0.6
						s-5.8,0.2-8.5,0.6c-11.1,1.4-22.5,5.4-30.2,14.8c-1.9,2.3-3.8,10.2-5.8,17c1.4,1,3.2,1.6,5.1,1.6h69.4c4.9,0,8.9-4,8.9-8.9
						V353.2L248.2,353.2z"/>
					<path class="st5" d="M248.2,353.2c-0.1-0.1-0.1-0.2-0.2-0.2c-7.7-9.3-19.1-13.4-30.2-14.8c-2.8-0.4-5.6-0.6-8.5-0.6
						s-5.8,0.2-8.5,0.6c-11.1,1.4-22.5,5.4-30.2,14.8c-1.9,2.3-3.8,10.2-5.8,17c1.4,1,3.2,1.6,5.1,1.6h30.4
						c-0.2-13.3-8.6-31.7,4.4-32.4c14-0.7,21.3,16.6,21.2,32.4h13.4c4.9,0,8.9-4,8.9-8.9L248.2,353.2L248.2,353.2z"/>
					<g>
						<g>
							<g>
								
									<linearGradient id="SVGID_14_" gradientUnits="userSpaceOnUse" x1="205.1736" y1="134.227" x2="207.5612" y2="144.1544" gradientTransform="matrix(1 0 0 1 0 202)">
									<stop  offset="0" style="stop-color:#E8A476"/>
									<stop  offset="1" style="stop-color:#F1B287"/>
								</linearGradient>
								<path class="st23" d="M200.7,328.8c0,5.5-0.1,7.1-1.5,12.4c1.5,5.5,11.1,8.7,13.5,0.1c-0.8-2.6-0.8-4.4-0.7-6.5l-4.5-4
									L200.7,328.8z"/>
								
									<linearGradient id="SVGID_15_" gradientUnits="userSpaceOnUse" x1="206.848" y1="131.2351" x2="205.5543" y2="133.8841" gradientTransform="matrix(1 0 0 1 0 202)">
									<stop  offset="0" style="stop-color:#CF8D61"/>
									<stop  offset="1" style="stop-color:#E8A476"/>
								</linearGradient>
								<path class="st24" d="M200.7,328.8c0,1.6,0,2.9-0.1,4c1.6,3.1,7.2,7.2,11.6,6.5c-0.3-1.6-0.3-3-0.2-4.6l-4.5-4L200.7,328.8z
									"/>
							</g>
							<g>
								
									<linearGradient id="SVGID_16_" gradientUnits="userSpaceOnUse" x1="210.5536" y1="117.1919" x2="216.5013" y2="121.7093" gradientTransform="matrix(1 0 0 1 0 202)">
									<stop  offset="0" style="stop-color:#E8A476"/>
									<stop  offset="1" style="stop-color:#F1B287"/>
								</linearGradient>
								<path class="st25" d="M220.4,308.6c0.6,8.8,1.9,15.9-1.3,22.6c-2.7,5.8-6.8,5.2-11.1,3.1c-4.3-2.1-6.6-3.5-9.6-7.2
									c-1.1-0.6-2.3-0.7-3.5-1.9c-1.8-1.8-2.9-5.1-1.5-7.2c0.6-0.9,2.2-0.3,3.2,1.5c1.3,2.2,2,0.1,2.1-1.5
									c0.1-4.4,1.3-7.1,2.2-11.7C206.8,309.3,214.5,313.1,220.4,308.6z"/>
								<path class="st11" d="M220.4,308.6c0.1,1.4,0.2,2.7,0.3,4c-6,2.2-12.3,0.9-18.8-4c-1.4,4-0.7,7.2-1.5,10.1
									c-0.7,2.3-1.7,3.4-3.1,2.9c-2-0.7-1.7-2-4.2-2.7c0.1-0.3,0.2-0.5,0.4-0.8c0.6-0.9,2.2-0.3,3.2,1.5c1.3,2.2,2,0.1,2.1-1.5
									c0.1-4.4,1.3-7.1,2.1-11.7C206.8,309.3,214.5,313.1,220.4,308.6z"/>
							</g>
						</g>
						<g>
							<path class="st20" d="M216.5,310.7c-6.7,1.1-17.2-3.1-17.4-9.7c-0.2-6,6.6-10,12.5-11.1c12-2.2,17,12.5,10.8,25
								c-0.2-1.9-0.1-6.6-1.6-5.8C219.7,309.9,218.2,310.4,216.5,310.7z"/>
							<path class="st9" d="M216.5,310.7c-6.2,1-15.5-2.5-17.1-8.1c0-0.1,0.1-0.2,0.1-0.3c8.9,4.4,16.8,4.8,22.4,2.7
								c1.7-0.6,3.5-0.2,2.9,2.8c-0.7,3.1-1.7,6.7-2.5,7.6c-0.5-5.4-1.3-6.1-1.7-6C219.3,309.7,218.1,310.4,216.5,310.7z"/>
						</g>
					</g>
				</g>
			</g>
		</g>
		<g>
			<path class="st14" d="M263.7,167.1c140.5,0-29.8,0,110.8,0c3.4,0,6.2,2.4,6.2,5.3v6c0,2.9-2.8,5.3-6.2,5.3
				c-140.5,0,29.8,0-110.8,0c-3.4,0-6.2-2.4-6.2-5.3v-6C257.6,169.5,260.3,167.1,263.7,167.1z"/>
			<path class="st14" d="M260.9,197.6c75.3,0,41.1,0.1,116.4,0.1c1.8,0,3.3,1.3,3.3,2.9v3.2c0,1.6-1.5,2.9-3.3,2.9
				c-75.3,0-41.1-0.1-116.4-0.1c-1.8,0-3.3-1.3-3.3-2.9v-3.2C257.6,198.9,259,197.6,260.9,197.6z"/>
			<path class="st14" d="M260.9,222.2c75.3,0,41.1,0.1,116.4,0.1c1.8,0,3.3,1.3,3.3,2.9v3.2c0,1.6-1.5,2.9-3.3,2.9
				c-75.3,0-41.1-0.1-116.4-0.1c-1.8,0-3.3-1.3-3.3-2.9V225C257.6,223.5,259,222.2,260.9,222.2z"/>
			<path class="st14" d="M260.9,246.7c75.3,0-16,0.1,59.3,0.1c1.8,0,3.3,1.3,3.3,2.9v3.2c0,1.6-1.5,2.9-3.3,2.9
				c-75.3,0,16-0.1-59.3-0.1c-1.8,0-3.3-1.3-3.3-2.9v-3.2C257.6,248,259,246.7,260.9,246.7z"/>
		</g>
		<g>
			<path class="st26" d="M235.7,31.3c46.5,0,24.4,0.1,70.8,0.1c1.1,0,2,0.8,2,1.8v2c0,1-0.9,1.8-2,1.8c-46.5,0-24.4-0.1-70.8-0.1
				c-1.1,0-2-0.8-2-1.8v-2C233.7,32.1,234.6,31.3,235.7,31.3z"/>
			<path class="st26" d="M165.9,29.1c2.7,0,4.9,2.2,4.9,4.9s-2.2,4.9-4.9,4.9S161,36.7,161,34S163.2,29.1,165.9,29.1z"/>
		</g>
		<g>
			<path class="st3" d="M169.9,392.4h69.4c4.9,0,8.9,4,8.9,8.9V477c0,4.9-4,8.9-8.9,8.9h-69.4c-4.9,0-8.9-4-8.9-8.9v-75.7
				C161,396.4,165,392.4,169.9,392.4z"/>
			<g>
				
					<linearGradient id="SVGID_17_" gradientUnits="userSpaceOnUse" x1="207.063" y1="259.3027" x2="203.1981" y2="283.705" gradientTransform="matrix(1 0 0 1 0 202)">
					<stop  offset="0" style="stop-color:#31ADCC"/>
					<stop  offset="1" style="stop-color:#198AA6"/>
				</linearGradient>
				<path class="st27" d="M248.2,477.3c-1-3.7-2-6.8-3-8c-8-9.8-20.1-14-31.7-15.5c-2.9-0.4-5.9-0.6-9-0.6c-3,0-6,0.2-9,0.6
					c-11.6,1.5-23.6,5.7-31.7,15.5c-1,1.2-2,4.3-3,8c0.2,4.8,4.1,8.6,8.9,8.6h69.4C244.1,485.8,248,482,248.2,477.3z"/>
				<path class="st28" d="M248.2,477.3c-1-3.7-2-6.8-3-8c-8-9.8-20.1-14-31.7-15.5c-2.9-0.4-5.9-0.6-9-0.6c-3,0-6,0.2-9,0.6
					c-11.6,1.5-23.6,5.7-31.7,15.5c-1,1.2-2,4.3-3,8c0.2,4.8,4.1,8.6,8.9,8.6H188c-1.7-10.5,1.4-23.5,2.8-27.8
					c1.7-5.1,18.9-4.7,21.9-1.8c3.4,3.3,7.7,12.6,11.2,29.6h15.2C244.1,485.8,248,482,248.2,477.3z"/>
				<g>
					
						<linearGradient id="SVGID_18_" gradientUnits="userSpaceOnUse" x1="201.5741" y1="251.373" x2="206.2221" y2="255.2047" gradientTransform="matrix(1 0 0 1 0 202)">
						<stop  offset="0" style="stop-color:#E8A476"/>
						<stop  offset="1" style="stop-color:#F1B287"/>
					</linearGradient>
					<path class="st29" d="M193.4,443.9c-0.2,4.1-0.4,7.3-1.2,11.4c1.8,6.3,7.7,10.4,13.5,9.6c5-0.7,6.3-7.5,4.6-11.7
						c-0.2-2-0.3-3.8-0.4-5.8l-12.7-3.7L193.4,443.9z"/>
					
						<linearGradient id="SVGID_19_" gradientUnits="userSpaceOnUse" x1="202.0165" y1="245.1023" x2="201.6165" y2="248.7003" gradientTransform="matrix(1 0 0 1 0 202)">
						<stop  offset="0" style="stop-color:#CF8D61"/>
						<stop  offset="1" style="stop-color:#E8A476"/>
					</linearGradient>
					<path class="st30" d="M193.4,443.9c-0.1,1.2-0.1,2.3-0.2,3.4c5.4,6,12.6,7,17.1,6c-0.2-2-0.3-3.8-0.4-5.8l-12.7-3.7
						L193.4,443.9z"/>
				</g>
				
					<linearGradient id="SVGID_20_" gradientUnits="userSpaceOnUse" x1="204.6963" y1="205.322" x2="189.6902" y2="224.7634" gradientTransform="matrix(1 0 0 1 0 202)">
					<stop  offset="0" style="stop-color:#632E38"/>
					<stop  offset="1" style="stop-color:#48202D"/>
				</linearGradient>
				<path class="st31" d="M191.4,438.9c-3.3,0.6-4.1-0.5-4.8-2.7c-0.8-2.2-0.7-1.6-2.1-3.3c-0.7-0.8-1.1-1.7-1.4-2.5
					c-1-2.8-0.5-4.4-0.5-6.6c-0.1-2.6-1.8-3.4-2.4-5.1c-1.7-4.3,0-10.3,5.4-10.2c0.6-9.2,12.9-6.7,21-3.7c4.8,1.8,8.9,0.8,8.8-2.3
					c4.3,3,4.8,7.2,4.7,9.3c-0.1,4.4-3.7,8.1-6.6,9.4l-13.6,9.7L191.4,438.9z"/>
				<path class="st9" d="M191.4,438.9c-3.3,0.6-4.1-0.5-4.8-2.7c-0.8-2.2-0.7-1.6-2.1-3.3c-0.7-0.8-1.1-1.7-1.4-2.5
					c-1-2.8-0.5-4.4-0.5-6.6v-0.1c2,3.5,6.3,4.2,6.7-0.7c2.1-1.7,3.5-3.8,3.8-6.2c0.4-3.1,1.7-4.8,5.1-3.8c8,2.3,14.6,6.5,21.7-0.2
					c-0.5,4-3.8,7.3-6.5,8.5l-13.6,9.7L191.4,438.9z"/>
				<g>
					
						<linearGradient id="SVGID_21_" gradientUnits="userSpaceOnUse" x1="204.3103" y1="230.3149" x2="210.5246" y2="235.4499" gradientTransform="matrix(1 0 0 1 0 202)">
						<stop  offset="0" style="stop-color:#E8A476"/>
						<stop  offset="1" style="stop-color:#F1B287"/>
					</linearGradient>
					<path class="st32" d="M214.9,420.4c0.6,8.4,1.9,17.1-1.3,25.1c-1.2,2.9-3.1,4.7-7.6,3.8c-3.1-0.7-6.4-2.1-9.3-3.3
						c-4.4-1.8-3.8-3.6-4.5-5.1c-0.3-0.6-0.8-1.3-1.4-2.1c-1.7-2-4.7-3.3-4.8-6.2c-0.1-2.7,1.9-4.1,2.9-2.3c1.4,2.5,4.7,6.9,2.2-6.6
						c2.7-2,3.2-2.8,3.9-5s1.4-3.8,4-2.5C204.2,419,208.8,421.7,214.9,420.4z"/>
					<path class="st11" d="M214.9,420.4c0.1,0.8,0.1,1.7,0.2,2.5c-8.2,1.4-12.3-2.2-17.5-5.5c-1.9,3.2-2.4,4.1-5,6.7
						c0.1,0.9,1,6.1,0.4,8.7c-0.5,2.1-1.6,1.8-2.8,0.5c-0.8-0.8-2.6-4.6-4.1-2.2c0.5-1.6,1.9-2.2,2.8-0.8c1.4,2.5,4.7,6.9,2.2-6.6
						c2.7-2,3.2-2.8,3.9-5s1.4-3.8,4-2.5C204.2,419,208.8,421.7,214.9,420.4z"/>
				</g>
				<g>
					
						<linearGradient id="SVGID_22_" gradientUnits="userSpaceOnUse" x1="212.9619" y1="269.6758" x2="204.4427" y2="277.9821" gradientTransform="matrix(1 0 0 1 0 202)">
						<stop  offset="0" style="stop-color:#105B91"/>
						<stop  offset="1" style="stop-color:#0A3C5F"/>
					</linearGradient>
					<path class="st33" d="M204.5,472.4l0.2,13.4h11.1l-7.9-14.4c1.4-4.3,1-5.2,0.1-5.9c-1-0.7,0-0.8-3.2-0.4
						c-2.1,0.3-4.3,0.5-4,2.8C201.1,469.7,202.6,470.9,204.5,472.4z"/>
					<path class="st13" d="M192.6,452.4c-1.8,0.6-3.2,1.2-3.5,2.4c-1.1,4,5.9,15.4,10.4,16.5c1.5-2.8,2.8-4.5,5.6-6.3
						C197.5,462.7,193.4,459,192.6,452.4z"/>
					<path class="st13" d="M210.3,452.9c1.4,0,2.6,0.5,2.8,0.8c1.9,2.1,2,11.2-1.1,16.4c-2.6-2.6-4.9-4-7.2-5
						C211.5,461,211,457.1,210.3,452.9z"/>
				</g>
			</g>
		</g>
		<g>
			<path class="st14" d="M263.7,394.8c140.5,0-29.8,0,110.8,0c3.4,0,6.2,2.4,6.2,5.3v6c0,2.9-2.8,5.3-6.2,5.3
				c-140.5,0,29.8,0-110.8,0c-3.4,0-6.2-2.4-6.2-5.3v-6C257.6,397.2,260.3,394.8,263.7,394.8z"/>
			<path class="st14" d="M260.9,425.3c75.3,0,41.1,0.1,116.4,0.1c1.8,0,3.3,1.3,3.3,2.9v3.2c0,1.6-1.5,2.9-3.3,2.9
				c-75.3,0-41.1-0.1-116.4-0.1c-1.8,0-3.3-1.3-3.3-2.9v-3.2C257.6,426.6,259,425.3,260.9,425.3z"/>
			<path class="st14" d="M260.9,449.9c75.3,0,41.1,0.1,116.4,0.1c1.8,0,3.3,1.3,3.3,2.9v3.2c0,1.6-1.5,2.9-3.3,2.9
				c-75.3,0-41.1-0.1-116.4-0.1c-1.8,0-3.3-1.3-3.3-2.9v-3.2C257.6,451.2,259,449.9,260.9,449.9z"/>
			<path class="st14" d="M260.9,474.4c75.3,0-16,0.1,59.3,0.1c1.8,0,3.3,1.3,3.3,2.9v3.2c0,1.6-1.5,2.9-3.3,2.9
				c-75.3,0,16-0.1-59.3-0.1c-1.8,0-3.3-1.3-3.3-2.9v-3.2C257.6,475.7,259,474.4,260.9,474.4z"/>
		</g>
	</g>
	<g class="st34">
		<g class="st35">
			<g>
				
					<linearGradient id="SVGID_23_" gradientUnits="userSpaceOnUse" x1="81.0455" y1="-30.2674" x2="87.2783" y2="20.9998" gradientTransform="matrix(1 0 0 1 0 202)">
					<stop  offset="0" style="stop-color:#632E38"/>
					<stop  offset="1" style="stop-color:#48202D"/>
				</linearGradient>
				<path class="st36" d="M113.5,155c-11.7-5-17.6,0.1-22.2,8.5c-4.8,8.7-5.3,13.2-8.6,16.4c-5.5,5.5-12.7,4.4-27.4,5.4
					C29.4,187,28,211.4,35.5,228.8c8.8,20.6,34.2,34.5,54.2,37.2c24.8,3.4,32.3-8.4,33-22.7c0.4-9.4-2.7-15.6-2-19.3
					c3.1-15,16.5-10.4,17.4-27.3c0.5-9.4-8.4-16-7.4-27.9C141.6,147.3,121.2,147.5,113.5,155z"/>
				<path class="st9" d="M34.5,226.1c0.3,0.9,0.7,1.8,1.1,2.7c8.8,20.6,34.2,34.5,54.2,37.2c24.8,3.4,32.3-8.4,33-22.7
					c0.4-9.4-2.7-15.6-2-19.3c3.1-15,16.5-10.4,17.4-27.3c0.5-9.4-8.4-16-7.4-27.9c0.2-0.4,0.4-0.8,0.6-1.2
					c-5.7,1.6-13.4,0.3-21.8-3.8c-2.1,5-1.9,10.5-2.4,16c-5.5-3.1-7.1,0.9-7.5,6.7c-0.6,8.5-0.9,10.5-3.7,11.8
					c-17.5,8.5-19,10.2-33.1,26.7C53,236.8,47.1,234.2,34.5,226.1z"/>
			</g>
			<g>
				<g>
					
						<linearGradient id="SVGID_24_" gradientUnits="userSpaceOnUse" x1="77.55" y1="193.6814" x2="96.1908" y2="221.9879" gradientTransform="matrix(1 0 0 1 0 202)">
						<stop  offset="0" style="stop-color:#CF8D61"/>
						<stop  offset="1" style="stop-color:#E8A476"/>
					</linearGradient>
					<path class="st37" d="M77.8,305c-4.4,12.5-5.5,22.2-5.1,30.6c1,20.7,16.1,38.8,9.5,66.2c-4.9,20.2-26.1,47.1-41.5,62.5
						c-2.8,2.8-4.1,3.5-7.1,5.5c5.2,14.7,7.1,23.6,14.8,37.7c-2.5-12.4-1.7-21.1,2.3-28.5c9.1-17,30.8-27.6,47-46.2
						c11.7-13.3,18.4-32.4,19.3-54.6c1.6-39.1,3.2-49,5.2-70.8L77.8,305z"/>
					<path class="st38" d="M41.9,462.9c-9.6,1.5-12.4,3.6-15.3,10c0.8,3.7,1.3,7.6,3,11l3.1,1c1.2,4.7,0,7.6,1.6,11.8
						c2.7,7.2,8.6,15.4,14.4,21.6c1.7-0.9,1.4-2.5,0.8-5.6c-0.9-5-2.1-9.2-2.4-14.7C44.5,494.8,34.8,475.2,41.9,462.9z"/>
				</g>
				<g>
					<g>
						
							<linearGradient id="SVGID_25_" gradientUnits="userSpaceOnUse" x1="81.261" y1="197.7953" x2="112.6266" y2="282.0843" gradientTransform="matrix(1 0 0 1 0 202)">
							<stop  offset="0" style="stop-color:#E8A476"/>
							<stop  offset="1" style="stop-color:#F1B287"/>
						</linearGradient>
						<path class="st39" d="M70.3,388.5c0.3,12.9-3.4,29-5.7,47.2c-2.5,20.5-3.7,43.2-6.6,56.9c-0.8,3.5-2.1,7.2-3.3,11.5l3.8,8.2
							l42.8,8.2c-19.4-11.5-26-14.1-25.6-26c0.9-24.4,19-62.6,24.3-91.6c3.9-21.5,5.7-44.8,6.5-64.1c0.6-13.9,0.9-28.8,1.4-43.1
							c-10.7-1.6-21.3-3.3-32-5.2c-8.2,19.2-12.1,32.5-12.5,45.4C63,350.3,69.8,369,70.3,388.5z"/>
						
							<linearGradient id="SVGID_26_" gradientUnits="userSpaceOnUse" x1="84.7114" y1="147.6457" x2="63.5938" y2="266.0324" gradientTransform="matrix(1 0 0 1 0 202)">
							<stop  offset="0" style="stop-color:#CF8D61"/>
							<stop  offset="1" style="stop-color:#E8A476"/>
						</linearGradient>
						<path class="st40" d="M70.3,388.5c0.3,12.9-3.4,29-5.7,47.2c-2.5,20.5-3.7,43.2-6.6,56.9c-0.6,2.8-1.5,5.6-2.5,8.8
							c12.3-28.5,14.4-41.2,22.5-86.2c8.7,0.8,11.3,2,18.9,0.8c1.2-4.5,2.3-9,3-13.2c3.9-21.5,5.7-44.8,6.5-64.1
							c0.6-13.9,0.9-28.8,1.4-43.1c-10.7-1.6-21.3-3.3-32-5.2c-8.2,19.2-12.1,32.5-12.5,45.4C63,350.3,69.8,369,70.3,388.5z"/>
					</g>
					<path class="st41" d="M56.5,497.9c-4.6,8.9-4.2,13.5-0.3,19.2c3.5,1.2,7.2,2.9,10.9,3.2l2.5-2.2c4.6,1.4,6.4,4,10.9,4.8
						c7.5,1.4,17.6,0.8,26-0.9c0.1-1.9-1.4-2.5-4.3-3.7c-4.4-1.8-8.4-3.1-12.9-5.4C82.7,511.1,61.8,508.5,56.5,497.9z"/>
				</g>
			</g>
			<g>
				
					<linearGradient id="SVGID_27_" gradientUnits="userSpaceOnUse" x1="125.9528" y1="137.2805" x2="48.18" y2="171.4685" gradientTransform="matrix(1 0 0 1 0 202)">
					<stop  offset="0" style="stop-color:#298BE6"/>
					<stop  offset="1" style="stop-color:#1761A6"/>
				</linearGradient>
				<path class="st42" d="M76,295.7c-6.4,10.5-9.3,13.7-11.6,21.8c-8,28.6,10.3,77.2-4.4,86c3.6,2,8.1,4,13.7,5.4
					c5.7,1.5,36.8,6.5,45.5-1.8c4.4-33,6-66.7,11.3-95.9L76,295.7z"/>
				
					<linearGradient id="SVGID_28_" gradientUnits="userSpaceOnUse" x1="122.4226" y1="129.2499" x2="44.6498" y2="163.4377" gradientTransform="matrix(1 0 0 1 0 202)">
					<stop  offset="0" style="stop-color:#257BCC"/>
					<stop  offset="1" style="stop-color:#1761A6"/>
				</linearGradient>
				<path class="st43" d="M76,295.7c-6.4,10.5-9.3,13.7-11.6,21.8c-8,28.6,10.3,77.2-4.4,86c3.6,2.1,8.2,3.9,13.3,5.3
					c15.7-19.1-4.4-55.8,2.8-85c11.8,4.9,34.1,6.9,52.3,0.7c0.6-4.5,1.3-9,2.1-13.3L76,295.7z"/>
			</g>
			<g>
				<path class="st1" d="M81.9,242.1c-1.7,31.8-0.5,34.2-14.9,64.2c12.1,14,37,19.8,55.7,14.6c10.7-3,13.3-25.7,14.4-38.3
					c1.1-12.2,11.7-64.8-13.5-79.3c-4.4-2.6-15.7-1.6-21.3,1.7C93.1,210.3,83,222.4,81.9,242.1z"/>
				<path class="st44" d="M81.9,242.9c-1.6,31.4-0.7,33.8-14.9,63.4c0.2,0.2,0.4,0.5,0.7,0.8c8.9-6.9,21.1-17.8,26.2-40.3
					c8.8,12.4,25.4,20.5,42.7,21.6c0.3-3,2.3-20.3,3.2-29.5c-9.5-6.7-20.8-30.1-29.4-34.4c-5.8-2.9-14.5,13.6-17.4,10.7
					c-4.6-4.6-4.8-11.1,0.3-22.6C86.9,219.4,82.6,229.7,81.9,242.9z"/>
			</g>
			<g>
				
					<linearGradient id="SVGID_29_" gradientUnits="userSpaceOnUse" x1="203.6535" y1="73.3364" x2="220.9646" y2="78.9766" gradientTransform="matrix(1 0 0 1 0 202)">
					<stop  offset="0" style="stop-color:#E8A476"/>
					<stop  offset="1" style="stop-color:#F1B287"/>
				</linearGradient>
				<path class="st45" d="M192.7,264.5c2.5,1.5,4.8,3,7.2,4.5c4.1,2.5,18-2.6,22.9-1.2c-1.7,3.2-14.5,13.1-17.1,15.8
					c-2.6,2.6-7.6,1.2-11.3,0.1c-4.5-1.4-6.8-2.4-10.8-4c-3.8-1.6-7.8-1-11.9-1l-0.2-11.1c2.3-0.2,4.6-0.3,6.7-0.7
					C182.8,266,187.4,264.1,192.7,264.5z"/>
				<path class="st1" d="M178.3,280c3-3.1,1.9-10.5,0.6-14.6c-13.3,0.2-30.2,2.4-42-4.9c-9.7-6-12.1-16.2-23.3-33.4
					c-5.7-8.8-11-10.9-17.6-7.5c-5.2,2.7-8.3,11.2-5.7,21.1c2.2,8.4,14.1,21.9,21.1,28.6C132.9,289.9,151,282.6,178.3,280z"/>
			</g>
			<g>
				<g>
					<g>
						
							<linearGradient id="SVGID_30_" gradientUnits="userSpaceOnUse" x1="115.9521" y1="-0.4625" x2="118.6069" y2="10.5758" gradientTransform="matrix(1 0 0 1 0 202)">
							<stop  offset="0" style="stop-color:#E8A476"/>
							<stop  offset="1" style="stop-color:#F1B287"/>
						</linearGradient>
						<path class="st46" d="M110.9,193.2c0,6.1-0.1,7.9-1.6,13.8c1.6,6.1,12.4,9.7,15,0.1c-0.9-2.9-0.9-4.9-0.8-7.3l-5-4.5
							L110.9,193.2z"/>
						
							<linearGradient id="SVGID_31_" gradientUnits="userSpaceOnUse" x1="117.7696" y1="-3.8091" x2="116.3312" y2="-0.8638" gradientTransform="matrix(1 0 0 1 0 202)">
							<stop  offset="0" style="stop-color:#CF8D61"/>
							<stop  offset="1" style="stop-color:#E8A476"/>
						</linearGradient>
						<path class="st47" d="M110.9,193.2c0,1.8,0,3.2,0,4.5c1.8,3.4,8.1,8,12.9,7.2c-0.3-1.8-0.3-3.4-0.2-5.1l-5-4.5L110.9,193.2z"
							/>
					</g>
					<g>
						
							<linearGradient id="SVGID_32_" gradientUnits="userSpaceOnUse" x1="121.9622" y1="-19.4411" x2="128.575" y2="-14.4185" gradientTransform="matrix(1 0 0 1 0 202)">
							<stop  offset="0" style="stop-color:#E8A476"/>
							<stop  offset="1" style="stop-color:#F1B287"/>
						</linearGradient>
						<path class="st48" d="M132.9,170.8c0.7,9.8,2.1,17.7-1.4,25.2c-3,6.4-7.6,5.7-12.3,3.4c-4.8-2.4-7.4-3.9-10.6-8
							c-1.2-0.6-2.5-0.7-3.9-2.1c-2-2-3.3-5.7-1.6-8c0.7-1,2.5-0.3,3.6,1.7c1.4,2.5,2.3,0.1,2.3-1.7c0.1-4.9,1.4-7.9,2.4-13
							C117.8,171.6,126.4,175.8,132.9,170.8z"/>
						<path class="st11" d="M132.9,170.8c0.1,1.5,0.2,3,0.4,4.5c-6.6,2.4-13.7,1-20.9-4.5c-1.6,4.5-0.7,8-1.7,11.2
							c-0.8,2.6-1.9,3.8-3.5,3.2c-2.2-0.8-1.9-2.3-4.6-3c0.1-0.3,0.3-0.6,0.5-0.9c0.7-1,2.5-0.3,3.6,1.7c1.4,2.5,2.3,0.1,2.3-1.7
							c0.1-4.9,1.4-7.9,2.4-13C117.8,171.6,126.4,175.8,132.9,170.8z"/>
					</g>
				</g>
				<g>
					<path class="st20" d="M128.6,173.1c-7.4,1.2-19.1-3.5-19.3-10.8c-0.2-6.7,7.4-11.1,13.9-12.3
						C141,146.8,144.9,170.5,128.6,173.1z"/>
					<path class="st9" d="M128.6,173.1c-6.8,1.1-17.2-2.8-19.1-9c0-0.1,0.1-0.2,0.1-0.4c13,6.4,24,5.9,29.2-1.1
						C138.5,167.4,135.3,172,128.6,173.1z"/>
				</g>
			</g>
		</g>
		<g class="st35">
			<g>
				
					<linearGradient id="SVGID_33_" gradientUnits="userSpaceOnUse" x1="545.9117" y1="-49.4337" x2="538.4936" y2="4.9656" gradientTransform="matrix(1 0 0 1 0 202)">
					<stop  offset="0" style="stop-color:#632E38"/>
					<stop  offset="1" style="stop-color:#48202D"/>
				</linearGradient>
				<path class="st49" d="M463.7,187.6c-4.8-7-7.1-15.8-6.4-24.9c1-12.7,8.4-30.3,23.6-29.4c1.8-2.2,3.7-4,5.7-5.4
					c7.8-6.4,21.2-6.2,32.7-1.8c0.6,0.1,1.2,0.4,1.9,0.8c3.1,1.3,6,3,8.6,4.9c35.9,26.7,56.5,25.6,77.5,2.7
					c44.2,58.3,15,126-73.1,110.8C503.7,239.9,477.7,222.3,463.7,187.6z"/>
				<path class="st9" d="M465,166.8c-0.1-0.3-0.2-0.6-0.3-0.9c-0.7-10.1,5.2-19.5,15.5-22.3c0.1,8.1,3.7,13,8.7,23.2
					c4.3,0.2,5.6,1.5,6.2,4c0.2,0.9,0.4,1.7,0.5,2.4c16.2,30.4,123.8,61.5,126.1-11.5c0,1.5,0.8,2.9,2.1,4.2
					c15.2,48.3-17.4,91.8-89.8,79.3c-30.4-5.2-56.4-22.9-70.4-57.6c-1.9-2.7-3.4-5.7-4.4-8.9C463.4,178.7,463.2,174,465,166.8z"/>
			</g>
			<g>
				
					<linearGradient id="SVGID_34_" gradientUnits="userSpaceOnUse" x1="434.8323" y1="291.5231" x2="439.807" y2="312.363" gradientTransform="matrix(1 0 0 1 0 202)">
					<stop  offset="0" style="stop-color:#105B91"/>
					<stop  offset="1" style="stop-color:#0A3C5F"/>
				</linearGradient>
				<path class="st50" d="M460.4,495.5c0.8,4.2,3.4,7.5,3.8,10.6c0.7,5.3-2.4,10.7-8.7,10.8l-41.4,0.4c2.2-14.2,24.3-6.3,31.8-22
					l9.6,0.5L460.4,495.5z"/>
				
					<linearGradient id="SVGID_35_" gradientUnits="userSpaceOnUse" x1="451.8684" y1="177.5209" x2="421.0391" y2="256.8773" gradientTransform="matrix(1 0 0 1 0 202)">
					<stop  offset="0" style="stop-color:#E8A476"/>
					<stop  offset="1" style="stop-color:#F1B287"/>
				</linearGradient>
				<path class="st51" d="M432.2,289.9c-2.4,11.5-4.4,14.6-3.1,28.9l16,178.3c0.1,1.3,3.4,3.5,6.9,3.8c4.1,0.4,8.6-1.4,8.7-4.3
					c1-30.9,4.6-68.6,6.2-93.1c1.6-24.8,6.3-50.6,10.2-76.3c2-13.5,1.2-25,4-41.6l-34.1-1.2L432.2,289.9z"/>
				
					<linearGradient id="SVGID_36_" gradientUnits="userSpaceOnUse" x1="460.1047" y1="155.8471" x2="471.7635" y2="262.5836" gradientTransform="matrix(1 0 0 1 0 202)">
					<stop  offset="0" style="stop-color:#CF8D61"/>
					<stop  offset="1" style="stop-color:#E8A476"/>
				</linearGradient>
				<path class="st52" d="M432.2,289.9c-2.4,11.5-4.4,14.6-3.1,28.9l8.2,92.8c6.6,4.6,9.3,5.9,16.7,8.9c2,39.1,6.4,80.8,6.5,76.2
					c0.9-30.9,4.6-68.6,6.2-93.1c1.6-24.8,6.3-50.6,10.2-76.3c2-13.5,1.2-25,4-41.6l-34.1-1.2L432.2,289.9z"/>
			</g>
			<g>
				
					<linearGradient id="SVGID_37_" gradientUnits="userSpaceOnUse" x1="528.5553" y1="284.2345" x2="531.1323" y2="317.6818" gradientTransform="matrix(1 0 0 1 0 202)">
					<stop  offset="0" style="stop-color:#105B91"/>
					<stop  offset="1" style="stop-color:#0A3C5F"/>
				</linearGradient>
				<path class="st53" d="M542,517.5c-4.3,4.3-5.7,6.1-11.2,6.3c-4.5,0.1-5.9-1.3-8.5-3.8c-2.8-2.8-3.7-4.5-3.6-7
					c0.1-4.7,2.1-8.9,2.5-14.8l8.9,0.7l3.9-2.1c1.7,2.8,5.3,7.8,7.8,12.3C543,511.3,542.5,515.2,542,517.5z"/>
				
					<linearGradient id="SVGID_38_" gradientUnits="userSpaceOnUse" x1="486.6015" y1="170.4739" x2="490.2267" y2="273.0383" gradientTransform="matrix(1 0 0 1 0 202)">
					<stop  offset="0" style="stop-color:#E8A476"/>
					<stop  offset="1" style="stop-color:#F1B287"/>
				</linearGradient>
				<path class="st54" d="M494,290.4c3.4,7.1,9.6,13,13.3,30.6c0.8,3.7,1.3,6.8,1.6,9.7c2.2,17.2,3,33.6,5.8,50.9
					c6.2,38.2,12.6,77.9,19.4,115.4c1.1,5.9-11.4,5.5-12.6,2.6c-12.6-30.4-21.7-61.5-32.9-92.4c-15.4-42.7-34.9-83.6-48.3-124.1
					L494,290.4z"/>
				
					<linearGradient id="SVGID_39_" gradientUnits="userSpaceOnUse" x1="484.4013" y1="154.6343" x2="505.6903" y2="264.2896" gradientTransform="matrix(1 0 0 1 0 202)">
					<stop  offset="0" style="stop-color:#CF8D61"/>
					<stop  offset="1" style="stop-color:#E8A476"/>
				</linearGradient>
				<path class="st55" d="M494,290.4c3.4,7.1,9.6,13,13.3,30.6c0.8,3.7,1.3,6.8,1.6,9.7c2.2,17.2,3,33.6,5.8,50.9
					c6.2,38.2,12.6,77.9,19.4,115.4c1.1,5.9-23-75.5-24.2-78.4c-10,0.8-13,1-17.5-0.7c-1.2-3.5-2.5-7.1-3.8-10.6
					c-15.4-42.7-34.9-83.6-48.3-124.1L494,290.4z"/>
			</g>
			<g>
				<g>
					
						<linearGradient id="SVGID_40_" gradientUnits="userSpaceOnUse" x1="363.7109" y1="-15.0205" x2="366.1253" y2="-20.9509" gradientTransform="matrix(1 0 0 1 0 202)">
						<stop  offset="0" style="stop-color:#E8A476"/>
						<stop  offset="1" style="stop-color:#F1B287"/>
					</linearGradient>
					<path class="st56" d="M379.5,185.9c-0.3-4.4-1.7-4.7-7.5-8.4c-1.2-0.8-2.4-1.8-5-4.9c-1.8,1.5-0.5,3.1,0.8,5.4
						c0.6,1.1,1.3,2.6,1.5,3.7c-5.2-0.3-7-1.3-8.2-2.6c-6.1-6.8-7.2-8-15.1-8c3.7,4.9,6.5,8,8.5,13c1.2,3.1,0.9,2.9,3.1,3.9
						c2.9,1.3,5.4,2.7,8.2,4.1c6.1,3,6,4.5,10,10.2l7.6-4.3C380.7,192.2,380,192.2,379.5,185.9z"/>
					<path class="st57" d="M376.1,190.5c-2.9-6.9-5.4-7.4-14-9.9l-4.8,2.9l4.1-1.5C367.3,184.8,373,184.5,376.1,190.5z"/>
				</g>
				
					<linearGradient id="SVGID_41_" gradientUnits="userSpaceOnUse" x1="402.1413" y1="21.1885" x2="449.7328" y2="-9.1938" gradientTransform="matrix(1 0 0 1 0 202)">
					<stop  offset="0" style="stop-color:#BED2E8"/>
					<stop  offset="1" style="stop-color:#CEE0F3"/>
				</linearGradient>
				<path class="st58" d="M455.8,192.3c-12.9,4.2-22.2,20-30.6,30.9c-10.4,15.4-14.1,6.1-22-3.2c-7.8-9.2-14.5-16.8-21-26.2
					c-2.8-0.1-7.4,1.7-9.7,6.2c7.9,13.8,23.8,53.4,41.6,54c9.2,0.3,22.2-6.5,30.7-17.6C459.4,217.4,462.8,211.4,455.8,192.3z"/>
				<path class="st59" d="M455.9,192.1c-13.6,4.2-15.9,19.6-22.4,35.3c-3.2,7.8-7.7,18-16.5,20.4c-9.6,2.7-18.7-6.6-25.7-13.2
					c6.8,10.5,14.6,19.1,22.8,19.4c9.2,0.3,22.2-6.5,30.7-17.6C459.4,217.4,463,211.3,455.9,192.1z"/>
			</g>
			<g>
				
					<linearGradient id="SVGID_42_" gradientUnits="userSpaceOnUse" x1="401.4784" y1="122.7341" x2="521.3261" y2="168.9596" gradientTransform="matrix(1 0 0 1 0 202)">
					<stop  offset="0" style="stop-color:#105B91"/>
					<stop  offset="1" style="stop-color:#0A3C5F"/>
				</linearGradient>
				<path class="st60" d="M432.2,289.9c-2.4,11.5-4.2,14.6-3.1,28.9l6.6,88.9c10.8,6.1,58.1,11.6,83.9-3.5
					c-3.4-17.9-8.5-56.2-10.6-73.4c-0.4-2.9-0.9-6-1.6-9.7c-3.7-17.6-10-23.5-13.3-30.6l-13.5-1.8c0.1-1,0.3-2,0.5-3l-30.5-1.1
					l-10-1.4c0.4,1.1,0.7,2.1,1.1,3.2L432.2,289.9z"/>
				
					<linearGradient id="SVGID_43_" gradientUnits="userSpaceOnUse" x1="473.16" y1="11.0268" x2="473.5547" y2="94.6733" gradientTransform="matrix(1 0 0 1 0 202)">
					<stop  offset="0" style="stop-color:#31ADCC"/>
					<stop  offset="1" style="stop-color:#198AA6"/>
				</linearGradient>
				<path class="st61" d="M500.9,230c-1.3,22.6-1.8,46.7-0.5,68.8c-24.6,5.3-46.1,5.9-69.8-2.2c1.2-23.6,4.6-54.5,9.1-78.9
					c2-10.9,7-22.8,15.7-25.4c6.2-1.8,13.1-2.6,20-2.3c9,0.4,17.9,1.8,25.9,5.9c5.6,2.8,10.4,8.6,14.8,14.1L500.9,230z"/>
			</g>
			<g>
				
					<linearGradient id="SVGID_44_" gradientUnits="userSpaceOnUse" x1="491.2108" y1="123.3505" x2="429.4144" y2="7.1169" gradientTransform="matrix(1 0 0 1 0 202)">
					<stop  offset="0" style="stop-color:#BED2E8"/>
					<stop  offset="1" style="stop-color:#CEE0F3"/>
				</linearGradient>
				<path class="st62" d="M430.6,373.7c2.9,3,9.2,5.5,17,5.1c-7.2-47.3-5.8-103.5,2.6-150.1c2.4-13.3,5.7-29.2,16.6-35.3
					c6.7-3.8,14.4-3.4,16.2,3.6c0.9,3.2-0.8,8.4-2.1,14.4c-11.5,51.8-4.9,114.9,7.7,168.2c10.1,0.5,25.5-2.6,30.6-8.8
					c-3.7-19.8-9.6-39.5-13.5-59.2c-3.3-16.6-5.3-28.3-5.8-41.2c-0.4-11.2,0-23.3,1-40.4l15.3-20c-4.5-5.4-9.3-11.2-14.8-14.1
					c-8-4.1-16.9-5.5-25.9-5.9c-7-0.3-13.8,0.5-20,2.3c-8.7,2.5-14.1,14.4-16.1,25.4c-3.1,16.9-5.3,36.9-7,55.5
					c-0.5,5.5-2.4,15.9-3.4,26.1c-0.6,6.4-0.7,12.8-0.6,19.2C428.7,336.6,430.1,355.5,430.6,373.7z"/>
				<path class="st59" d="M519.2,370.7c-3.7-19.8-9.6-39.5-13.5-59.2c-3.3-16.6-5.3-28.3-5.8-41.2c-0.4-11.2,0-23.3,1-40.4
					l-2.5-10.6C489.6,238.5,491.5,303.7,519.2,370.7z"/>
			</g>
			<g>
				<g>
					
						<linearGradient id="SVGID_45_" gradientUnits="userSpaceOnUse" x1="463.7274" y1="53.5626" x2="490.3828" y2="103.3602" gradientTransform="matrix(1 0 0 1 0 202)">
						<stop  offset="0" style="stop-color:#257BCC"/>
						<stop  offset="1" style="stop-color:#0E4170"/>
					</linearGradient>
					<path class="st63" d="M447.1,243.4l39.9-7.7c1.8-0.3,3.5,0.8,3.8,2.6l12,62.7c0.3,1.8-0.8,3.5-2.6,3.8l-39.9,7.7
						c-1.8,0.3-3.5-0.8-3.8-2.6l-12-62.7C444.2,245.5,445.3,243.8,447.1,243.4z"/>
					
						<linearGradient id="SVGID_46_" gradientUnits="userSpaceOnUse" x1="455.2863" y1="56.2805" x2="485.4008" y2="97.9949" gradientTransform="matrix(1 0 0 1 0 202)">
						<stop  offset="0" style="stop-color:#105B91"/>
						<stop  offset="1" style="stop-color:#0A3C5F"/>
					</linearGradient>
					<path class="st64" d="M497.8,275l3.5,18.1c-7.8,0.6-15,1.2-22.6,3.1c-4.3,3.2-9.8,5.2-24.1,3.3l-2.2-11.4l11.3,0.2L497.8,275z"
						/>
				</g>
				<g>
					
						<linearGradient id="SVGID_47_" gradientUnits="userSpaceOnUse" x1="466.2793" y1="87.7936" x2="463.7399" y2="80.5267" gradientTransform="matrix(1 0 0 1 0 202)">
						<stop  offset="0" style="stop-color:#E8A476"/>
						<stop  offset="1" style="stop-color:#F1B287"/>
					</linearGradient>
					<path class="st65" d="M451.1,287.4c0.7,4.1,1.2,6.2,2.1,6.9c2.4,1.5,12,1.1,17,0.5c4.5-0.5,6.4-5,9.6-5.1
						c1.9-3.5-2.2-7.9-4.5-10.6c-6.7,2-18.1-0.8-23.7,0.5C448.2,280.4,450.7,285.3,451.1,287.4z"/>
					
						<linearGradient id="SVGID_48_" gradientUnits="userSpaceOnUse" x1="466.7962" y1="91.5716" x2="466.4118" y2="89.1549" gradientTransform="matrix(1 0 0 1 0 202)">
						<stop  offset="0" style="stop-color:#CF8D61"/>
						<stop  offset="1" style="stop-color:#E8A476"/>
					</linearGradient>
					<path class="st66" d="M451.7,290.6c0.4,2.1,0.8,3.2,1.5,3.6c2.4,1.5,12,1.1,17,0.5c4.5-0.5,6.4-5,9.6-5.1
						c1.9-3.5-0.2,0.1-2.5-2.6C470,291.8,462,290.6,451.7,290.6z"/>
				</g>
				<g>
					
						<linearGradient id="SVGID_49_" gradientUnits="userSpaceOnUse" x1="507.1696" y1="73.6861" x2="485.8611" y2="-15.7345" gradientTransform="matrix(1 0 0 1 0 202)">
						<stop  offset="0" style="stop-color:#BED2E8"/>
						<stop  offset="1" style="stop-color:#CEE0F3"/>
					</linearGradient>
					<path class="st67" d="M496,231.2c8.2,10.5,17.2,18.1,15.3,24.3c-3.1,10-17,15.5-39.3,23.6c-1,3.3,1,9.2,5.6,13.3
						c18.7-5,52.2-8.3,58.5-29c3.2-10.7,0.7-29.1-9.8-42.6c-8.5-11-18.6-21.5-24.7-24.8C496,193,490,223.5,496,231.2z"/>
					<path class="st59" d="M478.9,276.6c-2.2,0.8-4.5,1.7-6.9,2.5c-1,3.3,0.6,9.5,5.2,13.6c18.7-5,52.6-8.6,58.9-29.3
						C525.2,281.2,487.3,290.7,478.9,276.6z"/>
				</g>
			</g>
			<g>
				<g>
					
						<linearGradient id="SVGID_50_" gradientUnits="userSpaceOnUse" x1="477.1628" y1="-13.4162" x2="472.5098" y2="-3.0571" gradientTransform="matrix(1 0 0 1 0 202)">
						<stop  offset="0" style="stop-color:#E8A476"/>
						<stop  offset="1" style="stop-color:#F1B287"/>
					</linearGradient>
					<path class="st68" d="M483.6,181.8c-1.2,6.2-1.4,7.9-1,14.1c-2.8,5.8-14.3,7.4-15.1-2.8c1.4-2.7,1.8-4.7,2.1-7.1l5.8-3.5
						L483.6,181.8z"/>
					
						<linearGradient id="SVGID_51_" gradientUnits="userSpaceOnUse" x1="475.5734" y1="-16.5103" x2="475.9613" y2="-12.8626" gradientTransform="matrix(1 0 0 1 0 202)">
						<stop  offset="0" style="stop-color:#CF8D61"/>
						<stop  offset="1" style="stop-color:#E8A476"/>
					</linearGradient>
					<path class="st69" d="M483.6,181.8c-0.3,1.8-1,4.3-1.2,7.6c-2.5,3.1-9.8,4.9-14.5,3.1c1.1-1.9,1.3-6.7,1.3-9l6.3-1.1
						L483.6,181.8z"/>
				</g>
				<g>
					
						<linearGradient id="SVGID_52_" gradientUnits="userSpaceOnUse" x1="483.938" y1="-34.592" x2="468.9362" y2="-35.2568" gradientTransform="matrix(1 0 0 1 0 202)">
						<stop  offset="0" style="stop-color:#E8A476"/>
						<stop  offset="1" style="stop-color:#F1B287"/>
					</linearGradient>
					<path class="st70" d="M465.7,183.8c3.9,3.7,15.6,0.5,20.3-3.6c2.3-0.8,4.4-1.6,5.6-3.6c0.7-1.2,1.7-3,0.8-5
						c-0.5-1.2-2.2-2.2-3.8-0.4c-1,1.1-1.5,0.5-1.8-1.3c-0.8-5.3-9.6-12.6-9.7-21.4c-7.4,2.2-11.9,12.8-12.5,22.7
						C464.4,175.5,463.8,182,465.7,183.8z"/>
					<path class="st11" d="M486.1,180.1c2.3-0.7,4.3-1.6,5.5-3.6c0.7-1.2,1.7-3,0.8-5c-0.5-1.2-2.2-2.2-3.8-0.4
						c-1,1.1-1.5,0.5-1.8-1.3c-0.8-5.3-9.6-12.6-9.7-21.4c-6.8,2-11.1,11-12.2,20.1c3.6-8.6,2.4-10.1,10.1-16.7
						c3,12.1,9,12.9,10.8,19.6c0.7,2.7,1.1,2.3,3.1,0.7c2.7-2,3.4,0.9,2.5,2.8c-0.7,1.5-2.4,2.7-3.7,3.7
						C487.1,179.1,486.6,179.5,486.1,180.1z"/>
				</g>
			</g>
		</g>
	</g>
</g>
<path class="st71" d="M235.6,67.4h2.7c0,0,0.1,0,0.1,0.1v2.8h2.8c0,0,0.1,0,0.1,0.1v2.7c0,0,0,0.1-0.1,0.1h-2.8V76
	c0,0,0,0.1-0.1,0.1h-2.7c0,0-0.1,0-0.1-0.1v-2.8h-2.8c0,0-0.1,0-0.1-0.1v-2.7c0,0,0-0.1,0.1-0.1h2.8L235.6,67.4
	C235.5,67.5,235.5,67.4,235.6,67.4L235.6,67.4z"/>
<path class="st72" d="M236.9,65.5c3.5,0,6.3,2.8,6.3,6.3s-2.8,6.3-6.3,6.3s-6.3-2.8-6.3-6.3l0,0C230.7,68.3,233.5,65.5,236.9,65.5
	L236.9,65.5z M231.5,64.7v-1c0-4.8,5.9-7.3,9.3-3.9c1,1,1.6,2.4,1.6,3.9v2.4c3.1,3,3.2,8,0.2,11.1s-8,3.2-11.1,0.2
	c-2.7-2.6-3.2-6.8-1.1-9.9c1.4-2.1,4-3.6,6.6-3.6c1.3,0,2.5,0.3,3.7,0.9c0-1.4,0-2.6-1.1-3.7c-2.2-2.2-5.9-0.8-6.2,2.2L231.5,64.7z"
	/>
<path class="st71" d="M234.5,292.5h2.7c0,0,0.1,0,0.1,0.1v2.8h2.8c0,0,0.1,0,0.1,0.1v2.7c0,0,0,0.1-0.1,0.1h-2.8v2.8
	c0,0,0,0.1-0.1,0.1h-2.7c0,0-0.1,0-0.1-0.1v-2.8h-2.8c0,0-0.1,0-0.1-0.1v-2.7c0,0,0-0.1,0.1-0.1h2.8L234.5,292.5
	C234.4,292.5,234.4,292.5,234.5,292.5L234.5,292.5z"/>
<path class="st72" d="M235.8,290.5c3.5,0,6.3,2.8,6.3,6.3s-2.8,6.3-6.3,6.3s-6.3-2.8-6.3-6.3l0,0
	C229.5,293.3,232.3,290.5,235.8,290.5L235.8,290.5z M230.4,289.7v-1c0-4.8,5.8-7.3,9.3-3.9c1,1,1.6,2.4,1.6,3.9v2.4
	c3.1,3,3.2,8,0.2,11.1s-8,3.2-11.1,0.2c-2.7-2.6-3.2-6.8-1.1-9.9c1.4-2.1,4-3.6,6.6-3.6c1.3,0,2.5,0.3,3.7,0.9c0-1.4,0-2.6-1.1-3.7
	c-2.2-2.2-5.9-0.8-6.2,2.2L230.4,289.7z"/>
<path class="st71" d="M234.5,406.7h2.7c0,0,0.1,0,0.1,0.1v2.8h2.8c0,0,0.1,0,0.1,0.1v2.7c0,0,0,0.1-0.1,0.1h-2.8v2.8
	c0,0,0,0.1-0.1,0.1h-2.7c0,0-0.1,0-0.1-0.1v-2.8h-2.8c0,0-0.1,0-0.1-0.1v-2.7c0,0,0-0.1,0.1-0.1h2.8L234.5,406.7
	C234.4,406.8,234.4,406.7,234.5,406.7L234.5,406.7z"/>
<path class="st72" d="M235.8,404.7c3.5,0,6.3,2.8,6.3,6.3s-2.8,6.3-6.3,6.3s-6.3-2.8-6.3-6.3l0,0
	C229.5,407.5,232.3,404.7,235.8,404.7L235.8,404.7z M230.4,403.9v-1c0-4.8,5.8-7.3,9.3-3.8c1,1,1.6,2.4,1.6,3.8v2.4
	c3.1,3,3.2,8,0.2,11.1s-8,3.2-11.1,0.2c-2.7-2.6-3.2-6.8-1.1-9.9c1.4-2.2,4-3.6,6.6-3.6c1.3,0,2.5,0.3,3.7,0.9c0-1.4,0-2.6-1.1-3.7
	c-2.2-2.2-5.9-0.8-6.2,2.2L230.4,403.9z"/>
</svg>
