<svg id="Layer_1" data-name="Layer 1" xmlns="http://www.w3.org/2000/svg" viewBox="0 0 170.38 231.94"><title>mymedcreds_logo</title><path d="M235.45,184.18h29.1a1,1,0,0,1,1,1v30.09h30.09a1,1,0,0,1,1,1v29.1a1,1,0,0,1-1,1H265.53V276.4a1,1,0,0,1-1,1h-29.1a1,1,0,0,1-1-1V246.31H204.38a1,1,0,0,1-1-1v-29.1a1,1,0,0,1,1-1h30.09V185.16a1,1,0,0,1,1-1Z" transform="translate(-164.81 -84.03)" style="fill:#26b2fc;fill-rule:evenodd"/><path d="M250,162.58a68.2,68.2,0,1,1-68.2,68.2,68.19,68.19,0,0,1,68.2-68.2Zm-59.22-8.43V143.28c0-52.17,63.6-79.29,101.06-41.83a59.08,59.08,0,0,1,17.38,41.83v26.27a85.19,85.19,0,1,1-130.69,14.87c15.17-23.34,43.58-38.83,71.47-38.83a84.73,84.73,0,0,1,39.84,9.88c.24-15.15.45-28.06-11.76-40.27-24.16-24.16-64.22-8.31-67.62,23.69Z" transform="translate(-164.81 -84.03)" style="fill:#005c9e;fill-rule:evenodd"/></svg>