<svg id="Layer_1" data-name="Layer 1" xmlns="http://www.w3.org/2000/svg" viewBox="0 0 420.91 571.37"><defs><style>.cls-1{fill:#005c9d;}.cls-1,.cls-2,.cls-3{fill-rule:evenodd;}.cls-2{fill:#fff;}.cls-3{fill:#26b2fc;}</style></defs><title>logo-locked</title><path class="cls-1" d="M288.36,53.42c-16.24.52-31.65,4.15-45.9,12.18A94,94,0,0,0,213,91.8a116,116,0,0,0-17.14,33.86,120.57,120.57,0,0,0-3.73,14.11c-.25,1.29-.37,2.61-.69,3.88-1.85,7.19-5.85,12.76-12.49,16.25a19,19,0,0,1-15.49,1.32c-6.16-2.12-10.05-6.57-12.07-12.68A22.8,22.8,0,0,1,151,135.3c1.63-6.1,3.24-12.21,5.13-18.24A175,175,0,0,1,177,72.69,139.6,139.6,0,0,1,213.13,35,128.75,128.75,0,0,1,260,14.36c4.76-1,9.55-1.84,14.39-2.41s9.83-.84,14.77-1c.46,0,.92,0,1.31,0,.91,0,1.88,0,3.33,0a45.52,45.52,0,0,1,4.77.11c.78.07,1.57.15,2.36.17a121.19,121.19,0,0,1,12.18,1.15,132.24,132.24,0,0,1,21.74,4.8,129,129,0,0,1,53.43,32.21,151.61,151.61,0,0,1,28.2,39.09,194.86,194.86,0,0,1,16.16,45q2.38,10.29,3.82,20.77c.56,4.1.93,8.24,1.34,12.36.72,7.15,1,14.32,1.07,21.5,0,5.8-.1,11.59-.15,17.39s-.06,11.59-.13,17.39a3.58,3.58,0,0,0,1.13,2.79,201.49,201.49,0,0,1,15.56,17.61,208,208,0,0,1,37.45,74.27,202.77,202.77,0,0,1,5,23.74c.81,5.34,1.42,10.7,1.76,16.09.39,6.12.77,12.23.59,18.36-.18,5.79-.43,11.57-1,17.35A210.86,210.86,0,0,1,494,423.26,205.17,205.17,0,0,1,471.9,477.8,208.74,208.74,0,0,1,402.41,550a205.84,205.84,0,0,1-62.23,26.4c-5.62,1.37-11.3,2.49-17,3.4-3.57.56-7.18.92-10.77,1.33a197.2,197.2,0,0,1-27.81,1.09c-3.55-.09-7.1-.36-10.65-.64-3.21-.24-6.42-.54-9.62-.92q-4.32-.51-8.59-1.24a216.91,216.91,0,0,1-22.12-5A209.4,209.4,0,0,1,85.68,416.09q-1.91-9.09-3-18.31c-.42-3.52-.65-7.07-.94-10.62a202.8,202.8,0,0,1-.27-24.28c.16-4.34.58-8.68,1-13s1-8.63,1.75-12.91a200.73,200.73,0,0,1,7.14-28.91A210.06,210.06,0,0,1,227.13,173.18a198.06,198.06,0,0,1,27.18-6.65c4.74-.81,9.48-1.56,14.27-2,3.21-.27,6.43-.5,9.64-.78a192.23,192.23,0,0,1,19.94-.28c3.29.07,6.57.37,9.85.64,3.09.25,6.17.52,9.24.91,3.65.48,7.3,1,10.92,1.66a212.23,212.23,0,0,1,26,6.47,209.66,209.66,0,0,1,37,15.83,3.58,3.58,0,0,0,2.08.79,8.78,8.78,0,0,0,.23-1.31c0-6.52.15-13,0-19.56A150.29,150.29,0,0,0,392,151.22c-2.24-16-6.64-31.4-14.28-45.75a100.34,100.34,0,0,0-25.06-31,91.41,91.41,0,0,0-37.62-18.39,109.86,109.86,0,0,0-13.82-2.23c-2.49-.26-5-.32-7.5-.45M455.64,374.64a166.07,166.07,0,0,0-165.22-166c-91.14-.34-166,73.22-166.58,164.64a164.49,164.49,0,0,0,48.6,118.49c32.26,31.9,71.31,48,116.68,48.65A166,166,0,0,0,455.64,374.64Z" transform="translate(-81.22 -10.91)"/><path class="cls-2" d="M455.64,374.64A166,166,0,0,1,289.12,540.38c-45.37-.69-84.42-16.75-116.68-48.65a164.49,164.49,0,0,1-48.6-118.49c.63-91.42,75.44-165,166.58-164.64A166.07,166.07,0,0,1,455.64,374.64ZM324.73,409.29a6.12,6.12,0,0,1,2.42-.2q24.11,0,48.22,0a43.86,43.86,0,0,0,8.63-.79,34.71,34.71,0,0,0,18.85-10.05,26.1,26.1,0,0,0,7.54-18.55c0-3.16,0-6.33,0-9.48a25.41,25.41,0,0,0-2.18-10.16,29.46,29.46,0,0,0-11.5-13,37.21,37.21,0,0,0-20.22-5.76c-13.18,0-26.35,0-39.52,0H326.48c-.58,0-1.15-.08-1.67-.11a5.68,5.68,0,0,1-.35-2.86q0-24.19,0-48.41a40.69,40.69,0,0,0-1-9.4,35,35,0,0,0-8-15.69c-5.53-6.12-12.31-9.54-20.71-9.36-3,.06-5.93,0-8.89,0a25.11,25.11,0,0,0-3.36.13,26.13,26.13,0,0,0-12.44,5.17,32.59,32.59,0,0,0-10.44,13.88,38.64,38.64,0,0,0-2.86,15q0,24.11,0,48.21c0,.73,0,1.45,0,2.17a6.28,6.28,0,0,1-.34,1.19l-2.61,0H205a38.77,38.77,0,0,0-12.42,2,33,33,0,0,0-16.18,11.15A24.26,24.26,0,0,0,171,369c-.09,4.28-.07,8.56,0,12.84a22.94,22.94,0,0,0,3.15,10.69,29.38,29.38,0,0,0,8.84,9.71,36.84,36.84,0,0,0,21.68,6.81c16.27.08,32.54,0,48.81,0,.66,0,1.32,0,2,0a8.18,8.18,0,0,1,1.1.2,7.39,7.39,0,0,1,.22,2.65q0,24.3,0,48.61a39.64,39.64,0,0,0,1.25,10.35,34.32,34.32,0,0,0,9.27,16.27,25.78,25.78,0,0,0,18.85,7.73c3.22,0,6.45,0,9.68,0a19.86,19.86,0,0,0,2.56-.11,26.41,26.41,0,0,0,14.19-6.38,33.47,33.47,0,0,0,9.32-13.53,39.21,39.21,0,0,0,2.53-14.3q0-24,0-48c0-.72,0-1.45,0-2.17A6.51,6.51,0,0,1,324.73,409.29Z" transform="translate(-81.22 -10.91)"/><path class="cls-3" d="M324.73,409.29a6.51,6.51,0,0,0-.24,1.1c-.05.72,0,1.45,0,2.17q0,24,0,48a39.17,39.17,0,0,1-2.53,14.3,33.38,33.38,0,0,1-9.32,13.53,26.44,26.44,0,0,1-14.18,6.39,20,20,0,0,1-2.57.1c-3.23,0-6.45,0-9.68,0a25.74,25.74,0,0,1-18.84-7.73,34.24,34.24,0,0,1-9.27-16.27,40.08,40.08,0,0,1-1.26-10.35q0-24.31,0-48.61a7.4,7.4,0,0,0-.23-2.65,8.18,8.18,0,0,0-1.1-.2c-.66,0-1.32,0-2,0-16.27,0-32.54.05-48.81,0A37,37,0,0,1,183,402.26a29.57,29.57,0,0,1-8.84-9.71A22.88,22.88,0,0,1,171,381.86c-.09-4.28-.12-8.57,0-12.85a24.35,24.35,0,0,1,5.42-14.55,33.06,33.06,0,0,1,16.18-11.15,38.81,38.81,0,0,1,12.42-2h48.81l2.61,0a6.42,6.42,0,0,0,.34-1.18c0-.72,0-1.45,0-2.18q0-24.1,0-48.21a38.82,38.82,0,0,1,2.86-15,32.59,32.59,0,0,1,10.45-13.88,26.06,26.06,0,0,1,12.43-5.17,25.11,25.11,0,0,1,3.36-.13c3,0,5.93,0,8.89,0,8.4-.17,15.18,3.24,20.71,9.37a34.86,34.86,0,0,1,8,15.68,40.15,40.15,0,0,1,1,9.4q0,24.21,0,48.42a5.76,5.76,0,0,0,.34,2.85c.52,0,1.1.11,1.67.11H337c13.17,0,26.34,0,39.52,0a37.24,37.24,0,0,1,20.23,5.76,29.43,29.43,0,0,1,11.49,13,25.59,25.59,0,0,1,2.19,10.16c0,3.16,0,6.32,0,9.48a26.19,26.19,0,0,1-7.54,18.55A34.73,34.73,0,0,1,384,408.31a43.72,43.72,0,0,1-8.63.79q-24.12,0-48.22,0A6.12,6.12,0,0,0,324.73,409.29Z" transform="translate(-81.22 -10.91)"/><path class="cls-1" d="M289.59,53.44c-2.5.13-5,.19-7.49.45a109.56,109.56,0,0,0-13.82,2.23,91.35,91.35,0,0,0-37.62,18.39,100.23,100.23,0,0,0-25.07,31c-7.64,14.35-12,29.71-14.27,45.75a149.94,149.94,0,0,0-1.45,17.71c-.14,6.52,0,13,0,19.56a7.79,7.79,0,0,0,.22,1.31,3.58,3.58,0,0,0,2.08-.79,208.61,208.61,0,0,1,63-22.3c3.62-.66,7.27-1.18,10.92-1.66,3.06-.39,6.15-.66,9.23-.92,3.28-.26,6.56-.57,9.85-.63a189.48,189.48,0,0,1,19.94.28l9.65.78c4.78.41,9.52,1.16,14.26,2a197.11,197.11,0,0,1,27.19,6.65A210.09,210.09,0,0,1,492,308.07,201.19,201.19,0,0,1,499.09,337c.73,4.27,1.29,8.59,1.76,12.9s.88,8.66,1,13a203,203,0,0,1-.28,24.29c-.29,3.54-.51,7.09-.94,10.62q-1.11,9.21-3,18.31a205.43,205.43,0,0,1-14.5,44A209.91,209.91,0,0,1,349.74,574.41a219.61,219.61,0,0,1-22.12,5c-2.85.49-5.72.9-8.59,1.24-3.2.37-6.41.67-9.63.92-3.54.27-7.09.55-10.64.64A197.2,197.2,0,0,1,271,581.11c-3.59-.41-7.2-.77-10.77-1.34q-8.58-1.35-17-3.39A206.31,206.31,0,0,1,180.93,550a208.83,208.83,0,0,1-69.49-72.17,205.54,205.54,0,0,1-22-54.55,210.51,210.51,0,0,1-5.14-30.13c-.56-5.78-.81-11.56-1-17.35-.19-6.13.19-12.25.58-18.36.34-5.39,1-10.76,1.76-16.09a208.73,208.73,0,0,1,42.48-98,203.17,203.17,0,0,1,15.55-17.62,3.61,3.61,0,0,0,1.14-2.79c-.07-5.79-.09-11.59-.14-17.39s-.19-11.59-.15-17.38c0-7.18.36-14.35,1.07-21.5.42-4.13.78-8.26,1.35-12.37q1.44-10.46,3.81-20.77a195.52,195.52,0,0,1,16.17-45,151.72,151.72,0,0,1,28.2-39.09,129.11,129.11,0,0,1,53.42-32.21,133.36,133.36,0,0,1,21.75-4.79,118.14,118.14,0,0,1,12.17-1.15c.79,0,1.58-.11,2.37-.17a45.46,45.46,0,0,1,4.77-.11c1.45,0,2.42,0,3.32,0,.4,0,.86,0,1.32,0,4.93.19,9.85.45,14.77,1a142.35,142.35,0,0,1,14.38,2.41A128.8,128.8,0,0,1,370.22,35,139.42,139.42,0,0,1,406.37,72.7a174.49,174.49,0,0,1,20.83,44.37c1.89,6,3.49,12.14,5.12,18.24a22.64,22.64,0,0,1-.38,13.24c-2,6.11-5.9,10.56-12.07,12.68a19,19,0,0,1-15.49-1.32c-6.63-3.49-10.64-9.06-12.48-16.25-.33-1.27-.44-2.59-.69-3.88a122.74,122.74,0,0,0-3.73-14.12,116.53,116.53,0,0,0-17.14-33.85,93.76,93.76,0,0,0-29.46-26.2c-14.25-8-29.66-11.66-45.9-12.18m-.75,487c45.36-.69,84.41-16.75,116.67-48.65a164.49,164.49,0,0,0,48.6-118.49c-.63-91.42-75.43-165-166.58-164.64a165.89,165.89,0,0,0,1.31,331.78Z" transform="translate(-81.22 -10.91)"/></svg>