<?xml version="1.0" encoding="utf-8"?>
<!-- Generator: Adobe Illustrator 23.0.4, SVG Export Plug-In . SVG Version: 6.00 Build 0)  -->
<svg version="1.1" id="Layer_1" xmlns="http://www.w3.org/2000/svg" xmlns:xlink="http://www.w3.org/1999/xlink" x="0px" y="0px"
	 viewBox="0 0 550 550" style="enable-background:new 0 0 550 550;" xml:space="preserve">
<style type="text/css">
	.st0{fill-rule:evenodd;clip-rule:evenodd;fill:url(#SVGID_1_);}
	.st1{opacity:0.15;fill-rule:evenodd;clip-rule:evenodd;fill:#2190DF;enable-background:new    ;}
	.st2{fill-rule:evenodd;clip-rule:evenodd;fill:#08365B;}
	.st3{fill-rule:evenodd;clip-rule:evenodd;fill:url(#SVGID_2_);}
	.st4{fill-rule:evenodd;clip-rule:evenodd;fill:#401D29;}
	.st5{opacity:0.3;fill-rule:evenodd;clip-rule:evenodd;fill:#6BA4F6;enable-background:new    ;}
	.st6{fill-rule:evenodd;clip-rule:evenodd;fill:url(#SVGID_3_);}
	.st7{opacity:0.5;fill-rule:evenodd;clip-rule:evenodd;fill:url(#SVGID_4_);enable-background:new    ;}
	.st8{fill-rule:evenodd;clip-rule:evenodd;fill:url(#SVGID_5_);}
	.st9{opacity:0.3;fill-rule:evenodd;clip-rule:evenodd;fill:url(#SVGID_6_);enable-background:new    ;}
	.st10{fill-rule:evenodd;clip-rule:evenodd;fill:url(#SVGID_7_);}
	.st11{opacity:0.5;fill-rule:evenodd;clip-rule:evenodd;fill:url(#SVGID_8_);enable-background:new    ;}
	.st12{fill-rule:evenodd;clip-rule:evenodd;fill:url(#SVGID_9_);}
	.st13{opacity:0.3;fill-rule:evenodd;clip-rule:evenodd;fill:#0A3C5F;enable-background:new    ;}
	.st14{fill-rule:evenodd;clip-rule:evenodd;fill:url(#SVGID_10_);}
	.st15{opacity:0.3;fill-rule:evenodd;clip-rule:evenodd;fill:url(#SVGID_11_);enable-background:new    ;}
	.st16{fill-rule:evenodd;clip-rule:evenodd;fill:url(#SVGID_12_);}
	.st17{fill-rule:evenodd;clip-rule:evenodd;fill:#EFAF83;}
	.st18{fill-rule:evenodd;clip-rule:evenodd;fill:url(#SVGID_13_);}
	.st19{opacity:0.36;fill-rule:evenodd;clip-rule:evenodd;fill:url(#SVGID_14_);enable-background:new    ;}
	.st20{fill-rule:evenodd;clip-rule:evenodd;fill:url(#SVGID_15_);}
	.st21{opacity:0.36;fill-rule:evenodd;clip-rule:evenodd;fill:url(#SVGID_16_);enable-background:new    ;}
	.st22{fill-rule:evenodd;clip-rule:evenodd;fill:url(#SVGID_17_);}
	.st23{fill-rule:evenodd;clip-rule:evenodd;fill:url(#SVGID_18_);}
	.st24{fill-rule:evenodd;clip-rule:evenodd;fill:url(#SVGID_19_);}
	.st25{fill-rule:evenodd;clip-rule:evenodd;fill:url(#SVGID_20_);}
	.st26{fill-rule:evenodd;clip-rule:evenodd;fill:url(#SVGID_21_);}
	.st27{fill-rule:evenodd;clip-rule:evenodd;fill:#DA9569;}
	.st28{fill-rule:evenodd;clip-rule:evenodd;fill:url(#SVGID_22_);}
	.st29{fill-rule:evenodd;clip-rule:evenodd;fill:#48202D;}
	.st30{fill-rule:evenodd;clip-rule:evenodd;fill:#146298;}
	.st31{fill-rule:evenodd;clip-rule:evenodd;fill:#E3EFFF;}
	.st32{fill-rule:evenodd;clip-rule:evenodd;fill:#BDD1E7;}
	.st33{opacity:0.5;fill-rule:evenodd;clip-rule:evenodd;fill:#BDD1E7;enable-background:new    ;}
	.st34{fill-rule:evenodd;clip-rule:evenodd;fill:url(#SVGID_23_);}
	.st35{fill-rule:evenodd;clip-rule:evenodd;fill:url(#SVGID_24_);}
	.st36{fill-rule:evenodd;clip-rule:evenodd;fill:url(#SVGID_25_);}
	.st37{fill-rule:evenodd;clip-rule:evenodd;fill:url(#SVGID_26_);}
	.st38{opacity:0.35;fill-rule:evenodd;clip-rule:evenodd;fill:#BDD1E7;enable-background:new    ;}
	.st39{fill-rule:evenodd;clip-rule:evenodd;fill:url(#SVGID_27_);}
	.st40{fill-rule:evenodd;clip-rule:evenodd;fill:url(#SVGID_28_);}
	.st41{fill-rule:evenodd;clip-rule:evenodd;fill:#CCE4FF;}
	.st42{fill-rule:evenodd;clip-rule:evenodd;fill:#FFFFFF;}
	.st43{opacity:0.5;fill-rule:evenodd;clip-rule:evenodd;fill:#CCE4FF;enable-background:new    ;}
</style>
<linearGradient id="SVGID_1_" gradientUnits="userSpaceOnUse" x1="394.8932" y1="320.0021" x2="371.5276" y2="175.802" gradientTransform="matrix(1 0 0 -1 0 550)">
	<stop  offset="0" style="stop-color:#105B91"/>
	<stop  offset="1" style="stop-color:#0A3C5F"/>
</linearGradient>
<path class="st0" d="M500.1,206.9H281.6c-5,0-9.4,4.1-9.8,9.1l-11.5,157.1c-0.4,5,3.4,9.1,8.5,9.1h218.5c5,0,9.4-4.1,9.8-9.1
	L508.5,216C508.9,211,505.1,206.9,500.1,206.9z"/>
<ellipse transform="matrix(0.7071 -0.7071 0.7071 0.7071 -95.6632 358.1204)" class="st1" cx="384.5" cy="294.5" rx="85" ry="85"/>
<ellipse transform="matrix(0.7071 -0.7071 0.7071 0.7071 -95.7135 358.1379)" class="st1" cx="384.5" cy="294.6" rx="64.4" ry="64.4"/>
<path class="st2" d="M486.7,362.9h-282c-5.3,0-9.7,4.3-9.7,9.7l0,0c0,5.3,4.3,9.7,9.7,9.7h282c5.3,0,9.7-4.3,9.7-9.7l0,0
	C496.4,367.2,492,362.9,486.7,362.9z"/>
<ellipse transform="matrix(0.9571 -0.2898 0.2898 0.9571 -68.8558 124.0522)" class="st1" cx="384.5" cy="294.5" rx="39.4" ry="39.4"/>
<g>
	
		<linearGradient id="SVGID_2_" gradientUnits="userSpaceOnUse" x1="310.9912" y1="410.537" x2="314.4759" y2="373.0327" gradientTransform="matrix(1 0 0 -1 0 550)">
		<stop  offset="0" style="stop-color:#632E38"/>
		<stop  offset="1" style="stop-color:#48202D"/>
	</linearGradient>
	<path class="st3" d="M357.9,180.1c-12.4,2.2-16.1,2.6-30.8,9.7c-19.8,9.6-29.2,4.3-44.9-7.2c-12.2-9-18.9-5.8-25.8-2.3
		c-2.8,1.4-4.3,2.1-7.6,1.1c-2.9-0.8-5.3-2.9-6.8-5.7c-4.1-7.8-1.3-13.4,0.9-19.6c8.2-23.4,37.7-18.3,58.4-17.1
		c10,0.6,22-0.9,25.9-17.9c1.2-7.7,7-10.5,13.1-10.1c6.5-1.3,12.7-3.7,19-3.2c15.1,1.2,24.7,17.6,25.3,31.7c0.4,10.8-3,21.4-8,26.3
		c6.1-11.7,6.4-20.8,3.9-27.6c1.9,9.2,0.9,19.1-3.9,27.2C371.3,174.8,367.8,178.3,357.9,180.1L357.9,180.1z M243.8,157.3
		c7.7-14.1,24.8-16.7,39.4-15.9c4.1,0.2,12.8,0.8,21.4-0.1C285.4,141,254.2,132.8,243.8,157.3z"/>
	<path class="st4" d="M336.5,121.7c-0.2,3.9,4.1,9.6,6.7,12.6c6,7.1,8.5,8.3,11.5,15c2.7-4.5,5.5-3.6,6.6-1.2c1.3,2.7,1,8,1,10.2
		c0.6,13.1,15.1,5.1,18.7-5.5c-1.8,8.9-6.5,24.3-23.2,27.3c-12.4,2.2-16.1,2.6-30.8,9.7c-19.8,9.6-29.2,4.3-44.9-7.2
		c-13.2-9.7-19.9-5.2-27.5-1.4c-2.5,1.2-7.1,0.9-10.4-2.4c7.3,3,11.4-13.3,29.5-12.9c7.8,0.2,18.8,7.2,29.2,10.2
		c11,3.1,21.7-7.4,23.1-19.4C327.1,147.6,326.8,134.2,336.5,121.7z"/>
</g>
<g>
	<ellipse class="st5" cx="275" cy="508.7" rx="262.3" ry="13.6"/>
	<ellipse class="st5" cx="275" cy="508.7" rx="246.6" ry="6.6"/>
</g>
<g>
	<g>
		<g>
			
				<linearGradient id="SVGID_3_" gradientUnits="userSpaceOnUse" x1="151.9845" y1="52.16" x2="155.7903" y2="66.3718" gradientTransform="matrix(1 0 0 -1 0 550)">
				<stop  offset="0" style="stop-color:#002041"/>
				<stop  offset="1" style="stop-color:#004975"/>
			</linearGradient>
			<path class="st6" d="M129.6,477.8c-0.9,4.6-3.7,8.1-4.2,11.5c-0.8,5.8,2.6,11.7,9.5,11.7l45.1,0.4c-2.4-15.4-26.5-6.9-34.6-23.9
				l-10.5,0.6L129.6,477.8z"/>
			
				<linearGradient id="SVGID_4_" gradientUnits="userSpaceOnUse" x1="139.8501" y1="65.9862" x2="134.4215" y2="75.1743" gradientTransform="matrix(1 0 0 -1 0 550)">
				<stop  offset="0" style="stop-color:#002041"/>
				<stop  offset="1" style="stop-color:#004975"/>
			</linearGradient>
			<path class="st7" d="M129.6,477.8c-0.3,1.5-0.8,2.9-1.4,4.2c4.2,2.9,12.4,4.9,21.8,1.7c-1.8-1.6-3.4-3.6-4.6-6.2l-10.5,0.6
				L129.6,477.8z"/>
		</g>
		<g>
			
				<linearGradient id="SVGID_5_" gradientUnits="userSpaceOnUse" x1="213.0448" y1="203.7084" x2="131.4392" y2="177.7999" gradientTransform="matrix(1 0 0 -1 0 550)">
				<stop  offset="0" style="stop-color:#105B91"/>
				<stop  offset="1" style="stop-color:#0A3C5F"/>
			</linearGradient>
			<path class="st8" d="M162,280.7c1.8,11,2.1,22.5,1.9,36.2c-0.6,51.6-11.1,110.2-16.6,161.7c-7.4,2.8-13.2,2.7-19.4,0.2
				c-0.9-29.9-2.3-61.1-3.9-90.6c-2-37.2-6.6-66.2-15.1-112.6l40.6-20.8L162,280.7z"/>
			
				<linearGradient id="SVGID_6_" gradientUnits="userSpaceOnUse" x1="163.7747" y1="134.9216" x2="129.4752" y2="200.2647" gradientTransform="matrix(1 0 0 -1 0 550)">
				<stop  offset="0" style="stop-color:#105B91"/>
				<stop  offset="1" style="stop-color:#0A3C5F"/>
			</linearGradient>
			<path class="st9" d="M126.1,281.3c1.2,7.1,34.6-16.1,37.1,2.5c0.9,7,0.9,14.5,0.6,22.5c-17.9,64.5-30.1,126.2-35.8,172.5
				c-0.9-29.9-2.4-61-4-90.5c-1.7-32.5-5.5-58.9-12.1-96.1L126.1,281.3z"/>
		</g>
	</g>
	<g>
		
			<linearGradient id="SVGID_7_" gradientUnits="userSpaceOnUse" x1="79.2658" y1="54.1477" x2="84.2891" y2="62.0916" gradientTransform="matrix(1 0 0 -1 0 550)">
			<stop  offset="0" style="stop-color:#002041"/>
			<stop  offset="1" style="stop-color:#004975"/>
		</linearGradient>
		<path class="st10" d="M62.5,472.2c-2.2,4.1-6,6.6-7.4,9.7c-2.5,5.3-1,11.9,5.6,14l42.9,13.8c2.3-15.4-23.2-14.4-25.9-33.1
			l-10.2-2.6L62.5,472.2z"/>
		
			<linearGradient id="SVGID_8_" gradientUnits="userSpaceOnUse" x1="70.5751" y1="67.9245" x2="67.8549" y2="79.4664" gradientTransform="matrix(1 0 0 -1 0 550)">
			<stop  offset="0" style="stop-color:#002041"/>
			<stop  offset="1" style="stop-color:#004975"/>
		</linearGradient>
		<path class="st11" d="M62.5,472.2c-0.7,1.3-1.6,2.5-2.5,3.6c3.2,4,10.3,8.4,20.3,8.1c-1.3-2-2.2-4.4-2.6-7.3l-10.2-2.6L62.5,472.2
			z"/>
	</g>
	
		<linearGradient id="SVGID_9_" gradientUnits="userSpaceOnUse" x1="200.0702" y1="205.8766" x2="67.2994" y2="164.8215" gradientTransform="matrix(1 0 0 -1 0 550)">
		<stop  offset="0" style="stop-color:#105B91"/>
		<stop  offset="1" style="stop-color:#0A3C5F"/>
	</linearGradient>
	<path class="st12" d="M152,293.8c-1.5,11.1-4.7,22.1-9,35.2C127.1,378,99.6,430.8,79,478.4c-7.9,0.5-13.4-1.4-18.5-5.6l26.8-123.4
		c13.4-61.6-4.7-71.8,60.5-83.9L152,293.8z"/>
	<path class="st13" d="M119.9,300.2c-9,53.2-37.1,123.7-59.2,172.5l26.1-121.3l4.1-21c1.6-10.7,3.1-28.5,5.5-35.3
		C106.8,264.4,123.1,280.8,119.9,300.2z"/>
</g>
<g>
	
		<linearGradient id="SVGID_10_" gradientUnits="userSpaceOnUse" x1="364.4489" y1="263.7016" x2="404.5439" y2="244.7378" gradientTransform="matrix(1 0 0 -1 0 550)">
		<stop  offset="0" style="stop-color:#105B91"/>
		<stop  offset="1" style="stop-color:#0A3C5F"/>
	</linearGradient>
	<path class="st14" d="M399.2,260.3c8,9.9,11.4,12.7,14.9,20.7c3.7,8.6,5.2,19.6,5.9,30.7c-6.4,13.1-19.9,22.2-35.5,22.2
		c-11.1,0-21.1-4.6-28.2-11.9c-3.2-13.4-6.6-26.3-10.5-38.3L399.2,260.3z"/>
	
		<linearGradient id="SVGID_11_" gradientUnits="userSpaceOnUse" x1="366.0384" y1="272.5067" x2="408.1344" y2="254.643" gradientTransform="matrix(1 0 0 -1 0 550)">
		<stop  offset="0" style="stop-color:#105B91"/>
		<stop  offset="1" style="stop-color:#0A3C5F"/>
	</linearGradient>
	<path class="st15" d="M399.2,260.3c8,9.9,11.4,12.7,14.9,20.7c3.7,8.6,5.2,19.6,5.9,30.7c-2.8,5.8-7.1,10.9-12.2,14.6
		c0.1-12.8-0.2-25.9-4.6-37.3c-11.4,6.7-33.9,11.8-53.3,7.9c-1.3-4.5-2.6-9-4-13.3L399.2,260.3z"/>
</g>
<linearGradient id="SVGID_12_" gradientUnits="userSpaceOnUse" x1="350.0733" y1="336.9621" x2="380.1307" y2="277.9712" gradientTransform="matrix(1 0 0 -1 0 550)">
	<stop  offset="0" style="stop-color:#31ADCC"/>
	<stop  offset="1" style="stop-color:#198AA6"/>
</linearGradient>
<path class="st16" d="M385.8,206.4c4,21.5,2.3,30.8,8.1,42.5c2.9,5.8,8.8,12.3,15.9,21c-10.4,15.9-35.1,25.3-54.9,22.5
	c-11.4-1.6-17.1-24.4-20-37.1c-2.8-12.4-20.9-64.5,2.9-82.9c4.2-3.2,15.8-3.8,22-1.2C369.9,175.5,381.9,186.5,385.8,206.4z"/>
<g>
	<g>
		<g>
			<path class="st17" d="M248.9,227.5c7.2,3.5,10.5,3.9,18.4,5.1l4.6,4.1c0.8,2.6,1.5,5.2,2.3,7.9c-3.5,0.7-4.1-0.6-5.8-2.9
				c-0.7-0.9-2.2-2-3.2-3.3c-3.9-0.1-9.1,3-13.8,5.7c-2.7-0.4-2.1-2.3-4-4c-1.1-1-2.8-2-3.8-2.7L248.9,227.5z"/>
			<path class="st17" d="M275,249.3c1.8,3.3-14.2,7.3-15.1,6.2c-1.4-1.6-1.5-5.3,0.6-6.2c2-0.9,5.4,0.3,7-0.1
				C268.5,249,272.8,245.2,275,249.3z"/>
		</g>
		
			<linearGradient id="SVGID_13_" gradientUnits="userSpaceOnUse" x1="191.1273" y1="394.1277" x2="208.8546" y2="319.9138" gradientTransform="matrix(1 0 0 -1 0 550)">
			<stop  offset="0" style="stop-color:#105B91"/>
			<stop  offset="1" style="stop-color:#0A3C5F"/>
		</linearGradient>
		<path class="st18" d="M167,157.6c17.4,44.9,39.4,57.4,84.1,70.2c-0.9,5.4-1.5,7.4-4.1,12.6c-42-4.4-71.9-10.3-88.6-42.6L167,157.6
			z"/>
		
			<linearGradient id="SVGID_14_" gradientUnits="userSpaceOnUse" x1="187.9017" y1="415.0251" x2="206.488" y2="309.0655" gradientTransform="matrix(1 0 0 -1 0 550)">
			<stop  offset="0" style="stop-color:#105B91"/>
			<stop  offset="1" style="stop-color:#0A3C5F"/>
		</linearGradient>
		<path class="st19" d="M167,157.6c4.5,11.7,9.4,21.3,14.9,29.2c3.4,4.8,2.8,42.7,65,53.7c-42-4.4-71.9-10.3-88.6-42.6L167,157.6z"
			/>
	</g>
	
		<linearGradient id="SVGID_15_" gradientUnits="userSpaceOnUse" x1="126.3734" y1="341.6945" x2="152.2471" y2="238.2008" gradientTransform="matrix(1 0 0 -1 0 550)">
		<stop  offset="0" style="stop-color:#105B91"/>
		<stop  offset="1" style="stop-color:#0A3C5F"/>
	</linearGradient>
	<path class="st20" d="M168.4,161.4c19.9,41,13.3,83.6,4.6,116.1c-2.8,10.6-6.9,21.6-12.4,33.3c-4.8,10.3-7.8,12.8-18.8,10.2
		c-26.6-6.4-44.4-18.5-50.5-26.5c7.9-13.8,17.5-28.8,19.6-46.7c2.4-20.4,2.1-41.2,7.4-58.4c5-16.2,13.1-29.4,26.9-40
		C157,158.3,151.9,158.7,168.4,161.4z"/>
	
		<linearGradient id="SVGID_16_" gradientUnits="userSpaceOnUse" x1="117.8657" y1="394.881" x2="135.0349" y2="253.1534" gradientTransform="matrix(1 0 0 -1 0 550)">
		<stop  offset="0" style="stop-color:#105B91"/>
		<stop  offset="1" style="stop-color:#0A3C5F"/>
	</linearGradient>
	<path class="st21" d="M175.1,269.5c-0.9,2.8-1.4,5.7-2.2,8.4c-2,6.6-4.3,13-6.8,19.8c-21.7-0.2-45.1-18.2-51.2-23.4
		c-5,8.1-12.8,16.9-22,22c-0.6-0.6-1.1-1.2-1.5-1.8c7.9-13.8,17.5-28.8,19.6-46.7c2.4-20.4,2.1-41.2,7.4-58.4
		c0.5-1.7,1.1-3.3,1.6-4.9l31.9,0C141.5,234.6,145.8,242.7,175.1,269.5z"/>
	
		<linearGradient id="SVGID_17_" gradientUnits="userSpaceOnUse" x1="191.0422" y1="256.833" x2="198.9346" y2="255.7863" gradientTransform="matrix(1 0 0 -1 0 550)">
		<stop  offset="0" style="stop-color:#E8A476"/>
		<stop  offset="1" style="stop-color:#F1B287"/>
	</linearGradient>
	<path class="st22" d="M176.7,279.1c6.8,1.9,9.1,1.1,11,1.5c1.4,0.3,2.4,1.9,5.1,4.1c4.3,3.5,5.3,4.1,5,6.3
		c-0.8,5.3-4.1,11-5.7,13.5c-1.2,1.9-5.3,0.1-9-1.9c-8-4.2-6-7.6-13.7-12.4L176.7,279.1z"/>
	
		<linearGradient id="SVGID_18_" gradientUnits="userSpaceOnUse" x1="130.1153" y1="344.8927" x2="157.3749" y2="235.8556" gradientTransform="matrix(1 0 0 -1 0 550)">
		<stop  offset="0" style="stop-color:#105B91"/>
		<stop  offset="1" style="stop-color:#0A3C5F"/>
	</linearGradient>
	<path class="st23" d="M116.6,191.7c-12.2,32-18.9,57.7,18.5,84.4c7.4,5.3,23.2,15,37,16.6c5.9-4.5,6.8-9.8,7.4-13.6
		c-48-25.7-51.6-41.4-27.7-86.9c4.5-8.7,1.1-19.5-7.7-24C127.4,159.6,121,180.3,116.6,191.7z"/>
	
		<linearGradient id="SVGID_19_" gradientUnits="userSpaceOnUse" x1="166.6207" y1="329.5494" x2="167.0014" y2="359.8736" gradientTransform="matrix(1 0 0 -1 0 550)">
		<stop  offset="0" style="stop-color:#BED2E8"/>
		<stop  offset="1" style="stop-color:#CEE0F3"/>
	</linearGradient>
	<polygon class="st24" points="164.7,164.7 169,166.3 171.8,177.1 174.8,202.8 174.1,229.3 170.6,213.6 159.2,174.5 162.6,166.3 	
		"/>
	<g>
		
			<linearGradient id="SVGID_20_" gradientUnits="userSpaceOnUse" x1="160.2148" y1="405.416" x2="157.2348" y2="399.1245" gradientTransform="matrix(1 0 0 -1 0 550)">
			<stop  offset="0" style="stop-color:#CF8D61"/>
			<stop  offset="1" style="stop-color:#E8A476"/>
		</linearGradient>
		<path class="st25" d="M170.1,147.1c-2.8,4.5-6.1,8.6-5.8,16.2l-21.8-8.8c5.1-4,10.9-13.2,13.1-20l9.3,6.2L170.1,147.1z"/>
		<g>
			<g>
				
					<linearGradient id="SVGID_21_" gradientUnits="userSpaceOnUse" x1="180.697" y1="407.9564" x2="184.9574" y2="398.0051" gradientTransform="matrix(1 0 0 -1 0 550)">
					<stop  offset="0" style="stop-color:#E8A476"/>
					<stop  offset="1" style="stop-color:#F1B287"/>
				</linearGradient>
				<path class="st26" d="M191.2,117.9c2,7.2-0.3,21-5.6,30c-1.8,3-3.9,6.9-6.6,7.2c-3,0.3-6.4-1.8-11.8-4.7
					c-7.8-4.3-6.1-5.8-7.2-15.1l0.1-20.3l20.5-8.5L191.2,117.9z"/>
				<path class="st27" d="M191.2,117.9c0.3,1.1,0.5,2.4,0.6,3.7c-2.8,0.4-4.4,0.2-8.8-2.1c-2.1,4.4-9,14.8-13.8,11.2
					c-0.9-0.6-1.4-2.4-2.2-3.5c-0.9-1.3-2.8-1.6-3.1,1.1c-0.7,7.4,0.6,9.4-3.4,13c-0.2-1.6-0.2-3.6-0.6-6.2l0.1-20.3l20.5-8.5
					L191.2,117.9z"/>
			</g>
			<g>
				
					<linearGradient id="SVGID_22_" gradientUnits="userSpaceOnUse" x1="181.8545" y1="452.6645" x2="162.7503" y2="424.1778" gradientTransform="matrix(1 0 0 -1 0 550)">
					<stop  offset="0" style="stop-color:#632E38"/>
					<stop  offset="1" style="stop-color:#48202D"/>
				</linearGradient>
				<path class="st28" d="M182.3,117.2c12.3,6.9,17.5-0.6,17-8c-0.6-9.2-9.9-19-22.4-10c-4.4-5-6.8-5.3-11.8-0.1
					c-9.1-6.4-16.4,1.1-17.5,10.6c-1,8.7,2.8,16,5,24c0.7,2.4,1.2,4.8,1.4,7.3c3.5,0.3,4.7-0.7,6.2-2.7c1-1.4,1.4-7.5,2.5-11.1
					c0.8-2.7,3.4-4,5.4-1.1c0.6,0.9,0.6,2.3,1.4,4C177,128.8,178.7,123.3,182.3,117.2z"/>
				<path class="st29" d="M182.3,117.2c12.3,6.9,17.5-0.6,17-8c0-0.1,0-0.2,0-0.4c-2.6,5.1-7,7-12.3,4.6c-5.9-2.6-7.8-2.9-11.9,4.2
					c-2.2,3.7-3.5,6.1-5.7,4.4c-4.8-3.6-8.7-2.4-11.4,4c-1.3,3.2-3.5,5-6.1,5c0.3,0.9,0.5,1.8,0.8,2.7c0.7,2.4,0.7,4.9,0,7.5
					c10.4,0.9,8.1-7.3,10.1-14c0.8-2.7,3.4-4,5.4-1.1c0.6,0.9,0.6,2.3,1.4,4C177,128.8,178.7,123.3,182.3,117.2z"/>
			</g>
		</g>
	</g>
	<path class="st30" d="M165,154.1c5.8,5.9,8.3,12.1,10.8,23.6l-2.4,0.8l3.5,4.2c-1.4,18.1-2.1,35.8-2.9,53.9
		c-1.2-26.3-2.5-51.7-11.2-77.2L165,154.1z"/>
	<path class="st31" d="M148.3,144.7c-2.3,4.5-3.7,3.3-1.2,7.9c5.1,9.2,10.4,16,14,26.3c2.7-2,4.3-3.9,5.7-7.2
		c0.7-1.6,0.9-2.9,0.8-4.1C166.5,159,154.5,149.9,148.3,144.7z"/>
	<path class="st30" d="M145.6,146.3c20.3,29.6,24.6,42.5,29.3,93.4c-4.1-26.6-10.9-37.7-21.3-62l1.3-7.9l-5.7,1.2
		c-4.8-9.3-3.2-8.6-10.3-16.5C141,151.1,143.2,149.4,145.6,146.3z"/>
</g>
<g>
	<g>
		<rect x="462.2" y="405.5" class="st32" width="23.2" height="104.3"/>
		<rect x="255.9" y="405.5" class="st32" width="23.2" height="104.3"/>
	</g>
	<g>
		<rect x="462.2" y="382" class="st33" width="23.2" height="52.8"/>
		<rect x="255.9" y="382" class="st33" width="23.2" height="52.8"/>
	</g>
	<rect x="236.5" y="382" class="st32" width="268.2" height="33.8"/>
</g>
<linearGradient id="SVGID_23_" gradientUnits="userSpaceOnUse" x1="385.9716" y1="150.2413" x2="372.6128" y2="345.2919" gradientTransform="matrix(1 0 0 -1 0 550)">
	<stop  offset="0" style="stop-color:#BED2E8"/>
	<stop  offset="1" style="stop-color:#CEE0F3"/>
</linearGradient>
<path class="st34" d="M416.2,279.8c3.7,8.6,7.7,21.1,10.8,31.6c-6,12.1-16.6,20.5-28.1,24.6c-2.7-19-7.7-27.4-21.7-46
	c-16.4-21.8-25-35.5-28.5-52.6c-6.9-32.9,0.9-42.5,5.2-57.1c1.6-5.3-1.7-8.7-4.3-9.2c-4.6-0.9-13.9-0.4-16,13.5
	c-2.1,14.1,1.2,52.7,10.9,80.7c8.2,23.6,20.6,43.1,22.3,70c-4.1-2-7.7-5-10.6-8.8c-2.7-23.2-15.4-46.4-16.7-54.3
	c-2-5.9-3.5-12.1-4.6-16.8c-2.8-12.4-20.9-64.5,2.9-82.9c4.2-3.2,15.8-3.8,22-1.2c10.1,4.2,22.1,15.2,26,35.2
	c4.2,22.5,2,36.4,17.5,55.1C407.9,267.1,413,272.5,416.2,279.8z"/>
<g>
	<g>
		
			<linearGradient id="SVGID_24_" gradientUnits="userSpaceOnUse" x1="346.5441" y1="380.4863" x2="343.8085" y2="369.112" gradientTransform="matrix(1 0 0 -1 0 550)">
			<stop  offset="0" style="stop-color:#E8A476"/>
			<stop  offset="1" style="stop-color:#F1B287"/>
		</linearGradient>
		<path class="st35" d="M351.8,161c0,6.3,0.1,8.1,1.7,14.2c-1.7,6.3-12.8,10-15.5,0.1c0.9-3,0.9-5,0.8-7.5l5.1-4.6L351.8,161z"/>
		
			<linearGradient id="SVGID_25_" gradientUnits="userSpaceOnUse" x1="344.6835" y1="383.9091" x2="346.1656" y2="380.8743" gradientTransform="matrix(1 0 0 -1 0 550)">
			<stop  offset="0" style="stop-color:#CF8D61"/>
			<stop  offset="1" style="stop-color:#E8A476"/>
		</linearGradient>
		<path class="st36" d="M351.8,161c0,1.9,0,3.3,0,4.6c-1.9,3.5-8.3,8.3-13.3,7.4c0.3-1.9,0.3-3.5,0.2-5.2l5.1-4.6L351.8,161z"/>
	</g>
	<g>
		
			<linearGradient id="SVGID_26_" gradientUnits="userSpaceOnUse" x1="338.7676" y1="400.2274" x2="333.2015" y2="394.7801" gradientTransform="matrix(1 0 0 -1 0 550)">
			<stop  offset="0" style="stop-color:#E8A476"/>
			<stop  offset="1" style="stop-color:#F1B287"/>
		</linearGradient>
		<path class="st37" d="M330.6,163.8c3.1,6.6,7.8,5.9,12.7,3.5c5-2.5,7.6-4,11-8.3c1.2-0.7,2.6-0.8,4-2.2c2-2.1,3.3-5.8,1.7-8.3
			c-0.7-1.1-2.5-0.3-3.7,1.8c-1.9,4.4-5-2.6-9.8-9.5c-4.4-6.3-10.2-10.3-10.8-14.2C330.7,130.8,326.9,155.8,330.6,163.8z"/>
		<path class="st27" d="M335,130.4c1.7,2.6,5.1,6,8.7,10.3c3.4,4.1,7.1,9.3,9.3,12.1c0.8,1,3,0.6,3.8-0.8c1.7-3.1,3.7-1.3,1.5,4.9
			c2-2.1,3.3-5.8,1.7-8.3c-0.7-1.1-2.5-0.3-3.7,1.8c-1.9,4.4-5-2.6-9.8-9.5c-4.4-6.3-10.2-10.3-10.8-14.2c-2.2,1.9-4.2,8-5.4,15
			C332.3,135.9,333.2,132.5,335,130.4z"/>
	</g>
</g>
<path class="st38" d="M385.9,207.2c2.8,15.1,3.2,23.5,5.1,31.2c0.7,2.6,1.5,5.1,2.6,7.7c0.5,1.2,1.1,2.5,1.8,3.8c2,3.7,5.1,8,9,13.1
	c4.3,5.1,8.9,10.2,11.8,16.9c3.7,8.6,7.7,21.1,10.8,31.6c-2.3,4.6-5.2,8.6-8.6,12.1c-11.9-55.7-32.7-52.4-41.5-90.3
	c-7.3,13.8-23.2,24.5-40.6,28c-0.4-1.5-1.7-6.8-3.2-12.8c-5-20,23-15.4,38-35.1c4-5.3,5.7-24.3-1-35.4
	C377.5,183.9,383.3,193.8,385.9,207.2z"/>
<g>
	
		<linearGradient id="SVGID_27_" gradientUnits="userSpaceOnUse" x1="262.8323" y1="301.9696" x2="248.3171" y2="296.0282" gradientTransform="matrix(1 0 0 -1 0 550)">
		<stop  offset="0" style="stop-color:#E8A476"/>
		<stop  offset="1" style="stop-color:#F1B287"/>
	</linearGradient>
	<path class="st39" d="M267.5,234.4c-7,4.2-13,8.8-20.9,10.9c1.8,3.3,4.8,6,7.6,8.7c2.7,2.7,6.4,2,10.2,0.8
		c4.6-1.4,8.3-3.2,12.5-4.9c3.9-1.6,8.1-1,12.3-1l0.2-11.4c-2.4-0.2-4.7-0.3-6.8-0.7C277.7,236,273,234,267.5,234.4z"/>
	
		<linearGradient id="SVGID_28_" gradientUnits="userSpaceOnUse" x1="318.6329" y1="273.4648" x2="330.3613" y2="347.1268" gradientTransform="matrix(1 0 0 -1 0 550)">
		<stop  offset="0" style="stop-color:#BED2E8"/>
		<stop  offset="1" style="stop-color:#CEE0F3"/>
	</linearGradient>
	<path class="st40" d="M282.3,250.4c-3.1-3.2-2-10.8-0.6-15c13.7,0.2,31.1,2.5,43.2-5.1c10-6.2,12.5-16.7,24-34.4
		c5.9-9.1,11.3-11.2,18.1-7.7c5.3,2.8,8.6,11.6,5.9,21.8c-2.3,8.6-14.5,22.6-21.7,29.5C329.2,260.5,310.5,253,282.3,250.4z"/>
</g>
<g>
	<rect x="220.7" y="41" class="st41" width="83" height="52.9"/>
	<rect x="223.2" y="43.5" class="st42" width="78" height="47.8"/>
	<g>
		<g>
			<polygon class="st41" points="233.7,53.5 238.5,48.7 239.8,48.7 233.7,58.3 225.8,45.7 227,45.7 			"/>
			<rect x="240.9" y="54.1" class="st41" width="57.7" height="4.1"/>
		</g>
		<g>
			<polygon class="st41" points="233.7,67.9 238.5,63 239.8,63 233.7,72.6 225.8,60 227,60 			"/>
			<rect x="240.9" y="68.5" class="st41" width="57.7" height="4.1"/>
		</g>
		<rect x="240.9" y="81.3" class="st41" width="57.7" height="4.1"/>
	</g>
</g>
<path class="st43" d="M450.3,24.2c7.6,0,14.3,7,19.2,18.3c1.3,3.1,2.5,6.5,3.5,10.1c3.8-0.4,7.4-0.5,10.7-0.4
	c12.3,0.5,21.3,4.3,24,11.4l0.1,0.2c2.5,7-1.6,15.8-10.4,24.2c-0.8,0.8-1.6,1.5-2.5,2.3c0.7,0.9,1.3,1.9,1.9,2.8
	c6.7,10.1,8.9,19.4,5,25.8v0l-0.2,0.3c-1.4,2.1-3.3,3.6-5.7,4.8v0.1c0,3.1-2.6,5.7-5.7,5.7c-2.5,0-4.5-1.5-5.3-3.7
	c-2.8,0-5.9-0.3-9.1-0.9c-1.5-0.3-3-0.6-4.5-1c-0.5,1.5-1.1,3-1.7,4.3c-4.8,11.3-11.6,18.3-19.2,18.3c-7.6,0-14.3-7-19.2-18.3
	c-1.3-3.1-2.5-6.5-3.5-10.1c-3.8,0.4-7.4,0.5-10.7,0.4c-12.3-0.5-21.3-4.3-24-11.4l-0.1-0.2c-2.5-7,1.6-15.8,10.4-24.2
	c0.8-0.8,1.6-1.5,2.5-2.3c-0.7-0.9-1.3-1.9-1.9-2.8c-6.8-10.2-8.9-19.8-4.8-26.1l0.1-0.1c2.3-3.4,6.2-5.4,11.1-6.3
	c0.6-2.6,2.8-4.4,5.6-4.4c2.7,0,5,1.9,5.6,4.4c1.1,0.1,2.3,0.3,3.5,0.5c1.5,0.3,3,0.6,4.5,1c0.5-1.5,1.1-2.9,1.7-4.3
	C435.9,31.3,442.7,24.2,450.3,24.2L450.3,24.2z M421.5,47.8c-0.5,2.6-2.8,4.6-5.6,4.6c-2.8,0-5.1-2-5.6-4.6
	c-4.2,0.8-7.4,2.5-9.2,5.3v0c-3.6,5.5-1.5,14,4.8,23.4c0.6,0.8,1.2,1.7,1.8,2.5c4.8-3.9,10.5-7.7,17-11.2c0.9-6.8,2.3-13.1,4-18.7
	c-1.4-0.4-2.8-0.7-4.2-0.9C423.5,48.1,422.5,47.9,421.5,47.8L421.5,47.8z M490.1,118.4c2.3,0,4.2,1.3,5.2,3.3
	c1.8-0.9,3.2-2.1,4.2-3.7l0,0c3.6-5.5,1.5-14-4.8-23.4c-0.6-0.8-1.2-1.7-1.8-2.5c-4.8,3.9-10.5,7.7-17,11.2
	c-0.9,6.8-2.3,13.1-4,18.7c1.4,0.4,2.8,0.7,4.2,0.9c3,0.5,5.8,0.8,8.3,0.9C484.6,120.7,487.1,118.4,490.1,118.4L490.1,118.4z
	 M473.5,55.1c1.3,5.1,2.2,10.6,2.8,16.5c6.8,5.5,12.6,11.3,17,17c0.8-0.7,1.5-1.4,2.3-2.1c8.2-7.9,12-15.8,9.7-21.9l0,0
	c-2.3-6.1-10.5-9.4-21.8-9.8C480.4,54.6,477,54.7,473.5,55.1L473.5,55.1z M476.6,74.9c0.3,3.5,0.4,7,0.4,10.7c0,5.1-0.3,10-0.8,14.7
	c5.8-3.2,10.9-6.7,15.2-10.2C487.5,85,482.5,79.9,476.6,74.9L476.6,74.9z M427,116.1c-1.3-5.1-2.2-10.6-2.8-16.5
	c-6.8-5.5-12.6-11.3-17-17c-0.8,0.7-1.5,1.4-2.3,2.1c-8.2,7.9-12,15.8-9.7,21.9v0c2.3,6.1,10.5,9.4,21.8,9.8
	C420.2,116.5,423.5,116.4,427,116.1L427,116.1z M424,96.2c-0.3-3.5-0.4-7-0.4-10.7c0-5.1,0.3-10,0.8-14.7
	c-5.8,3.2-10.9,6.7-15.2,10.2C413,86.1,418,91.3,424,96.2L424,96.2z M429.4,115.8c4.6-0.5,9.5-1.5,14.6-2.8
	c-2.8-1.6-5.6-3.3-8.5-5.2c0,0,0,0,0,0c-3-2-5.9-4.1-8.7-6.2C427.5,106.7,428.3,111.4,429.4,115.8L429.4,115.8z M447.4,112.1
	c3.8-1.1,7.7-2.4,11.6-3.9h0c5.2-2,10.2-4.2,14.7-6.6c0.6-5.1,0.9-10.5,0.9-16.1c0-4.4-0.2-8.7-0.6-12.8c-3.2-2.6-6.7-5.1-10.4-7.5
	c0,0,0,0,0,0c-3.5-2.3-7-4.4-10.5-6.2c-3.8,1.1-7.7,2.4-11.6,3.9h0c-5.2,2-10.2,4.2-14.7,6.6c-0.6,5.1-0.9,10.5-0.9,16.1
	c0,4.4,0.2,8.7,0.6,12.8c3.2,2.6,6.7,5.1,10.4,7.5c0,0,0,0,0,0C440.4,108.2,443.9,110.3,447.4,112.1L447.4,112.1z M471.1,55.3
	c-4.6,0.6-9.5,1.5-14.6,2.8c2.8,1.6,5.6,3.3,8.5,5.2c0,0,0,0,0,0c3,2,5.9,4.1,8.7,6.2C473.1,64.4,472.2,59.7,471.1,55.3L471.1,55.3z
	 M427.3,66.5c4.2-2.1,8.8-4.2,13.5-6h0c3.2-1.2,6.3-2.3,9.4-3.2c-6.6-3.4-13.1-5.9-19.1-7.6C429.4,54.8,428.1,60.5,427.3,66.5
	L427.3,66.5z M450.4,113.7c6.6,3.4,13.1,5.9,19.1,7.6c1.6-5,2.9-10.7,3.8-16.8c-4.2,2.1-8.8,4.2-13.5,6h0
	C456.7,111.7,453.5,112.8,450.4,113.7L450.4,113.7z M450.3,65.4c-11.1,0-20.1,9-20.1,20.1s9,20.1,20.1,20.1s20.1-9,20.1-20.1
	C470.4,74.4,461.4,65.4,450.3,65.4L450.3,65.4z M431.8,47.5c6.8,1.9,14.2,4.9,21.7,8.9c5.9-1.6,11.7-2.8,17-3.4
	c-1-3.4-2-6.6-3.3-9.5c-4.4-10.4-10.4-16.9-17-16.9s-12.5,6.4-17,16.9C432.8,44.8,432.3,46.1,431.8,47.5L431.8,47.5z M468.8,123.6
	c-6.8-1.9-14.2-4.9-21.7-8.9c-5.9,1.6-11.7,2.8-17,3.4c1,3.4,2,6.6,3.3,9.5c4.4,10.4,10.4,16.9,17,16.9s12.5-6.5,17-16.9
	C467.8,126.3,468.3,125,468.8,123.6z"/>
</svg>
