<?xml version="1.0" encoding="utf-8"?>
<!-- Generator: Adobe Illustrator 24.1.0, SVG Export Plug-In . SVG Version: 6.00 Build 0)  -->
<svg version="1.1" id="Layer_1" xmlns="http://www.w3.org/2000/svg" xmlns:xlink="http://www.w3.org/1999/xlink" x="0px" y="0px"
	 viewBox="0 0 1000 500" style="enable-background:new 0 0 1000 500;" xml:space="preserve">
<style type="text/css">
	.st0{opacity:0.3;fill:#9EACB9;}
	.st1{fill:url(#XMLID_2_);}
	.st2{fill:url(#XMLID_3_);}
	.st3{fill:url(#XMLID_4_);}
	.st4{fill:url(#XMLID_5_);}
	.st5{fill:url(#XMLID_6_);}
	.st6{fill:url(#XMLID_7_);}
	.st7{fill:url(#XMLID_8_);}
	.st8{fill:url(#XMLID_9_);}
	.st9{fill:url(#XMLID_10_);}
	.st10{fill:url(#XMLID_11_);}
	.st11{fill:url(#XMLID_12_);}
	.st12{fill:url(#XMLID_13_);}
	.st13{fill:url(#XMLID_14_);}
	.st14{fill:url(#XMLID_15_);}
	.st15{fill:url(#XMLID_16_);}
	.st16{fill:url(#XMLID_17_);}
	.st17{fill:url(#XMLID_18_);}
	.st18{fill:url(#XMLID_19_);}
	.st19{fill:url(#XMLID_20_);}
	.st20{fill:url(#XMLID_21_);}
	.st21{fill:url(#XMLID_22_);}
	.st22{fill:url(#XMLID_23_);}
	.st23{fill:url(#XMLID_24_);}
	.st24{fill:url(#XMLID_25_);}
	.st25{fill:url(#XMLID_26_);}
	.st26{fill:url(#XMLID_27_);}
	.st27{fill:url(#XMLID_28_);}
	.st28{fill:url(#XMLID_29_);}
	.st29{fill:url(#XMLID_30_);}
	.st30{fill:url(#XMLID_31_);}
	.st31{fill:url(#XMLID_32_);}
	.st32{fill:url(#XMLID_33_);}
</style>
<path id="XMLID_2352_" class="st0" d="M591.54,369.83l208.01-87.5c48.67,9.4,103.98,6.62,130.91-7.82
	c30.55-16.39,10.91-40.62-39.74-54.25c-44.95-12.11-102.16-12.52-135.76-1.58l-206.35-65.5c32.44-10.13,30.24-25.24-2.36-33.85
	c-31.3-8.26-81.14-7.93-113.7,0.74c-33.58,8.94-38.28,23.88-8.36,33.61l-192,49.53c-31.86-8.62-84.69-7.19-127.52,4.22
	c-49.98,13.32-70.82,36.04-42.73,50.82c27.36,14.4,89.02,15.15,139.59,2.4l194.79,106.62c-54.4,23.58-64.25,64.01-14.76,91.24
	c54.29,29.87,151.41,29.24,208.45-1.36C639.24,430.73,636.33,393.1,591.54,369.83z M581.64,365.2c-0.12-0.05-0.23-0.11-0.35-0.16
	c-28.34-11.84-64.81-16.86-100.17-15.48l-31.25-68.46c30.52,0.38,61.66-4,84.62-12.88c16.79-6.49,26.36-14.32,29.06-22.18
	l167.39,5.32c5.97,8.65,19.95,17.26,41.61,24.19c4.81,1.53,9.81,2.93,14.96,4.18L581.64,365.2z M541.63,155.13l206.31,66.13
	c-16.69,6.97-22.99,16.26-19.31,25.83l-164.28-5.16c0.39-9.97-10.26-19.63-31.27-26.58c-15.72-5.2-35.09-8.17-55.13-9.02
	l16.03-45.11C511.1,160.65,527.79,158.61,541.63,155.13z M430.77,155.58c14.97,3.84,33.98,5.78,53.45,5.79l-16.85,44.71
	c-26.04-0.14-53.1,3.22-74.87,10.18c-16.67,5.33-27.99,12.05-33.57,19.2l-101.46-3.19c6.26-9.64,1.43-19.02-15.24-25.75
	c-0.97-0.39-1.97-0.77-2.99-1.13L430.77,155.58z M254.28,236.22l102.14,3.24c-4.91,10.4,2.12,21.36,22.67,29.77
	c15.43,6.32,35.91,10.14,57.97,11.41l30.29,69.78c-21.01,1.82-41.66,5.97-60.02,12.5L212.05,257.73c0.54-0.16,1.09-0.32,1.62-0.48
	C233.48,251.09,247.14,243.68,254.28,236.22z"/>
<linearGradient id="XMLID_2_" gradientUnits="userSpaceOnUse" x1="387.3069" y1="496.6502" x2="535.5975" y2="51.7782">
	<stop  offset="0" style="stop-color:#434041"/>
	<stop  offset="0.9968" style="stop-color:#FFFFFF"/>
</linearGradient>
<path id="XMLID_2351_" class="st1" d="M487.84,234.7c21.9,0,39.65-17.75,39.65-39.65c0-21.9-17.75-39.65-39.65-39.65
	c-21.9,0-39.65,17.75-39.65,39.65C448.19,216.94,465.94,234.7,487.84,234.7z"/>
<linearGradient id="XMLID_3_" gradientUnits="userSpaceOnUse" x1="362.0019" y1="488.2152" x2="510.2925" y2="43.3432">
	<stop  offset="0" style="stop-color:#434041"/>
	<stop  offset="0.9968" style="stop-color:#FFFFFF"/>
</linearGradient>
<path id="XMLID_2350_" class="st2" d="M443.61,242.5c0.1,0,0.2,0.01,0.29,0.01c0.1,0,0.19-0.01,0.3-0.01H443.61z"/>
<linearGradient id="XMLID_4_" gradientUnits="userSpaceOnUse" x1="390.1817" y1="497.6084" x2="538.4724" y2="52.7364">
	<stop  offset="0" style="stop-color:#434041"/>
	<stop  offset="0.9968" style="stop-color:#FFFFFF"/>
</linearGradient>
<path id="XMLID_2349_" class="st3" d="M443.61,336.43h0.59c-0.1,0-0.2-0.01-0.3-0.01C443.81,336.42,443.71,336.43,443.61,336.43z"/>
<linearGradient id="XMLID_5_" gradientUnits="userSpaceOnUse" x1="376.0901" y1="492.9113" x2="524.3808" y2="48.0393">
	<stop  offset="0" style="stop-color:#434041"/>
	<stop  offset="0.9968" style="stop-color:#FFFFFF"/>
</linearGradient>
<path id="XMLID_2348_" class="st4" d="M458.09,321.96v-64.98c0-7.89-6.32-14.3-14.18-14.46c-7.86,0.16-14.18,6.57-14.18,14.46v64.98
	c0,7.9,6.33,14.31,14.18,14.46C451.77,336.26,458.09,329.85,458.09,321.96z"/>
<linearGradient id="XMLID_6_" gradientUnits="userSpaceOnUse" x1="469.2663" y1="523.97" x2="617.557" y2="79.098">
	<stop  offset="0" style="stop-color:#434041"/>
	<stop  offset="0.9968" style="stop-color:#FFFFFF"/>
</linearGradient>
<path id="XMLID_2347_" class="st5" d="M532.07,336.43c-0.1,0-0.2-0.01-0.29-0.01c-0.1,0-0.19,0.01-0.29,0.01H532.07z"/>
<linearGradient id="XMLID_7_" gradientUnits="userSpaceOnUse" x1="455.1743" y1="519.2726" x2="603.465" y2="74.4007">
	<stop  offset="0" style="stop-color:#434041"/>
	<stop  offset="0.9968" style="stop-color:#FFFFFF"/>
</linearGradient>
<path id="XMLID_2346_" class="st6" d="M531.78,242.51c-7.86,0.16-14.19,6.57-14.19,14.46v64.98c0,7.9,6.33,14.31,14.19,14.46
	c7.86-0.16,14.18-6.57,14.18-14.46v-64.98C545.96,249.08,539.63,242.67,531.78,242.51z"/>
<linearGradient id="XMLID_8_" gradientUnits="userSpaceOnUse" x1="441.0865" y1="514.5767" x2="589.3772" y2="69.7047">
	<stop  offset="0" style="stop-color:#434041"/>
	<stop  offset="0.9968" style="stop-color:#FFFFFF"/>
</linearGradient>
<path id="XMLID_2345_" class="st7" d="M531.49,242.5c0.1,0,0.19,0.01,0.29,0.01c0.09,0,0.19-0.01,0.29-0.01H531.49z"/>
<linearGradient id="XMLID_9_" gradientUnits="userSpaceOnUse" x1="432.1526" y1="511.5988" x2="580.4433" y2="66.7268">
	<stop  offset="0" style="stop-color:#434041"/>
	<stop  offset="0.9968" style="stop-color:#FFFFFF"/>
</linearGradient>
<path id="XMLID_2344_" class="st8" d="M513.17,321.96v-64.98c0-5.56,2.76-10.53,6.99-13.62c-1.52-0.54-3.16-0.86-4.87-0.86
	c-15.23,0-40.47,0-54.89,0c-1.71,0-3.35,0.31-4.87,0.86c4.23,3.09,6.98,8.06,6.98,13.62v64.98c0,8.1-5.85,14.96-13.53,16.53v12.42
	h0.04v72.78c0,8,6.48,14.48,14.47,14.48h4.24c8,0,14.48-6.48,14.48-14.48v-72.78v-6.82h5.43h0.4h5.44v6.82h0.03v72.78
	c0,8,6.48,14.48,14.48,14.48h4.24c8,0,14.48-6.48,14.48-14.48v-72.78v-6.82v-5.6C519.02,336.91,513.17,330.06,513.17,321.96z"/>
<linearGradient id="XMLID_10_" gradientUnits="userSpaceOnUse" x1="895.879" y1="-27.0899" x2="738.3202" y2="241.6869">
	<stop  offset="0" style="stop-color:#CC0070"/>
	<stop  offset="1" style="stop-color:#E884B3"/>
</linearGradient>
<path id="XMLID_2342_" class="st9" d="M848.77,82.23c16,0,28.96-12.97,28.96-28.96c0-16-12.97-28.96-28.96-28.96
	c-15.99,0-28.96,12.97-28.96,28.96C819.81,69.27,832.78,82.23,848.77,82.23z"/>
<linearGradient id="XMLID_11_" gradientUnits="userSpaceOnUse" x1="887.118" y1="-32.2257" x2="729.5592" y2="236.5512">
	<stop  offset="0" style="stop-color:#CC0070"/>
	<stop  offset="1" style="stop-color:#E884B3"/>
</linearGradient>
<path id="XMLID_2341_" class="st10" d="M816.47,87.93c0.07,0,0.14,0.01,0.21,0.01c0.08,0,0.14-0.01,0.22-0.01H816.47z"/>
<linearGradient id="XMLID_12_" gradientUnits="userSpaceOnUse" x1="917.0504" y1="-14.6791" x2="759.4915" y2="254.0977">
	<stop  offset="0" style="stop-color:#CC0070"/>
	<stop  offset="1" style="stop-color:#E884B3"/>
</linearGradient>
<path id="XMLID_2338_" class="st11" d="M816.47,156.54h0.43c-0.08,0-0.14-0.01-0.22-0.01C816.61,156.53,816.54,156.54,816.47,156.54
	z"/>
<linearGradient id="XMLID_13_" gradientUnits="userSpaceOnUse" x1="902.0842" y1="-23.4524" x2="744.5253" y2="245.3244">
	<stop  offset="0" style="stop-color:#CC0070"/>
	<stop  offset="1" style="stop-color:#E884B3"/>
</linearGradient>
<path id="XMLID_2335_" class="st12" d="M827.04,145.97V98.5c0-5.77-4.62-10.45-10.36-10.56c-5.74,0.11-10.36,4.8-10.36,10.56v47.46
	c0,5.77,4.62,10.45,10.36,10.56C822.42,156.41,827.04,151.73,827.04,145.97z"/>
<linearGradient id="XMLID_14_" gradientUnits="userSpaceOnUse" x1="964.816" y1="13.3215" x2="807.2572" y2="282.0983">
	<stop  offset="0" style="stop-color:#CC0070"/>
	<stop  offset="1" style="stop-color:#E884B3"/>
</linearGradient>
<path id="XMLID_2334_" class="st13" d="M881.08,156.54c-0.08,0-0.14-0.01-0.21-0.01c-0.07,0-0.14,0.01-0.22,0.01H881.08z"/>
<linearGradient id="XMLID_15_" gradientUnits="userSpaceOnUse" x1="949.85" y1="4.5482" x2="792.2911" y2="273.3251">
	<stop  offset="0" style="stop-color:#CC0070"/>
	<stop  offset="1" style="stop-color:#E884B3"/>
</linearGradient>
<path id="XMLID_2333_" class="st14" d="M880.86,87.94c-5.74,0.11-10.36,4.8-10.36,10.56v47.46c0,5.77,4.62,10.45,10.36,10.56
	c5.74-0.11,10.36-4.79,10.36-10.56V98.5C891.22,92.74,886.6,88.05,880.86,87.94z"/>
<linearGradient id="XMLID_16_" gradientUnits="userSpaceOnUse" x1="934.8837" y1="-4.2251" x2="777.3249" y2="264.5518">
	<stop  offset="0" style="stop-color:#CC0070"/>
	<stop  offset="1" style="stop-color:#E884B3"/>
</linearGradient>
<path id="XMLID_2332_" class="st15" d="M880.65,87.93c0.08,0,0.15,0.01,0.22,0.01c0.07,0,0.14-0.01,0.21-0.01H880.65z"/>
<linearGradient id="XMLID_17_" gradientUnits="userSpaceOnUse" x1="942.39" y1="0.26" x2="784.9344" y2="268.8605">
	<stop  offset="0" style="stop-color:#CC0070"/>
	<stop  offset="1" style="stop-color:#E884B3"/>
</linearGradient>
<path id="XMLID_2331_" class="st16" d="M867.27,145.97c1.64-8.09-4.55-53.03,5.11-57.41c-5.25-1.72-39.98-2.47-47.21,0
	c9.6,4.14,3.49,49.59,5.1,57.41c0,5.91-4.27,10.92-9.89,12.07v9.07h0.02v53.16c-0.07,7.35,6.9,11.52,13.67,10.57
	c5.84,0,10.58-4.73,10.58-10.57c0.01-1.72-0.01-58.46,0-58.14c2.13,0,6.11,0,8.23,0v4.98h0.02v53.16c0,5.84,4.74,10.57,10.57,10.57
	c6.77,0.94,13.75-3.22,13.67-10.57c0.01-6.32-0.01-57.26,0-62.23C871.54,156.89,867.27,151.88,867.27,145.97z"/>
<linearGradient id="XMLID_18_" gradientUnits="userSpaceOnUse" x1="195.5389" y1="-126.661" x2="102.8572" y2="247.1551">
	<stop  offset="0" style="stop-color:#00509C"/>
	<stop  offset="1" style="stop-color:#78C4D9"/>
</linearGradient>
<path id="XMLID_2312_" class="st17" d="M149.6,87.57c15.99,0,28.96-12.97,28.96-28.96c0-16-12.97-28.96-28.96-28.96
	c-16,0-28.96,12.97-28.96,28.96C120.64,74.61,133.61,87.57,149.6,87.57z"/>
<linearGradient id="XMLID_19_" gradientUnits="userSpaceOnUse" x1="173.401" y1="-132.1497" x2="80.7193" y2="241.6663">
	<stop  offset="0" style="stop-color:#00509C"/>
	<stop  offset="1" style="stop-color:#78C4D9"/>
</linearGradient>
<path id="XMLID_2311_" class="st18" d="M117.3,93.27c0.08,0,0.15,0.01,0.22,0.01c0.07,0,0.14-0.01,0.21-0.01H117.3z"/>
<linearGradient id="XMLID_20_" gradientUnits="userSpaceOnUse" x1="189.426" y1="-128.1766" x2="96.7444" y2="245.6395">
	<stop  offset="0" style="stop-color:#00509C"/>
	<stop  offset="1" style="stop-color:#78C4D9"/>
</linearGradient>
<path id="XMLID_2310_" class="st19" d="M117.3,161.88h0.43c-0.07,0-0.14-0.01-0.21-0.01C117.44,161.87,117.37,161.88,117.3,161.88z"
	/>
<linearGradient id="XMLID_21_" gradientUnits="userSpaceOnUse" x1="181.4139" y1="-130.163" x2="88.7323" y2="243.653">
	<stop  offset="0" style="stop-color:#00509C"/>
	<stop  offset="1" style="stop-color:#78C4D9"/>
</linearGradient>
<path id="XMLID_2309_" class="st20" d="M127.87,151.31v-47.46c0-5.77-4.61-10.45-10.36-10.56c-5.74,0.12-10.36,4.8-10.36,10.56
	v47.46c0,5.77,4.62,10.45,10.36,10.56C123.26,161.76,127.87,157.08,127.87,151.31z"/>
<linearGradient id="XMLID_22_" gradientUnits="userSpaceOnUse" x1="249.8914" y1="-113.1852" x2="157.2097" y2="260.6309">
	<stop  offset="0" style="stop-color:#00509C"/>
	<stop  offset="1" style="stop-color:#78C4D9"/>
</linearGradient>
<path id="XMLID_2308_" class="st21" d="M181.9,161.88c-0.07,0-0.14-0.01-0.21-0.01c-0.07,0-0.14,0.01-0.21,0.01H181.9z"/>
<linearGradient id="XMLID_23_" gradientUnits="userSpaceOnUse" x1="241.8789" y1="-115.1717" x2="149.1973" y2="258.6443">
	<stop  offset="0" style="stop-color:#00509C"/>
	<stop  offset="1" style="stop-color:#78C4D9"/>
</linearGradient>
<path id="XMLID_2307_" class="st22" d="M181.69,93.28c-5.74,0.12-10.36,4.8-10.36,10.56v47.46c0,5.77,4.62,10.45,10.36,10.56
	c5.74-0.11,10.36-4.79,10.36-10.56v-47.46C192.06,98.08,187.43,93.4,181.69,93.28z"/>
<linearGradient id="XMLID_24_" gradientUnits="userSpaceOnUse" x1="233.8663" y1="-117.1583" x2="141.1847" y2="256.6577">
	<stop  offset="0" style="stop-color:#00509C"/>
	<stop  offset="1" style="stop-color:#78C4D9"/>
</linearGradient>
<path id="XMLID_2306_" class="st23" d="M181.48,93.27c0.07,0,0.14,0.01,0.21,0.01c0.07,0,0.14-0.01,0.21-0.01H181.48z"/>
<linearGradient id="XMLID_25_" gradientUnits="userSpaceOnUse" x1="221.5683" y1="-120.2074" x2="128.8866" y2="253.6086">
	<stop  offset="0" style="stop-color:#00509C"/>
	<stop  offset="1" style="stop-color:#78C4D9"/>
</linearGradient>
<path id="XMLID_2305_" class="st24" d="M168.1,151.31v-47.46c0-4.06,2.01-7.69,5.11-9.95c-1.11-0.4-2.31-0.62-3.56-0.62
	c-9.05,0-18.64,0.09-26.88,0h-13.22c-1.25,0-2.45,0.23-3.55,0.62c3.09,2.26,5.1,5.89,5.1,9.95v47.46c0,5.91-4.27,10.92-9.89,12.07
	v9.07h0.03v53.16c0,5.84,4.73,10.57,10.57,10.57h3.1c5.85,0,10.58-4.73,10.58-10.57v-53.16v-4.98h3.97h0.29h3.97v4.98h0.02v53.16
	c0,5.84,4.74,10.57,10.58,10.57h3.1c5.84,0,10.57-4.73,10.57-10.57v-53.16v-4.98v-4.09C172.37,162.23,168.1,157.22,168.1,151.31z"/>
<linearGradient id="XMLID_26_" gradientUnits="userSpaceOnUse" x1="556.0814" y1="-107.8159" x2="432.5059" y2="139.3352">
	<stop  offset="0" style="stop-color:#56AC52"/>
	<stop  offset="1" style="stop-color:#D6DB3B"/>
</linearGradient>
<ellipse id="XMLID_2303_" class="st25" cx="487.84" cy="28.66" rx="18.16" ry="18.16"/>
<linearGradient id="XMLID_27_" gradientUnits="userSpaceOnUse" x1="548.678" y1="-111.5176" x2="425.1024" y2="135.6335">
	<stop  offset="0" style="stop-color:#56AC52"/>
	<stop  offset="1" style="stop-color:#D6DB3B"/>
</linearGradient>
<path id="XMLID_2302_" class="st26" d="M467.59,50.4c0.05,0,0.09,0,0.13,0.01c0.05,0,0.09-0.01,0.14-0.01H467.59z"/>
<linearGradient id="XMLID_28_" gradientUnits="userSpaceOnUse" x1="565.8849" y1="-102.9142" x2="442.3093" y2="144.2369">
	<stop  offset="0" style="stop-color:#56AC52"/>
	<stop  offset="1" style="stop-color:#D6DB3B"/>
</linearGradient>
<path id="XMLID_2301_" class="st27" d="M467.59,93.41h0.27c-0.05,0-0.09-0.01-0.14-0.01C467.68,93.41,467.63,93.41,467.59,93.41z"/>
<linearGradient id="XMLID_29_" gradientUnits="userSpaceOnUse" x1="557.2817" y1="-107.2158" x2="433.7061" y2="139.9353">
	<stop  offset="0" style="stop-color:#56AC52"/>
	<stop  offset="1" style="stop-color:#D6DB3B"/>
</linearGradient>
<path id="XMLID_2300_" class="st28" d="M474.22,86.78V57.02c0-3.62-2.9-6.55-6.5-6.62c-3.59,0.07-6.49,3.01-6.49,6.62v29.76
	c0,3.61,2.9,6.55,6.49,6.62C471.32,93.33,474.22,90.4,474.22,86.78z"/>
<linearGradient id="XMLID_30_" gradientUnits="userSpaceOnUse" x1="598.0781" y1="-86.8176" x2="474.5026" y2="160.3335">
	<stop  offset="0" style="stop-color:#56AC52"/>
	<stop  offset="1" style="stop-color:#D6DB3B"/>
</linearGradient>
<path id="XMLID_2299_" class="st29" d="M508.1,93.41c-0.05,0-0.09-0.01-0.13-0.01c-0.05,0-0.09,0.01-0.14,0.01H508.1z"/>
<linearGradient id="XMLID_31_" gradientUnits="userSpaceOnUse" x1="589.4749" y1="-91.1192" x2="465.8993" y2="156.0319">
	<stop  offset="0" style="stop-color:#56AC52"/>
	<stop  offset="1" style="stop-color:#D6DB3B"/>
</linearGradient>
<path id="XMLID_2298_" class="st30" d="M507.97,50.4c-3.6,0.07-6.5,3.01-6.5,6.62v29.76c0,3.61,2.9,6.55,6.5,6.62
	c3.6-0.07,6.49-3.01,6.49-6.62V57.02C514.46,53.41,511.56,50.47,507.97,50.4z"/>
<linearGradient id="XMLID_32_" gradientUnits="userSpaceOnUse" x1="580.8712" y1="-95.421" x2="457.2957" y2="151.7301">
	<stop  offset="0" style="stop-color:#56AC52"/>
	<stop  offset="1" style="stop-color:#D6DB3B"/>
</linearGradient>
<path id="XMLID_2297_" class="st31" d="M507.83,50.4c0.05,0,0.09,0,0.14,0.01c0.04,0,0.08-0.01,0.13-0.01H507.83z"/>
<linearGradient id="XMLID_33_" gradientUnits="userSpaceOnUse" x1="582.9619" y1="-94.3757" x2="459.3868" y2="152.7744">
	<stop  offset="0" style="stop-color:#56AC52"/>
	<stop  offset="1" style="stop-color:#D6DB3B"/>
</linearGradient>
<path id="XMLID_2296_" class="st32" d="M499.44,86.78V57.02c0-2.54,1.26-4.82,3.2-6.24c-0.7-0.25-1.45-0.39-2.23-0.39
	c-7.46,0-17.76,0-25.14,0c-0.78,0-1.53,0.14-2.23,0.39c1.94,1.41,3.2,3.69,3.2,6.24v29.76c0,3.71-2.67,6.85-6.2,7.57v5.69h0.02
	v33.33c0,3.66,2.97,6.63,6.63,6.63h1.94c3.67,0,6.63-2.97,6.63-6.63v-33.33v-3.13h2.49h0.18h2.49v3.13h0.01v33.33
	c0,3.66,2.97,6.63,6.63,6.63h1.94c3.66,0,6.63-2.97,6.63-6.63v-33.33v-3.13v-2.56C502.12,93.63,499.44,90.49,499.44,86.78z"/>
</svg>
