<?xml version="1.0" encoding="utf-8"?>
<!-- Generator: Adobe Illustrator 23.0.4, SVG Export Plug-In . SVG Version: 6.00 Build 0)  -->
<svg version="1.1" id="Layer_1" xmlns="http://www.w3.org/2000/svg" xmlns:xlink="http://www.w3.org/1999/xlink" x="0px" y="0px"
	 viewBox="0 0 550 550" style="enable-background:new 0 0 550 550;" xml:space="preserve">
<style type="text/css">
	.st0{fill-rule:evenodd;clip-rule:evenodd;fill:#FFFFFF;}
	.st1{fill-rule:evenodd;clip-rule:evenodd;fill:#C2E5F6;}
	.st2{fill-rule:evenodd;clip-rule:evenodd;fill:url(#SVGID_1_);}
	.st3{fill-rule:evenodd;clip-rule:evenodd;fill:#11639D;}
	.st4{fill-rule:evenodd;clip-rule:evenodd;fill:url(#SVGID_2_);}
	.st5{fill-rule:evenodd;clip-rule:evenodd;fill:#1C87D5;}
	.st6{fill-rule:evenodd;clip-rule:evenodd;fill:#A1D5F1;}
	.st7{fill-rule:evenodd;clip-rule:evenodd;fill:#CFECFA;}
	.st8{fill-rule:evenodd;clip-rule:evenodd;fill:#B2DCF1;}
	.st9{fill-rule:evenodd;clip-rule:evenodd;fill:#A5D6EF;}
	.st10{fill-rule:evenodd;clip-rule:evenodd;fill:#C3E4F4;}
	.st11{fill-rule:evenodd;clip-rule:evenodd;fill:url(#SVGID_3_);}
	.st12{fill-rule:evenodd;clip-rule:evenodd;fill:#DAEAFA;}
	.st13{fill-rule:evenodd;clip-rule:evenodd;fill:url(#SVGID_4_);}
	.st14{fill-rule:evenodd;clip-rule:evenodd;fill:url(#SVGID_5_);}
	.st15{fill-rule:evenodd;clip-rule:evenodd;fill:#E7A376;}
	.st16{fill-rule:evenodd;clip-rule:evenodd;fill:url(#SVGID_6_);}
	.st17{fill-rule:evenodd;clip-rule:evenodd;fill:#F0B186;}
	.st18{fill-rule:evenodd;clip-rule:evenodd;fill:#DFF4FF;}
	.st19{fill-rule:evenodd;clip-rule:evenodd;fill:#EFFAFF;}
	.st20{fill-rule:evenodd;clip-rule:evenodd;fill:#C8E8F8;}
	.st21{fill-rule:evenodd;clip-rule:evenodd;fill:#000002;}
	.st22{fill-rule:evenodd;clip-rule:evenodd;fill:#171E29;}
	.st23{fill-rule:evenodd;clip-rule:evenodd;fill:#2B374A;}
	.st24{opacity:0.5;fill-rule:evenodd;clip-rule:evenodd;fill:#566E93;enable-background:new    ;}
	.st25{opacity:0.5;fill-rule:evenodd;clip-rule:evenodd;fill:#C8E8F8;enable-background:new    ;}
	.st26{fill-rule:evenodd;clip-rule:evenodd;fill:url(#SVGID_7_);}
	.st27{opacity:0.5;fill-rule:evenodd;clip-rule:evenodd;fill:#1C8EAA;enable-background:new    ;}
	.st28{fill-rule:evenodd;clip-rule:evenodd;fill:url(#SVGID_8_);}
	.st29{fill-rule:evenodd;clip-rule:evenodd;fill:url(#SVGID_9_);}
	.st30{fill-rule:evenodd;clip-rule:evenodd;fill:url(#SVGID_10_);}
	.st31{opacity:0.3;fill-rule:evenodd;clip-rule:evenodd;fill:url(#SVGID_11_);enable-background:new    ;}
	.st32{enable-background:new    ;}
	.st33{clip-path:url(#SVGID_13_);}
	.st34{clip-path:url(#SVGID_15_);fill:#26B2FC;}
	.st35{clip-path:url(#SVGID_17_);fill:#005C9E;}
	.st36{clip-path:url(#SVGID_19_);}
	.st37{clip-path:url(#SVGID_21_);fill:#FFFFFF;}
</style>
<path class="st0" d="M235.3,331c0-10.5,7.4-23.3,16.5-28.6c97.1-55.7,61.3-34.6,158.4-90.3c9.1-5.3,16.6-1,16.6,9.5l0.4,10.1
	c0,10.5-7.4,23.3-16.5,28.6c-97.1,55.7-61.3,34.6-158.4,90.3c-9.2,5.3-16.6,1-16.6-9.5L235.3,331z"/>
<path class="st1" d="M87.6,530.6c0.1,1.2,1.1,2.5,3.1,3.6c1.4,0.8,2.9,1.6,4.4,2.5c2.1,1.2,4.7,1.9,7.3,2c2.6,0.2,5.1-0.2,6.8-1.2
	c9-5.1,341.4-196.4,350.2-201.4c3-1.7-1.8-4.5-3.2-5.2c-1.8-1-6-3.6-8.5-4.8c-2.8-1.4-6.6-0.3-9.3,1L89.9,527.5
	C88.3,528.3,87.5,529.4,87.6,530.6z"/>
<g>
	
		<linearGradient id="SVGID_1_" gradientUnits="userSpaceOnUse" x1="847.054" y1="295.8885" x2="604.0876" y2="280.4007" gradientTransform="matrix(-1 0 0 -1 919.8628 552)">
		<stop  offset="0" style="stop-color:#105B91"/>
		<stop  offset="1" style="stop-color:#0A3C5F"/>
	</linearGradient>
	<path class="st2" d="M421.8,16.8L421.8,16.8L421.8,16.8c5.2-3,12.3-5,17.9-1.8c2.2,1.3,4.4,2.6,6.6,4c2,1.2-0.2,10.2,0.1,12l0,0
		l0,0l-71.2,48.4L139.3,208.2c5.7,22.6-18.7,32.3-25,43.3l7.5,102.6c-1.7,39.2,8.9,157.2-17.7,169.7l-6.4-3.9
		c-4.5-2.6-7.3-8.2-7.3-16.1l-0.6-266.6c0-15.7,11-35.2,25-43.3L421.8,16.8z"/>
	<path class="st3" d="M454.1,301.6c0,15.9-11.2,35.3-25,43.3L122.1,522.2c-13.9,8-25.1,1.6-25.2-14.3l-0.6-266.6
		c0-15.9,11.2-35.3,25-43.3L428.3,20.7c13.9-8,25.1-1.6,25.2,14.4L454.1,301.6z"/>
	
		<linearGradient id="SVGID_2_" gradientUnits="userSpaceOnUse" x1="657.663" y1="374.74" x2="629.6385" y2="171.8423" gradientTransform="matrix(-1 0 0 -1 919.8628 552)">
		<stop  offset="0" style="stop-color:#31ADCC"/>
		<stop  offset="0.9951" style="stop-color:#198AA6"/>
	</linearGradient>
	<path class="st4" d="M449.2,300.8c0,15.5-10.9,34.4-24.3,42.2L126.3,515.4c-13.5,7.8-24.5,1.5-24.5-14l-0.6-259.3
		c0-15.5,10.9-34.4,24.3-42.2L424.1,27.5c13.5-7.8,24.5-1.5,24.5,14L449.2,300.8z"/>
	<g>
		<path class="st3" d="M96.8,235.2c2.3-14.5,12.4-30.2,24.5-37.2L428.3,20.7c12.1-7,22.3-2.9,24.7,8.8L96.8,235.2z"/>
		<g>
			<path class="st5" d="M409.6,46.1c0,2.4,1.7,3.3,3.8,2.1s3.7-4.1,3.7-6.5c0-2.4-1.7-3.3-3.8-2.1C411.3,40.8,409.6,43.7,409.6,46.1
				z"/>
			<path class="st5" d="M422,38c0,2.4,1.7,3.3,3.8,2.1s3.7-4.1,3.7-6.5c0-2.4-1.7-3.3-3.8-2.1C423.7,32.8,422,35.6,422,38z"/>
			<path class="st5" d="M433.3,31.2c0,2.4,1.7,3.3,3.8,2.1s3.7-4.1,3.7-6.5c0-2.4-1.7-3.3-3.8-2.1C435,26,433.3,28.9,433.3,31.2z"/>
		</g>
	</g>
</g>
<g>
	<path class="st6" d="M235.3,264.6c0-10.5,7.4-23.3,16.5-28.6c97.1-55.7,61.3-34.6,158.4-90.3c9.1-5.3,16.6-1,16.6,9.5l0.4,10.1
		c0,10.5-7.4,23.3-16.5,28.6c-97.1,55.7-61.3,34.6-158.4,90.3c-9.2,5.3-16.6,1-16.6-9.5L235.3,264.6z"/>
	<g>
		<path class="st7" d="M383.3,188.6l0-4.2c0-1.2-0.8-1.7-1.9-1.1l-131.7,76c-1,0.6-1.9,2.1-1.9,3.2l0,4.2c0,1.2,0.8,1.7,1.9,1.1
			l131.7-76C382.5,191.3,383.3,189.8,383.3,188.6z"/>
		<path class="st7" d="M382.6,174.9l0-4.2c0-1.2-0.8-1.7-1.9-1.1l-131.7,76c-1,0.6-1.9,2.1-1.9,3.2l0,4.2c0,1.2,0.8,1.7,1.9,1.1
			l131.7-76C381.8,177.6,382.6,176.1,382.6,174.9z"/>
		<path class="st7" d="M383.3,202.4l0-4.2c0-1.2-0.8-1.7-1.9-1.1l-75.2,43.2c-1,0.6-1.9,2.1-1.9,3.2l0,4.2c0,1.2,0.8,1.7,1.9,1.1
			l75.2-43.2C382.5,205.1,383.3,203.6,383.3,202.4z"/>
	</g>
	<g>
		<path class="st7" d="M423.2,162.3c0-11.6-8.3-16.4-18.4-10.5c-10.1,5.9-18.3,20-18.3,31.7c0,11.6,8.3,16.4,18.4,10.5
			S423.3,173.9,423.2,162.3z"/>
		<g>
			<path class="st8" d="M404.8,180.7c1-0.6,2-1.4,3.9-2.8c0,0.2,0,0.3,0,0.5c0,2,0.5,2.9,1.2,3.4c0.9,0.6,2.5,0.4,4.7-0.1
				c1.2-0.3,2.2-0.5,2.8-0.6c-3.3,5.4-7.7,10.1-12.5,12.9c-4.9,2.8-9.4,3.2-12.7,1.5c0.7-0.7,1.5-1.5,2.7-2.6c2.2-2,3.8-3.5,4.7-5.2
				c0.8-1.4,1.3-2.8,1.2-5C402.8,181.8,403.8,181.4,404.8,180.7z"/>
			<path class="st6" d="M404.6,188.5c2.5-1.4,5-3.9,5.7-6.5c1,0.3,2.3,0.1,4.3-0.4c1.2-0.3,2.2-0.5,2.8-0.6
				c-3.3,5.4-7.7,10.1-12.5,12.9c-4.9,2.8-9.4,3.2-12.7,1.5c0.7-0.7,1.5-1.5,2.7-2.6c2.1-1.9,3.5-3.3,4.5-4.9
				C399.7,190.1,402.1,189.9,404.6,188.5z"/>
			<path class="st9" d="M399.6,187.6c0.9,2.2,3.2,1.4,5.5-0.2c2.3-1.6,4.5-4.1,4.9-5.6c0.4,0.1,0.7,0.2,1.1,0.3
				c-1,3-3.7,6.1-6.3,7.7c-2.7,1.7-5.4,2-6.3-0.5C398.8,188.8,399.2,188.2,399.6,187.6z"/>
			<path class="st10" d="M399.8,175.7c0,0.9,0.1,1.9,0.1,2.8c-0.3,0.9-0.5,1.3-0.8,1.3c-0.6,0.1-0.5-0.7-0.6-1.4
				c-0.3-0.6-1.1-1.7-0.3-2.9c0.2-0.4,0.7-0.4,1,0.1c0,0.1,0.1,0.1,0.1,0.2C399.5,175.7,399.7,175.7,399.8,175.7z"/>
			<path class="st10" d="M409.6,170.1c0,1-0.1,2-0.1,3c0.3,0.6,0.5,0.7,0.8,0.4c0.6-0.6,0.5-1.3,0.6-2.1c0.3-1,1.1-2.9,0.3-3.3
				c-0.2-0.1-0.7,0.3-1,1.2c0,0.1-0.1,0.2-0.1,0.3C409.9,169.7,409.7,169.9,409.6,170.1z"/>
			<path class="st10" d="M405.9,182.1c-0.4,0.4-2,1.3-2.4,1.4c-0.3,0.1-0.5,0-0.8,0c-0.3-0.1-0.6-0.3-1-0.5
				c-0.5-0.3-1.4-0.3-1.7-0.9c-0.3-0.6-0.3-1.7-0.3-2.8c0-0.7-0.3-1.2-0.5-2.1c-0.1-0.4-0.1-1.1-0.1-1.9c0-0.6,0-1.1,0-1.7
				c0.2-4,0.9-8.2,5-10.7l0,0c0.1,0,0.1-0.1,0.2-0.1s0.1-0.1,0.2-0.1c0,0,0.1,0,0.1-0.1c0,0,0.1,0,0.1-0.1c0.1,0,0.1-0.1,0.2-0.1
				c0.1,0,0.1-0.1,0.2-0.1l0,0c4.1-2.3,4.9,1,5.1,4.8c0,0.6,0,1.1,0,1.7c0,0.7-0.1,1.5-0.1,2c-0.1,1-0.4,1.9-0.5,2.6
				c-0.1,1.1,0,2.1-0.3,3.1c-0.3,0.9-1.2,2-1.7,2.9c-0.4,0.7-0.7,1.2-1,1.7C406.5,181.6,406.2,181.9,405.9,182.1z"/>
			<g>
				<path class="st6" d="M406.3,165.3c1,0.6,1.4-0.3,2.7-1c1.2-0.6,0.6,0.9,0.6,2.8c0,0.6,0.3,0.5,0.3,1c0.1,0.9-0.1,2.2,0,2.4
					c0.1,2-0.3,2-0.3,3.8c0.7-2,0.5-1.9,0.6-3.7c0-0.2,0.1-0.5,0.2-0.8c0-0.3,0.2-0.7,0.3-1.2c0.1-0.5,0.2-0.9,0.3-1.5
					s0.2-1.6,0.2-2.3c0.7-1.1,0.8-1.6,1-3.1c-0.2,0.2-0.4,0.4-0.6,0.6c0.2-0.8,0.2-0.9,0.3-1.6c-0.1,0.1-0.3,0.3-0.4,0.4
					c0.3-1,0.3-1.2,0.4-2.1c-0.4,0.7-0.4,0.8-0.8,1.5c0.1-0.8,0-1.4-0.2-2.1c0.1,0.7,0.1,1.2,0,1.9c-0.3-2.5-1.1-2.3-2.4-2.1
					c-1.3-0.6-3.1-0.4-4.5,2c-1.3,0.2-3.2,1.2-3.8,3.5c-1.4,1.3-2.8,2.5-2.5,4.5c0,0,0.2-0.7,0.4-1.1c0.1-0.2,0.4-0.3,0.4,0
					c0,0.5-0.7,0.8-0.3,2c-0.1,0.1-0.2,0.3-0.3,0.4c0.3,0.4,0.5,0.7,0.9,1c-0.1,0.4-0.1,0.7-0.2,1.1c0,0.3,0.1,0.4,0.2,0.6
					s-0.1,0.6-0.1,0.8c0,0.2,0.3,0.1,0.4,0.4c-0.1,0.5-0.2,1.2,0,1.9c0.1,0.3,0,0.6,0,0.9c0.1,1.4,0.4,2.1,0.7,3.3
					c0.1-1-0.2-2-0.2-3.2c0-0.5,0-1.1,0-1.8c0-0.4,0-0.9,0-1.3c1.1-2,1-2.2,1.3-4.2c0.7-0.3,0.9-0.8,1.3-1c0.7-0.4,0.7,0,2.1-1.2
					C404.9,166.7,405.2,166.6,406.3,165.3z"/>
				<path class="st6" d="M406.6,161.2c-0.1,0.6-0.4,2.2-0.2,3c0.1,0.3,0.3,0.5,0.6,0.5c0.1-0.4,0.1-0.8,0.2-1.1
					c0.2-0.9,0.3-1.5,0.4-2c0.4-2.4-0.3-4.5-1.9-3.7c-0.6,0.3-1.2,1-2,2.1c-1.2-0.1-2.8,1-3.5,3.1c0.6-1,1.5-1.7,2.2-1.8
					c0.8-0.1,0.9,0.8,1.2,1.8c0.2,0.8,0.7,1.7,1.3,2.2c0.4,0.4,0.6,0.1,0.8-0.1c0.1-0.1,0.2-0.3,0.2-0.3c0.3,0,0.2-0.1,0.1-0.6
					c-0.5-2-0.4-3.2-1.7-4.3c0,0.1,0,0.2,0.1,0.4c-0.2-0.1-0.5-0.2-0.8-0.2c1.1-1,1.7-1.4,2.2-1.4
					C406.5,158.6,406.9,159.3,406.6,161.2L406.6,161.2z M400.7,168.8c-0.1,1.8-0.4,2.6-1.7,4.4c0.2-1,1-2.2,1.2-3.1
					c-0.6,1.5-1.4,1.6-1.3,2.6c-0.6-0.7,0.1-1.7,0.8-2.6c-0.5,0.6-0.9,0.7-1.1,1.5c-0.2-0.9,0-1.2,0.6-1.8c-0.9,0.2-0.7-0.5-1.3-0.9
					c0.4-0.2,0.4-0.3,0.9,0.1c-1.2-0.9-0.3-1.8-0.3-2.4C398.7,168,399.2,169.6,400.7,168.8L400.7,168.8z M397.7,166.9
					c0.2-0.9,0.8-1.5,1.3-1.8c0.7-0.4,1.6-0.2,2.2,0c-0.1-0.1-0.3-0.3-0.4-0.5c1.1,0,2.5,1.8,3.6,1.4c-1,0.9-1.1,0.8-2.1,1.1
					c-1.3,1.5-2,1.6-2.5,1.2C398.8,167.7,398.8,164.8,397.7,166.9L397.7,166.9z M405.3,165.6c-1.8,0.9-2.4-0.6-3.9-1.1
					c-1-0.4-2.3,0-3.5,1.6c1.9-2.8,3.8-2.8,5.3-1.5c-1.3-1.4-1.9-1.6-3.8-0.5c1.3-1.3,2.1-1.6,2.7-1.4
					C403.5,163.1,403.9,165.5,405.3,165.6L405.3,165.6z M411.6,160.4c-0.4,1.1-1.2,2.9-1.9,3c0.2,0.7,0.8,0.5,1.2,1.5
					c0-0.4,0-0.6-0.2-0.9c0.3-0.3,0.5-0.4,0.8-1.1c-0.4,0.6-0.7,0.7-0.9,0.7c0.7-0.7,1-1.4,1.3-2.1c-0.5,0.8-0.9,1.2-1.4,1.6
					C411.1,162.1,411.3,161.6,411.6,160.4L411.6,160.4z M409.2,157.7c1.2-0.1,1.7,2,1.4,3.9c0.4-0.8,0.6-1.6,1.1-2.5
					c-0.4,1.6-0.8,4-2.5,4.4C410.5,161.8,410.6,158.7,409.2,157.7L409.2,157.7z M408,159.6c-0.1-1.1-0.5-2-1.6-2
					c1-0.2,1.4-0.2,1.9,0.7c0-0.2,0.1-0.3,0.1-0.5c0.1,0.1,0.2,0.1,0.3,0.1c0-0.1,0-0.2,0-0.3c1,0.4,1.2,1.3,1.2,2.4
					c-0.1,1.8-0.4,2.9-1.3,3.5c-0.3,0.5-0.7,0.9-0.9,0.6c-0.2,0.1-0.5,0.4-0.5,0C407.5,162.7,408.1,160.9,408,159.6z"/>
			</g>
		</g>
	</g>
</g>
<g>
	<g>
		
			<linearGradient id="SVGID_3_" gradientUnits="userSpaceOnUse" x1="598.9916" y1="425.9194" x2="578.2601" y2="392.9426" gradientTransform="matrix(-1 0 0 -1 919.8628 552)">
			<stop  offset="0" style="stop-color:#2981E6"/>
			<stop  offset="1" style="stop-color:#1761A6"/>
		</linearGradient>
		<path class="st11" d="M235.3,192.3c0-10.5,7.4-23.3,16.5-28.6c97.1-55.7,61.3-34.6,158.4-90.3c9.1-5.3,16.6-1,16.6,9.5l0.4,10.1
			c0,10.5-7.4,23.3-16.5,28.6c-97.1,55.7-61.3,34.6-158.4,90.3c-9.2,5.3-16.6,1-16.6-9.5L235.3,192.3z"/>
		<g>
			<path class="st12" d="M423.2,89.9c0-11.6-8.3-16.4-18.4-10.5c-10.2,5.9-18.3,20.1-18.3,31.7c0,11.6,8.3,16.4,18.4,10.5
				S423.3,101.6,423.2,89.9z"/>
			<g>
				
					<linearGradient id="SVGID_4_" gradientUnits="userSpaceOnUse" x1="515.8312" y1="457.2963" x2="509.382" y2="444.1771" gradientTransform="matrix(-1 0 0 -1 919.8628 552)">
					<stop  offset="0" style="stop-color:#632E40"/>
					<stop  offset="1" style="stop-color:#48202D"/>
				</linearGradient>
				<path class="st13" d="M407.5,88c-12.3-1.4-14.6,15.9-5.4,21.9c1.9,1.2,1.9-1.3,2.9-3.3c0.4-0.9,0.6-1.6,1.1-2.9l1.1-1.2
					c0.8,0.5,1.6,1.3,1.9,2.2c0,2.7,3.6,6,4.6,9.5c1.3-1.5,2.4-3.1,3.5-4.8c-0.2-1.2-0.6-2.5-1.2-3.7c-1.1-2.1-0.4-4.6-0.9-9.3
					c-0.3-3.2-1.3-8.5-6.4-8.3c-0.3,0-0.5-0.1-0.8-0.1L407.5,88z"/>
				<g>
					
						<linearGradient id="SVGID_5_" gradientUnits="userSpaceOnUse" x1="513.943" y1="442.897" x2="512.699" y2="434.0188" gradientTransform="matrix(-1 0 0 -1 919.8628 552)">
						<stop  offset="0" style="stop-color:#2981E6"/>
						<stop  offset="1" style="stop-color:#1761A6"/>
					</linearGradient>
					<path class="st14" d="M396.7,111.3c0-0.7,0.2-1.2,0.6-1.7c0.6-0.9,3.6-3.1,4.6-3.7c2.2-1.4,4.7-2.4,6.5-3.2
						c2.1-0.9,3.3-0.4,4,0.6c0.2,0.3,0.4,0.6,0.5,1c0.1,0.4,0.3,1.1,0.4,1.9c0.4,1,0.9,1.9,1.8,3.2c0.4,0.6,0.7,1.2,0.8,1.8
						c-3.1,4.4-6.8,8.1-11,10.5c-1.2,0.7-2.3,1.2-3.4,1.6c-0.1-0.3-0.2-0.6-0.4-0.9C399.7,119.4,396.4,114.6,396.7,111.3z"/>
					<path class="st15" d="M408.6,102.1c0.1,0.9,0.2,1.7,0.4,2.6c-0.7,1.3-3.4,2.3-5,0.8c0.1-1.7,0.7-4.1,0.3-6L408.6,102.1z"/>
					
						<linearGradient id="SVGID_6_" gradientUnits="userSpaceOnUse" x1="518.5618" y1="436.2391" x2="523.2818" y2="434.6158" gradientTransform="matrix(-1 0 0 -1 919.8628 552)">
						<stop  offset="0" style="stop-color:#2981E6"/>
						<stop  offset="1" style="stop-color:#1761A6"/>
					</linearGradient>
					<path class="st16" d="M398.5,109.4c2,0.1,3.3,3.2,3.7,5.9c0.2,1.5,0.1,4.7,0,7.7c-1.8,0.8-3.6,1.1-5.2,1.2
						c-0.7-4.7-1.2-9.9-0.8-12.4C396.4,110.4,397.1,109.3,398.5,109.4z"/>
				</g>
				<path class="st17" d="M406.3,99.7c-0.7-0.3-0.9-1.7-2.1-1.4c-0.4,0.1-1.2,0.9,0,1.9c0.4,0.8,0.3,1.2,1.2,1.6
					c1.2,0.6,3.2,1.4,4.4,1.4c0.6,0,1.3-0.1,1.7-0.6c0.5-0.4,0.4-1.1,0.8-2.4c0.4-1.3,0.4-1.9-0.3-3.5c-0.1-0.3-0.2-0.6-0.2-1
					c0.2-1.8-0.2-3.1-1-4.3C410.8,93.2,406.2,97.3,406.3,99.7z"/>
			</g>
		</g>
		<g>
			<path class="st0" d="M383.3,116.3l0-4.2c0-1.2-0.8-1.7-1.9-1.1l-131.7,76c-1,0.6-1.9,2.1-1.9,3.2l0,4.2c0,1.2,0.8,1.7,1.9,1.1
				l131.7-76C382.5,118.9,383.3,117.5,383.3,116.3z"/>
			<path class="st0" d="M382.6,102.6l0-4.2c0-1.2-0.8-1.7-1.9-1.1l-131.7,76c-1,0.6-1.9,2.1-1.9,3.2l0,4.2c0,1.2,0.8,1.7,1.9,1.1
				l131.7-76C381.8,105.2,382.6,103.8,382.6,102.6z"/>
			<path class="st0" d="M383.3,130.1l0-4.2c0-1.2-0.8-1.7-1.9-1.1L306.3,168c-1,0.6-1.9,2.1-1.9,3.2l0,4.2c0,1.2,0.8,1.7,1.9,1.1
				l75.2-43.2C382.5,132.7,383.3,131.3,383.3,130.1z"/>
		</g>
	</g>
	<path class="st0" d="M342.1,103.9l0.9,1.6c-6,3.4-9.5,5.4-13.1,7.4l-4.4,2.5l-0.9-1.6l4.4-2.5C333,109.1,336.9,106.9,342.1,103.9
		L342.1,103.9z M318.7,117.1l0.9,1.6l-10.5,6l-0.9-1.6L318.7,117.1L318.7,117.1z M303.7,125.6l0.9,1.6l-7.1,4l-0.9-1.6L303.7,125.6
		L303.7,125.6z M292.3,132.2l0.9,1.5l-4.7,2.7l-0.9-1.5L292.3,132.2L292.3,132.2z M247.9,157.5c-5.7,3.3-10.8,8.9-14.5,15.3
		c-3.7,6.4-6,13.7-6,20.2l0.5,12.3c0,3.8,0.8,7,2.2,9.5c1.1,1.8,2.5,3.3,4.1,4.2c1.7,1,3.6,1.5,5.7,1.5c2.9,0,6.1-0.9,9.4-2.9
		c59.1-33.9,70.2-40.1,81.2-46.3c11.1-6.2,22.2-12.5,81.2-46.3c5.7-3.3,10.8-8.9,14.5-15.3c3.7-6.4,6-13.7,6-20.2l-0.5-12.3
		c0-3.8-0.8-7-2.2-9.5c-1.1-1.8-2.5-3.3-4.1-4.2c-1.7-1-3.6-1.5-5.7-1.4c-2.9,0-6.1,0.9-9.4,2.9c-16.3,9.4-29,16.6-39,22.3
		c-10.5,6-17.8,10.1-23.1,13.2l0.9,1.6c6.1-3.5,13.5-7.7,23.1-13.2c10-5.7,22.7-13,39-22.3c3.1-1.8,6-2.6,8.5-2.6
		c1.8,0,3.4,0.4,4.8,1.2c1.4,0.8,2.6,2,3.5,3.6c1.3,2.2,2,5.1,2,8.6l0.5,12.3c0,6.2-2.2,13.1-5.7,19.3c-3.5,6.2-8.5,11.5-13.9,14.7
		c-59.1,33.9-70.2,40.1-81.2,46.3c-11.1,6.2-22.2,12.5-81.2,46.3c-3.1,1.8-6,2.6-8.6,2.6c-1.8,0-3.4-0.4-4.8-1.2
		c-1.4-0.8-2.6-2-3.5-3.6c-1.3-2.2-2-5.1-2-8.6l-0.5-12.3c0-6.2,2.2-13.1,5.7-19.3c3.6-6.2,8.5-11.5,13.9-14.7l27-15.5L275,142
		L247.9,157.5z"/>
</g>
<g>
	<path class="st0" d="M180.6,191.7l0.9,1.5l-8.2,4.8l-0.9-1.5L180.6,191.7L180.6,191.7z M168.7,198.6l0.9,1.5l-5.6,3.2l-0.9-1.5
		L168.7,198.6L168.7,198.6z M159.9,203.7l0.9,1.5l-4.3,2.5l-0.9-1.5L159.9,203.7L159.9,203.7z M153.1,207.6l0.9,1.5l-3,1.8l-0.9-1.5
		L153.1,207.6L153.1,207.6z M147.9,210.7l0.9,1.5l-2.5,1.5l-0.9-1.5L147.9,210.7L147.9,210.7z M135.1,218.1l-7.6,4.4
		c-6.4,3.7-12.2,10-16.4,17.3s-6.8,15.4-6.7,22.8l0.5,231.1c0,4.3,0.9,7.9,2.5,10.7c1.2,2.1,2.8,3.6,4.6,4.7s4,1.6,6.4,1.6
		c3.2,0,6.8-1,10.6-3.2l71.1-41.3c6.4-3.7,12.2-10,16.4-17.2c4.2-7.2,6.8-15.4,6.7-22.8L222.7,195c0-4.3-0.9-7.9-2.5-10.7
		c-1.2-2-2.8-3.6-4.6-4.7c-1.9-1.1-4-1.6-6.4-1.6c-3.2,0-6.8,1-10.6,3.2l0.9,1.5c3.5-2,6.8-3,9.7-3c2.1,0,3.9,0.5,5.5,1.4
		c1.6,0.9,2.9,2.3,4,4.1c1.4,2.5,2.2,5.8,2.3,9.8l0.5,231.1c0,7-2.5,14.9-6.5,21.9c-4,7-9.6,13.1-15.7,16.6l-71.1,41.3
		c-3.5,2-6.8,3-9.7,3c-2.1,0-3.9-0.5-5.5-1.4c-1.6-0.9-3-2.3-4-4.1c-1.4-2.5-2.2-5.8-2.3-9.8l-0.5-231.1c0-7,2.5-14.9,6.5-21.9
		c4-7,9.6-13.1,15.7-16.6l7.6-4.4L135.1,218.1L135.1,218.1z M197,184.2l-12.1,7l-0.9-1.5l12.1-7L197,184.2z"/>
	<g>
		<path class="st18" d="M220,423c0,13.4-9.4,29.8-21.1,36.5L132.7,498c-11.7,6.7-21.2,1.3-21.2-12.1L111,261
			c0-13.4,9.4-29.8,21.1-36.6l66.2-38.5c11.7-6.8,21.2-1.3,21.2,12.1L220,423z"/>
		<g>
			<g>
				<path class="st19" d="M217,281.5c0,12.8-8.9,28.3-20,34.7l-62.8,36.5c-11.1,6.4-20.1,1.2-20.2-11.5l-0.5-29.8
					c0-12.8,8.9-28.3,20-34.7l62.8-36.5c11.1-6.4,20.1-1.2,20.2,11.5L217,281.5z"/>
				<g>
					<g>
						<path class="st20" d="M209.3,252l0-4.2c0-1.2-0.8-1.7-1.9-1.1L153,278.3c-1,0.6-1.9,2.1-1.9,3.2l0,4.2c0,1.2,0.8,1.7,1.9,1.1
							l54.4-31.6C208.4,254.7,209.3,253.2,209.3,252z"/>
						<path class="st20" d="M145,289.3l0-4.2c0-1.2-0.8-1.7-1.9-1.1l-20,11.5c-1,0.6-1.9,2.1-1.9,3.2l0,4.2c0,1.2,0.8,1.7,1.9,1.1
							l20-11.5C144.2,292,145,290.5,145,289.3z"/>
					</g>
					<g>
						<path class="st20" d="M209.3,266l0-4.2c0-1.2-0.8-1.7-1.9-1.1L142,298.9c-1,0.6-1.9,2.1-1.9,3.2l0,4.2c0,1.2,0.8,1.7,1.9,1.1
							l65.4-38.2C208.4,268.7,209.3,267.2,209.3,266z"/>
						<path class="st20" d="M134.5,309.4l0-4.2c0-1.2-0.8-1.7-1.9-1.1l-9.5,5.5c-1,0.6-1.9,2.1-1.9,3.2l0,4.2c0,1.2,0.8,1.7,1.9,1.1
							l9.5-5.5C133.7,312,134.5,310.6,134.5,309.4z"/>
					</g>
					<g>
						<path class="st20" d="M209.3,280.1l0-4.2c0-1.2-0.8-1.7-1.9-1.1l-60,34.8c-1,0.6-1.9,2.1-1.9,3.2l0,4.2c0,1.2,0.8,1.7,1.9,1.1
							l60-34.8C208.4,282.7,209.3,281.2,209.3,280.1z"/>
						<path class="st20" d="M140.6,319.9l0-4.2c0-1.2-0.8-1.7-1.9-1.1l-15.6,9c-1,0.6-1.9,2.1-1.9,3.2l0,4.2c0,1.2,0.8,1.7,1.9,1.1
							l15.6-9C139.8,322.5,140.6,321.1,140.6,319.9z"/>
					</g>
					<g>
						<path class="st20" d="M209.3,294.1l0-4.2c0-1.2-0.8-1.7-1.9-1.1l-63.2,36.7c-1,0.6-1.9,2.1-1.9,3.2l0,4.2
							c0,1.2,0.8,1.7,1.9,1.1l63.2-36.7C208.4,296.7,209.3,295.2,209.3,294.1z"/>
						<path class="st20" d="M137.7,335.4l0-4.2c0-1.2-0.8-1.7-1.9-1.1l-12.7,7.5c-1,0.6-1.9,2.1-1.9,3.2l0,4.2
							c0,1.2,0.8,1.7,1.9,1.1l12.7-7.5C136.9,338,137.7,336.6,137.7,335.4z"/>
					</g>
				</g>
			</g>
			<g>
				<g>
					<path class="st21" d="M166.2,375.6c0-10.9,0-21.8-0.1-32.7c8-4.6,16.1-9.2,24.3-13.9c8.2-4.7,16.4-9.4,24.7-14.1
						c0.1,11,0.1,22.1,0.2,33.1c0.1,11.1,0.1,22.2,0.2,33.3c-8.3,4.6-16.6,9.1-24.8,13.6c-8.2,4.5-16.3,9-24.4,13.4
						C166.3,397.5,166.3,386.6,166.2,375.6z"/>
					<path class="st22" d="M204.4,379.7c8.7-3.8,10.8-27.6,8.3-37.7c-2.9-12-12-20.2-19.8,0.4c-8.9-9.5-20.7-0.4-21.1,14.4
						c-0.2,6.7-0.4,20.8,1.3,29.5c2,10.4,10.5,10.3,16.3,2.6c2.4-3.2,4.2-8.9,5.8-15.8C197.2,376.4,201.9,380.8,204.4,379.7z"/>
					<path class="st23" d="M203.9,376.8c7.2-4.5,8.9-24.7,6.8-33.5c-2.6-10.7-9.8-15.2-16.8,3.3c-6-10-19.5-3.3-19.9,10
						c-0.3,9-0.8,34.3,4.6,34.9c2.4,0.2,5.6-0.2,8.5-3.8c2.7-3.4,5.1-9.6,7.6-17.5C198.1,372.8,201.5,378.3,203.9,376.8z"/>
					<path class="st24" d="M166.2,343c8-4.6,16.1-9.2,24.3-13.9c8.2-4.7,16.4-9.4,24.7-14.1c0.1,11,0.1,22.1,0.2,33.1
						c0.1,11.1,0.1,22.2,0.2,33.3C200,364.6,187.1,351,166.2,343z"/>
				</g>
				<g>
					<path class="st0" d="M163,353.3l0-4.9c0-1.3-1-1.9-2.2-1.2l-43.7,25.3c-1.2,0.7-2.1,2.4-2.1,3.7l0,4.9c0,1.4,1,1.9,2.1,1.2
						l43.7-25.3C162.1,356.4,163,354.7,163,353.3z"/>
					<path class="st0" d="M163,370.5l0-4.9c0-1.3-1-1.9-2.2-1.2l-43.7,25.3c-1.2,0.7-2.1,2.3-2.1,3.7l0,4.8c0,1.4,1,1.9,2.1,1.2
						l43.7-25.3C162.1,373.5,163,371.8,163,370.5z"/>
					<path class="st0" d="M163,387.6l0-4.8c0-1.3-1-1.9-2.2-1.2l-43.7,25.3c-1.2,0.7-2.1,2.3-2.1,3.7l0,4.8c0,1.4,1,1.9,2.1,1.2
						l43.7-25.3C162.1,390.6,163,389,163,387.6z"/>
					<path class="st0" d="M163,404.7l0-4.8c0-1.3-1-1.9-2.2-1.2L134.7,414c-1.2,0.7-2.1,2.3-2.1,3.7l0,4.8c0,1.4,1,1.9,2.1,1.2
						l26.2-15.3C162.1,407.7,163,406.1,163,404.7z"/>
				</g>
			</g>
			<g>
				<path class="st0" d="M216.9,427.1c0,8.3-5.8,18.5-13.1,22.7l-74.9,43c-7.2,4.2-13.2,0.8-13.2-7.5l-0.3-26.2
					c0-8.3,5.8-18.5,13.1-22.7l74.9-43c7.3-4.2,13.2-0.8,13.2,7.5L216.9,427.1z"/>
				<g>
					<path class="st25" d="M120.5,444.4c9.9-1.1,17.5,8.9,24.9,5c0.3-0.2,0.7-0.4,1-0.5c4.1-2.4,6.2-5,8.2-7.5c2-2.5,3.7-5,7-6.9
						c0.1-0.1,0.3-0.2,0.4-0.2c7.3-4,10,6.2,19.9,1.3c0.3-0.2,0.7-0.3,1-0.5c4.3-2.5,7.6-6.8,10.7-11c3.1-4.2,6-8.4,9.8-10.5
						c0.4-0.2,0.9-0.5,1.3-0.7c4.4-1.8,8.5-0.4,12.2,1.3l0.2,13c0,5-2.1,10.6-5.3,15.3l-90.3,52c-3.4-0.8-5.6-4-5.6-9.1l-0.1-6.9
						l0-20.9C115.9,452.2,117.9,448.1,120.5,444.4z"/>
					
						<linearGradient id="SVGID_7_" gradientUnits="userSpaceOnUse" x1="755.2467" y1="109.7098" x2="750.9099" y2="76.9776" gradientTransform="matrix(-1 0 0 -1 919.8628 552)">
						<stop  offset="0" style="stop-color:#31ADCC"/>
						<stop  offset="0.9951" style="stop-color:#198AA6"/>
					</linearGradient>
					<path class="st26" d="M145.7,459.5c0.2-0.1,0.4-0.2,0.5-0.3c4.2-2.4,6.4-5.8,8.3-8.9c1.9-3.1,3.5-6.1,6.3-7.7
						c0.3-0.2,0.7-0.3,1-0.5c6.8-2.9,9.4,7.9,19.2,2.8c0.3-0.2,0.6-0.3,0.8-0.5c4.5-2.6,7.9-7.1,11.2-11.5c3.3-4.4,6.4-8.7,10.3-11
						c0.4-0.2,0.8-0.4,1.1-0.6c5-2.2,8.5,0.3,12.3,2.2l0,3.5c0,8.3-5.8,18.5-13.1,22.7l-74.9,43c-7.2,4.2-13.2,0.8-13.2-7.5
						l-0.1-6.9l0-20.9l0-0.2l0.4-0.2C132.1,447.7,136.7,464.3,145.7,459.5z"/>
					<g>
						<path class="st27" d="M216.4,431.7c-0.3-0.2-0.7-0.4-1-0.6c-3.2-1.8-6.4-3.5-10.7-1.5c-0.2,0.1-0.4,0.2-0.6,0.3
							c-0.2,0.1-0.4,0.2-0.6,0.3c-3.7,2.3-6.8,6.6-9.9,11.1l-0.3,0.5c-1.6,2.3-3.3,4.7-5.2,6.8c-1.8,2.1-3.8,4-6,5.3l-0.4,0.2
							l-0.4,0.2c-5.5,3-8.7,0.7-11.7-1.3c-2.4-1.6-4.5-3.1-7.6-1.8c-0.2,0.1-0.4,0.2-0.5,0.2c-0.2,0.1-0.3,0.2-0.5,0.3
							c-2.6,1.6-4.1,4.2-5.8,7.2l-0.6,1c-1,1.7-2,3.4-3.3,5c-1.3,1.6-2.9,3.1-5,4.4l-0.5,0.3c-3.8,2.1-6.8,0.2-10.3-2
							c-4.7-3-10.1-6.4-19.3-0.8l-0.4,0.3v-1.9l0.4-0.3c9.2-5.6,14.7-2.2,19.4,0.8c3.4,2.2,6.4,4.1,10.2,2l0.5-0.3
							c2.1-1.3,3.7-2.8,5-4.4c1.3-1.6,2.4-3.3,3.3-5l0.6-1c1.7-3,3.2-5.6,5.8-7.2c0.2-0.1,0.3-0.2,0.5-0.3c0.2-0.1,0.3-0.2,0.5-0.2
							c3-1.3,5.2,0.2,7.6,1.8c2.9,2,6.2,4.2,11.7,1.3l0.4-0.2l0.4-0.2c2.2-1.4,4.2-3.2,6-5.3s3.5-4.5,5.2-6.8l0.3-0.5
							c3.2-4.5,6.2-8.9,10-11.1c0.2-0.1,0.4-0.2,0.6-0.3c0.2-0.1,0.4-0.2,0.6-0.3c4.3-2,7.5-0.3,10.8,1.5c0.4,0.2,0.9,0.5,1.3,0.7
							C216.6,430.5,216.5,431.1,216.4,431.7z"/>
						<path class="st0" d="M216.6,430.5c-0.4-0.2-0.9-0.4-1.3-0.7c-3.2-1.6-6.4-3.3-10.7-1.4c-0.2,0.1-0.4,0.2-0.6,0.3
							c-0.2,0.1-0.4,0.2-0.6,0.3c-3.7,2.1-6.8,6.2-9.9,10.5l-0.3,0.4c-1.6,2.2-3.3,4.4-5.2,6.4s-3.8,3.8-6,5l-0.4,0.2l-0.4,0.2
							c-5.5,2.8-8.7,0.7-11.7-1.2c-2.4-1.5-4.5-2.9-7.6-1.7c-0.2,0.1-0.4,0.1-0.5,0.2c-0.2,0.1-0.3,0.2-0.5,0.3
							c-2.6,1.5-4.1,4-5.8,6.8l-0.6,0.9c-1,1.6-2,3.2-3.3,4.7c-1.3,1.5-2.9,3-5,4.2l-0.5,0.3c-3.8,2-6.8,0.2-10.3-1.8
							c-4.7-2.8-10.1-6-19.3-0.7l-0.4,0.2v-1.8l0.4-0.2c9.2-5.3,14.7-2.1,19.4,0.7c3.4,2,6.4,3.8,10.2,1.8l0.5-0.3
							c2.1-1.2,3.7-2.6,5-4.2c1.3-1.5,2.4-3.1,3.3-4.7l0.6-0.9c1.7-2.8,3.2-5.3,5.8-6.8c0.2-0.1,0.3-0.2,0.5-0.3
							c0.2-0.1,0.3-0.2,0.5-0.2c3-1.3,5.2,0.1,7.6,1.7c2.9,1.9,6.2,4,11.7,1.2l0.4-0.2l0.4-0.2c2.2-1.3,4.2-3,6-5s3.5-4.2,5.2-6.4
							l0.3-0.5c3.2-4.3,6.2-8.4,10-10.5c0.2-0.1,0.4-0.2,0.6-0.3c0.2-0.1,0.4-0.2,0.6-0.3c4.3-1.9,7.5-0.3,10.8,1.4
							c0.5,0.3,1,0.5,1.5,0.8C216.8,429.4,216.7,429.9,216.6,430.5z"/>
					</g>
				</g>
				<g>
					<path class="st0" d="M205.2,424.9c0.3,0.2,0.8,0.1,1.2-0.1c0.5-0.3,0.9-0.8,1.3-1.3s0.5-1.2,0.5-1.7c0-0.6-0.2-1-0.5-1.2
						c-0.3-0.2-0.8-0.2-1.3,0.1c-0.5,0.3-0.9,0.8-1.2,1.3c-0.3,0.6-0.5,1.2-0.5,1.8S204.9,424.7,205.2,424.9L205.2,424.9z
						 M206.5,421.4c0.7-0.4,1.2-0.1,1.2,0.7c0,0.7-0.5,1.6-1.2,2c-0.6,0.4-1.1,0.1-1.1-0.7C205.4,422.7,205.9,421.8,206.5,421.4
						L206.5,421.4z M206.5,420c0.7-0.4,1.2-0.4,1.7-0.2c0.4,0.2,0.7,0.8,0.7,1.5c0,0.7-0.2,1.6-0.7,2.3c-0.4,0.8-1,1.4-1.7,1.8
						c-0.6,0.4-1.2,0.4-1.7,0.2c-0.4-0.2-0.7-0.8-0.7-1.5c0-0.8,0.2-1.6,0.7-2.3C205.3,421,205.8,420.4,206.5,420z"/>
					<path class="st0" d="M163.1,442.6c0.6-0.4,1.1-0.1,1.2,0.7c0,0.7-0.5,1.6-1.2,2c-0.6,0.4-1.2,0.1-1.2-0.7
						S162.5,442.9,163.1,442.6L163.1,442.6z M161.9,446c0.3,0.2,0.8,0.2,1.3-0.1c0.5-0.3,0.9-0.8,1.2-1.3c0.3-0.6,0.5-1.2,0.5-1.7
						c0-0.6-0.2-1-0.5-1.2c-0.3-0.2-0.8-0.2-1.2,0.1c-0.5,0.3-0.9,0.8-1.2,1.3c-0.3,0.6-0.5,1.2-0.5,1.8
						C161.4,445.4,161.6,445.8,161.9,446L161.9,446z M160.8,445.2c0,0.7,0.3,1.2,0.7,1.5c0.4,0.2,1,0.2,1.7-0.2
						c0.7-0.4,1.2-1,1.7-1.8c0.4-0.7,0.7-1.6,0.7-2.3c0-0.8-0.3-1.3-0.7-1.5c-0.4-0.3-1-0.2-1.7,0.2s-1.2,1-1.7,1.8
						C161.1,443.7,160.8,444.5,160.8,445.2z"/>
					<path class="st0" d="M123.9,454.8c0.6-0.4,1.2-0.1,1.2,0.7c0,0.7-0.5,1.6-1.2,2c-0.6,0.4-1.2,0.1-1.2-0.7
						S123.3,455.2,123.9,454.8L123.9,454.8z M122.7,458.3c0.3,0.2,0.8,0.2,1.2-0.1c0.5-0.3,0.9-0.8,1.2-1.3c0.3-0.6,0.5-1.2,0.5-1.8
						s-0.2-1-0.5-1.1c-0.3-0.2-0.8-0.2-1.2,0.1c-0.5,0.3-0.9,0.8-1.2,1.3c-0.3,0.6-0.5,1.2-0.5,1.8
						C122.2,457.7,122.4,458.1,122.7,458.3L122.7,458.3z M121.6,457.5c0,0.7,0.3,1.3,0.7,1.5c0.4,0.2,1,0.2,1.7-0.2
						c0.7-0.4,1.2-1,1.7-1.8c0.4-0.7,0.7-1.6,0.7-2.3c0-0.8-0.3-1.3-0.7-1.5c-0.4-0.3-1-0.2-1.7,0.2c-0.6,0.4-1.2,1-1.7,1.8
						C121.8,455.9,121.6,456.7,121.6,457.5z"/>
				</g>
			</g>
			<g>
				<g>
					<path class="st0" d="M177.5,228.3l0-4.2c0-1.2-0.8-1.7-1.9-1.1l-54.4,31.6c-1,0.6-1.9,2.1-1.9,3.2l0,4.2c0,1.2,0.8,1.7,1.9,1.1
						l54.4-31.6C176.7,230.9,177.5,229.5,177.5,228.3z"/>
					<path class="st0" d="M176.8,214.6l0-4.2c0-1.2-0.8-1.7-1.9-1.1l-54.4,31.6c-1,0.6-1.9,2.1-1.9,3.2l0,4.2c0,1.2,0.8,1.7,1.9,1.1
						l54.4-31.6C176,217.2,176.8,215.8,176.8,214.6z"/>
					<path class="st0" d="M177.5,242.1l0-4.2c0-1.2-0.8-1.7-1.9-1.1l-20,11.5c-1,0.6-1.9,2.1-1.9,3.2l0,4.2c0,1.2,0.8,1.7,1.9,1.1
						l20-11.5C176.7,244.7,177.5,243.3,177.5,242.1z"/>
				</g>
				<g>
					<path class="st7" d="M217.4,201.9c0-11.6-8.3-16.4-18.4-10.5c-10.2,5.9-18.3,20-18.3,31.7c0,11.6,8.3,16.4,18.4,10.5
						C209.2,227.8,217.4,213.6,217.4,201.9z"/>
					<g>
						
							<linearGradient id="SVGID_8_" gradientUnits="userSpaceOnUse" x1="721.671" y1="345.2656" x2="715.2218" y2="332.1464" gradientTransform="matrix(-1 0 0 -1 919.8628 552)">
							<stop  offset="0" style="stop-color:#632E40"/>
							<stop  offset="1" style="stop-color:#48202D"/>
						</linearGradient>
						<path class="st28" d="M201.6,200c-12.3-1.4-14.6,15.9-5.4,22c1.9,1.2,1.9-1.3,2.9-3.3c0.4-0.9,0.6-1.6,1.1-2.9l1.1-1.2
							c0.8,0.5,1.6,1.3,1.9,2.2c0,2.7,3.6,6,4.6,9.5c1.3-1.5,2.4-3.1,3.5-4.8c-0.2-1.2-0.6-2.5-1.2-3.7c-1.1-2.1-0.4-4.6-0.9-9.3
							c-0.3-3.2-1.3-8.5-6.4-8.3c-0.3,0-0.5,0-0.8-0.1L201.6,200z"/>
						<g>
							
								<linearGradient id="SVGID_9_" gradientUnits="userSpaceOnUse" x1="719.7734" y1="330.8699" x2="718.5294" y2="321.9919" gradientTransform="matrix(-1 0 0 -1 919.8628 552)">
								<stop  offset="0" style="stop-color:#2981E6"/>
								<stop  offset="1" style="stop-color:#1761A6"/>
							</linearGradient>
							<path class="st29" d="M190.8,223.3c0-0.7,0.2-1.2,0.6-1.7c0.6-0.9,3.6-3.1,4.6-3.7c2.2-1.4,4.7-2.4,6.5-3.2
								c2.1-0.9,3.3-0.4,4,0.6c0.2,0.3,0.4,0.6,0.5,1c0.1,0.4,0.3,1.1,0.4,1.9c0.4,1,0.9,1.9,1.8,3.2c0.4,0.6,0.7,1.2,0.8,1.8
								c-3.1,4.4-6.8,8.1-11,10.5c-1.2,0.7-2.3,1.2-3.4,1.6c-0.1-0.3-0.2-0.6-0.4-0.9C193.8,231.5,190.6,226.6,190.8,223.3z"/>
							<path class="st15" d="M202.7,214.2c0.1,0.9,0.2,1.7,0.4,2.5c-0.7,1.3-3.4,2.3-5,0.8c0.1-1.7,0.7-4.1,0.3-6L202.7,214.2z"/>
							
								<linearGradient id="SVGID_10_" gradientUnits="userSpaceOnUse" x1="724.3942" y1="324.2098" x2="729.1141" y2="322.5865" gradientTransform="matrix(-1 0 0 -1 919.8628 552)">
								<stop  offset="0" style="stop-color:#2981E6"/>
								<stop  offset="1" style="stop-color:#1761A6"/>
							</linearGradient>
							<path class="st30" d="M192.7,221.4c2,0.1,3.3,3.1,3.7,5.9c0.2,1.5,0.1,4.7,0,7.7c-1.8,0.8-3.6,1.1-5.2,1.2
								c-0.7-4.7-1.2-9.9-0.8-12.4C190.6,222.4,191.3,221.3,192.7,221.4z"/>
						</g>
						<path class="st17" d="M200.5,211.7c-0.7-0.3-0.9-1.7-2.1-1.5c-0.4,0.1-1.2,0.9,0,2c0.4,0.8,0.3,1.2,1.2,1.6
							c1.2,0.6,3.2,1.4,4.4,1.4c0.6,0,1.3-0.1,1.7-0.6c0.5-0.5,0.4-1.1,0.8-2.4c0.4-1.3,0.4-1.9-0.3-3.5c-0.1-0.3-0.2-0.6-0.2-1
							c0.2-1.8-0.2-3.1-1-4.3C205,205.2,200.4,209.3,200.5,211.7z"/>
					</g>
				</g>
			</g>
		</g>
	</g>
</g>
<linearGradient id="SVGID_11_" gradientUnits="userSpaceOnUse" x1="490.8186" y1="352.7967" x2="453.2029" y2="359.1475" gradientTransform="matrix(-1 0 0 -1 919.8628 552)">
	<stop  offset="0" style="stop-color:#31ADCC"/>
	<stop  offset="0.9951" style="stop-color:#198AA6"/>
</linearGradient>
<path class="st31" d="M434.8,218.9c-1.6-13-3.8-13.3-6-20.3c-15.4-8.3-10.5-38.3,9-98.5c-0.2-16.6,2-32.9,14.3-39.3l0.5,239.4
	c0,10.3-4.7,22.1-11.8,31.3C443.5,298.7,436.4,261.6,434.8,218.9z"/>
<g>
	<g>
		<g class="st32">
			<g>
				<defs>
					<polygon id="SVGID_12_" points="240.3,405.2 240.6,298.4 265.7,303.1 265.4,410 					"/>
				</defs>
				<clipPath id="SVGID_13_">
					<use xlink:href="#SVGID_12_"  style="overflow:visible;"/>
				</clipPath>
				<g class="st33">
					<g>
						<g>
							<g>
								<g>
									<g>
										<defs>
											<polyline id="SVGID_14_" points="265.4,392 242.5,405.6 240.5,316.4 263.4,302.7 265.4,392 											"/>
										</defs>
										<clipPath id="SVGID_15_">
											<use xlink:href="#SVGID_14_"  style="overflow:visible;"/>
										</clipPath>
										<path class="st34" d="M254.8,346.9C254.8,346.9,254.8,346.9,254.8,346.9L254.8,346.9l-3.9,2.3c-0.1,0-0.1,0.3-0.1,0.5
											l0.3,11.6l-4,2.4c-0.1,0-0.1,0.3-0.1,0.5l0.3,11.2c0,0.2,0.1,0.3,0.1,0.3c0,0,0,0,0,0l4-2.4l0.3,11.6
											c0,0.2,0.1,0.3,0.1,0.3c0,0,0,0,0,0l3.9-2.3c0.1,0,0.1-0.3,0.1-0.5l-0.3-11.6l4-2.4c0.1,0,0.1-0.3,0.1-0.5l-0.3-11.2
											c0-0.2,0-0.3-0.1-0.3c0,0,0,0,0,0l-4,2.4l-0.3-11.6C254.9,347,254.9,346.9,254.8,346.9"/>
									</g>
									<g>
										<defs>
											<polyline id="SVGID_16_" points="265.4,392 242.5,405.6 240.5,316.4 263.4,302.7 265.4,392 											"/>
										</defs>
										<clipPath id="SVGID_17_">
											<use xlink:href="#SVGID_16_"  style="overflow:visible;"/>
										</clipPath>
										<path class="st35" d="M251.4,392.8c-4-0.7-7-9.2-7.3-21.3c-0.3-14.5,3.5-28.7,8.6-31.7c0.8-0.5,1.7-0.7,2.5-0.5
											c4,0.7,7,9.2,7.3,21.3c0.3,14.5-3.5,28.7-8.6,31.7C253,392.8,252.2,392.9,251.4,392.8 M254.1,309.1
											c-0.7-0.1-1.4,0-2.2,0.4c-1.9,1.2-3.9,4.4-5.4,10c-1.4,5.2-2.1,11.4-2,17.5l0.2,10.1c-2.1,7.6-3.1,16.6-3,25l0,1.3
											c0.2,8,1.5,15.3,3.7,20.2c1.6,3.5,3.4,5.4,5.4,5.7c1,0.2,2,0,3.1-0.6c2.9-1.7,5.7-6.5,7.8-14c2.1-7.4,3.1-16.3,3-24.6l0-2
											c-0.2-5.8-0.9-11.2-2.2-15.7c-1.7-5.8-4.3-9.3-7-9.8c-1-0.2-1.9,0-2.9,0.6l0,0c-1.9,1.1-3.7,3.5-5.2,7
											c-0.2-5.8-0.3-10.8,1.2-16.5c1-3.8,2.3-5.9,3.6-6.7c0.5-0.3,1-0.4,1.4-0.3c2,0.4,3.8,4.2,4.2,10.7l2.8,4.3l-0.1-4.2
											C260.2,316.4,257.4,309.8,254.1,309.1"/>
									</g>
								</g>
							</g>
						</g>
					</g>
				</g>
			</g>
		</g>
	</g>
</g>
<g>
	<g class="st32">
		<defs>
			<polygon id="SVGID_18_" class="st32" points="275.5,361.3 290.9,238.3 429.5,248.6 414.1,371.6 			"/>
		</defs>
		<clipPath id="SVGID_19_">
			<use xlink:href="#SVGID_18_"  style="overflow:visible;"/>
		</clipPath>
		<g class="st36">
			<g>
				<defs>
					<polyline id="SVGID_20_" points="276.7,361.4 278.3,339.5 428.3,248.5 426.8,270.4 276.7,361.4 					"/>
				</defs>
				<clipPath id="SVGID_21_">
					<use xlink:href="#SVGID_20_"  style="overflow:visible;"/>
				</clipPath>
				<path class="st37" d="M287.5,334.5c-0.5,0-1.3,0.2-2.7,0.9c-3.7,2.3-6.9,8-7.4,15.2c-0.4,5.1,0.8,7.6,2.8,7.7
					c0.8,0.1,1.7-0.2,2.7-0.8c1.5-0.9,2.6-2,3.3-2.8l-0.2-1.9c-0.6,0.8-1.6,1.7-2.6,2.3c-0.8,0.5-1.5,0.7-2,0.6
					c-1.6-0.1-2.4-2.2-2.1-6.3c0.4-5.8,2.7-10,5.4-11.7c1-0.6,1.7-0.8,2.3-0.7c0,0,0.1,0,0.1,0l0.6-2.4
					C287.6,334.6,287.6,334.5,287.5,334.5"/>
				<path class="st37" d="M291.7,349.8c-1.6-0.1-2.2-3-2-6.7c0.3-4.5,1.8-9.6,4.5-11.2c0.5-0.3,0.9-0.4,1.2-0.4
					c1.7,0.1,2.2,3.3,2,6.7c-0.3,4.6-1.9,9.6-4.5,11.2C292.5,349.7,292.1,349.8,291.7,349.8 M296.6,329c-0.6,0-1.2,0.1-1.9,0.5
					l-0.4,0.2c-3.3,2.1-5.9,7.8-6.4,14.5c-0.4,5.1,0.7,7.9,2.7,8.1c0.6,0,1.3-0.2,2-0.6l0.1-0.1c3.2-2,6-7.2,6.5-14.6
					C299.6,332.1,298.6,329.2,296.6,329"/>
				<path class="st37" d="M311.4,319.7l-1.9,1.1l-2.8,11.6c-0.7,3-1.4,6.1-2,8.8l-0.1,0c-0.2-2.3-0.5-4.8-0.8-7.2l-1.2-9.2l-1.9,1.2
					l2.7,18.7l1.9-1.2L311.4,319.7"/>
				<polyline class="st37" points="314.7,317.7 313,318.7 311.5,340 313.2,338.9 314.7,317.7 				"/>
				<path class="st37" d="M318.1,334l1.2-16.9c0.4-0.4,1-0.8,1.7-1.3c0.9-0.6,1.7-0.8,2.3-0.8c1.7,0.1,2.3,2.3,2.1,6
					c-0.4,6.2-2.6,10.3-5.8,12.2l0,0C319.1,333.5,318.5,333.8,318.1,334 M324.6,312.5c-0.9-0.1-2.1,0.3-3.5,1.2
					c-1.2,0.8-2.4,1.6-3.4,2.5l-1.5,20.9c0.8-0.3,1.7-0.8,2.8-1.5c2.4-1.4,4.4-3.6,5.7-6.2c1.3-2.5,2.2-5.8,2.5-9.7
					c0.3-3.7-0.3-5.8-1.4-6.7C325.5,312.7,325.1,312.5,324.6,312.5"/>
				<polyline class="st37" points="333.7,317.5 328.8,320.5 328.6,322.5 333.6,319.5 333.7,317.5 				"/>
				<polyline class="st37" points="341.5,302.2 340,303.1 336.9,307.3 337.1,309.1 339.5,305.8 339.6,305.8 338.3,323.7 340,322.7 
					341.5,302.2 				"/>
				<path class="st37" d="M348.2,308.4c-0.8-0.1-1.3-1.2-1.1-3.2c0.2-3.1,1.4-5.6,2.7-6.4c0.3-0.2,0.6-0.3,0.9-0.3
					c1,0.1,1.4,1.9,1.2,4.9c0,0.5-0.1,0.9-0.2,1.2c-0.5,1.5-1.5,2.8-2.5,3.5C348.8,308.3,348.5,308.4,348.2,308.4 M351.6,296.2
					c-0.4,0-1,0.1-1.5,0.5c-2.6,1.6-4.5,5.9-4.8,9.8c-0.2,2.7,0.5,4.3,1.8,4.4c0.4,0,0.9-0.1,1.5-0.4c1.3-0.8,2.3-2.1,3.1-3.8l0.1,0
					c-0.4,2.7-1.2,4.9-2.1,6.6c-0.8,1.4-1.7,2.6-2.7,3.4c-0.4,0.4-0.8,0.6-1.1,0.8c-0.1,0-0.2,0.1-0.3,0.1l-0.2,2.2l0.2-0.1
					c0.4-0.2,0.8-0.5,1.3-0.9c1.4-1.1,2.8-3,3.9-5.1c1.4-2.8,2.5-6.5,2.8-10.9C353.9,298.7,353.2,296.3,351.6,296.2"/>
				<polyline class="st37" points="362.3,288.8 360.6,289.9 359.1,311.1 360.8,310.1 362.3,288.8 				"/>
				<path class="st37" d="M377.3,279.7l-2.2,1.3l-3,11.5c-0.8,3.1-1.4,5.6-1.9,8l-0.1,0c-0.2-2.1-0.5-4.1-0.8-6.4l-1.5-8.8l-2.1,1.3
					l-2.4,21.8l1.6-1l1-9.3c0.3-3.2,0.7-6.7,0.9-9.3l0.1,0c0.2,2.3,0.5,4.7,0.9,7.2l1.4,8.7l1.3-0.8l3-11.6c0.8-3.2,1.5-6.1,2.1-8.8
					l0.1,0c-0.2,2.6-0.3,5.9-0.4,8.8l-0.3,9.1l1.7-1L377.3,279.7"/>
				<path class="st37" d="M392.8,270.3l-2.2,1.3l-2.9,11.5c-0.8,3.1-1.4,5.6-1.9,8l-0.1,0c-0.2-2.1-0.5-4.1-0.8-6.4l-1.5-8.8
					l-2.1,1.3l-2.4,21.8l1.6-1l1-9.3c0.3-3.2,0.7-6.6,0.9-9.3l0.1,0c0.2,2.3,0.5,4.7,0.9,7.2l1.4,8.7l1.3-0.8l3-11.6
					c0.8-3.2,1.5-6.1,2.1-8.8l0.1,0c-0.2,2.6-0.3,5.9-0.4,8.8l-0.3,9.1l1.7-1L392.8,270.3"/>
				<path class="st37" d="M405.6,262.6l-1.8,1.1l-0.9,13.1c-0.3,4.4-1.6,7-3.4,8.1c-0.4,0.2-0.8,0.4-1.1,0.3c-1-0.1-1.6-1.5-1.3-4.9
					l0.9-13.1l-1.8,1.1l-0.9,13c-0.3,4.5,0.5,6.3,2,6.4c0.6,0,1.3-0.2,2-0.6c2.8-1.7,5-5.4,5.4-11.6L405.6,262.6"/>
				<path class="st37" d="M418.1,255l-1.6,1l-0.6,8.5c-0.2,3.4-0.4,6-0.4,8.9l-0.1,0c-0.5-1.9-1.1-3.8-1.8-5.7l-3.2-8.1l-1.9,1.1
					l-1.5,21.3l1.6-1l0.6-8.6c0.3-3.8,0.4-6.4,0.5-9.1l0.1,0c0.5,2,1.1,3.9,1.8,5.7l3.2,8.2l1.7-1.1L418.1,255"/>
				<polyline class="st37" points="428,249 421.1,253.2 419.6,274.5 426.8,270.1 427,267.8 421.5,271.2 422,263.4 426.9,260.4 
					427.1,258.2 422.2,261.2 422.7,254.4 427.8,251.2 428,249 				"/>
			</g>
		</g>
	</g>
</g>
</svg>
