<?xml version="1.0" encoding="utf-8"?>
<!-- Generator: Adobe Illustrator 24.1.0, SVG Export Plug-In . SVG Version: 6.00 Build 0)  -->
<svg version="1.1" id="Layer_1" xmlns="http://www.w3.org/2000/svg" xmlns:xlink="http://www.w3.org/1999/xlink" x="0px" y="0px"
	 viewBox="0 0 500 500" style="enable-background:new 0 0 500 500;" xml:space="preserve">
<style type="text/css">
	.st0{fill:#050505;}
	.st1{fill:#020202;}
	.st2{fill:#FFFFFF;}
	.st3{fill:url(#SVGID_1_);}
	.st4{fill:#666666;}
	.st5{fill:url(#SVGID_2_);}
	.st6{fill:#E6E6E6;}
	.st7{fill:url(#SVGID_3_);}
	.st8{fill:#F2F2F2;}
	.st9{fill:#999999;}
	.st10{fill:url(#SVGID_4_);}
	.st11{fill:#3D3D3D;}
	.st12{fill:#1F1F1F;}
	.st13{fill:#080808;}
	.st14{fill:#0D0D0D;}
	.st15{fill:url(#SVGID_5_);}
</style>
<polygon points="251.93,357.45 245.77,353.9 239.62,357.45 245.77,361.01 "/>
<path d="M276.56,350.34l6.16,3.55l6.16,3.56l6.16,3.56l6.16,3.55l6.16,3.56l43.1-24.89l-6.16-3.56l-6.16-3.55l-6.16-3.56l-6.16-3.55
	l-6.16-3.55l-6.16-3.56l-6.16-3.55l-43.1,24.89l6.16,3.55L276.56,350.34z M307.35,325.46l6.16,3.55l6.16,3.55l6.16,3.56l6.16,3.55
	l6.16,3.56l-30.79,17.78l-6.16-3.56l-6.16-3.56l-6.16-3.55l-6.16-3.56l-6.16-3.55L307.35,325.46z"/>
<polygon points="270.41,353.9 264.25,350.34 258.09,346.78 251.93,350.34 258.09,353.9 251.93,357.45 258.09,361.01 "/>
<polygon points="239.62,371.67 245.77,368.12 239.62,364.56 233.46,361.01 227.3,364.56 233.46,368.12 "/>
<polygon points="258.09,368.12 251.93,364.56 245.77,368.12 251.93,371.67 "/>
<polygon points="301.19,350.34 307.35,353.9 325.83,343.23 319.67,339.68 313.51,336.12 307.35,332.56 288.88,343.23 295.04,346.78 
	"/>
<polygon points="270.41,361.01 264.25,364.56 270.41,368.12 276.56,364.56 "/>
<polygon points="227.3,385.89 221.14,382.34 202.67,393 208.83,396.56 214.99,400.11 221.14,403.67 239.62,393 233.46,389.45 "/>
<polygon points="270.41,368.12 258.09,375.23 264.25,378.78 276.56,371.67 "/>
<polygon points="288.88,371.67 295.04,375.23 301.19,378.78 307.35,375.23 301.19,371.67 295.04,368.12 288.88,364.56 
	276.56,371.67 282.72,375.23 "/>
<path d="M251.93,385.89l-6.16-3.56l-6.16-3.56l-6.16-3.55l-6.16-3.56l-6.16-3.56L178.04,393l6.16,3.55l6.16,3.56l6.16,3.55
	l6.16,3.56l6.16,3.56l6.16,3.55l6.16,3.56l43.1-24.89l-6.16-3.56L251.93,385.89z M221.14,410.78l-6.16-3.56l-6.16-3.56l-6.16-3.55
	l-6.16-3.56l-6.16-3.55l30.79-17.78l6.16,3.55l6.16,3.56l6.16,3.56l6.16,3.55l6.16,3.56L221.14,410.78z"/>
<polygon points="325.83,371.67 319.67,368.12 313.51,371.67 319.67,375.23 "/>
<polygon points="344.3,368.12 338.14,364.56 344.3,361.01 338.14,357.45 325.83,364.56 331.98,368.12 325.83,371.67 331.98,375.23 
	"/>
<polygon points="245.77,417.89 239.62,414.33 227.3,421.44 233.46,425 239.62,421.44 245.77,425 264.25,414.33 258.09,410.78 "/>
<polygon points="356.61,368.12 362.77,371.67 350.46,378.78 356.61,382.34 387.4,364.56 381.24,361.01 368.93,368.12 362.77,364.56 
	368.93,361.01 362.77,357.45 344.3,368.12 350.46,371.67 "/>
<polygon points="325.83,378.78 331.98,382.34 338.14,378.78 331.98,375.23 "/>
<polygon class="st0" points="282.72,403.67 276.56,400.11 288.88,393 295.04,396.56 301.19,393 307.35,396.56 313.51,393 
	307.35,389.45 313.51,385.89 307.35,382.34 301.19,378.78 295.04,382.34 288.88,378.78 282.72,375.23 276.56,378.78 282.72,382.34 
	288.88,385.89 282.72,389.45 276.56,385.89 270.41,382.34 264.25,378.78 258.09,382.34 264.25,385.89 270.41,389.45 276.56,393 
	258.09,403.67 264.25,407.22 270.41,410.78 276.56,407.22 282.72,410.78 288.88,414.33 295.04,410.78 288.88,407.22 "/>
<polygon points="338.14,378.78 344.3,382.34 350.46,378.78 344.3,375.23 "/>
<polygon points="344.3,389.45 350.46,385.89 344.3,382.34 338.14,385.89 "/>
<polygon points="301.19,421.44 307.35,417.89 301.19,414.33 295.04,417.89 "/>
<polygon class="st1" points="282.72,425 276.56,421.44 282.72,417.89 276.56,414.33 251.93,428.56 258.09,432.11 251.93,435.66 
	258.09,439.22 264.25,435.66 270.41,439.22 276.56,442.77 282.72,439.22 276.56,435.66 282.72,432.11 288.88,435.66 295.04,432.11 
	288.88,428.56 295.04,425 288.88,421.44 "/>
<polygon points="301.19,428.56 307.35,425 301.19,421.44 295.04,425 "/>
<polygon points="338.14,407.22 331.98,403.67 325.83,407.22 319.67,403.67 325.83,400.11 331.98,403.67 338.14,400.11 
	331.98,396.56 325.83,393 331.98,389.45 325.83,385.89 313.51,393 319.67,396.56 313.51,400.11 307.35,396.56 301.19,400.11 
	295.04,396.56 288.88,400.11 295.04,403.67 301.19,407.22 295.04,410.78 301.19,414.33 307.35,410.78 313.51,414.33 319.67,417.89 
	325.83,414.33 331.98,417.89 344.3,410.78 "/>
<polygon class="st1" points="276.56,449.89 282.72,446.33 276.56,442.77 270.41,446.33 "/>
<polygon points="356.61,410.78 362.77,414.33 368.93,410.78 362.77,407.22 356.61,403.67 344.3,410.78 350.46,414.33 "/>
<polygon points="399.72,385.89 393.56,382.34 375.09,393 381.24,396.56 387.4,400.11 393.56,403.67 412.03,393 405.87,389.45 "/>
<polygon points="338.14,428.56 344.3,425 350.46,428.56 356.61,432.11 375.09,421.44 368.93,417.89 362.77,421.44 356.61,417.89 
	350.46,421.44 344.3,417.89 338.14,421.44 331.98,417.89 319.67,425 325.83,428.56 331.98,425 "/>
<polygon points="295.04,446.33 282.72,453.44 288.88,456.99 295.04,453.44 301.19,456.99 307.35,453.44 313.51,456.99 
	319.67,460.55 325.83,456.99 319.67,453.44 313.51,449.89 307.35,446.33 301.19,449.89 "/>
<polygon class="st1" points="344.3,432.11 338.14,428.56 331.98,432.11 325.83,428.56 319.67,432.11 313.51,428.56 288.88,442.77 
	295.04,446.33 301.19,442.78 307.35,446.33 313.51,442.78 307.35,439.22 313.51,435.66 319.67,439.22 325.83,442.78 319.67,446.33 
	325.83,449.89 344.3,439.22 338.14,435.66 "/>
<polygon points="301.19,464.11 307.35,460.55 301.19,456.99 295.04,460.55 "/>
<path d="M430.51,389.45l-6.16-3.55l-6.16-3.55l-6.16-3.56l-6.16-3.55l-6.16-3.56l-6.16-3.56L350.46,393l6.16,3.55l6.16,3.56
	l6.16,3.55l6.16,3.56l6.16,3.55l6.16,3.55l6.16,3.56l43.1-24.89L430.51,389.45z M393.56,410.78l-6.16-3.55l-6.16-3.56l-6.16-3.55
	l-6.16-3.56l-6.16-3.55l30.79-17.78l6.16,3.55l6.16,3.56l6.16,3.55l6.16,3.55l6.16,3.56L393.56,410.78z"/>
<polygon class="st2" points="344.3,439.22 350.46,442.77 362.77,435.66 356.61,432.11 "/>
<linearGradient id="SVGID_1_" gradientUnits="userSpaceOnUse" x1="143.4022" y1="237.8599" x2="563.5975" y2="-16.6335">
	<stop  offset="0" style="stop-color:#14C1E8"/>
	<stop  offset="1" style="stop-color:#7720DF"/>
</linearGradient>
<path class="st3" d="M8.08,205.99c-8.25,4.76-6.75,23.87,1.49,28.64l144.86,83.63c8.25,4.76,21.62,4.76,29.87,0L489.94,141.8
	c8.25-4.76,9.87-23.78,1.62-28.54L345.09,40.92c-8.25-4.76-21.62-4.76-29.87,0L8.08,205.99z"/>
<path class="st2" d="M9.58,205.03c-8.25,4.76-8.25,12.48,0,17.24l144.86,83.63c8.25,4.76,21.62,4.76,29.87,0l305.64-176.46
	c8.25-4.76,8.24-12.48,0-17.24L345.09,28.57c-8.25-4.76-21.62-4.76-29.87,0L9.58,205.03z"/>
<path class="st4" d="M9.57,205.41L315.21,28.95c8.25-4.77,21.62-4.77,29.87,0l144.86,83.63c4.04,2.34,6.1,5.38,6.18,8.43
	c0.08-3.18-1.97-6.38-6.18-8.81L345.08,28.57c-8.25-4.76-21.62-4.76-29.87,0L9.57,205.03c-4.21,2.43-6.26,5.63-6.18,8.81
	C3.48,210.78,5.53,207.74,9.57,205.41z"/>
<linearGradient id="SVGID_2_" gradientUnits="userSpaceOnUse" x1="24.4183" y1="164.8519" x2="483.7632" y2="164.8519">
	<stop  offset="0" style="stop-color:#14C1E8"/>
	<stop  offset="1" style="stop-color:#7720DF"/>
</linearGradient>
<path class="st5" d="M28.53,196.93c-8.02,4.63-3.19,10.06,4.83,14.69l140.78,81.28c8.02,4.63,16.18,6.7,24.2,2.07l279.42-161.32
	c8.01-4.63,8.01-12.13,0-16.76L336.98,35.61c-8.01-4.63-21.01-4.63-29.03,0L28.53,196.93z"/>
<path class="st6" d="M174.27,292.89L33.5,211.62c-8.02-4.63-12.84-10.06-4.82-14.69L308.09,35.61c3.99-2.3,9.21-3.46,14.44-3.47
	c-5.28-0.01-10.56,1.15-14.58,3.47L28.53,196.93c-8.02,4.63-3.19,10.06,4.83,14.69l140.78,81.28c4.8,2.77,9.66,4.62,14.5,4.67
	C183.84,297.48,179.03,295.64,174.27,292.89z"/>
<path class="st4" d="M345.09,28.57l7.75,4.47c-8.25-4.76-21.62-4.76-29.87,0L17.33,209.51c-8.25,4.76-8.25,12.48,0,17.24l-7.75-4.48
	c-8.25-4.76-8.25-12.48,0-17.24L315.22,28.57C323.47,23.81,336.84,23.81,345.09,28.57z"/>
<g>
	<linearGradient id="SVGID_3_" gradientUnits="userSpaceOnUse" x1="391.0831" y1="179.5316" x2="434.6686" y2="179.5316">
		<stop  offset="0" style="stop-color:#14C1E8"/>
		<stop  offset="1" style="stop-color:#7720DF"/>
	</linearGradient>
	<path class="st7" d="M432.44,165.45c0.96,0,1.61,0.67,1.61,1.86c0,1.78-1.44,4.05-3.21,5.07l-35.91,20.73
		c-0.59,0.34-1.13,0.5-1.61,0.5c-0.96,0-1.61-0.66-1.61-1.86c0-1.77,1.44-4.05,3.22-5.07l35.91-20.73
		C431.42,165.61,431.96,165.45,432.44,165.45 M432.44,164.83c-0.59,0-1.26,0.2-1.92,0.58l-35.91,20.73
		c-1.98,1.14-3.53,3.61-3.53,5.61c0,1.49,0.9,2.48,2.23,2.48c0.59,0,1.26-0.2,1.92-0.58l35.91-20.73c1.98-1.14,3.53-3.61,3.53-5.61
		C434.67,165.83,433.77,164.83,432.44,164.83L432.44,164.83z"/>
	<path class="st8" d="M434.05,167.31c0-1.78-1.44-2.39-3.21-1.36l-35.91,20.73c-1.78,1.02-3.22,3.3-3.22,5.07l0,0
		c0,1.78,1.44,2.38,3.22,1.36l35.91-20.73C432.61,171.36,434.05,169.08,434.05,167.31L434.05,167.31z"/>
	<path class="st9" d="M433.07,165.57c0.57,0.25,0.92,0.84,0.92,1.71c0,1.78-1.44,4.05-3.22,5.07l-35.91,20.73
		c-0.87,0.5-1.66,0.61-2.24,0.38c0.58,0.26,1.4,0.17,2.3-0.36l35.91-20.73c1.78-1.03,3.21-3.3,3.21-5.07
		C434.05,166.41,433.67,165.81,433.07,165.57z"/>
	<path class="st2" d="M431.18,166.09l-35.91,20.73c-1.78,1.02-3.21,3.3-3.21,5.07c0,0.8,0.29,1.36,0.78,1.64
		c-0.69-0.19-1.12-0.81-1.12-1.79c0-1.77,1.44-4.05,3.22-5.07l35.91-20.73c0.97-0.56,1.85-0.63,2.44-0.29
		C432.71,165.5,431.98,165.63,431.18,166.09z"/>
	<linearGradient id="SVGID_4_" gradientUnits="userSpaceOnUse" x1="438.1707" y1="159.2292" x2="457.9073" y2="159.2292">
		<stop  offset="0" style="stop-color:#14C1E8"/>
		<stop  offset="1" style="stop-color:#7720DF"/>
	</linearGradient>
	<path class="st10" d="M455.67,152.03c0.96,0,1.61,0.67,1.61,1.86c0,1.78-1.44,4.05-3.22,5.07l-12.06,6.96
		c-0.59,0.34-1.13,0.5-1.61,0.5c-0.96,0-1.61-0.66-1.61-1.86c0-1.78,1.44-4.05,3.22-5.07l12.06-6.96
		C454.65,152.19,455.2,152.03,455.67,152.03 M455.67,151.41c-0.6,0-1.26,0.2-1.92,0.58l-12.06,6.96c-1.98,1.14-3.53,3.61-3.53,5.61
		c0,1.48,0.9,2.48,2.23,2.48c0.6,0,1.26-0.2,1.92-0.58l12.06-6.96c1.98-1.14,3.53-3.61,3.53-5.62
		C457.91,152.41,457.01,151.41,455.67,151.41L455.67,151.41z"/>
	<path class="st8" d="M457.28,153.89c0-1.77-1.44-2.38-3.22-1.36l-12.06,6.96c-1.78,1.02-3.22,3.29-3.22,5.07l0,0
		c0,1.78,1.44,2.39,3.22,1.36l12.06-6.96C455.85,157.94,457.28,155.67,457.28,153.89L457.28,153.89z"/>
	<path class="st9" d="M456.31,152.15c0.56,0.25,0.91,0.84,0.91,1.72c0,1.78-1.44,4.05-3.22,5.07l-12.06,6.96
		c-0.87,0.5-1.66,0.61-2.24,0.38c0.59,0.26,1.4,0.17,2.3-0.36l12.06-6.96c1.78-1.03,3.22-3.3,3.22-5.07
		C457.28,152.99,456.91,152.39,456.31,152.15z"/>
	<path class="st2" d="M454.41,152.68l-12.06,6.96c-1.77,1.02-3.21,3.3-3.21,5.07c0,0.8,0.29,1.36,0.78,1.64
		c-0.69-0.19-1.12-0.81-1.12-1.79c0-1.78,1.44-4.05,3.22-5.07l12.06-6.96c0.98-0.56,1.85-0.63,2.44-0.28
		C455.94,152.09,455.21,152.22,454.41,152.68z"/>
</g>
<g>
	<g>
		<path d="M31.13,240.53c0,1.15-0.93,1.55-2.08,0.88c-1.15-0.66-2.09-2.14-2.09-3.29c0-1.15,0.93-1.54,2.09-0.88
			C30.2,237.91,31.13,239.38,31.13,240.53z"/>
		<path class="st11" d="M29.05,237.24c-0.59-0.34-1.13-0.4-1.51-0.22c0.38-0.14,0.88-0.07,1.44,0.25c1.15,0.66,2.08,2.14,2.08,3.29
			c0,0.56-0.22,0.94-0.58,1.11c0.4-0.15,0.65-0.54,0.65-1.14C31.13,239.38,30.2,237.91,29.05,237.24z"/>
		<path class="st12" d="M29.55,241.2c-1.15-0.66-2.09-2.14-2.09-3.29c0-0.45,0.14-0.78,0.38-0.98c-0.53,0.07-0.89,0.49-0.89,1.19
			c0,1.15,0.93,2.63,2.09,3.29c0.71,0.41,1.33,0.42,1.7,0.1C30.41,241.55,30,241.46,29.55,241.2z"/>
		<g>
			<path d="M37.26,244.07c0,1.15-0.93,1.54-2.08,0.88c-1.15-0.66-2.09-2.14-2.09-3.29c0-1.15,0.93-1.55,2.09-0.88
				C36.33,241.45,37.26,242.92,37.26,244.07z"/>
			<path class="st12" d="M35.68,244.74c-1.15-0.66-2.09-2.14-2.09-3.29c0-0.45,0.14-0.78,0.38-0.98c-0.54,0.06-0.89,0.48-0.89,1.19
				c0,1.15,0.93,2.62,2.09,3.29c0.7,0.41,1.33,0.42,1.7,0.1C36.54,245.09,36.13,245,35.68,244.74z"/>
		</g>
		<g>
			<path d="M43.39,247.61c0,1.15-0.93,1.55-2.08,0.88c-1.15-0.66-2.09-2.14-2.09-3.29c0-1.15,0.93-1.55,2.09-0.88
				C42.45,244.98,43.39,246.45,43.39,247.61z"/>
			<path class="st12" d="M41.81,248.28c-1.15-0.67-2.08-2.14-2.08-3.29c0-0.44,0.14-0.77,0.38-0.98c-0.54,0.07-0.89,0.49-0.89,1.19
				c0,1.15,0.93,2.62,2.09,3.29c0.7,0.41,1.33,0.42,1.7,0.1C42.67,248.63,42.25,248.53,41.81,248.28z"/>
		</g>
		<g>
			<path d="M49.52,251.15c0,1.15-0.93,1.54-2.09,0.88c-1.15-0.66-2.09-2.14-2.09-3.29c0-1.15,0.93-1.55,2.09-0.88
				C48.58,248.52,49.52,249.99,49.52,251.15z"/>
			<path class="st12" d="M47.94,251.81c-1.15-0.66-2.08-2.14-2.08-3.29c0-0.44,0.14-0.78,0.38-0.98c-0.54,0.07-0.89,0.49-0.89,1.19
				c0,1.15,0.93,2.62,2.09,3.29c0.71,0.41,1.33,0.41,1.71,0.1C48.79,252.17,48.38,252.07,47.94,251.81z"/>
		</g>
		<g>
			<path d="M55.64,254.68c0,1.16-0.94,1.55-2.09,0.89c-1.15-0.67-2.08-2.14-2.08-3.29c0-1.16,0.93-1.55,2.08-0.88
				C54.71,252.06,55.64,253.53,55.64,254.68z"/>
			<path class="st12" d="M54.07,255.35c-1.15-0.66-2.09-2.14-2.09-3.29c0-0.45,0.14-0.77,0.38-0.98c-0.54,0.07-0.89,0.49-0.89,1.2
				c0,1.15,0.93,2.62,2.08,3.29c0.71,0.41,1.33,0.41,1.71,0.1C54.92,255.7,54.51,255.61,54.07,255.35z"/>
		</g>
		<path class="st11" d="M35.18,240.78c-0.59-0.34-1.13-0.4-1.5-0.22c0.37-0.14,0.88-0.07,1.44,0.25c1.15,0.66,2.09,2.14,2.09,3.29
			c0,0.56-0.22,0.94-0.58,1.11c0.4-0.15,0.65-0.54,0.65-1.13C37.26,242.92,36.33,241.45,35.18,240.78z"/>
		<path class="st11" d="M41.3,244.32c-0.59-0.34-1.13-0.4-1.51-0.23c0.37-0.14,0.88-0.07,1.44,0.25c1.15,0.67,2.09,2.14,2.09,3.29
			c0,0.56-0.22,0.94-0.58,1.1c0.4-0.15,0.64-0.54,0.64-1.13C43.39,246.45,42.45,244.98,41.3,244.32z"/>
		<path class="st11" d="M47.43,247.86c-0.59-0.34-1.13-0.4-1.5-0.23c0.37-0.14,0.88-0.07,1.44,0.25c1.15,0.67,2.09,2.14,2.09,3.29
			c0,0.56-0.22,0.94-0.58,1.11c0.4-0.15,0.64-0.54,0.64-1.13C49.51,249.99,48.58,248.52,47.43,247.86z"/>
		<path class="st11" d="M53.56,251.39c-0.59-0.34-1.13-0.4-1.5-0.23c0.37-0.14,0.88-0.07,1.44,0.26c1.15,0.66,2.09,2.13,2.09,3.29
			c0,0.56-0.22,0.94-0.58,1.11c0.4-0.15,0.65-0.54,0.65-1.13C55.64,253.53,54.71,252.06,53.56,251.39z"/>
	</g>
	<g>
		<path d="M102.25,281.59c0,1.15-0.93,1.55-2.09,0.88c-1.15-0.67-2.09-2.14-2.09-3.29c0-1.15,0.94-1.55,2.09-0.88
			C101.32,278.97,102.25,280.44,102.25,281.59z"/>
		<path class="st11" d="M100.17,278.3c-0.59-0.34-1.12-0.4-1.51-0.22c0.38-0.14,0.88-0.07,1.44,0.25c1.15,0.66,2.09,2.14,2.09,3.29
			c0,0.56-0.22,0.94-0.58,1.11c0.4-0.15,0.65-0.54,0.65-1.14C102.25,280.44,101.32,278.97,100.17,278.3z"/>
		<path class="st12" d="M100.67,282.26c-1.15-0.67-2.09-2.14-2.09-3.29c0-0.45,0.14-0.78,0.38-0.98c-0.54,0.07-0.89,0.49-0.89,1.2
			c0,1.15,0.94,2.62,2.09,3.29c0.71,0.41,1.33,0.41,1.7,0.1C101.53,282.61,101.12,282.52,100.67,282.26z"/>
		<g>
			<path d="M108.38,285.13c0,1.15-0.93,1.55-2.09,0.88c-1.15-0.66-2.09-2.14-2.09-3.29c0-1.15,0.93-1.55,2.09-0.88
				C107.44,282.51,108.38,283.98,108.38,285.13z"/>
			<path class="st12" d="M106.8,285.8c-1.15-0.66-2.08-2.14-2.08-3.29c0-0.45,0.14-0.78,0.38-0.98c-0.53,0.07-0.88,0.49-0.88,1.19
				c0,1.15,0.93,2.62,2.09,3.29c0.71,0.41,1.33,0.42,1.7,0.1C107.66,286.15,107.24,286.05,106.8,285.8z"/>
		</g>
		<g>
			<path d="M114.51,288.67c0,1.15-0.94,1.55-2.09,0.88c-1.15-0.67-2.08-2.14-2.08-3.29c0-1.15,0.93-1.55,2.08-0.88
				C113.57,286.04,114.51,287.51,114.51,288.67z"/>
			<path class="st12" d="M112.93,289.33c-1.15-0.67-2.08-2.14-2.08-3.29c0-0.45,0.14-0.78,0.38-0.98c-0.53,0.07-0.89,0.49-0.89,1.19
				c0,1.15,0.93,2.63,2.08,3.29c0.71,0.41,1.33,0.41,1.7,0.1C113.79,289.69,113.37,289.59,112.93,289.33z"/>
		</g>
		<g>
			<path d="M120.63,292.2c0,1.15-0.93,1.55-2.09,0.88c-1.15-0.67-2.08-2.14-2.08-3.29c0-1.16,0.93-1.55,2.08-0.88
				C119.7,289.58,120.63,291.05,120.63,292.2z"/>
			<path class="st12" d="M119.05,292.87c-1.15-0.67-2.08-2.14-2.08-3.29c0-0.44,0.14-0.78,0.38-0.98c-0.54,0.07-0.89,0.49-0.89,1.2
				c0,1.15,0.93,2.62,2.08,3.29c0.71,0.41,1.33,0.42,1.71,0.1C119.91,293.23,119.5,293.13,119.05,292.87z"/>
		</g>
		<g>
			<path d="M126.76,295.74c0,1.15-0.93,1.55-2.09,0.88c-1.15-0.66-2.09-2.14-2.09-3.29c0-1.15,0.93-1.55,2.09-0.88
				C125.83,293.12,126.76,294.59,126.76,295.74z"/>
			<path class="st12" d="M125.18,296.41c-1.15-0.66-2.09-2.14-2.09-3.29c0-0.44,0.14-0.78,0.38-0.98c-0.54,0.07-0.89,0.49-0.89,1.19
				c0,1.15,0.93,2.62,2.09,3.29c0.7,0.41,1.33,0.42,1.71,0.1C126.04,296.76,125.63,296.67,125.18,296.41z"/>
		</g>
		<path class="st11" d="M106.29,281.84c-0.59-0.35-1.13-0.4-1.51-0.23c0.37-0.14,0.88-0.07,1.44,0.25c1.15,0.66,2.09,2.14,2.09,3.29
			c0,0.56-0.22,0.94-0.58,1.11c0.4-0.15,0.65-0.54,0.65-1.13C108.38,283.98,107.44,282.51,106.29,281.84z"/>
		<path class="st11" d="M112.42,285.38c-0.59-0.34-1.13-0.4-1.5-0.22c0.37-0.14,0.88-0.07,1.44,0.25c1.15,0.66,2.09,2.14,2.09,3.29
			c0,0.56-0.22,0.94-0.58,1.11c0.39-0.15,0.64-0.54,0.64-1.13C114.5,287.51,113.57,286.04,112.42,285.38z"/>
		<path class="st11" d="M118.55,288.91c-0.59-0.34-1.12-0.4-1.5-0.22c0.37-0.14,0.88-0.07,1.44,0.25c1.15,0.66,2.08,2.14,2.08,3.29
			c0,0.56-0.22,0.94-0.58,1.11c0.4-0.15,0.65-0.54,0.65-1.13C120.63,291.05,119.7,289.58,118.55,288.91z"/>
		<path class="st11" d="M124.67,292.45c-0.59-0.34-1.13-0.4-1.51-0.23c0.37-0.14,0.88-0.07,1.44,0.25c1.15,0.67,2.09,2.14,2.09,3.29
			c0,0.56-0.22,0.94-0.58,1.11c0.4-0.15,0.65-0.54,0.65-1.13C126.76,294.59,125.82,293.12,124.67,292.45z"/>
	</g>
	<g>
		<path d="M65.73,260.7c0-1.87,1.51-2.51,3.38-1.43l15.49,8.95c1.87,1.08,3.38,3.46,3.38,5.33l0,0c0,1.87-1.51,2.51-3.38,1.43
			l-15.49-8.94C67.25,264.95,65.73,262.56,65.73,260.7L65.73,260.7z"/>
		<g>
			<path class="st13" d="M84.81,271.89l2.07-1.47c-0.6-0.9-1.4-1.7-2.28-2.21l-13.06-7.54l-1.74,1.22L84.81,271.89z"/>
		</g>
		<path class="st11" d="M84.61,268.22l-15.49-8.95c-0.95-0.55-1.8-0.65-2.42-0.37c0.61-0.25,1.44-0.13,2.36,0.4l15.49,8.95
			c1.87,1.08,3.38,3.47,3.38,5.33c0,0.92-0.37,1.54-0.96,1.8c0.63-0.25,1.02-0.88,1.02-1.83C87.99,271.68,86.48,269.29,84.61,268.22
			z"/>
		<path class="st12" d="M85.16,274.74l-15.49-8.95c-1.87-1.08-3.38-3.46-3.38-5.33c0-0.79,0.27-1.36,0.73-1.67
			c-0.78,0.17-1.29,0.83-1.29,1.91c0,1.87,1.51,4.25,3.38,5.33l15.49,8.94c1.07,0.62,2.03,0.67,2.65,0.24
			C86.68,275.34,85.96,275.2,85.16,274.74z"/>
		<polygon class="st14" points="69.81,261.97 84.87,270.66 84.87,271.86 69.81,263.17 		"/>
	</g>
</g>
<g>
	<g>
		<g>
			<polygon class="st2" points="262.26,117.88 258.67,115.8 255.09,117.88 258.67,119.95 			"/>
			<path class="st2" d="M276.61,113.73l3.59,2.07l3.59,2.07l3.59,2.07l3.59,2.07l3.59,2.07l25.11-14.49l-3.59-2.07l-3.59-2.07
				l-3.59-2.07l-3.59-2.07l-3.59-2.07l-3.59-2.07l-3.59-2.07l-25.11,14.5l3.59,2.07L276.61,113.73z M294.54,99.24l3.59,2.07
				l3.59,2.07l3.59,2.07l3.59,2.07l3.59,2.07l-17.93,10.35l-3.59-2.07l-3.59-2.07l-3.59-2.07l-3.59-2.07l-3.59-2.07L294.54,99.24z"
				/>
			<polygon class="st2" points="273.02,115.8 269.43,113.73 265.85,111.66 262.26,113.73 265.85,115.8 262.26,117.88 265.85,119.95 
							"/>
			<polygon class="st2" points="255.09,126.16 258.67,124.09 255.09,122.02 251.5,119.95 247.91,122.02 251.5,124.09 			"/>
			<polygon class="st2" points="265.85,124.09 262.26,122.02 258.67,124.09 262.26,126.16 			"/>
			<polygon class="st2" points="290.95,113.73 294.54,115.8 305.3,109.59 301.71,107.52 298.13,105.45 294.54,103.38 283.78,109.59 
				287.37,111.66 			"/>
			<polygon class="st2" points="273.02,119.95 269.43,122.02 273.02,124.09 276.61,122.02 			"/>
			<polygon class="st2" points="247.91,134.44 244.32,132.37 233.57,138.58 237.15,140.65 240.74,142.72 244.32,144.8 
				255.09,138.58 251.5,136.51 			"/>
			<polygon class="st2" points="273.02,124.09 265.85,128.23 269.43,130.3 276.61,126.16 			"/>
			<polygon class="st2" points="283.78,126.16 287.37,128.23 290.95,130.3 294.54,128.23 290.95,126.16 287.37,124.09 
				283.78,122.02 276.61,126.16 280.19,128.23 			"/>
			<path class="st2" d="M262.26,134.44l-3.59-2.07l-3.59-2.07l-3.59-2.07l-3.59-2.07l-3.59-2.07l-25.11,14.5l3.59,2.07l3.59,2.07
				l3.59,2.07l3.59,2.07l3.59,2.07l3.59,2.07l3.59,2.07l25.11-14.5l-3.59-2.07L262.26,134.44z M244.32,148.94l-3.59-2.07l-3.59-2.07
				l-3.59-2.07l-3.59-2.07l-3.59-2.07l17.93-10.35l3.59,2.07l3.59,2.07l3.59,2.07l3.59,2.07l3.59,2.07L244.32,148.94z"/>
			<polygon class="st2" points="305.3,126.16 301.71,124.09 298.13,126.16 301.71,128.23 			"/>
			<polygon class="st2" points="316.06,124.09 312.47,122.02 316.06,119.95 312.47,117.88 305.3,122.02 308.88,124.09 305.3,126.16 
				308.88,128.23 			"/>
			<polygon class="st2" points="258.67,153.08 255.09,151.01 247.91,155.15 251.5,157.22 255.09,155.15 258.67,157.22 
				269.43,151.01 265.85,148.94 			"/>
			<polygon class="st2" points="323.23,124.09 326.82,126.16 319.65,130.3 323.23,132.37 341.17,122.02 337.58,119.95 
				330.41,124.09 326.82,122.02 330.41,119.95 326.82,117.88 316.06,124.09 319.65,126.16 			"/>
			<polygon class="st2" points="305.3,130.3 308.88,132.37 312.47,130.3 308.88,128.23 			"/>
			<polygon class="st2" points="280.19,144.8 276.61,142.72 283.78,138.58 287.37,140.65 290.95,138.58 294.54,140.65 
				298.13,138.58 294.54,136.51 298.13,134.44 294.54,132.37 290.95,130.3 287.37,132.37 283.78,130.3 280.19,128.23 276.61,130.3 
				280.19,132.37 283.78,134.44 280.19,136.51 276.61,134.44 273.02,132.37 269.43,130.3 265.85,132.37 269.43,134.44 
				273.02,136.51 276.61,138.58 265.85,144.8 269.43,146.87 273.02,148.94 276.61,146.87 280.19,148.94 283.78,151.01 
				287.37,148.94 283.78,146.87 			"/>
			<polygon class="st2" points="312.47,130.3 316.06,132.37 319.65,130.3 316.06,128.23 			"/>
			<polygon class="st2" points="316.06,136.51 319.65,134.44 316.06,132.37 312.47,134.44 			"/>
			<polygon class="st2" points="290.95,155.15 294.54,153.08 290.95,151.01 287.37,153.08 			"/>
			<polygon class="st2" points="280.19,157.22 276.61,155.15 280.19,153.08 276.61,151.01 262.26,159.29 265.85,161.36 
				262.26,163.43 265.85,165.5 269.43,163.43 273.02,165.5 276.61,167.57 280.19,165.5 276.61,163.43 280.19,161.36 283.78,163.43 
				287.37,161.36 283.78,159.29 287.37,157.22 283.78,155.15 			"/>
			<polygon class="st2" points="290.95,159.29 294.54,157.22 290.95,155.15 287.37,157.22 			"/>
			<polygon class="st2" points="312.47,146.87 308.88,144.8 305.3,146.87 301.71,144.8 305.3,142.72 308.88,144.8 312.47,142.72 
				308.88,140.65 305.3,138.58 308.89,136.51 305.3,134.44 298.13,138.58 301.71,140.65 298.13,142.72 294.54,140.65 290.95,142.72 
				287.37,140.65 283.78,142.72 287.37,144.8 290.95,146.87 287.37,148.94 290.95,151.01 294.54,148.94 298.13,151.01 
				301.71,153.08 305.3,151.01 308.88,153.08 316.06,148.94 			"/>
			<polygon class="st2" points="276.61,171.71 280.19,169.64 276.61,167.57 273.02,169.64 			"/>
			<polygon class="st2" points="323.23,148.94 326.82,151.01 330.41,148.94 326.82,146.87 323.23,144.8 316.06,148.94 
				319.65,151.01 			"/>
			<polygon class="st2" points="348.34,134.44 344.75,132.37 333.99,138.58 337.58,140.65 341.17,142.72 344.75,144.8 
				355.51,138.58 351.93,136.51 			"/>
			<polygon class="st2" points="312.47,159.29 316.06,157.22 319.65,159.29 323.23,161.36 333.99,155.15 330.41,153.08 
				326.82,155.15 323.23,153.08 319.65,155.15 316.06,153.08 312.47,155.15 308.88,153.08 301.71,157.22 305.3,159.29 
				308.88,157.22 			"/>
			<polygon class="st2" points="287.37,169.64 280.19,173.79 283.78,175.86 287.37,173.79 290.95,175.86 294.54,173.79 
				298.13,175.86 301.71,177.93 305.3,175.86 301.71,173.79 298.13,171.71 294.54,169.64 290.95,171.71 			"/>
			<polygon class="st2" points="316.06,161.36 312.47,159.29 308.89,161.36 305.3,159.29 301.71,161.36 298.13,159.29 
				283.78,167.57 287.37,169.64 290.95,167.57 294.54,169.64 298.13,167.57 294.54,165.5 298.13,163.43 301.71,165.5 305.3,167.57 
				301.71,169.64 305.3,171.71 316.06,165.5 312.47,163.43 			"/>
			<polygon class="st2" points="290.95,180 294.54,177.93 290.95,175.86 287.37,177.93 			"/>
			<path class="st2" d="M366.27,136.51l-3.59-2.07l-3.59-2.07l-3.59-2.07l-3.59-2.07l-3.59-2.07l-3.59-2.07l-25.11,14.5l3.59,2.07
				l3.59,2.07l3.59,2.07l3.59,2.07l3.59,2.07l3.59,2.07l3.59,2.07l25.11-14.5L366.27,136.51z M344.75,148.94l-3.59-2.07l-3.59-2.07
				l-3.59-2.07l-3.59-2.07l-3.59-2.07l17.93-10.35l3.59,2.07l3.59,2.07l3.59,2.07l3.59,2.07l3.59,2.07L344.75,148.94z"/>
			<polygon class="st2" points="316.06,165.5 319.65,167.57 326.82,163.43 323.23,161.36 			"/>
		</g>
		<g>
			<g>
				<path class="st2" d="M376.8,155.02l-4.72-2.72l12.84-7.41c6.01-3.47,6.01-9.12,0-12.59l-12.84-7.42l4.72-2.72l12.84,7.42
					c8.61,4.97,8.61,13.06,0,18.04L376.8,155.02z"/>
			</g>
			<g>
				<path class="st2" d="M270.79,93.81l-4.72-2.72l12.84-7.42c8.61-4.97,22.63-4.97,31.24,0L323,91.09l-4.72,2.72l-12.84-7.42
					c-6.01-3.47-15.8-3.47-21.81,0L270.79,93.81z"/>
			</g>
			<g>
				<path class="st2" d="M278.92,193.49l-12.84-7.42l4.72-2.72l12.84,7.42c6.01,3.47,15.8,3.47,21.81,0l12.84-7.42l4.72,2.72
					l-12.84,7.41C301.55,198.47,287.53,198.47,278.92,193.49z"/>
			</g>
			<g>
				<path class="st2" d="M212.27,155.02l-12.84-7.42c-8.61-4.97-8.61-13.06,0-18.04l12.84-7.42l4.72,2.72l-12.84,7.42
					c-6.01,3.47-6.01,9.12,0,12.59l12.84,7.41L212.27,155.02z"/>
			</g>
		</g>
	</g>
	<g>
		<polygon class="st2" points="195.83,207.28 200.39,202.27 191.73,204.91 		"/>
		<path class="st2" d="M248.78,211.81L167.71,165c-7.38-4.26-19.34-4.26-26.71,0l-15.42,8.9c-7.38,4.26-7.38,11.17,0,15.42
			l81.07,46.8c7.38,4.26,19.34,4.26,26.71,0l15.42-8.91C256.15,222.97,256.15,216.07,248.78,211.81z M158.28,192.47
			c-2.21-0.18-4.41-0.9-6.61-2.16c-1.55-0.89-2.67-1.86-3.37-2.91c-0.7-1.04-0.88-2.03-0.55-2.95c0.33-0.92,1.13-1.75,2.39-2.47
			l4.61,2.66c-1.02,0.59-1.51,1.18-1.47,1.76c0.04,0.59,0.66,1.22,1.85,1.91c0.76,0.44,1.52,0.69,2.29,0.76
			c0.77,0.07,1.45-0.07,2.04-0.42c0.67-0.39,0.96-0.83,0.86-1.32c-0.1-0.49-0.55-1.2-1.34-2.12c-0.8-0.92-1.39-1.71-1.77-2.37
			c-1.26-2.13-0.83-3.81,1.3-5.03c1.06-0.61,2.3-0.97,3.72-1.08c1.42-0.11,2.93,0.03,4.5,0.42c1.58,0.39,3.07,0.99,4.48,1.81
			c1.37,0.79,2.36,1.64,2.95,2.55c0.6,0.91,0.75,1.8,0.45,2.67c-0.3,0.87-1.03,1.64-2.2,2.31l-4.59-2.65
			c0.78-0.45,1.14-0.94,1.09-1.46c-0.05-0.52-0.48-1.02-1.29-1.49c-0.82-0.47-1.65-0.74-2.49-0.81c-0.84-0.07-1.54,0.06-2.1,0.39
			c-0.49,0.28-0.67,0.69-0.54,1.22c0.13,0.53,0.64,1.3,1.53,2.31c0.9,1.01,1.52,1.9,1.88,2.67c0.87,1.88,0.27,3.42-1.82,4.62
			C162.43,192.25,160.49,192.65,158.28,192.47z M173.54,201.96c-1.74-0.36-3.38-0.98-4.9-1.86c-2.51-1.45-3.67-3.06-3.47-4.84
			c0.19-1.78,1.78-3.53,4.76-5.25l0.94-0.54c1.87-1.08,3.83-1.84,5.89-2.27c2.05-0.43,4.07-0.52,6.06-0.25
			c1.99,0.27,3.79,0.86,5.4,1.79c2.32,1.34,3.57,2.76,3.76,4.28c0.19,1.52-0.69,2.95-2.64,4.3l-4.59-2.65
			c1.13-0.69,1.67-1.34,1.63-1.95c-0.04-0.61-0.63-1.24-1.76-1.89c-1.14-0.66-2.41-0.9-3.8-0.71c-1.39,0.19-3.04,0.81-4.94,1.88
			l-1.35,0.78c-2.04,1.18-3.24,2.16-3.6,2.96c-0.36,0.8,0.08,1.56,1.33,2.28c1.06,0.61,2.11,0.93,3.17,0.97
			c1.06,0.03,2.15-0.25,3.26-0.86l4.57,2.64c-1.39,0.73-2.92,1.2-4.59,1.41C176.99,202.4,175.28,202.32,173.54,201.96z
			 M190.93,212.67l2.45-2.7l-6.3-3.64l-4.67,1.42l-4.92-2.84l26.08-6.98l4.33,2.5l-12.03,15.09L190.93,212.67z M213.2,225.52
			l-4.58-2.64l5.11-10.76l-11.88,6.86l-4.6-2.66l19.09-11.02l4.6,2.66l-5.13,10.75l11.88-6.86l4.59,2.65L213.2,225.52z"/>
	</g>
</g>
<radialGradient id="SVGID_5_" cx="-5554.6626" cy="6537.7217" r="9.9857" gradientTransform="matrix(0.1584 0.5728 -14.9967 8.7252 99259.1719 -53642.1836)" gradientUnits="userSpaceOnUse">
	<stop  offset="0" style="stop-color:#DAD7DE"/>
	<stop  offset="0.0453" style="stop-color:#B9B6BC"/>
	<stop  offset="0.1259" style="stop-color:#848185"/>
	<stop  offset="0.2009" style="stop-color:#5A5659"/>
	<stop  offset="0.2679" style="stop-color:#3C383A"/>
	<stop  offset="0.3244" style="stop-color:#2A2627"/>
	<stop  offset="0.3636" style="stop-color:#231F20"/>
	<stop  offset="0.994" style="stop-color:#000000"/>
</radialGradient>
<path class="st15" d="M336.57,224.8c-82.59,48.06-150.39,84.53-151.28,81.37c-0.9-3.15,65.5-44.74,148.16-92.84
	c82.63-48.08,150.39-84.52,151.38-81.43C485.55,135.15,419.27,176.68,336.57,224.8z"/>
</svg>
