<?xml version="1.0" encoding="utf-8"?>
<!-- Generator: Adobe Illustrator 23.0.4, SVG Export Plug-In . SVG Version: 6.00 Build 0)  -->
<svg version="1.1" id="_x2014_ÎÓÈ_x5F_1" xmlns="http://www.w3.org/2000/svg" xmlns:xlink="http://www.w3.org/1999/xlink"
	 x="0px" y="0px" viewBox="0 0 4000 4000" style="enable-background:new 0 0 4000 4000;" xml:space="preserve">
<style type="text/css">
	.st0{opacity:0.17;fill:#0071BC;}
	.st1{fill:#4CD3BB;}
	.st2{fill:#FEC147;}
	.st3{opacity:0.3;}
	.st4{stroke:#1D1D1B;stroke-width:0.7271;stroke-linecap:round;stroke-miterlimit:10;}
	.st5{opacity:0.1;}
	.st6{fill:#FFFFFF;}
	.st7{fill:#4F8BE2;}
	.st8{fill:#6F9EE2;}
	.st9{fill:#ED5157;}
	.st10{fill:#E0EAF9;}
	.st11{fill:#95CBE2;}
	.st12{fill:#33D3B7;}
</style>
<path class="st0" d="M3928,3578.6c0,38.2-840.4,69.1-1877,69.1c-1036.6,0-1877-31-1877-69.1c0-26.8,412.8-50,1016.7-61.5
	c49.1-0.9,99.5-1.8,151-2.6c40-0.6,80.8-1.1,122.1-1.7c184.7-2.2,382.1-3.4,587.1-3.4c370.9,0,716.6,4,1007.8,10.8
	c24,0.6,47.6,1.1,70.8,1.7c92.3,2.4,178.4,5.1,257.5,8C3721.5,3542.5,3928,3559.7,3928,3578.6z"/>
<g>
	<g>
		<g id="lock_1_">
			<path class="st1" d="M3734.2,2438.1l-158.1,0.3l0-7.7l-0.9-413.5c-0.5-222.3-181.2-402.9-403.2-403.5h-2.9
				c-223.5,0.5-404.9,182.6-404.4,406.1l0.8,412.6l0,7.7l-158.1,0.3l0-7.6l-0.9-412.7c-0.2-76,14.6-149.8,43.9-219.4
				c28.2-67.2,68.7-127.5,120.3-179.3c51.6-51.8,111.8-92.6,178.8-121.1c69.5-29.5,143.2-44.6,219.2-44.8h3.2
				c75.1,0.2,148,14.9,216.7,43.8c67.1,28.2,127.3,68.6,179,120.2c51.7,51.5,92.4,111.6,120.9,178.5c29.5,69.3,44.5,143,44.7,218.9
				l0.8,413.7L3734.2,2438.1z"/>
			<path class="st2" d="M3853.2,3452.6c0.1,67.9-54.8,123-122.7,123.2L3172,3577l-556.2,1.1c-67.9,0.1-123-54.8-123.2-122.7
				l-1.9-899.5c-0.1-65.9,51.6-119.7,116.7-123c2-0.1,4-0.2,6-0.2l152.1-0.3l406.5-0.8l404.1-0.8l152.1-0.3c2,0,4,0,6,0.2
				c65.1,3,117,56.6,117.2,122.5L3853.2,3452.6z"/>
			<g class="st3">
				
					<ellipse transform="matrix(0.7071 -0.7071 0.7071 0.7071 -1107.6112 3086.3389)" class="st4" cx="3171.7" cy="2880.2" rx="145" ry="145"/>
				<rect x="3099.7" y="2957.4" transform="matrix(1 -2.071623e-03 2.071623e-03 1 -6.4132 6.5782)" width="144.9" height="283.3"/>
			</g>
		</g>
	</g>
	<path class="st5" d="M3851.4,2553.1c-0.1-65.9-52.1-119.5-117.2-122.5l0,0l-0.8-413.7c-0.2-75.9-15.2-149.5-44.7-218.9
		c-28.5-66.9-69.1-127-120.9-178.5c-51.7-51.5-112-92-179-120.2c-68.8-28.9-141.7-43.6-216.7-43.8h-1.6v158.1h1.6
		c222.1,0.6,402.8,181.2,403.2,403.5l0.9,413.5l0,0l-404.1,0.8h-1.6v303.7v222.2v67.7v215.6V3577h1.6l558.6-1.2
		c67.9-0.1,122.8-55.3,122.7-123.2L3851.4,2553.1z"/>
</g>
<g>
	<g>
		<path class="st6" d="M2955.4,447.7l-0.1,16.2l-0.1,11.6l-1.5,187.9l-0.1,11.6l-1,126.4l-0.6,75.9l-0.3,33.2l-6.6,822.2l-1.5,191.4
			l-1.9,241.7l-1.5,191.6l-1.9,235.7l-1.5,191.7l-2.4,295.6l-2,247.9c-0.6,78.3-37.8,147.9-95.6,193.8
			c-10.3,8.1-21.2,15.5-32.7,22.1c-39,22.3-84.6,34.9-133.2,34.5l-1236.9-10c-60.8-0.5-116.6-21.3-160.6-55.8
			c-16-12.5-30.4-26.9-43-42.7c-34.2-43.2-54.4-97.4-53.9-156.1l13.5-1677.4l3-372.2l0.4-55l2.7-330.4l0.4-53.9l3.2-391.6
			c1.1-139.5,118.2-251.6,261.5-250.4l225.2,1.8l57.4,0.5l342.8,2.8l60,0.5l478.7,3.9l32.1,0.3l40.6,0.3
			c102.7,0.8,191,59.6,232.4,144.1C2946.7,370.7,2955.7,408.2,2955.4,447.7z"/>
		<path class="st7" d="M2743.4,3494.3c-22.6,9-47,13.6-72.2,13.4l-1236.9-10c-49.8-0.4-96.5-19.7-131.5-54.2
			c-4.7-4.7-9.1-9.5-13.3-14.6c-20.2,14.8-40,28.6-59.4,41.3c12.5,15.8,27,30.2,43,42.7c173.3-2.2,358.6-3.4,551-3.4
			c348.1,0,672.6,4,945.8,10.8C2760.5,3512.2,2751.6,3503.5,2743.4,3494.3z M2930.3,337.3c-41.4-84.6-129.7-143.3-232.4-144.1
			l-40.6-0.3l-32.1-0.3l-478.7-3.9l-60-0.5l-342.8-2.8l-57.4-0.5l-225.2-1.8c-143.3-1.1-260.4,110.9-261.5,250.4l-3.2,391.6
			l-0.4,53.9l-2.7,330.4l-0.4,55l-3,372.2l-13.5,1677.4c-0.5,58.7,19.7,112.9,53.9,156.1c12.5,15.8,27,30.2,43,42.7
			c44,34.5,99.7,55.3,160.6,55.8l1236.9,10c48.6,0.4,94.2-12.2,133.2-34.5c11.5-6.6,22.4-14,32.7-22.1
			c57.8-45.8,95-115.5,95.6-193.8l2-247.9l2.4-295.6l1.5-191.7l1.9-235.7l1.5-191.6l1.9-241.7l1.5-191.4l6.6-822.2l0.3-33.2
			l0.6-75.9l1-126.4l0.1-11.6l1.5-187.9l0.1-11.6l0.1-16.2C2955.7,408.2,2946.7,370.7,2930.3,337.3z M2492.2,262.5l132.1,1.1
			l32.1,0.3l40.9,0.3c49.8,0.4,96.5,19.7,131.5,54.2c5.8,5.7,11.1,11.7,16,17.9c24.8,31.8,38,70.4,37.7,110.9l-0.1,16l-0.1,11.6
			l-1.5,187.8l-0.1,11.6l-1,126.4l-0.6,75.9l-0.3,33.1l-6.6,823.7l-1.5,191.6l-1.9,242.2l-1.5,192l-1.9,236.3l-1.5,192.8l-2.4,302.2
			l-1.9,237.5c-0.4,48.5-20.2,93.9-55.7,127.9c-17.6,16.8-38,29.9-60.2,38.7c-22.6,9-47,13.6-72.2,13.4l-1236.9-10
			c-49.8-0.4-96.5-19.7-131.5-54.2c-4.7-4.7-9.1-9.5-13.3-14.6c-26.5-32.4-40.7-72.3-40.3-114.2l13.3-1657.8l3.2-392.5l0.4-55
			l2.6-328.1l0.4-53.6l3.2-393.6c0.4-48.5,20.2-93.9,55.7-127.9c35.5-34,82.5-52.5,132.3-52.1l205.1,1.6L2492.2,262.5z"/>
	</g>
</g>
<g>
	<g>
		<path class="st8" d="M2517.4,1215.1c0,125.6-51.1,239.2-133.6,321.2c-49.1,48.9-109.4,86.5-176.7,108.9
			c-12.9,4.3-26.1,8-39.5,11.2c-22.4,5.2-45.4,8.8-68.9,10.6c-0.7,0.1-1.5,0.1-2.2,0.2c-10.6,0.8-21.4,1.1-32.2,1.1
			c-9.3,0-18.5-0.3-27.6-0.8c-2.3-0.1-4.6-0.3-6.8-0.5c-23.5-1.8-46.5-5.3-68.9-10.6c-13.4-3.1-26.6-6.9-39.5-11.1
			c-67.3-22.3-127.5-60-176.7-108.9c-82.5-82.1-133.6-195.7-133.6-321.2c0-250.2,202.9-453.1,453.1-453.1
			S2517.4,964.8,2517.4,1215.1z"/>
		<path class="st6" d="M2193.6,1450.8l-26-16.3v0h0h0l0,0l-38.3-46.6v-14.4c0.1-1.6,0.1-3.2,0-4.6v0c10.4-4.2,21.2-10,31.7-17.8
			c41.5-30.7,54.1-74.4,61.1-98.9c1-3.4,1.9-6.8,2.7-10.2c2,4.7,4.5,7.4,6.4,8.5c1,0.6,4.1,2.3,7.1,1.3c0.9-0.3,1.6-0.8,2-1.2
			c8.9-7.6,13.1-17.3,14.2-20c0.2-0.6,0.5-1.2,0.8-1.8c3.9-9,4.9-19.3,6.8-39.1c0,0,1.7-17.6-0.7-41.8c-0.1-0.9-0.3-2.7-1-4.9
			c-1.7-5.5-6-11.9-9.2-12.5c-0.1,0-0.2,0-0.3,0c0.5-2.1,0.9-4.2,1.4-6.2c4.1-23.8,7.1-56.1,3.1-94c-2.5-23.6-7.2-44.2-12.4-61.4
			c-5.4-18-15.3-34.3-29.1-47c-0.5-0.4-1-0.9-1.5-1.3c-14-12.4-28.8-18.8-40.2-22.2c-9.8-2.9-19.5-6.1-29-9.7
			c-13.6-5.2-33-10.2-56.4-8.9c-25.5,1.4-44.9,9.7-55.8,15.4c-5.4-3.4-13.8-7.7-24.9-9.7c-18.3-3.3-33.4,1.7-41.1,5.1
			c-1.9,0.8-3.8,1.6-5.7,2.4c-13.8,5.8-34.3,16.7-53,36.9c-11.5,12.4-19.1,24.8-24.2,34.7c-7.3,15.8-15.2,37.5-19.1,64.2
			c-6.5,44.4,1.2,80.9,7.6,102.2c0,0.1,0.1,0.2,0.1,0.3c-2.9,1.9-6.2,7.2-7.7,11.8c-0.7,2.3-0.9,4.1-1,4.9
			c-2.3,24.2-0.7,41.8-0.7,41.8c1.9,19.8,2.9,30.1,6.8,39.1c0.3,0.6,0.5,1.2,0.8,1.8c1.1,2.7,5.3,12.4,14.2,20
			c0.4,0.4,1.1,0.8,2,1.2c3,1,6-0.7,7.1-1.3c2.7-1.5,6.7-6.4,8.6-15.6c2.2,7.9,4.9,16.2,8.1,24.7c7.9,20.9,16,42.3,33.6,63.2
			c17.7,21,39,34.4,59,42.9l-2,22l0,0l-38.5,46.8l0,0h0h0v0l-26,16.3l-190.2,85.6c49.1,48.9,109.4,86.5,176.7,108.9
			c12.9,4.3,26.1,8,39.5,11.1c22.4,5.2,45.4,8.8,68.9,10.6l6.8,0.5c5.7,0.3,11.4,0.6,17.2,0.7c3.5,0.1,6.9,0.1,10.4,0.1
			c10.8,0,21.6-0.4,32.2-1.1l0,0l0,0l2.2-0.2c23.5-1.8,46.5-5.3,68.9-10.6c13.4-3.1,26.6-6.9,39.5-11.2
			c67.3-22.3,127.5-60,176.7-108.9L2193.6,1450.8z"/>
		<g>
			<g>
				<path class="st8" d="M2064.3,826.7c103.7,0,201.3,40.4,274.6,113.8c73.4,73.4,113.8,170.9,113.8,274.6
					c0,52.6-10.3,103.7-30.7,151.6c-19.7,46.4-47.9,88-83.8,123.7c-42.5,42.3-94.9,74.6-151.4,93.3c-11.1,3.7-22.5,6.9-33.9,9.5
					c-19.3,4.5-39.1,7.5-59,9c-0.5,0-1.1,0.1-1.6,0.1l-0.2,0l-0.2,0c-9.1,0.6-18.4,1-27.6,1c-7.9,0-15.9-0.2-23.8-0.7
					c-2-0.1-3.9-0.3-5.8-0.4c-19.9-1.5-39.7-4.5-59.1-9c-11.3-2.6-22.7-5.9-33.8-9.5c-56.5-18.8-108.9-51.1-151.4-93.3
					c-35.9-35.7-64.1-77.3-83.8-123.7c-20.4-48-30.7-99-30.7-151.6c0-103.7,40.4-201.3,113.8-274.6
					C1863,867.1,1960.5,826.7,2064.3,826.7 M2064.3,762c-250.2,0-453.1,202.9-453.1,453.1c0,125.6,51.1,239.2,133.6,321.2
					c49.1,48.9,109.4,86.5,176.7,108.9c12.9,4.3,26.1,8,39.5,11.1c22.4,5.2,45.4,8.8,68.9,10.6c2.3,0.2,4.6,0.3,6.8,0.5
					c9.1,0.6,18.3,0.8,27.6,0.8c10.8,0,21.6-0.4,32.2-1.1c0.7,0,1.5-0.1,2.2-0.2c23.5-1.8,46.5-5.3,68.9-10.6
					c13.4-3.1,26.6-6.9,39.5-11.2c67.3-22.3,127.5-60,176.7-108.9c82.5-82.1,133.6-195.7,133.6-321.2
					C2517.4,964.8,2314.5,762,2064.3,762L2064.3,762z"/>
			</g>
		</g>
	</g>
	<g>
		<path class="st9" d="M2382.1,2984.7h-651.9c-7,0-12.7-5.7-12.7-12.7v-167.3c0-7,5.7-12.7,12.7-12.7h651.9c7,0,12.7,5.7,12.7,12.7
			v167.3C2394.8,2979.1,2389.1,2984.7,2382.1,2984.7z"/>
		<g>
			<path class="st6" d="M1867,2901.5l14.8-1.4c0.9,5,2.7,8.6,5.4,10.9c2.7,2.3,6.4,3.5,11,3.5c4.9,0,8.6-1,11-3.1
				c2.5-2.1,3.7-4.5,3.7-7.2c0-1.8-0.5-3.3-1.6-4.5c-1-1.2-2.9-2.3-5.5-3.3c-1.8-0.6-5.8-1.7-12.1-3.3c-8.1-2-13.8-4.5-17.1-7.4
				c-4.6-4.1-6.9-9.2-6.9-15.1c0-3.8,1.1-7.4,3.3-10.7c2.2-3.3,5.3-5.9,9.4-7.6c4.1-1.7,9-2.6,14.8-2.6c9.4,0,16.5,2.1,21.3,6.2
				c4.8,4.1,7.3,9.6,7.5,16.5l-15.2,0.7c-0.6-3.9-2-6.6-4.2-8.3c-2.1-1.7-5.3-2.5-9.6-2.5c-4.4,0-7.9,0.9-10.3,2.7
				c-1.6,1.2-2.4,2.7-2.4,4.7c0,1.8,0.8,3.3,2.3,4.6c1.9,1.6,6.6,3.3,13.9,5c7.4,1.7,12.8,3.5,16.4,5.4c3.5,1.9,6.3,4.4,8.3,7.6
				c2,3.2,3,7.2,3,12c0,4.3-1.2,8.3-3.6,12.1c-2.4,3.8-5.8,6.5-10.1,8.4c-4.4,1.8-9.8,2.7-16.3,2.7c-9.5,0-16.8-2.2-21.9-6.6
				C1871,2916.3,1868,2909.9,1867,2901.5z"/>
			<path class="st6" d="M1940.3,2926v-75.1h15.2v75.1H1940.3z"/>
			<path class="st6" d="M2004.9,2898.3v-12.7h32.7v29.9c-3.2,3.1-7.8,5.8-13.8,8.1c-6,2.3-12.1,3.5-18.3,3.5
				c-7.9,0-14.7-1.6-20.5-4.9c-5.8-3.3-10.2-8-13.2-14.1c-2.9-6.1-4.4-12.8-4.4-20c0-7.8,1.6-14.8,4.9-20.9
				c3.3-6.1,8.1-10.7,14.4-14c4.8-2.5,10.8-3.7,18-3.7c9.3,0,16.6,2,21.9,5.9c5.2,3.9,8.6,9.3,10.1,16.2l-15.1,2.8
				c-1.1-3.7-3-6.6-6-8.7c-2.9-2.1-6.6-3.2-10.9-3.2c-6.6,0-11.9,2.1-15.8,6.3c-3.9,4.2-5.9,10.4-5.9,18.7c0,8.9,2,15.6,5.9,20.1
				c4,4.5,9.2,6.7,15.6,6.7c3.2,0,6.4-0.6,9.6-1.9c3.2-1.2,5.9-2.8,8.2-4.5v-9.5H2004.9z"/>
			<path class="st6" d="M2051.7,2926v-75.1h14.8l30.7,50.2v-50.2h14.1v75.1h-15.2l-30.3-49v49H2051.7z"/>
			<path class="st6" d="M2156,2926v-75.1h15.2v75.1H2156z"/>
			<path class="st6" d="M2185.8,2926v-75.1h14.8l30.7,50.2v-50.2h14.1v75.1h-15.2l-30.3-49v49H2185.8z"/>
		</g>
		<g>
			<path class="st10" d="M2736.5,2507.9H1392c-10.2,0-18.5-8.3-18.5-18.5v-221.8c0-10.2,8.3-18.5,18.5-18.5h1344.5
				c10.2,0,18.5,8.3,18.5,18.5v221.8C2755,2499.6,2746.8,2507.9,2736.5,2507.9z"/>
			<g id="lock">
				<path class="st8" d="M2681.5,2374.3h-8.5v-22.7c0-12-9.8-21.8-21.8-21.8h0c-12.1,0-21.9,9.8-21.9,21.9v22.7h-8.5v-22.7
					c0-4.1,0.8-8.1,2.4-11.8c1.5-3.6,3.7-6.9,6.5-9.7c2.8-2.8,6-5,9.7-6.5c3.8-1.6,7.7-2.4,11.8-2.4h0c4.1,0,8.1,0.8,11.8,2.4
					c3.6,1.5,6.9,3.7,9.7,6.5c2.8,2.8,5,6,6.5,9.7c1.6,3.7,2.4,7.7,2.4,11.8V2374.3z"/>
				<path class="st8" d="M2684.4,2435.7h-66.6c-1.9,0-3.4-1.5-3.4-3.4v-55c0-1.9,1.5-3.4,3.4-3.4h66.6c1.9,0,3.4,1.5,3.4,3.4v55
					C2687.8,2434.2,2686.3,2435.7,2684.4,2435.7z"/>
				<g>
					<circle class="st10" cx="2651.1" cy="2398.1" r="7.8"/>
					<rect x="2647.2" y="2402.3" class="st10" width="7.8" height="15.3"/>
				</g>
			</g>
		</g>
		<g>
			<path class="st10" d="M2736.5,2153.9H1392c-10.2,0-18.5-8.3-18.5-18.5v-221.8c0-10.2,8.3-18.5,18.5-18.5h1344.5
				c10.2,0,18.5,8.3,18.5,18.5v221.8C2755,2145.7,2746.8,2153.9,2736.5,2153.9z"/>
			<g>
				<ellipse class="st8" cx="2651.1" cy="1996.4" rx="24.7" ry="28.2"/>
				<path class="st8" d="M2698.2,2082.3h-94.1V2048c0-6.6,5.4-12,12-12h70.1c6.6,0,12,5.4,12,12V2082.3z"/>
			</g>
		</g>
	</g>
	<g>
		<path class="st10" d="M1787.5,2647.5h-400.4c-5.6,0-10.2-4.6-10.2-10.2v-26c0-5.6,4.6-10.2,10.2-10.2h400.4
			c5.6,0,10.2,4.6,10.2,10.2v26C1797.7,2643,1793.1,2647.5,1787.5,2647.5z"/>
		<path class="st11" d="M2741.5,2647.5H2103c-5.6,0-10.2-4.6-10.2-10.2v-26c0-5.6,4.6-10.2,10.2-10.2h638.5
			c5.6,0,10.2,4.6,10.2,10.2v26C2751.7,2643,2747.2,2647.5,2741.5,2647.5z"/>
	</g>
</g>
<g>
	<g>
		<g>
			<path class="st12" d="M178.4,1908.7c97.5-0.2,210.9-7.1,335.9-27.6c160-26.2,296.6-67.6,405.8-109.1
				c97.4,41.3,225.4,85.1,379.6,112c139.6,24.4,263.1,28.3,362.1,24.7c7.4,173.9,2.5,319-4.4,426.1
				c-13.1,204.8-35.4,300.9-43.6,334.5c0,0-33.6,137-84.4,247.2c-142.2,308.7-534.3,500.9-609.4,536.6
				c-118-50.6-385.9-184.4-562.8-466.8c-28.9-46.1-96.5-156-136.7-314.1c-13.9-54.7-25.5-119.1-34.9-357.8
				C181.7,2212.6,177.9,2074.3,178.4,1908.7z"/>
			<path class="st6" d="M920.1,1772c97.4,41.3,225.4,85.1,379.6,112c111.2,19.4,212.3,25.9,298.9,25.9c22.1,0,43.2-0.4,63.3-1.2
				c7.4,173.9,2.5,319-4.4,426.1c-13.1,204.8-35.4,300.9-43.6,334.5c0,0-33.6,137-84.4,247.2c-142.2,308.7-534.3,500.9-609.4,536.6
				c-118-50.6-385.9-184.4-562.8-466.8c-28.9-46.1-96.5-156-136.7-314.1c-13.9-54.7-25.5-119.1-34.9-357.8
				c-4-101.8-7.8-240.2-7.3-405.8c97.5-0.2,210.9-7.1,335.9-27.6C674.4,1854.8,810.9,1813.4,920.1,1772 M922.5,1648.8l-42.9,16.3
				c-124,47-253.1,81.7-383.7,103.1c-104.6,17.1-211.5,25.9-317.7,26.1l-113.8,0.2L64,1908.3c-0.4,137.4,2,275.5,7.4,410.6
				c4.5,114,9.7,195.3,16.4,255.9c6.7,60.6,14.5,96.1,22,125.5c19.2,75.4,46.2,149.6,80.4,220.5c29.3,60.8,56.9,104.9,70.2,126.1
				c84.5,135,196.7,253.5,333.4,352.3c86.4,62.5,181,115.9,281.3,158.9l47.5,20.4l46.7-22.2c72.2-34.3,182.4-92.9,297.7-176.8
				c76.7-55.8,144.5-115.1,201.5-176c71.6-76.6,127.1-157.2,165-239.3c54.7-118.8,90.1-261.8,91.6-267.9
				c21.6-88,37.3-207.2,46.7-354.4c9.2-143.8,10.7-291.2,4.5-438.2l-4.8-113.6l-113.6,4.1c-19.6,0.7-39.5,1.1-59.1,1.1
				c-93.4,0-187.3-8.1-279.2-24.2c-121.6-21.2-240.9-56.4-354.6-104.6L922.5,1648.8L922.5,1648.8z"/>
		</g>
	</g>
	<path class="st5" d="M922.5,3578.7l46.7-22.2c72.2-34.3,182.4-92.9,297.7-176.8c76.7-55.8,144.5-115.1,201.5-176
		c71.6-76.6,127.1-157.2,165-239.3c54.7-118.8,90.1-261.8,91.6-267.9c21.6-88,37.3-207.2,46.7-354.4c9.2-143.8,10.7-291.2,4.5-438.2
		l-4.8-113.6l-113.6,4.1c-19.6,0.7-39.5,1.1-59.1,1.1c-93.4,0-187.3-8.1-279.2-24.2c-121.6-21.2-240.9-56.4-354.6-104.6l-42.3-17.9"
		/>
	<polygon class="st6" points="839.5,2887 561.9,2592.6 691.8,2470.2 827.4,2614 1148.4,2206.9 1288.6,2317.4 	"/>
</g>
</svg>
