<svg xmlns="http://www.w3.org/2000/svg" xmlns:xlink="http://www.w3.org/1999/xlink" viewBox="0 0 594.02 600"><defs><radialGradient id="radial-gradient" cx="348.04" cy="234.48" r="346.5" gradientUnits="userSpaceOnUse"><stop offset="0.14" stop-color="#67d8f4"/><stop offset="1" stop-color="#004e91"/></radialGradient></defs><title>shield</title><g style="isolation:isolate"><g id="Layer_1" data-name="Layer 1"><g style="opacity:0.4"><path d="M446.43,273.4c-27.24,109.33-89.74,197-186,260.92-96.27-64-158.78-151.59-186-260.92a487.56,487.56,0,0,1-14-102.72c6.9.52,14.26.8,22.1.8A395.72,395.72,0,0,0,132.84,168c58.28-7.51,100.17-25.1,127.59-40.91,27.4,15.81,69.29,33.4,127.56,40.91a395.87,395.87,0,0,0,50.39,3.45c7.83,0,15.19-.28,22.09-.8A488,488,0,0,1,446.43,273.4ZM512.81,98.06s-18.27,17.59-74.43,17.59a338.79,338.79,0,0,1-43.25-3c-94.42-12.17-134.7-54-134.7-54s-40.29,41.81-134.73,54a338.65,338.65,0,0,1-43.24,3C26.3,115.65,8,98.06,8,98.06S-46.55,422,260.43,600C567.38,422,512.81,98.06,512.81,98.06Z" transform="translate(-4.27)" style="fill:#fff"/><path d="M448.7,271.85c-27.24,109.34-89.74,197-186,260.92-96.27-63.95-158.78-151.58-186-260.92A487.4,487.4,0,0,1,62.63,169.14c6.9.51,14.26.8,22.1.8a395.72,395.72,0,0,0,50.38-3.45c58.28-7.51,100.17-25.1,127.59-40.91C290.1,141.39,332,159,390.26,166.49a395.87,395.87,0,0,0,50.39,3.45c7.83,0,15.19-.29,22.09-.8A487.8,487.8,0,0,1,448.7,271.85ZM515.08,96.52s-18.27,17.59-74.43,17.59a338.79,338.79,0,0,1-43.25-3c-94.42-12.18-134.7-54-134.7-54s-40.29,41.81-134.73,54a338.65,338.65,0,0,1-43.24,3c-56.16,0-74.44-17.59-74.44-17.59S-44.28,420.45,262.7,598.46C569.65,420.45,515.08,96.52,515.08,96.52Z" transform="translate(-4.27)" style="fill:#f9fcfd"/><path d="M451,270.31c-27.24,109.34-89.74,197-186,260.92-96.27-64-158.78-151.59-186-260.92a488.05,488.05,0,0,1-14-102.71c6.9.51,14.26.79,22.1.79A397.48,397.48,0,0,0,137.38,165C195.66,157.43,237.55,139.84,265,124c27.4,15.8,69.29,33.39,127.56,40.91a397.63,397.63,0,0,0,50.39,3.44c7.83,0,15.19-.28,22.09-.79A487.8,487.8,0,0,1,451,270.31ZM517.35,95s-18.27,17.59-74.43,17.59a338.79,338.79,0,0,1-43.25-3c-94.42-12.18-134.7-54-134.7-54s-40.29,41.81-134.73,54a338.65,338.65,0,0,1-43.24,3C30.84,112.57,12.56,95,12.56,95S-42,418.9,265,596.91C571.92,418.9,517.35,95,517.35,95Z" transform="translate(-4.27)" style="fill:#f4f9fc"/><path d="M453.24,268.77c-27.24,109.33-89.74,197-186,260.92-96.27-64-158.78-151.59-186-260.92a488.14,488.14,0,0,1-14-102.72c6.9.52,14.26.8,22.1.8a397.48,397.48,0,0,0,50.38-3.44c58.28-7.52,100.17-25.11,127.59-40.92,27.4,15.81,69.29,33.4,127.56,40.91a395.87,395.87,0,0,0,50.39,3.45c7.83,0,15.19-.28,22.09-.8A487.8,487.8,0,0,1,453.24,268.77ZM519.62,93.43S501.35,111,445.19,111a338.79,338.79,0,0,1-43.25-3c-94.42-12.17-134.7-54-134.7-54S227,95.86,132.51,108a336.82,336.82,0,0,1-43.24,3c-56.16,0-74.44-17.59-74.44-17.59S-39.74,417.36,267.24,595.37C574.19,417.36,519.62,93.43,519.62,93.43Z" transform="translate(-4.27)" style="fill:#eef6fa"/><path d="M455.51,267.23c-27.24,109.33-89.74,197-186,260.92-96.27-64-158.78-151.59-186-260.92a488.22,488.22,0,0,1-14-102.72c6.9.52,14.26.8,22.1.8a395.72,395.72,0,0,0,50.38-3.45c58.28-7.51,100.17-25.1,127.59-40.91,27.4,15.81,69.29,33.4,127.56,40.91a395.87,395.87,0,0,0,50.39,3.45c7.83,0,15.19-.28,22.09-.8A488,488,0,0,1,455.51,267.23ZM521.89,91.89s-18.26,17.59-74.43,17.59a338.53,338.53,0,0,1-43.24-3c-94.43-12.17-134.71-54-134.71-54s-40.29,41.81-134.73,54a338.65,338.65,0,0,1-43.24,3c-56.16,0-74.44-17.59-74.44-17.59S-37.47,415.82,269.51,593.83C576.46,415.82,521.89,91.89,521.89,91.89Z" transform="translate(-4.27)" style="fill:#e9f3f8"/><path d="M457.78,265.68C430.54,375,368,462.65,271.78,526.6,175.51,462.65,113,375,85.76,265.68A488.05,488.05,0,0,1,71.71,163c6.9.51,14.26.8,22.1.8a395.72,395.72,0,0,0,50.38-3.45c58.28-7.51,100.17-25.1,127.59-40.91,27.4,15.81,69.29,33.4,127.56,40.91a395.87,395.87,0,0,0,50.39,3.45c7.83,0,15.19-.29,22.09-.8A487.8,487.8,0,0,1,457.78,265.68ZM524.16,90.35s-18.26,17.59-74.43,17.59a338.53,338.53,0,0,1-43.24-3C312.06,92.77,271.78,51,271.78,51s-40.29,41.81-134.73,54a338.65,338.65,0,0,1-43.24,3c-56.16,0-74.44-17.59-74.44-17.59S-35.2,414.28,271.78,592.29C578.73,414.28,524.16,90.35,524.16,90.35Z" transform="translate(-4.27)" style="fill:#e3f0f7"/><path d="M460.05,264.14c-27.24,109.34-89.74,197-186,260.92C177.78,461.11,115.27,373.47,88,264.14A488.05,488.05,0,0,1,74,161.43c6.91.51,14.26.79,22.1.79a397.48,397.48,0,0,0,50.38-3.44c58.28-7.52,100.17-25.11,127.59-40.91,27.4,15.8,69.29,33.39,127.56,40.91A397.63,397.63,0,0,0,452,162.22c7.83,0,15.19-.28,22.09-.79A487.8,487.8,0,0,1,460.05,264.14ZM526.43,88.81S508.17,106.4,452,106.4a338.53,338.53,0,0,1-43.24-3c-94.43-12.18-134.71-54-134.71-54s-40.29,41.81-134.73,54a338.65,338.65,0,0,1-43.24,3c-56.16,0-74.44-17.59-74.44-17.59S-32.93,412.73,274.05,590.74C581,412.73,526.43,88.81,526.43,88.81Z" transform="translate(-4.27)" style="fill:#ddedf5"/><path d="M462.32,262.6c-27.24,109.33-89.74,197-186,260.92-96.27-64-158.78-151.59-186-260.92a488.14,488.14,0,0,1-14-102.72c6.91.52,14.26.8,22.1.8a395.72,395.72,0,0,0,50.38-3.45c58.28-7.51,100.17-25.1,127.59-40.91,27.4,15.81,69.29,33.4,127.56,40.91a395.87,395.87,0,0,0,50.39,3.45c7.83,0,15.19-.28,22.09-.8A487.8,487.8,0,0,1,462.32,262.6ZM528.7,87.26s-18.26,17.59-74.43,17.59a338.53,338.53,0,0,1-43.24-3c-94.43-12.17-134.71-54-134.71-54s-40.29,41.81-134.73,54a338.65,338.65,0,0,1-43.24,3c-56.16,0-74.44-17.59-74.44-17.59S-30.66,411.19,276.32,589.2C583.27,411.19,528.7,87.26,528.7,87.26Z" transform="translate(-4.27)" style="fill:#d8eaf4"/><path d="M464.59,261.06c-27.24,109.33-89.74,197-186,260.92-96.27-64-158.78-151.59-186-260.92a488.22,488.22,0,0,1-14-102.72c6.91.52,14.26.8,22.1.8A395.72,395.72,0,0,0,151,155.69c58.28-7.51,100.18-25.1,127.59-40.91,27.4,15.81,69.29,33.4,127.56,40.91a395.87,395.87,0,0,0,50.39,3.45c7.83,0,15.19-.28,22.09-.8A488,488,0,0,1,464.59,261.06ZM531,85.72s-18.26,17.59-74.43,17.59a338.53,338.53,0,0,1-43.24-3c-94.43-12.17-134.71-54-134.71-54s-40.29,41.81-134.73,54a338.65,338.65,0,0,1-43.24,3c-56.16,0-74.43-17.59-74.43-17.59s-54.58,323.93,252.4,501.94C585.54,409.65,531,85.72,531,85.72Z" transform="translate(-4.27)" style="fill:#d2e7f2"/><path d="M466.86,259.51c-27.24,109.34-89.74,197-186,260.92-96.27-63.95-158.78-151.58-186-260.92a488.05,488.05,0,0,1-14-102.71c6.91.51,14.26.8,22.1.8a395.72,395.72,0,0,0,50.38-3.45c58.28-7.51,100.18-25.1,127.59-40.91,27.4,15.81,69.29,33.4,127.56,40.91a395.87,395.87,0,0,0,50.39,3.45c7.84,0,15.19-.29,22.09-.8A487.8,487.8,0,0,1,466.86,259.51ZM533.24,84.18S515,101.77,458.81,101.77a338.53,338.53,0,0,1-43.24-3c-94.43-12.18-134.71-54-134.71-54s-40.29,41.81-134.73,54a338.65,338.65,0,0,1-43.24,3c-56.16,0-74.43-17.59-74.43-17.59s-54.58,323.93,252.4,501.94C587.81,408.11,533.24,84.18,533.24,84.18Z" transform="translate(-4.27)" style="fill:#cce4f0"/><path d="M469.13,258c-27.24,109.34-89.74,197-186,260.92C186.86,454.94,124.35,367.3,97.11,258a488.05,488.05,0,0,1-14-102.71c6.91.51,14.26.79,22.1.79a397.48,397.48,0,0,0,50.38-3.44c58.28-7.52,100.18-25.11,127.59-40.92,27.41,15.81,69.29,33.4,127.56,40.92a397.63,397.63,0,0,0,50.39,3.44c7.84,0,15.19-.28,22.09-.79A487.8,487.8,0,0,1,469.13,258ZM535.51,82.64s-18.26,17.58-74.43,17.58a338.34,338.34,0,0,1-43.24-3c-94.43-12.18-134.71-54-134.71-54s-40.29,41.81-134.73,54a338.46,338.46,0,0,1-43.24,3c-56.16,0-74.43-17.58-74.43-17.58s-54.58,323.92,252.4,501.93C590.08,406.56,535.51,82.64,535.51,82.64Z" transform="translate(-4.27)" style="fill:#c7e2ef"/><path d="M471.4,256.43c-27.24,109.33-89.74,197-186,260.92-96.27-64-158.78-151.59-186-260.92a488.14,488.14,0,0,1-14-102.72c6.91.52,14.26.8,22.1.8a395.72,395.72,0,0,0,50.38-3.45C216.09,143.55,258,126,285.4,110.15,312.81,126,354.69,143.55,413,151.06a395.87,395.87,0,0,0,50.39,3.45c7.84,0,15.19-.28,22.09-.8A487.14,487.14,0,0,1,471.4,256.43ZM537.78,81.09s-18.26,17.59-74.43,17.59a338.53,338.53,0,0,1-43.24-3c-94.43-12.17-134.71-54-134.71-54s-40.29,41.81-134.73,54a338.65,338.65,0,0,1-43.24,3C51.27,98.68,33,81.09,33,81.09S-21.58,405,285.4,583C592.35,405,537.78,81.09,537.78,81.09Z" transform="translate(-4.27)" style="fill:#c1dfed"/><path d="M473.67,254.89c-27.24,109.33-89.74,197-186,260.92-96.27-64-158.78-151.59-186-260.93A488.05,488.05,0,0,1,87.6,152.17c6.91.52,14.26.8,22.1.8a395.72,395.72,0,0,0,50.38-3.45c58.28-7.51,100.18-25.1,127.59-40.91C315.08,124.42,357,142,415.23,149.52A395.87,395.87,0,0,0,465.62,153c7.84,0,15.19-.28,22.09-.8A487.31,487.31,0,0,1,473.67,254.89ZM540.05,79.55s-18.26,17.59-74.43,17.59a338.53,338.53,0,0,1-43.24-3C328,82,287.67,40.16,287.67,40.16S247.38,82,152.94,94.15a338.65,338.65,0,0,1-43.24,3c-56.16,0-74.43-17.59-74.43-17.59s-54.58,323.93,252.4,501.94C594.62,403.48,540.05,79.55,540.05,79.55Z" transform="translate(-4.27)" style="fill:#bcdceb"/><path d="M475.94,253.34c-27.24,109.34-89.74,197-186,260.92-96.27-63.95-158.78-151.58-186-260.92a488.05,488.05,0,0,1-14-102.71c6.91.51,14.27.8,22.1.8A395.6,395.6,0,0,0,162.35,148c58.28-7.51,100.18-25.1,127.59-40.91,27.41,15.81,69.29,33.39,127.56,40.91a395.87,395.87,0,0,0,50.39,3.45c7.84,0,15.19-.29,22.09-.8A487.14,487.14,0,0,1,475.94,253.34ZM542.32,78S524.06,95.6,467.89,95.6a338.53,338.53,0,0,1-43.24-3c-94.43-12.18-134.71-54-134.71-54s-40.29,41.81-134.73,54a338.65,338.65,0,0,1-43.24,3C55.81,95.6,37.54,78,37.54,78S-17,401.94,289.94,580C596.89,401.94,542.32,78,542.32,78Z" transform="translate(-4.27)" style="fill:#b6d9ea"/><path d="M478.21,251.8c-27.24,109.33-89.74,197-186,260.92-96.27-64-158.78-151.59-186-260.92a488.05,488.05,0,0,1-14-102.72c6.91.52,14.27.8,22.1.8a397.35,397.35,0,0,0,50.38-3.44c58.28-7.52,100.18-25.11,127.59-40.92,27.41,15.81,69.29,33.4,127.56,40.92a397.63,397.63,0,0,0,50.39,3.44c7.84,0,15.19-.28,22.09-.79A487.14,487.14,0,0,1,478.21,251.8ZM544.59,76.47s-18.26,17.58-74.43,17.58a338.34,338.34,0,0,1-43.24-3c-94.43-12.18-134.71-54-134.71-54s-40.29,41.81-134.73,54a338.46,338.46,0,0,1-43.24,3c-56.16,0-74.43-17.58-74.43-17.58S-14.77,400.39,292.21,578.4C599.17,400.39,544.59,76.47,544.59,76.47Z" transform="translate(-4.27)" style="fill:#b0d6e8"/><path d="M480.48,250.26c-27.24,109.33-89.74,197-186,260.92-96.27-64-158.78-151.59-186-260.92a488.22,488.22,0,0,1-14-102.72c6.91.52,14.27.8,22.1.8a395.6,395.6,0,0,0,50.38-3.45c58.28-7.51,100.18-25.1,127.59-40.91,27.41,15.81,69.29,33.4,127.56,40.91a395.87,395.87,0,0,0,50.39,3.45c7.84,0,15.19-.28,22.09-.8A487.14,487.14,0,0,1,480.48,250.26ZM546.87,74.92S528.6,92.51,472.43,92.51a338.53,338.53,0,0,1-43.24-3c-94.43-12.17-134.71-54-134.71-54s-40.29,41.81-134.73,54a338.65,338.65,0,0,1-43.24,3c-56.16,0-74.43-17.59-74.43-17.59S-12.5,398.85,294.48,576.86C601.44,398.85,546.87,74.92,546.87,74.92Z" transform="translate(-4.27)" style="fill:#abd3e6"/><path d="M482.75,248.72c-27.24,109.33-89.74,197-186,260.92-96.27-64-158.78-151.59-186-260.93A488.05,488.05,0,0,1,96.68,146c6.91.52,14.27.8,22.1.8a395.6,395.6,0,0,0,50.38-3.45c58.28-7.51,100.18-25.1,127.59-40.91,27.41,15.81,69.29,33.4,127.56,40.91a395.87,395.87,0,0,0,50.39,3.45c7.84,0,15.19-.28,22.09-.8A487.31,487.31,0,0,1,482.75,248.72ZM549.14,73.38S530.87,91,474.7,91a338.53,338.53,0,0,1-43.24-3C337,75.81,296.75,34,296.75,34S256.46,75.81,162,88a338.65,338.65,0,0,1-43.24,3C62.62,91,44.35,73.38,44.35,73.38s-54.58,323.93,252.4,501.94C603.71,397.31,549.14,73.38,549.14,73.38Z" transform="translate(-4.27)" style="fill:#a5d0e5"/><path d="M485,247.17c-27.24,109.34-89.74,197-186,260.92-96.27-63.95-158.78-151.58-186-260.92A488.71,488.71,0,0,1,99,144.46c6.91.51,14.27.8,22.1.8a395.6,395.6,0,0,0,50.38-3.45c58.28-7.51,100.18-25.1,127.59-40.91,27.41,15.81,69.29,33.39,127.56,40.91A395.87,395.87,0,0,0,477,145.26c7.84,0,15.19-.29,22.1-.8A487.89,487.89,0,0,1,485,247.17ZM551.41,71.84S533.14,89.43,477,89.43a338.53,338.53,0,0,1-43.24-3C339.3,74.26,299,32.45,299,32.45s-40.29,41.81-134.73,54a338.65,338.65,0,0,1-43.24,3c-56.16,0-74.43-17.59-74.43-17.59S-8,395.77,299,573.78C606,395.77,551.41,71.84,551.41,71.84Z" transform="translate(-4.27)" style="fill:#a0cde3"/><path d="M487.29,245.63c-27.24,109.33-89.74,197-186,260.92C205,442.6,142.51,355,115.27,245.63a488.71,488.71,0,0,1-14-102.72c6.91.52,14.27.8,22.1.8a397.35,397.35,0,0,0,50.38-3.44c58.28-7.52,100.18-25.11,127.59-40.92,27.41,15.81,69.29,33.4,127.56,40.92a397.63,397.63,0,0,0,50.39,3.44c7.84,0,15.19-.28,22.1-.8A487.88,487.88,0,0,1,487.29,245.63ZM553.68,70.3s-18.27,17.58-74.44,17.58a338.34,338.34,0,0,1-43.24-3c-94.43-12.18-134.71-54-134.71-54S261,72.72,166.56,84.9a338.34,338.34,0,0,1-43.24,3c-56.16,0-74.43-17.58-74.43-17.58S-5.69,394.22,301.29,572.23C608.25,394.22,553.68,70.3,553.68,70.3Z" transform="translate(-4.27)" style="fill:#9acae2"/><path d="M489.56,244.09c-27.24,109.33-89.74,197-186,260.92-96.27-64-158.78-151.59-186-260.92a488.88,488.88,0,0,1-14.05-102.72c6.91.52,14.27.8,22.1.8A395.6,395.6,0,0,0,176,138.72c58.28-7.51,100.18-25.1,127.59-40.91,27.41,15.81,69.29,33.4,127.56,40.91a395.87,395.87,0,0,0,50.39,3.45c7.84,0,15.19-.28,22.1-.8A487.88,487.88,0,0,1,489.56,244.09ZM556,68.75s-18.27,17.59-74.44,17.59a338.53,338.53,0,0,1-43.24-3c-94.43-12.17-134.71-54-134.71-54s-40.29,41.81-134.73,54a338.41,338.41,0,0,1-43.24,3c-56.16,0-74.43-17.59-74.43-17.59S-3.42,392.68,303.56,570.69C610.52,392.68,556,68.75,556,68.75Z" transform="translate(-4.27)" style="fill:#94c7e0"/><path d="M491.83,242.55c-27.24,109.33-89.74,197-186,260.92-96.27-64-158.78-151.59-186-260.93a488.71,488.71,0,0,1-14-102.71c6.91.52,14.27.8,22.1.8a395.6,395.6,0,0,0,50.38-3.45c58.28-7.51,100.18-25.1,127.59-40.91,27.41,15.81,69.29,33.4,127.56,40.91a395.87,395.87,0,0,0,50.39,3.45c7.84,0,15.19-.28,22.1-.8A488.05,488.05,0,0,1,491.83,242.55ZM558.22,67.21S540,84.8,483.78,84.8a338.53,338.53,0,0,1-43.24-3c-94.43-12.17-134.71-54-134.71-54s-40.29,41.82-134.73,54a338.41,338.41,0,0,1-43.24,3c-56.16,0-74.43-17.59-74.43-17.59S-1.15,391.14,305.83,569.15C612.79,391.14,558.22,67.21,558.22,67.21Z" transform="translate(-4.27)" style="fill:#8fc4de"/><path d="M494.1,241c-27.24,109.34-89.74,197-186,260.92C211.83,438,149.32,350.34,122.08,241a488.71,488.71,0,0,1-14-102.71c6.91.51,14.27.8,22.1.8a395.6,395.6,0,0,0,50.38-3.45c58.28-7.51,100.18-25.1,127.59-40.91,27.41,15.81,69.29,33.39,127.56,40.91a395.87,395.87,0,0,0,50.39,3.45c7.84,0,15.19-.29,22.1-.8A487.89,487.89,0,0,1,494.1,241ZM560.49,65.67s-18.27,17.59-74.44,17.59a338.53,338.53,0,0,1-43.24-3c-94.43-12.18-134.71-54-134.71-54s-40.29,41.81-134.73,54a338.41,338.41,0,0,1-43.24,3C74,83.26,55.7,65.67,55.7,65.67S1.13,389.6,308.1,567.61C615.06,389.6,560.49,65.67,560.49,65.67Z" transform="translate(-4.27)" style="fill:#89c1dd"/><path d="M496.37,239.46c-27.24,109.33-89.74,197-186,260.92-96.27-63.95-158.78-151.59-186-260.92a488,488,0,0,1-14-102.72c6.9.52,14.26.8,22.09.8a397.35,397.35,0,0,0,50.38-3.44C241.06,126.58,283,109,310.37,93.18c27.41,15.81,69.29,33.4,127.56,40.92a397.63,397.63,0,0,0,50.39,3.44c7.84,0,15.19-.28,22.1-.8A487.88,487.88,0,0,1,496.37,239.46ZM562.76,64.13s-18.27,17.58-74.44,17.58a338.34,338.34,0,0,1-43.24-3c-94.43-12.18-134.71-54-134.71-54s-40.29,41.81-134.73,54a338.23,338.23,0,0,1-43.24,3C76.24,81.71,58,64.13,58,64.13S3.4,388.05,310.37,566.06C617.33,388.05,562.76,64.13,562.76,64.13Z" transform="translate(-4.27)" style="fill:#84bedb"/><path d="M498.64,237.92c-27.24,109.33-89.74,197-186,260.92-96.26-64-158.78-151.59-186-260.92a488.13,488.13,0,0,1-14-102.72c6.9.52,14.26.8,22.09.8a395.6,395.6,0,0,0,50.38-3.45c58.28-7.51,100.18-25.1,127.59-40.91,27.41,15.81,69.29,33.4,127.56,40.91A396,396,0,0,0,490.59,136c7.84,0,15.19-.28,22.1-.8A487.88,487.88,0,0,1,498.64,237.92ZM565,62.58s-18.27,17.59-74.44,17.59a338.53,338.53,0,0,1-43.24-3c-94.43-12.17-134.71-54-134.71-54S272.35,65,177.91,77.18a338.41,338.41,0,0,1-43.24,3c-56.16,0-74.43-17.59-74.43-17.59S5.67,386.51,312.64,564.52C619.6,386.51,565,62.58,565,62.58Z" transform="translate(-4.27)" style="fill:#7ebbd9"/><path d="M500.91,236.37c-27.23,109.34-89.74,197-186,260.93-96.26-64-158.78-151.59-186-260.93a488,488,0,0,1-14-102.71c6.9.52,14.26.8,22.09.8A395.6,395.6,0,0,0,187.32,131c58.28-7.51,100.18-25.1,127.59-40.91,27.41,15.81,69.29,33.4,127.56,40.91a396,396,0,0,0,50.39,3.45c7.84,0,15.19-.28,22.1-.8A487.89,487.89,0,0,1,500.91,236.37ZM567.3,61S549,78.63,492.86,78.63a338.53,338.53,0,0,1-43.24-3c-94.43-12.18-134.71-54-134.71-54s-40.29,41.81-134.73,54a338.41,338.41,0,0,1-43.24,3C80.79,78.63,62.51,61,62.51,61S7.94,385,314.91,563C621.87,385,567.3,61,567.3,61Z" transform="translate(-4.27)" style="fill:#78b8d8"/><path d="M503.18,234.83c-27.23,109.34-89.74,197-186,260.92-96.26-63.95-158.78-151.58-186-260.92a487.4,487.4,0,0,1-14-102.71c6.9.51,14.26.8,22.09.8a395.6,395.6,0,0,0,50.38-3.45c58.28-7.51,100.18-25.11,127.59-40.91,27.41,15.81,69.29,33.39,127.56,40.91a396,396,0,0,0,50.39,3.45c7.84,0,15.19-.29,22.1-.8A487.89,487.89,0,0,1,503.18,234.83ZM569.57,59.5S551.3,77.09,495.13,77.09a338.53,338.53,0,0,1-43.24-3c-94.43-12.18-134.71-54-134.71-54s-40.29,41.81-134.73,54a338.41,338.41,0,0,1-43.24,3c-56.15,0-74.43-17.59-74.43-17.59S10.21,383.43,317.18,561.44C624.14,383.43,569.57,59.5,569.57,59.5Z" transform="translate(-4.27)" style="fill:#73b5d6"/><path d="M505.45,233.29c-27.23,109.33-89.74,197-186,260.92-96.26-63.95-158.78-151.59-186-260.92a487.4,487.4,0,0,1-14-102.72c6.9.52,14.26.8,22.09.8a397.35,397.35,0,0,0,50.38-3.44C250.14,120.41,292,102.82,319.45,87c27.41,15.81,69.29,33.4,127.56,40.91a396,396,0,0,0,50.39,3.45c7.84,0,15.19-.28,22.1-.8A487.88,487.88,0,0,1,505.45,233.29ZM571.84,58S553.57,75.54,497.4,75.54a338.34,338.34,0,0,1-43.24-3c-94.43-12.18-134.71-54-134.71-54s-40.29,41.81-134.73,54a338.23,338.23,0,0,1-43.24,3C85.33,75.54,67.05,58,67.05,58S12.48,381.88,319.45,559.89C626.41,381.88,571.84,58,571.84,58Z" transform="translate(-4.27)" style="fill:#6db2d4"/><path d="M507.72,231.75c-27.23,109.33-89.74,197-186,260.92-96.26-64-158.78-151.59-186-260.92A487.56,487.56,0,0,1,121.66,129c6.9.52,14.26.8,22.09.8a395.6,395.6,0,0,0,50.38-3.45c58.28-7.51,100.18-25.1,127.59-40.91,27.41,15.81,69.29,33.4,127.56,40.91a396,396,0,0,0,50.39,3.45c7.84,0,15.19-.28,22.1-.8A487.31,487.31,0,0,1,507.72,231.75ZM574.11,56.41S555.84,74,499.67,74a338.53,338.53,0,0,1-43.24-3C362,58.84,321.72,17,321.72,17S281.43,58.84,187,71a338.41,338.41,0,0,1-43.24,3C87.6,74,69.32,56.41,69.32,56.41S14.75,380.34,321.72,558.35C628.68,380.34,574.11,56.41,574.11,56.41Z" transform="translate(-4.27)" style="fill:#68b0d3"/><path d="M510,230.2c-27.23,109.34-89.74,197-186,260.92C227.73,427.17,165.22,339.54,138,230.2a487.4,487.4,0,0,1-14-102.71c6.9.52,14.26.8,22.09.8a395.6,395.6,0,0,0,50.38-3.45c58.29-7.51,100.18-25.1,127.59-40.91,27.41,15.81,69.29,33.4,127.56,40.91a396,396,0,0,0,50.39,3.45c7.84,0,15.19-.28,22.1-.8A487.23,487.23,0,0,1,510,230.2ZM576.38,54.87s-18.27,17.59-74.44,17.59a338.53,338.53,0,0,1-43.24-3C364.28,57.29,324,15.48,324,15.48s-40.28,41.81-134.73,54a338.41,338.41,0,0,1-43.24,3c-56.15,0-74.43-17.59-74.43-17.59S17,378.8,324,556.81C631,378.8,576.38,54.87,576.38,54.87Z" transform="translate(-4.27)" style="fill:#62add1"/><path d="M512.26,228.66c-27.23,109.34-89.74,197-186,260.92C230,425.63,167.49,338,140.25,228.66A487.4,487.4,0,0,1,126.2,126c6.9.51,14.26.8,22.09.8a395.6,395.6,0,0,0,50.38-3.45C257,115.78,298.85,98.19,326.26,82.39c27.41,15.81,69.29,33.39,127.56,40.91a396,396,0,0,0,50.39,3.45c7.84,0,15.19-.29,22.1-.8A487.23,487.23,0,0,1,512.26,228.66ZM578.65,53.33s-18.27,17.59-74.44,17.59a338.53,338.53,0,0,1-43.24-3c-94.42-12.18-134.71-54-134.71-54S286,55.75,191.53,67.93a338.41,338.41,0,0,1-43.24,3c-56.15,0-74.43-17.59-74.43-17.59S19.29,377.26,326.26,555.27C633.22,377.26,578.65,53.33,578.65,53.33Z" transform="translate(-4.27)" style="fill:#5caacf"/><path d="M514.53,227.12c-27.23,109.33-89.74,197-186,260.92-96.26-64-158.77-151.59-186-260.92A487.48,487.48,0,0,1,128.47,124.4c6.9.52,14.26.8,22.09.8a397.35,397.35,0,0,0,50.38-3.44c58.29-7.52,100.18-25.11,127.59-40.92,27.41,15.81,69.29,33.4,127.56,40.91a396,396,0,0,0,50.39,3.45c7.84,0,15.19-.28,22.1-.8A487.23,487.23,0,0,1,514.53,227.12ZM580.92,51.78s-18.27,17.59-74.44,17.59a338.34,338.34,0,0,1-43.24-3c-94.42-12.18-134.71-54-134.71-54s-40.28,41.81-134.72,54a338.49,338.49,0,0,1-43.25,3c-56.15,0-74.43-17.59-74.43-17.59S21.56,375.71,328.53,553.72C635.49,375.71,580.92,51.78,580.92,51.78Z" transform="translate(-4.27)" style="fill:#57a7ce"/><path d="M516.8,225.58c-27.23,109.33-89.74,197-186,260.92-96.26-64-158.77-151.59-186-260.92a487.56,487.56,0,0,1-14-102.72c6.9.52,14.26.8,22.09.8a395.6,395.6,0,0,0,50.38-3.45C261.5,112.7,303.39,95.11,330.8,79.3c27.41,15.81,69.29,33.4,127.56,40.91a396,396,0,0,0,50.39,3.45c7.84,0,15.19-.28,22.1-.8A487.31,487.31,0,0,1,516.8,225.58ZM583.19,50.24s-18.27,17.59-74.44,17.59a338.53,338.53,0,0,1-43.24-3c-94.42-12.17-134.71-54-134.71-54s-40.28,41.81-134.72,54a338.67,338.67,0,0,1-43.25,3c-56.15,0-74.43-17.59-74.43-17.59S23.83,374.17,330.8,552.18C637.76,374.17,583.19,50.24,583.19,50.24Z" transform="translate(-4.27)" style="fill:#51a4cc"/><path d="M519.07,224c-27.23,109.34-89.74,197-186,260.92C236.81,421,174.3,333.37,147.06,224A487.4,487.4,0,0,1,133,121.32c6.9.51,14.26.8,22.09.8a395.6,395.6,0,0,0,50.38-3.45c58.29-7.51,100.18-25.1,127.59-40.91,27.41,15.81,69.29,33.4,127.56,40.91A396,396,0,0,0,511,122.12c7.84,0,15.19-.28,22.1-.8A487.23,487.23,0,0,1,519.07,224ZM585.46,48.7S567.19,66.29,511,66.29a338.53,338.53,0,0,1-43.24-3c-94.42-12.18-134.71-54-134.71-54s-40.28,41.81-134.72,54a338.67,338.67,0,0,1-43.25,3C99,66.29,80.67,48.7,80.67,48.7S26.1,372.63,333.07,550.64C640,372.63,585.46,48.7,585.46,48.7Z" transform="translate(-4.27)" style="fill:#4ba1cb"/><path d="M521.34,222.49c-27.23,109.34-89.74,197-186,260.92-96.26-64-158.77-151.59-186-260.92a487.4,487.4,0,0,1-14.05-102.71c6.9.51,14.26.8,22.09.8a395.6,395.6,0,0,0,50.38-3.45C266,109.61,307.93,92,335.34,76.22,362.75,92,404.63,109.61,462.9,117.13a396,396,0,0,0,50.39,3.45c7.84,0,15.19-.29,22.1-.8A487.23,487.23,0,0,1,521.34,222.49ZM587.73,47.16s-18.27,17.59-74.44,17.59a338.53,338.53,0,0,1-43.24-3c-94.42-12.18-134.71-54-134.71-54s-40.28,41.81-134.72,54a338.67,338.67,0,0,1-43.25,3c-56.15,0-74.43-17.59-74.43-17.59S28.37,371.08,335.34,549.1C642.3,371.08,587.73,47.16,587.73,47.16Z" transform="translate(-4.27)" style="fill:#469ec9"/><path d="M523.61,221c-27.23,109.33-89.74,197-186,260.92C241.35,417.92,178.84,330.28,151.6,221a487.48,487.48,0,0,1-14-102.72c6.9.52,14.26.8,22.09.8A397.35,397.35,0,0,0,210,115.59c58.29-7.52,100.18-25.11,127.59-40.92,27.41,15.81,69.29,33.4,127.56,40.91A396,396,0,0,0,515.56,119c7.84,0,15.19-.28,22.1-.8A487.23,487.23,0,0,1,523.61,221ZM590,45.61S571.73,63.2,515.56,63.2a336.71,336.71,0,0,1-43.24-3c-94.42-12.17-134.7-54-134.7-54S297.33,48,202.89,60.21a336.85,336.85,0,0,1-43.25,3c-56.15,0-74.43-17.59-74.43-17.59S30.64,369.54,337.62,547.55C644.57,369.54,590,45.61,590,45.61Z" transform="translate(-4.27)" style="fill:#409bc7"/><path d="M525.88,219.41c-27.23,109.33-89.74,197-186,260.92-96.26-64-158.77-151.59-186-260.92a487.56,487.56,0,0,1-14.05-102.72c6.9.52,14.26.8,22.09.8A395.6,395.6,0,0,0,212.29,114c58.29-7.51,100.18-25.1,127.59-40.91,27.41,15.81,69.29,33.4,127.56,40.91a396,396,0,0,0,50.39,3.45c7.84,0,15.19-.28,22.1-.8A487.31,487.31,0,0,1,525.88,219.41ZM592.27,44.07S574,61.66,517.83,61.66a338.53,338.53,0,0,1-43.24-3c-94.42-12.17-134.7-54-134.7-54s-40.29,41.81-134.73,54a338.67,338.67,0,0,1-43.25,3c-56.15,0-74.43-17.59-74.43-17.59S32.91,368,339.89,546C646.84,368,592.27,44.07,592.27,44.07Z" transform="translate(-4.27)" style="fill:#3b98c6"/><path d="M528.15,217.86c-27.23,109.34-89.74,197-186,260.92-96.26-63.95-158.77-151.58-186-260.92a487.4,487.4,0,0,1-14-102.71c6.9.51,14.26.8,22.09.8a395.87,395.87,0,0,0,50.39-3.45C272.85,105,314.74,87.4,342.15,71.59,369.56,87.4,411.44,105,469.71,112.5A396,396,0,0,0,520.1,116c7.84,0,15.19-.28,22.1-.8A487.23,487.23,0,0,1,528.15,217.86ZM594.54,42.53S576.27,60.12,520.1,60.12a338.53,338.53,0,0,1-43.24-3c-94.42-12.18-134.7-54-134.7-54S301.87,45,207.43,57.13a338.67,338.67,0,0,1-43.25,3c-56.15,0-74.43-17.59-74.43-17.59S35.18,366.46,342.16,544.47C649.11,366.46,594.54,42.53,594.54,42.53Z" transform="translate(-4.27)" style="fill:#3595c4"/></g><path d="M342.15,68.44c27.41,15.81,69.29,33.4,127.56,40.92a397.75,397.75,0,0,0,50.39,3.44c7.84,0,15.19-.28,22.1-.79a487.23,487.23,0,0,1-14.05,102.71c-27.23,109.33-89.74,197-186,260.92-96.26-63.95-158.77-151.59-186-260.92a487.4,487.4,0,0,1-14-102.71c6.9.51,14.26.79,22.09.79a397.63,397.63,0,0,0,50.39-3.44c58.28-7.52,100.17-25.11,127.58-40.92m0-68.44S301.87,41.81,207.43,54a338.67,338.67,0,0,1-43.25,3C108,57,89.75,39.39,89.75,39.39S35.18,363.31,342.16,541.32c307-178,252.38-501.93,252.38-501.93S576.27,57,520.1,57a338.53,338.53,0,0,1-43.24-3C382.44,41.81,342.16,0,342.16,0Z" transform="translate(-4.27)" style="fill:url(#radial-gradient)"/><g style="mix-blend-mode:screen"><path d="M342.16,7.6c12.47,10.8,54.22,41.64,134,51.92a344.78,344.78,0,0,0,44,3c38,0,59.53-8,70.06-13.61,2.61,23.43,7.45,91.9-12.24,173.79-14.23,59.2-38.32,113.75-71.6,162.13-41,59.66-96.25,110.11-164.16,150C274.23,495,219,444.53,178,384.87c-33.28-48.38-57.37-102.93-71.61-162.13C86.68,140.85,91.52,72.38,94.13,49c10.53,5.66,32.08,13.61,70.05,13.61a344.81,344.81,0,0,0,44-3c79.78-10.28,121.54-41.12,134-51.92m0-7.6S301.87,41.81,207.43,54a338.67,338.67,0,0,1-43.25,3C108,57,89.75,39.39,89.75,39.39S35.18,363.31,342.16,541.32c307-178,252.38-501.93,252.38-501.93S576.27,57,520.1,57a338.53,338.53,0,0,1-43.24-3C382.44,41.81,342.16,0,342.16,0Z" transform="translate(-4.27)" style="fill:url(#radial-gradient)"/></g><polygon points="435.51 234.87 360.43 234.87 360.43 159.8 307.05 159.8 307.05 234.87 231.97 234.87 231.97 288.26 307.05 288.26 307.05 363.33 360.43 363.33 360.43 288.26 435.51 288.26 435.51 234.87" style="fill:#3595c4"/></g></g></svg>