<svg id="Layer_1" data-name="Layer 1" xmlns="http://www.w3.org/2000/svg" viewBox="0 0 77.26 137.48"><defs><style>.cls-1{fill:#d2dcfa;}.cls-2{fill:#7d90c9;}.cls-3{fill:none;}.cls-4{isolation:isolate;font-size:7px;font-family:Avenir-Light, Avenir;font-weight:300;}.cls-5{letter-spacing:-0.02em;}.cls-6{letter-spacing:0em;}.cls-7{letter-spacing:-0.02em;}.cls-8{letter-spacing:0em;}.cls-9{fill:#f3f5fa;}.cls-10{fill:#005c9d;}.cls-10,.cls-11,.cls-12{fill-rule:evenodd;}.cls-11{fill:#fff;}.cls-12{fill:#26b2fc;}</style></defs><title>step3</title><path class="cls-1" d="M38.28,150.54a1.43,1.43,0,0,1-1.4,1.4,1.37,1.37,0,0,1-1.4-1.4,1.43,1.43,0,0,1,1.4-1.4A1.5,1.5,0,0,1,38.28,150.54Z" transform="translate(-4.11 -14.97)"/><path class="cls-1" d="M46.18,150.54a1.43,1.43,0,0,1-1.4,1.4,1.37,1.37,0,0,1-1.4-1.4,1.4,1.4,0,1,1,2.8,0Z" transform="translate(-4.11 -14.97)"/><path class="cls-1" d="M54.08,150.54a1.4,1.4,0,1,1-1.4-1.4A1.5,1.5,0,0,1,54.08,150.54Z" transform="translate(-4.11 -14.97)"/><path class="cls-2" d="M54.58,150.54a1.9,1.9,0,1,1-1.9-1.9A1.9,1.9,0,0,1,54.58,150.54Z" transform="translate(-4.11 -14.97)"/><rect class="cls-3" x="8.06" y="96.58" width="68.4" height="37"/><text class="cls-4" transform="translate(7.06 104.87)">Only you cont<tspan class="cls-5" x="43.34" y="0">r</tspan><tspan class="cls-6" x="45.54" y="0">ol who </tspan></text><text class="cls-4" transform="translate(12.06 113.27)">has access to your </text><text class="cls-4" transform="translate(30.17 121.67)"><tspan class="cls-7">r</tspan><tspan x="2.21" y="0">esu</tspan><tspan class="cls-8" x="12.97" y="0">l</tspan><tspan x="14.66" y="0">ts</tspan></text><path class="cls-9" d="M55.65,35.1c4.42,1.36,9.18.57,13.38-1.25-3-1.36-6.92-1.47-9.75-2-6-1-10.2-5.1-14.4-9.07C46.24,28.3,50.21,33.51,55.65,35.1Z" transform="translate(-4.11 -14.97)"/><path class="cls-9" d="M72.09,36.35a6.85,6.85,0,0,0-1.59-1.59c-5,2.49-10.77,3.4-16,1.47-5.9-2-10.55-8.5-11.23-14.85-.34-.34-.79-.68-1.13-1-5.21-4.53-10.66-2.83-14.74.91A50.46,50.46,0,0,0,31.85,31c3.51,5.33,9.18,9.07,14.85,11.9a48.76,48.76,0,0,0,18.59,5.44A30.72,30.72,0,0,0,71.86,48V47C72,43.6,74.24,39.41,72.09,36.35Z" transform="translate(-4.11 -14.97)"/><path class="cls-9" d="M27.31,51.88c.68-6.46-.11-17-5.67-21.65-.9,3.28-.45,6.68-.34,10.43a30.68,30.68,0,0,1-3.06,14.85c-3.17,6.68-8.39,15-7.93,22.9C18.81,71.49,26.18,63.44,27.31,51.88Z" transform="translate(-4.11 -14.97)"/><path class="cls-9" d="M14.84,88.15C21,85.66,25.38,78,28.44,73c3.18-5.21,5.22-11.11,8.85-16.09C38.76,54.94,40.57,52.79,43,52c3.29-1,6.24,1.59,9.19,2.72,4.64,1.82,10.2,1.82,15.19,2.38a79.59,79.59,0,0,1,9.07,1.36c.79.23,1.58.46,2.49.68-.57-.9-1.13-1.81-1.81-2.72-1.93-2.6-4.08-4-4.88-6.57C63.81,51,54.52,48.36,47.49,45c-5.78-2.83-11.9-6.69-15.76-12a39.22,39.22,0,0,1-5.1-10.77,23.5,23.5,0,0,0-3.74,5.1,16.57,16.57,0,0,0-.91,2c2.38,1.7,3.86,4.76,4.76,7.37a38.59,38.59,0,0,1,1.93,13.94C28,63.1,20.28,73,10.53,80a14,14,0,0,0,1.82,5A13.3,13.3,0,0,0,14.84,88.15Z" transform="translate(-4.11 -14.97)"/><path class="cls-9" d="M50.21,73.08c6.69-1.25,13.15.11,19.84.79a28.17,28.17,0,0,0,10.2-.45c.23-.12.57-.12.79-.23a10.59,10.59,0,0,0,.23-1.93,20.46,20.46,0,0,0-1.59-10.54,47,47,0,0,0-10-1.93c-4.2-.56-8.5-.79-12.7-1.36a32.55,32.55,0,0,1-5.55-1.24c-1.82-.8-3.52-2-5.44-2.61-6.35-1.82-10.77,9.52-12.81,13.83a78.3,78.3,0,0,1-8.85,14.4c-2.15,2.72-5,5.89-8.27,7.48a18.49,18.49,0,0,0,10.77,4C32.75,84.3,38.76,75.23,50.21,73.08Z" transform="translate(-4.11 -14.97)"/><path class="cls-9" d="M75.49,75.46c-6.8.22-13.38-1.82-20.18-1.7-8.05.22-14.85,3.74-20.18,9.75a97.27,97.27,0,0,0-7.25,9.75,24.13,24.13,0,0,0,9.75-2.05c2.26,0,4.64.46,8.16-.56A131.16,131.16,0,0,1,66.65,86c4-.57,7.82-.91,10.43-4.19a19.66,19.66,0,0,0,3.51-7.26A15,15,0,0,1,75.49,75.46Z" transform="translate(-4.11 -14.97)"/><path class="cls-9" d="M56.67,24.1a19.35,19.35,0,0,0,9.18.34C62.68,23,57.35,22.63,55,21.16c-1.13-.8-5.1-3.86-7.48-4A18.08,18.08,0,0,0,56.67,24.1Z" transform="translate(-4.11 -14.97)"/><path class="cls-9" d="M67.44,25.46a19.11,19.11,0,0,1-21-8,2.27,2.27,0,0,0-1,1.92c2.27,2.84,2.61,5.22,6,7.37,3.62,2.27,7,3.06,11.33,3.52,2.38.34,7.71-.23,5.1-4.09C67.89,25.92,67.67,25.69,67.44,25.46Z" transform="translate(-4.11 -14.97)"/><path class="cls-9" d="M11.33,42.81a.64.64,0,0,1-.12.45A22.32,22.32,0,0,0,16,37.71c-.34-2.27-1.13-4-2.49-4.31C9.51,36.91,11.55,38.27,11.33,42.81Z" transform="translate(-4.11 -14.97)"/><path class="cls-9" d="M14.73,51a12.89,12.89,0,0,0,.9-2.27,29.63,29.63,0,0,0,.57-9.06,17.88,17.88,0,0,1-5.33,5.21c-.9,2.61-2.94,5.55-3.28,8A17.45,17.45,0,0,1,14.73,51Z" transform="translate(-4.11 -14.97)"/><path class="cls-9" d="M7.59,53.69a4.9,4.9,0,0,0,.22,1.25c1.7,4.76,4.88.34,6.58-3.29A17.68,17.68,0,0,0,7.59,53.69Z" transform="translate(-4.11 -14.97)"/><path class="cls-9" d="M28.78,18.1C23,20.93,15.52,28.87,19.38,35.78h.11a12.06,12.06,0,0,1,1.93-10.66c2-2.83,5-4.53,7.7-6.68C29.24,18.32,29,18,28.78,18.1Z" transform="translate(-4.11 -14.97)"/><path class="cls-9" d="M37.17,15.6c-4.76-1.81-10.54.46-13.83,4.2,0,.11,0,.11.12.11,4.3-2.95,8.16-5.21,13.6-4C37.29,16.06,37.29,15.72,37.17,15.6Z" transform="translate(-4.11 -14.97)"/><path class="cls-9" d="M76.17,32.61a32.34,32.34,0,0,0-3.4.22,4.76,4.76,0,0,1-4.2-2.15c-.11-.11-.34,0-.22.23a4.54,4.54,0,0,0,3.29,2.26c2.6.46,5.66-1.36,7.25,1.59.11.11.23,0,.23-.11A3.06,3.06,0,0,0,76.17,32.61Z" transform="translate(-4.11 -14.97)"/><path class="cls-9" d="M10.19,84.19C9.63,82,8.49,80.11,8,78a13,13,0,0,1,.45-7.48c.12-.34-.45-.45-.56-.11-1.82,4.64-.8,9.86,1.7,14A.3.3,0,0,0,10.19,84.19Z" transform="translate(-4.11 -14.97)"/><path class="cls-9" d="M52.14,16.28c-.34-.22-.8-.11-.8.34s.57.68.8.34A.35.35,0,0,0,52.14,16.28Z" transform="translate(-4.11 -14.97)"/><path class="cls-9" d="M53.61,18a.46.46,0,0,0,0,.91C54.06,18.78,54.18,18,53.61,18Z" transform="translate(-4.11 -14.97)"/><path class="cls-9" d="M55.54,20.25c0,.11,0,.23.11.23h.23c.11-.12.11-.12.11-.23S55.54,20,55.54,20.25Z" transform="translate(-4.11 -14.97)"/><path class="cls-9" d="M58.83,20.93c0-.45-.57-.45-.68,0V21c0,.34.68.34.68-.11Z" transform="translate(-4.11 -14.97)"/><path class="cls-9" d="M60.3,21.38a.41.41,0,0,0,.11.34.21.21,0,0,0,.34,0,.39.39,0,0,0,.12-.34C61,21,60.3,21,60.3,21.38Z" transform="translate(-4.11 -14.97)"/><path class="cls-9" d="M64.38,20.14c-1.25-.34-2.61-.34-3.85-.68A6.54,6.54,0,0,1,56.78,17c-.11-.11-.22,0-.22.12.56,1.81,2.38,2.6,4.08,2.94,1.25.23,2.61.34,3.85.68A6.11,6.11,0,0,1,68,23.88c.11.22.45.11.34-.12A5.57,5.57,0,0,0,64.38,20.14Z" transform="translate(-4.11 -14.97)"/><path class="cls-9" d="M9,31.7c-.12-.11-.23,0-.23.11.91,4.88,1.59,9.41-1.25,13.83-1.7,2.5-4.53,5.9-2.83,9.07.11.12.22,0,.22-.11-1-5,3.41-7.6,4.77-11.9A16,16,0,0,0,9,31.7Z" transform="translate(-4.11 -14.97)"/><path class="cls-10" d="M43.07,23.65a13.77,13.77,0,0,0-6.43,1.7A13.21,13.21,0,0,0,32.51,29a16.67,16.67,0,0,0-2.4,4.74,17,17,0,0,0-.52,2c0,.18-.05.37-.1.55a3.43,3.43,0,0,1-1.74,2.27A2.67,2.67,0,0,1,23.88,37a3.24,3.24,0,0,1-.05-1.85c.23-.86.45-1.71.72-2.56a24.31,24.31,0,0,1,2.92-6.21,19.45,19.45,0,0,1,5.06-5.29,18.14,18.14,0,0,1,6.56-2.89c.67-.14,1.34-.25,2-.33s1.38-.12,2.07-.15h.65c.21,0,.44,0,.67,0l.33,0c.57,0,1.14.09,1.7.16a18.67,18.67,0,0,1,3,.68,18,18,0,0,1,7.48,4.51A21.09,21.09,0,0,1,61,28.55a27.35,27.35,0,0,1,2.27,6.31c.22,1,.4,1.93.53,2.91.08.58.13,1.16.19,1.73.1,1,.14,2,.15,3,0,.81,0,1.62,0,2.43s0,1.63,0,2.44a.53.53,0,0,0,.16.39,28.5,28.5,0,0,1,2.18,2.47A29.53,29.53,0,0,1,72.4,64c.11.75.2,1.5.24,2.26s.11,1.71.09,2.57-.06,1.62-.14,2.43a30,30,0,0,1-.72,4.22,28.7,28.7,0,0,1-3.09,7.64A29.25,29.25,0,0,1,59.05,93.2a28.6,28.6,0,0,1-8.72,3.7c-.79.19-1.58.35-2.39.48-.5.08-1,.13-1.5.18a28.27,28.27,0,0,1-3.9.16c-.5,0-1-.06-1.49-.09L39.7,97.5q-.6-.07-1.2-.18a29.58,29.58,0,0,1-3.1-.7,29.35,29.35,0,0,1-18.69-16,28.52,28.52,0,0,1-2-6.16c-.18-.85-.32-1.71-.42-2.57-.06-.49-.1-1-.14-1.48a29.85,29.85,0,0,1,0-3.41c0-.6.09-1.21.15-1.82s.15-1.2.25-1.8a26.62,26.62,0,0,1,1-4,29.42,29.42,0,0,1,19-18.9,27.85,27.85,0,0,1,3.81-.93c.66-.11,1.33-.22,2-.28l1.35-.1a26,26,0,0,1,2.79,0c.46,0,.92,0,1.38.09s.87.07,1.3.12,1,.14,1.53.24a28.91,28.91,0,0,1,8.82,3.12.45.45,0,0,0,.29.11,1.13,1.13,0,0,0,0-.18c0-.92,0-1.83,0-2.74a18.7,18.7,0,0,0-.2-2.48,19,19,0,0,0-2-6.41,14.05,14.05,0,0,0-3.51-4.34A12.87,12.87,0,0,0,46.81,24a15.68,15.68,0,0,0-1.94-.31c-.34,0-.7,0-1-.06m22.68,45A23.24,23.24,0,0,0,20,68.45a23.24,23.24,0,1,0,46.48.19Z" transform="translate(-4.11 -14.97)"/><path class="cls-11" d="M66.5,68.64A23.24,23.24,0,0,1,43.17,91.86,23.27,23.27,0,0,1,20,68.45a23.24,23.24,0,0,1,46.48.19ZM48.16,73.5a.8.8,0,0,1,.34,0h6.76a6.19,6.19,0,0,0,1.21-.11A4.92,4.92,0,0,0,59.11,72a3.66,3.66,0,0,0,1-2.6c0-.44,0-.88,0-1.33a3.48,3.48,0,0,0-.3-1.42,4.18,4.18,0,0,0-1.61-1.82,5.28,5.28,0,0,0-2.84-.8H48.17a.8.8,0,0,1,0-.4q0-3.39,0-6.78A5.8,5.8,0,0,0,48,55.46a5,5,0,0,0-1.12-2.2A3.69,3.69,0,0,0,44,52H42.73a3.39,3.39,0,0,0-2.22.75,4.59,4.59,0,0,0-1.46,1.94,5.42,5.42,0,0,0-.4,2.11v7a1.09,1.09,0,0,1,0,.17H31.4a5.37,5.37,0,0,0-1.74.28,4.64,4.64,0,0,0-2.27,1.57,3.41,3.41,0,0,0-.76,2q0,.9,0,1.8a3.43,3.43,0,0,0,.44,1.5,4.15,4.15,0,0,0,1.24,1.36,5.1,5.1,0,0,0,3,.95h6.84a2.43,2.43,0,0,1,.27,0,.76.76,0,0,1,.16,0,1.18,1.18,0,0,1,0,.37v6.81a5.49,5.49,0,0,0,.18,1.45,4.87,4.87,0,0,0,1.29,2.28,3.64,3.64,0,0,0,2.64,1.08h1.36a2.17,2.17,0,0,0,.36,0,3.65,3.65,0,0,0,2-.89,4.72,4.72,0,0,0,1.3-1.9,5.45,5.45,0,0,0,.36-2c0-2.24,0-4.48,0-6.73,0-.1,0-.2,0-.3A.66.66,0,0,1,48.16,73.5Z" transform="translate(-4.11 -14.97)"/><path class="cls-12" d="M48.16,73.5a.66.66,0,0,0,0,.15c0,.1,0,.2,0,.3,0,2.25,0,4.49,0,6.73a5.45,5.45,0,0,1-.36,2,4.72,4.72,0,0,1-1.3,1.9,3.65,3.65,0,0,1-2,.89,2.17,2.17,0,0,1-.36,0H42.76a3.64,3.64,0,0,1-2.64-1.08,4.82,4.82,0,0,1-1.29-2.28,5.49,5.49,0,0,1-.18-1.45V73.87a1.18,1.18,0,0,0,0-.37.76.76,0,0,0-.16,0H31.35a5.1,5.1,0,0,1-3-.95,4,4,0,0,1-1.23-1.36,3.32,3.32,0,0,1-.45-1.5q0-.9,0-1.8a3.43,3.43,0,0,1,.76-2,4.64,4.64,0,0,1,2.27-1.57A5.11,5.11,0,0,1,31.4,64h7.2a1.09,1.09,0,0,0,0-.17v-7a5.46,5.46,0,0,1,.4-2.11,4.59,4.59,0,0,1,1.46-1.94A3.39,3.39,0,0,1,42.73,52H44a3.69,3.69,0,0,1,2.9,1.31A5,5,0,0,1,48,55.46a5.8,5.8,0,0,1,.14,1.32v6.78a.71.71,0,0,0,0,.4h7.23a5.28,5.28,0,0,1,2.84.8,4.18,4.18,0,0,1,1.61,1.82,3.48,3.48,0,0,1,.3,1.42c0,.45,0,.89,0,1.33a3.66,3.66,0,0,1-1,2.6,4.92,4.92,0,0,1-2.64,1.41,6.19,6.19,0,0,1-1.21.11H48.5A.8.8,0,0,0,48.16,73.5Z" transform="translate(-4.11 -14.97)"/><path class="cls-10" d="M43.24,23.65c-.35,0-.7,0-1.05.06a17.63,17.63,0,0,0-1.93.31A12.81,12.81,0,0,0,35,26.6a14.08,14.08,0,0,0-3.52,4.34,19,19,0,0,0-2,6.41,20.57,20.57,0,0,0-.21,2.48c0,.91,0,1.82,0,2.74,0,.06,0,.12,0,.18a.49.49,0,0,0,.29-.11,30,30,0,0,1,5.18-2.22,28.45,28.45,0,0,1,3.64-.9c.51-.1,1-.17,1.53-.24s.86-.09,1.29-.12.92-.08,1.38-.09a26.16,26.16,0,0,1,2.8,0l1.35.11c.67.05,1.33.16,2,.27a27.36,27.36,0,0,1,3.8.93,29.3,29.3,0,0,1,20,22.95c.1.6.18,1.2.24,1.81S73,66.39,73,67a27.58,27.58,0,0,1,0,3.4c0,.49-.07,1-.13,1.49-.1.86-.24,1.71-.42,2.56A29.38,29.38,0,0,1,51.67,96.63c-1,.28-2.06.51-3.1.69q-.6.11-1.2.18L46,97.63l-1.49.09a26.67,26.67,0,0,1-3.9-.16c-.5,0-1-.1-1.51-.18-.8-.13-1.59-.29-2.38-.48A28.6,28.6,0,0,1,28,93.2a29.25,29.25,0,0,1-9.73-10.11,29.15,29.15,0,0,1-3.81-11.86c-.08-.81-.12-1.62-.14-2.43s0-1.71.08-2.57.14-1.51.25-2.25a29.07,29.07,0,0,1,6-13.73,26.92,26.92,0,0,1,2.18-2.47.53.53,0,0,0,.16-.39c0-.81,0-1.63,0-2.44s0-1.62,0-2.43c0-1,0-2,.15-3q.08-.87.18-1.74.21-1.46.54-2.91a27.79,27.79,0,0,1,2.26-6.31A21.5,21.5,0,0,1,30,23.08a18,18,0,0,1,7.49-4.51,17.55,17.55,0,0,1,3-.67,16.5,16.5,0,0,1,1.71-.17l.33,0a5,5,0,0,1,.67,0h.65c.69,0,1.38.07,2.07.15a19.61,19.61,0,0,1,2,.34,18.08,18.08,0,0,1,6.57,2.88,19.6,19.6,0,0,1,5.06,5.29,24.66,24.66,0,0,1,2.92,6.21c.26.85.49,1.7.72,2.56A3.24,3.24,0,0,1,63.18,37a2.67,2.67,0,0,1-3.86,1.59,3.41,3.41,0,0,1-1.75-2.27c0-.18-.06-.37-.09-.55a18.41,18.41,0,0,0-.53-2A16.35,16.35,0,0,0,54.55,29a13.17,13.17,0,0,0-4.12-3.67A13.8,13.8,0,0,0,44,23.65m-.11,68.21A23.25,23.25,0,0,0,67,68.45,23.24,23.24,0,1,0,43.89,91.86Z" transform="translate(-4.11 -14.97)"/></svg>