<svg id="Layer_1" data-name="Layer 1" xmlns="http://www.w3.org/2000/svg" xmlns:xlink="http://www.w3.org/1999/xlink" viewBox="0 0 91.55 152.72"><defs><style>.cls-1{fill:none;}.cls-2{fill:#f3f5fa;}.cls-3{fill:#56acbb;}.cls-4{fill:#c8d3d7;}.cls-5{fill:#d2dcfa;}.cls-6{fill:#9cdcea;}.cls-7{fill:#ffb09a;}.cls-8{fill:#f48161;}.cls-9{fill:#6a4222;}.cls-10{fill:#ffa486;}.cls-11{fill:#8084c1;}.cls-12{fill:#f7f9fa;}.cls-13{fill:#333;}.cls-14{fill:#5a381c;}.cls-15{fill:#383838;}.cls-16,.cls-53{fill:#fff;}.cls-17{fill:#b1b1b1;}.cls-18{fill:#e4e4e4;}.cls-19{fill:#687aae;}.cls-20{fill:#f7f5f5;}.cls-21{clip-path:url(#clip-path);}.cls-22{fill:#f2e5e5;}.cls-23{fill:#eac2a3;}.cls-24{fill:#ebb597;}.cls-25{fill:#f8d9c7;}.cls-26{fill:#dead92;}.cls-27{fill:#ebebeb;}.cls-28{fill:#f0f0f0;}.cls-29{fill:#cfc8aa;}.cls-30{fill:#939e79;}.cls-31{fill:#ffb29c;}.cls-32{fill:#c4bda0;}.cls-33{fill:#2d3d61;}.cls-34{fill:#d1d1d1;}.cls-35{fill:#adadad;}.cls-36{fill:#a1706e;}.cls-37{fill:#4e2a18;}.cls-38{fill:#6f4b4a;}.cls-39{fill:#6a3920;}.cls-40{fill:#4e3019;}.cls-41{fill:#5371af;}.cls-42{fill:#bcb69a;}.cls-43{fill:#f4734c;}.cls-44{fill:#404040;}.cls-45{fill:#9ab15d;}.cls-46{fill:#5e5b4d;}.cls-47{fill:#6c3b21;}.cls-48{fill:#7d90c9;}.cls-49{isolation:isolate;font-size:7.86px;font-family:Avenir-Light, Avenir;font-weight:300;}.cls-50{letter-spacing:0em;}.cls-51{letter-spacing:-0.02em;}.cls-52{fill:#005c9d;}.cls-52,.cls-53,.cls-54{fill-rule:evenodd;}.cls-54{fill:#26b2fc;}</style><clipPath id="clip-path" transform="translate(1.76 -5.28)"><path class="cls-1" d="M19.1,87.1h-.7c-4.9.1-8.2-2.1-9.7-6.8A24.07,24.07,0,0,1,7,72.8c0-2.2.9-4.1,1.2-6.2.6-4.2,1.9-8.4,2.4-12.5.4-3.7,4.6-5.7,7.7-6.7a17.91,17.91,0,0,1,10-.4c2.4.7,4.8,1.5,7.4.9,5.8-1.4,10.8-4.3,16.9-2.5,2.4.7,4.5,1.9,7.1,2.2,3.6.5,7.2-.1,10.8-.6s9.7-1.1,12,2.8a17.52,17.52,0,0,1,1.7,7.5c.1,3.2,0,6.5.1,9.7.1,2.3.4,4.6.3,7-.1,4-.5,9.5-4.4,11.7-5.3,3-12.8,1.7-18.6,1.2a173.57,173.57,0,0,0-20.4-.2C33.7,87.2,26.4,87,19.1,87.1Z"/></clipPath></defs><title>step2</title><path class="cls-2" d="M9.3,47.9a25.57,25.57,0,0,1,1.1-2.4c1.7-2.9,4.7-4.2,7.1-6.5a13.65,13.65,0,0,0,3.8-6.1c-2.3-.2-4.8-1.3-7.2.2-3.8,2.2-5.9,7.6-5.4,11.7C8.9,45.9,9.1,46.9,9.3,47.9Z" transform="translate(1.76 -5.28)"/><path class="cls-2" d="M54.9,8.3a17.94,17.94,0,0,0-3.9,2c-3.3,2.2-6.3,4.4-10.4,4-2.5-.3-5.6-1.5-8.1-.1-3,1.8-4.2,6.4-5,9.5-.2.8-.5,2.1-.8,3.5,3-.5,6.5-2.8,8.5-4.1,3.6-2.3,7.1-4,11.5-3.9,8.6.1,15.9,5.2,24.1,5.5,1.4-2,2.9-4.1,3.2-6.3C66.4,18.1,58.8,14.6,54.9,8.3Z" transform="translate(1.76 -5.28)"/><path class="cls-2" d="M73.9,17.4a5,5,0,0,0-.2-1.2C71.7,7.3,63,5.4,55.5,8,59.5,14,66.7,17.1,73.9,17.4Z" transform="translate(1.76 -5.28)"/><path class="cls-2" d="M18.3,47c5.3-5,8.5-11.6,14.8-15.6a23.89,23.89,0,0,1,9.7-3.7c3.6-.5,7,.2,10.5,1A87.49,87.49,0,0,0,67.5,31,11.9,11.9,0,0,1,70,25.8c-8.8-.6-17-6.8-25.9-5.6-5.4.7-9.3,4.7-14.2,6.7a10.8,10.8,0,0,1-3.5,1c-.6,2.1-1.4,4.2-2.8,4.8l-1.1.3c-1.1,3.7-3.9,6.6-7.2,9.1-2.9,2.1-4.8,4.4-5.5,7.8a43.63,43.63,0,0,0,2.3,6A25.2,25.2,0,0,1,18.3,47Z" transform="translate(1.76 -5.28)"/><path class="cls-2" d="M21.7,52a24.8,24.8,0,0,1,12.5-8.8C39,41.6,44,42,49,42.8c5.7,1,11.4,2.5,17.3,2.6a18,18,0,0,0,9.4-2.3c-2.7-2.7-5.7-5.3-7.5-8.4a5.6,5.6,0,0,1-.8-2.7,49.47,49.47,0,0,1-8.6-1.2c-4-.8-8-2.1-12.1-2.4a21.38,21.38,0,0,0-10.8,2.4c-6.7,3.4-10.2,9.5-15.1,14.8-2.2,2.4-4.8,4.3-6.6,7.2a16.89,16.89,0,0,0-1.7,3.6,44,44,0,0,0,4.1,7.1A26,26,0,0,1,21.7,52Z" transform="translate(1.76 -5.28)"/><path class="cls-2" d="M38.5,61.1c1.1-2.7,8.1-9.4,2.7-10.9-4.7-1.3-10.8,2.4-14.3,5.3-3.7,3.1-5.5,7.6-7.3,12,3.5,4,8.7,9,13.1,9.6,2.1-.8,4.5-1.7,7-2.7C36.7,70.7,36.8,65.3,38.5,61.1Z" transform="translate(1.76 -5.28)"/><path class="cls-2" d="M81.4,53.6c-.2-4-2.4-7-5-9.7a18.09,18.09,0,0,1-7.9,2.3c-10.5.7-20.8-5-31.3-3A24.54,24.54,0,0,0,22,52.8a28.11,28.11,0,0,0-4.8,11.6c.1.1.1.2.2.3.5.7,1.1,1.4,1.8,2.3,1.8-4.7,3.6-9.5,7.8-12.6,3.6-2.8,8.8-5.7,13.5-5.1,5,.6,4,4.6,1.8,7.7-1.6,2.3-3,4.2-3.6,7a12.35,12.35,0,0,0,2,10.2h0c1.6-.5,3.2-1.1,4.8-1.6-4.6-7.3-2.3-16.8,6.7-19.1,5.4-1.4,11,0,16.2,1.2,4.6,1,8.8,1.6,13.1.9C81.4,54.8,81.5,54.2,81.4,53.6Z" transform="translate(1.76 -5.28)"/><path class="cls-2" d="M58.6,53.8c-5.1-.3-10.8.9-13.5,5.7-2.4,4.1-1.5,9,.9,12.9a65.31,65.31,0,0,1,14-2.6c7.9-.4,19.7-4.4,21.3-13.3C73.9,57.6,66.2,54.2,58.6,53.8Z" transform="translate(1.76 -5.28)"/><path class="cls-2" d="M30,13.4a41.06,41.06,0,0,0-5.4,9.3c-.6,1.5-1.1,3.1-1.7,4.6A5,5,0,0,1,21.1,30c-1.1.6-2.3.1-3.5-.1A10.87,10.87,0,0,0,5.4,39.8c0,.2.4.2.4,0A10.39,10.39,0,0,1,12,31.1a11.22,11.22,0,0,1,6-.7c1.2.2,2.3.5,3.4-.2,2.1-1.4,2.6-5.2,3.5-7.3a51.13,51.13,0,0,1,5.4-9.3C30.6,13.5,30.2,13.2,30,13.4Z" transform="translate(1.76 -5.28)"/><path class="cls-2" d="M73.2,10.2a18.3,18.3,0,0,0-17-4.3c-.2.1-.1.4.1.3,5.5-1,11-.2,15.5,3.3,2.4,1.9,4.1,4.4,4,7.5-.1,2.9-1.3,6.5-3.6,8.4-.2.1.1.5.2.3,2.4-1.7,3.4-5,3.8-7.8A8.69,8.69,0,0,0,73.2,10.2Z" transform="translate(1.76 -5.28)"/><path class="cls-2" d="M75.4,23.6c-.9,2.4-3,2.6-4.7,4.2a6.21,6.21,0,0,0-1.6,4.3c0,.3.4.3.5,0a6.47,6.47,0,0,1,1.2-3.6,9,9,0,0,1,2.6-1.7,5.11,5.11,0,0,0,2.4-3C76,23.4,75.5,23.3,75.4,23.6Z" transform="translate(1.76 -5.28)"/><path class="cls-2" d="M24.2,19.6c-1.3.9-1.8,2.4-2.4,3.8A14.39,14.39,0,0,1,20.3,27c-1.5,2-3.3.8-4.8-.1-.2-.1-.5.2-.3.3,1.4,1.1,3.6,2.2,5.1.7a7.46,7.46,0,0,0,1.4-3c.7-1.6,1.2-3.8,2.7-4.9C24.8,19.9,24.5,19.4,24.2,19.6Z" transform="translate(1.76 -5.28)"/><path class="cls-3" d="M33.1,27.4H20.8a.58.58,0,0,0-.6.6v3.3a5.67,5.67,0,0,1-1.6,2.2c-.1.1-.5.4-.3.5a.66.66,0,0,0,.6-.1c.7-.2,1.3-.4,2-.6l.9-.3H33.1a.58.58,0,0,0,.6-.6V28C33.6,27.7,33.4,27.4,33.1,27.4Z" transform="translate(1.76 -5.28)"/><path class="cls-4" d="M31.7,28.9a.68.68,0,0,0-.6.4.71.71,0,0,1-.6.3c-.3,0-.4-.2-.6-.3s-.3-.4-.6-.4a.68.68,0,0,0-.6.4.71.71,0,0,1-.6.3c-.3,0-.4-.2-.6-.3s-.3-.4-.6-.4a.68.68,0,0,0-.6.4.71.71,0,0,1-.6.3c-.3,0-.4-.2-.6-.3s-.3-.4-.6-.4a.68.68,0,0,0-.6.4.71.71,0,0,1-.6.3c-.3,0-.4-.2-.6-.3s-.3-.4-.6-.4h0V29h0c.3,0,.4.2.6.3s.3.4.6.4a.68.68,0,0,0,.6-.4.71.71,0,0,1,.6-.3c.3,0,.4.2.6.3s.3.4.6.4a.68.68,0,0,0,.6-.4.71.71,0,0,1,.6-.3c.3,0,.4.2.6.3s.3.4.6.4a.68.68,0,0,0,.6-.4.71.71,0,0,1,.6-.3c.3,0,.4.2.6.3s.3.4.6.4a.68.68,0,0,0,.6-.4.71.71,0,0,1,.6-.3h0v-.1Z" transform="translate(1.76 -5.28)"/><path class="cls-4" d="M30.5,31.4c-.3,0-.4-.2-.6-.3s-.3-.4-.6-.4a.68.68,0,0,0-.6.4.71.71,0,0,1-.6.3c-.3,0-.4-.2-.6-.3s-.3-.4-.6-.4a.68.68,0,0,0-.6.4.71.71,0,0,1-.6.3c-.3,0-.4-.2-.6-.3s-.3-.4-.6-.4a.68.68,0,0,0-.6.4.71.71,0,0,1-.6.3c-.3,0-.4-.2-.6-.3l-.1-.1v.2h0c.2.2.3.4.6.4a.68.68,0,0,0,.6-.4.71.71,0,0,1,.6-.3c.3,0,.4.2.6.3s.3.4.6.4a.68.68,0,0,0,.6-.4.71.71,0,0,1,.6-.3c.3,0,.4.2.6.3s.3.4.6.4a.68.68,0,0,0,.6-.4.71.71,0,0,1,.6-.3c.3,0,.4.2.6.3s.3.4.6.4a.68.68,0,0,0,.6-.4h0V31l-.1.1C30.9,31.2,30.8,31.4,30.5,31.4Z" transform="translate(1.76 -5.28)"/><path class="cls-5" d="M65.9,18.4A14.08,14.08,0,0,0,51.8,32.5a15.59,15.59,0,0,0,1,5.3L47,43.3h9.8a13.73,13.73,0,0,0,9.1,3.3,14.1,14.1,0,0,0,0-28.2Z" transform="translate(1.76 -5.28)"/><path class="cls-6" d="M80,32.5a13.83,13.83,0,0,1-4,9.8l-.7.7a13.44,13.44,0,0,1-1.4,1.1,12.16,12.16,0,0,1-3.6,1.8c-.2.1-.4.1-.6.2a15.67,15.67,0,0,1-3,.5h-.9a12.8,12.8,0,0,1-4.8-.9,14.68,14.68,0,0,1-4-2.4H47.2L53,37.8a13.17,13.17,0,0,1-1-5.3,15.83,15.83,0,0,1,.5-3.8c.1-.2.1-.5.2-.7a.35.35,0,0,1,.1-.2c.1-.3.2-.5.3-.8a.35.35,0,0,1,.1-.2h0a3,3,0,0,1,.4-.8,2.09,2.09,0,0,1,.4-.6h0a2.09,2.09,0,0,1,.4-.6h0A13.73,13.73,0,0,1,62.7,19a6.93,6.93,0,0,1,2-.3h1.4a13.36,13.36,0,0,1,4,.6c.1,0,.3.1.4.1s.1,0,.2.1c.4.1.8.3,1.1.4a11.25,11.25,0,0,1,2.1,1.2A13.34,13.34,0,0,1,80,32.5Z" transform="translate(1.76 -5.28)"/><path class="cls-7" d="M64.4,18.7c-1,.6-.5,3.9-.2,4.9a3,3,0,0,0,3.7,2.1A4.76,4.76,0,0,0,71.2,23c.6-1.7.9-5.1-1-6a6.17,6.17,0,0,0-3.8,0A3.18,3.18,0,0,0,64.4,18.7Z" transform="translate(1.76 -5.28)"/><path class="cls-7" d="M56.3,30.5c0-.1-.1-.1-.1-.2a3.29,3.29,0,0,1-.4-1.7c.1-.6,1-2.1.6-2.2s-.9,1.1-1.3,1-.8-3.1-1.2-3,.4,2.4.2,2.5-1.2-2.6-1.6-2.4.9,2.4.6,2.5-1.3-1.8-1.6-1.5,1.5,2.4,1.2,2.6c-.1.1-1.2-1.1-1.5-.8s1.5,1.8,1.7,2a9.55,9.55,0,0,1,1.2,1.6c.2.4.3,1.4.8,1.6s.9-.2,1.3-.2c.2,0,.8.2,1,0s-.1-.3-.1-.4A10,10,0,0,1,56.3,30.5Z" transform="translate(1.76 -5.28)"/><path class="cls-8" d="M54.4,28.9h0c-.2-.3-.2-.5-.1-.6.1-.3.4-.3.5-.4l.2-.4h.1v.1l-.2.4h0s-.4.1-.5.3a.64.64,0,0,0,0,.6Z" transform="translate(1.76 -5.28)"/><path class="cls-9" d="M76.6,27.1c-.4-.8-.1-1.8-.9-2.3-.3-.2-.5-.2-.8-.4s-.3-.2-.5-.5a1,1,0,0,0-1-.5h-.2a1.64,1.64,0,0,0,.2-1,3.08,3.08,0,0,1,.1-1,4.88,4.88,0,0,0,.3-.7,1.13,1.13,0,0,0,.1-.8,2.12,2.12,0,0,1-.3-.7v-.6c-.1-.3-.3-.5-.3-.8a.84.84,0,0,0-.2-.7c-.4-.5-1.2-.5-1.7-.7s-.6-.6-1.3-.6a4.87,4.87,0,0,1-1.2-.1,4.48,4.48,0,0,0-1.2-.1,1.84,1.84,0,0,0-1.3.4,1.61,1.61,0,0,0-.4.7,1.7,1.7,0,0,0-.1.7v.5a.37.37,0,0,0,.1.3c.1.2.2.2.6.2a5.07,5.07,0,0,1,1.3-.2,1.42,1.42,0,0,1,.6.2c.3.1.6,0,.9.1a1,1,0,0,1,.7.7,2.84,2.84,0,0,0,.8,1.1c.2.1.4.4.6.5h0a.37.37,0,0,1,.3.1h0a1.38,1.38,0,0,1-.1,1.1h0v.1c-.1.1-.1.2-.1.4v.1c0,.1,0,.1-.1.2s-.1.2-.1.3a.76.76,0,0,1-.2.5.35.35,0,0,1-.1.2c-.1.2-.2.3-.2.5h0c0,.1,0,.1-.1.2h0v.1c0,.3.1.7.1,1s-.2.7-.2,1,.4.5.5.9,0,.7.2,1a1.67,1.67,0,0,0,1.1.8c.2,0,.4.1.7.1h.4a3,3,0,0,1,1,.2,2.22,2.22,0,0,0,1.1.5c.5,0,.5-.3.6-.7a3.33,3.33,0,0,1,.6-1A1.69,1.69,0,0,0,76.6,27.1Z" transform="translate(1.76 -5.28)"/><path class="cls-10" d="M70.9,21.2c.1-.3.5-.7.9-.6s.5.6.4,1a1.17,1.17,0,0,1-.9,1,.7.7,0,0,1-.9-.4c0-.2.2-.3.3-.4A.85.85,0,0,0,70.9,21.2Z" transform="translate(1.76 -5.28)"/><path class="cls-7" d="M67.4,25.2a8,8,0,0,1-.5,2.1,2,2,0,0,1-.8.8c-.3.2-.8.2-1.1.4-.7.6-.4,2.1.1,2.7A5.5,5.5,0,0,0,67,32.7a3.07,3.07,0,0,0,2.1.2,4.38,4.38,0,0,0,3-1.7c.3-.5,1.2-1.6.9-2.2-.1-.2-.5-.3-.7-.5a4.73,4.73,0,0,1-1.1-1.3,4.43,4.43,0,0,1-.3-2c0-.3-.2-.6-.1-1,0-.2.2-.6.1-.8a.75.75,0,0,0-.5-.1,2.93,2.93,0,0,0-1,.3A5.8,5.8,0,0,0,67.4,25.2Z" transform="translate(1.76 -5.28)"/><path class="cls-11" d="M71.5,33.1c-.3,1.4-.5,2.7-.7,4.1-.1.6-.2,1.3-.3,2v.1c0,.2-.1.5-.1.7a21.3,21.3,0,0,0-.3,2.5v.8c0,.7.4,1.4.3,2.1a.75.75,0,0,1-.1.5c-.2.1-.4.1-.6.2a15.67,15.67,0,0,1-3,.5h-.9a3.36,3.36,0,0,1-1.3-2,7.13,7.13,0,0,1,.2-2.9v-.1a1.42,1.42,0,0,0,.2-.6.1.1,0,0,1,.1-.1l.3-.9a16,16,0,0,0,.3-2.3c0-.5.1-.9.1-1.4s.1-.7.1-1.1v-.6h0v-.5a4.05,4.05,0,0,0,0-1.1v-.1a2.34,2.34,0,0,1-.2-1.2h0v-.2h.2c.1,0,.3.1.4.1a1.42,1.42,0,0,0,.6.2,5.85,5.85,0,0,0,1.3.2,23.48,23.48,0,0,0,2.6-.1c.2,0,.3-.1.5-.1h.2l.1.1A2.36,2.36,0,0,1,71.5,33.1Z" transform="translate(1.76 -5.28)"/><path class="cls-12" d="M65.9,44.7c0-.6-.1-1.3-.1-1.9V41.2a10.28,10.28,0,0,1-.1-1.7V34.7h0V31a20.9,20.9,0,0,0-.1-2.5c0-.1-.1-.2-.1-.3-.2-.2-.5,0-.8,0a5.7,5.7,0,0,0-1.3.1,6.12,6.12,0,0,0-1.2.5,5,5,0,0,0-1.4,1.5,13.73,13.73,0,0,0-1.3,2c-.4.8-.6,1.7-1,2.5.1-.5-.4-.9-.6-1.3-.3-.6-.5-1.4-.8-2-.2-.3-.6-1.1-1-1.2H56c-.5-.1-1,.8-1.2,1.2-.1.2-.3.4-.4.6a.1.1,0,0,1-.1.1c-.7.9-1.3,2-.6,3a5.5,5.5,0,0,0,.7.9c.9,1.1,1.9,2.1,2.7,3.3.5.7,2.4,3.6,3.5,2.5a8.35,8.35,0,0,1-.5,2,2.38,2.38,0,0,0,.5,1.8,12.8,12.8,0,0,0,4.8.9h.9A3.81,3.81,0,0,1,65.9,44.7ZM77.6,34.4a5.46,5.46,0,0,0-.6-1.8c-.2-.3-.3-.5-.5-.8a4.62,4.62,0,0,0-.7-.7c-.3-.3-.5-.7-.9-.9-.5-.4-1-.7-1.5-1.1-.1-.1-.2-.1-.4-.2a.76.76,0,0,0-.5-.2h-.1c-.1.1-.1.1-.1.2h0v.3c0,.3-.1.5-.1.8-.2.5-.4.9-.6,1.3a4.88,4.88,0,0,0-.3.7c0,.1-.1.2-.1.3a5.37,5.37,0,0,0-.5,2.1c-.1.9-.1,1.9-.2,2.8-.1.5-.1.9-.2,1.4a.91.91,0,0,1-.3.7,3.55,3.55,0,0,1-1,.2H67.8v.2a.37.37,0,0,0,.1.3c0,.1.1.2.1.3a2.92,2.92,0,0,1,.2.9c.1.3.1.6.2.9a3.75,3.75,0,0,0,.1,1s.8-.2.9-.1c.4.1.5.7.5,1a3.07,3.07,0,0,1-.2,2.1c.2-.1.4-.1.6-.2a12.16,12.16,0,0,0,3.6-1.8v-.2a1.62,1.62,0,0,1,.5-.9c.4-.3.6-.1,1-.1h0c.4,0,.5-.3.7-.7s.1-.7.2-1l.9-2.4a6.37,6.37,0,0,0,.2-.7A11.22,11.22,0,0,0,77.6,34.4Z" transform="translate(1.76 -5.28)"/><path class="cls-7" d="M68.4,42.2a6.37,6.37,0,0,0-.7-.2,1.88,1.88,0,0,0-.8-.2h-.8a5.84,5.84,0,0,1-1.9-.2,8.33,8.33,0,0,1-1.5-.4c-.3-.2-.3-.4.1-.5-.3-.1-1.1-.4-1.1-.8a.44.44,0,0,1,.4-.3c-.2-.1-.5-.3-.4-.6s.4-.2.6-.2c-.1,0-.1-.2-.1-.2s0-.2.1-.2.5,0,.7,0,.6.1.9.1.5.1.8.1c.1,0,.7.2.5-.1-.1-.1-.2-.3-.3-.4s-.5-.7-.2-.9a2.17,2.17,0,0,0,.7.6,10.41,10.41,0,0,0,1.2.5c.7.3.8,1.4.8,1.4h.3v.4c0,.1,0,.2.1.2v.1h0v.1a.35.35,0,0,0,.1.2c.1.3.2.7.3,1.1C68.3,41.8,68.3,42,68.4,42.2Z" transform="translate(1.76 -5.28)"/><path class="cls-9" d="M65.7,16.4c-1.1-.6-2,.5-2.7,1.3-1.5,1.8.1,3.9-.2,6a11.5,11.5,0,0,1-.6,1.7c-.2.5-.3.7-.2.9h.1c.3-.6.7-1.4,1-2.1a5.93,5.93,0,0,0,0-2.3c.1-.7.7-1.2,1-1.8a2.63,2.63,0,0,1,.9-1.4A1.55,1.55,0,0,0,65.7,16.4Z" transform="translate(1.76 -5.28)"/><path class="cls-9" d="M64.2,20.2c-.3.5-.1.8-.2,1.3a4.51,4.51,0,0,0-.3,1.1,4.82,4.82,0,0,0,0,1.2,3.61,3.61,0,0,1-.3,1.8c-.2.4-.3.7-.5,1.2,0,.1-.1,0-.1,0,0-.5.2-.9.2-1.4a8.81,8.81,0,0,0-.2-1.7,3.59,3.59,0,0,1-.2-1.8c0-.3.3-.9.1-1.1Z" transform="translate(1.76 -5.28)"/><path class="cls-8" d="M67.5,25.9h0c0-.1,2.1-.4,3.1-1.6h.1c.1,0,0,0,0,.1a6.79,6.79,0,0,1-3.2,1.5Z" transform="translate(1.76 -5.28)"/><path class="cls-8" d="M68.1,29.2h0a2.25,2.25,0,0,0-1.9-.4h-.1v-.1a2.69,2.69,0,0,1,2,.5Z" transform="translate(1.76 -5.28)"/><path class="cls-8" d="M69.6,29.5h0a2.45,2.45,0,0,1,2.3-.3v.1h-.1a2.21,2.21,0,0,0-2.2.2Z" transform="translate(1.76 -5.28)"/><path class="cls-13" d="M60.9,41.6h0c-.1-2.5,1.5-7,1.5-7s0-.1.1,0,.1,0,0,.1a33.46,33.46,0,0,0-1.6,6.9Z" transform="translate(1.76 -5.28)"/><path class="cls-13" d="M70.5,39.2h0c-.1-.1-.1-.1,0-.1a8.36,8.36,0,0,1,2.5,0,12.12,12.12,0,0,1,1-4.3h.1v.1a12.12,12.12,0,0,0-1,4.3v.1H73a7,7,0,0,0-2.5-.1Z" transform="translate(1.76 -5.28)"/><path class="cls-13" d="M72,43c-1.2,0-2.4-.1-2.4-.1a.1.1,0,0,1,0-.2,16.78,16.78,0,0,0,4,0,.1.1,0,1,1,0,.2A7.59,7.59,0,0,1,72,43Z" transform="translate(1.76 -5.28)"/><path class="cls-8" d="M64.4,39.5a2.61,2.61,0,0,1-1.8-.5v-.1h.1a2.61,2.61,0,0,0,1.8.5h.1a.1.1,0,0,1,.1.1c-.2-.1-.2,0-.3,0Z" transform="translate(1.76 -5.28)"/><path class="cls-8" d="M64.6,40.2h0a6.82,6.82,0,0,1-2.3-.6v-.1h.1a6.13,6.13,0,0,0,2.2.5v.2Z" transform="translate(1.76 -5.28)"/><path class="cls-8" d="M64.9,41a8.92,8.92,0,0,1-1.7-.3s-.1,0,0-.1,0-.1.1,0a10.61,10.61,0,0,0,1.8.3.1.1,0,0,1,.1.1c0,.1-.2,0-.3,0Z" transform="translate(1.76 -5.28)"/><path class="cls-13" d="M60.6,38.3c-.1,0-.1-.1,0,0a16.2,16.2,0,0,0-1.7-2.9v-.1H59a11.88,11.88,0,0,1,1.6,3Z" transform="translate(1.76 -5.28)"/><path class="cls-14" d="M64.2,19.3h0a4.71,4.71,0,0,1,1.1-1.6h.1v.1a15,15,0,0,0-1.2,1.5Z" transform="translate(1.76 -5.28)"/><path class="cls-14" d="M62.9,23.5h0a3.12,3.12,0,0,1-.1-2h.1v.1a3.05,3.05,0,0,0,0,1.9Z" transform="translate(1.76 -5.28)"/><path class="cls-14" d="M71.3,20.2h0a3.12,3.12,0,0,1-1.2-1.6v-.1h.1A3.54,3.54,0,0,0,71.4,20c0,.1,0,.2-.1.2Z" transform="translate(1.76 -5.28)"/><path class="cls-14" d="M73.1,18.8h0a3.91,3.91,0,0,0-1-1.7V17h.1a3.4,3.4,0,0,1,.9,1.8Z" transform="translate(1.76 -5.28)"/><path class="cls-14" d="M73.5,20.2h0a3,3,0,0,1-.9-1.8.1.1,0,1,1,.2,0,4,4,0,0,0,.9,1.7c-.1,0-.1.1-.2.1Z" transform="translate(1.76 -5.28)"/><path class="cls-14" d="M74.3,28.8h0A2.84,2.84,0,0,1,71.9,27a2.55,2.55,0,0,1-.2-1.3.1.1,0,1,1,.2,0,2.88,2.88,0,0,0,2.6,3c-.2,0-.2,0-.2.1Z" transform="translate(1.76 -5.28)"/><path class="cls-14" d="M75.3,28.8h0c-1.5-.5-1.8-1.1-1.8-1.1v-.1h.1s.3.6,1.8,1.1c-.1,0-.1,0-.1.1Z" transform="translate(1.76 -5.28)"/><path class="cls-14" d="M76.3,27.7h0a4.44,4.44,0,0,1-1.1-2.4.1.1,0,1,1,.2,0,4.78,4.78,0,0,0,1,2.4c0-.1,0,0-.1,0Z" transform="translate(1.76 -5.28)"/><path class="cls-14" d="M70.8,18.6h0a3.24,3.24,0,0,0-2-.7h0a.1.1,0,1,1,0-.2,3.46,3.46,0,0,1,2.1.7c-.1.1-.1.1-.1.2Z" transform="translate(1.76 -5.28)"/><path class="cls-14" d="M66.3,17.7h0a1.28,1.28,0,0,1,.6-1.7H67v.1a1.28,1.28,0,0,0-.7,1.6c.1-.1.1,0,0,0Z" transform="translate(1.76 -5.28)"/><path class="cls-14" d="M75.5,27.9h0a2.13,2.13,0,0,1-1.4-1.5,3.91,3.91,0,0,0-1.8-2v-.1h.1a4.32,4.32,0,0,1,1.8,2.1,2,2,0,0,0,1.3,1.4v.1Z" transform="translate(1.76 -5.28)"/><path class="cls-8" d="M66.6,23.4c0-.1-.2-.2-.3-.2-.5-.1-.2-.5-.1-.8a2,2,0,0,0,.1-1.3h-.1a2.2,2.2,0,0,1,.1.8,1.49,1.49,0,0,1-.3.7.3.3,0,0,0,0,.4c.1.2.5.2.6.4Z" transform="translate(1.76 -5.28)"/><path class="cls-8" d="M66.7,23.4c0-.2-.2-.2-.3-.2h0a.22.22,0,0,1-.2-.2c-.1-.1,0-.3.1-.5a.1.1,0,0,1,.1-.1,2,2,0,0,0,.1-1.3h-.1v.1a2.2,2.2,0,0,1,.1.8,1.42,1.42,0,0,1-.2.6v.1a.3.3,0,0,0,0,.4c.1.1.2.1.3.2a.22.22,0,0,1,.2.2c-.3-.1-.2-.1-.1-.1Zm-.6-.8c.1-.1.1-.3.2-.4a.35.35,0,0,1-.1.2l-.1.2c0,.1-.1.3-.1.4a.76.76,0,0,1,.1-.4Z" transform="translate(1.76 -5.28)"/><path class="cls-8" d="M66.9,23.1c-.1,0-.2-.1-.3-.1v.1Z" transform="translate(1.76 -5.28)"/><path class="cls-8" d="M66.9,23c-.1,0-.2-.1-.3-.1a.1.1,0,0,0,0,.2c.1,0,.1,0,.3-.1l-.1.1h0c.1.1.1,0,.1-.1Zm0,.1h0c-.1,0-.2,0-.2-.1h0a.35.35,0,0,0,.2.1Z" transform="translate(1.76 -5.28)"/><path class="cls-9" d="M68.6,20.3a1.7,1.7,0,0,0-1.4-.2c-.2,0-.2.4,0,.3h.6c.2,0,.4.1.6.1S68.7,20.4,68.6,20.3Z" transform="translate(1.76 -5.28)"/><path class="cls-9" d="M65.5,20.2a1.85,1.85,0,0,0-.7.2c-.2.1-.4.2-.4.4s0,.1.1.1a.52.52,0,0,0,.4-.2,1.27,1.27,0,0,1,.6-.1C65.6,20.5,65.7,20.2,65.5,20.2Z" transform="translate(1.76 -5.28)"/><path class="cls-15" d="M67.8,21.2a.19.19,0,0,0-.3,0,.37.37,0,0,0-.1.3.21.21,0,0,0,.4,0A.19.19,0,0,0,67.8,21.2Z" transform="translate(1.76 -5.28)"/><path class="cls-15" d="M65.4,21.3a.22.22,0,0,0-.2.2v.2a.21.21,0,0,0,.4,0v-.2A.22.22,0,0,0,65.4,21.3Z" transform="translate(1.76 -5.28)"/><path class="cls-16" d="M66,24.1a5.88,5.88,0,0,0,1.7-.2c.1,0,.2.1.1.1a.8.8,0,0,1-.8.6c-.7.1-1-.2-1.1-.4S65.9,24.1,66,24.1Z" transform="translate(1.76 -5.28)"/><path class="cls-8" d="M67.9,24.3c-.1.1-.1.1-.1.2l-.2.2v.1a.85.85,0,0,0,.3-.5Z" transform="translate(1.76 -5.28)"/><path class="cls-16" d="M71.7,22.5c0-.2-.2-.3-.4-.2a.1.1,0,0,0-.1.1l-.1.1c-.1.1,0,.2.1.3a.31.31,0,0,0,.2.1h.1A.52.52,0,0,0,71.7,22.5Z" transform="translate(1.76 -5.28)"/><path class="cls-8" d="M72,21.4c0,.1-.1.2-.2.3s-.1.2-.2.3a.1.1,0,0,0,.1.1c.2,0,.2-.2.3-.3s.1-.3,0-.4Z" transform="translate(1.76 -5.28)"/><path class="cls-13" d="M65.3,31c.1.3.1.5.2.8s.1.4.2.6c.1.4.3.8.4,1.2,0,.1,0,.2-.1.2h0c-.1,0-.1,0-.1-.1s-.1-.3-.2-.5c-.2-.6-.4-1.3-.6-1.9a3,3,0,0,1,.6-2.9.52.52,0,0,0,.4-.2.1.1,0,0,0,.1-.1v.1A3,3,0,0,0,65.3,31Z" transform="translate(1.76 -5.28)"/><path class="cls-17" d="M66.3,33a.89.89,0,0,0-1,.6.62.62,0,0,0,.1.7.75.75,0,0,0,1.3-.1C66.9,33.8,66.9,33.1,66.3,33Z" transform="translate(1.76 -5.28)"/><path class="cls-13" d="M72.1,30.5l-.1.1h-.1c-.1,0-.1-.1-.1-.2A2.2,2.2,0,0,0,72,29a2.12,2.12,0,0,0-.3-.7c0-.1-.1-.2-.1-.3v-.1l.6.6A2.36,2.36,0,0,1,72.1,30.5Z" transform="translate(1.76 -5.28)"/><path class="cls-13" d="M72.2,30.4a2.43,2.43,0,0,0-2.6.9,4.45,4.45,0,0,0-.6,3.2v.3c0,.1.1.1.2.1h0a.22.22,0,0,0,.2-.2V34a6.48,6.48,0,0,1,.2-2A2.29,2.29,0,0,1,72,30.6a1.06,1.06,0,0,1,.7.6,2.11,2.11,0,0,1-.5,1.8,15.93,15.93,0,0,1-1.3,1.3l-.6.6c-.1.1-.1.2,0,.2l.1.1h.1c.2-.2.4-.3.6-.5a5.5,5.5,0,0,0,2-2.3A1.75,1.75,0,0,0,72.2,30.4Z" transform="translate(1.76 -5.28)"/><path class="cls-18" d="M69.1,34.7a.35.35,0,0,1-.1.2c-.1.2.3.4.4.2a.35.35,0,0,1,.1-.2C69.5,34.6,69.2,34.5,69.1,34.7Z" transform="translate(1.76 -5.28)"/><path class="cls-18" d="M70.4,35c0-.2-.3-.2-.4,0s-.1.2-.1.3.2.3.3.2C70.4,35.2,70.4,35.1,70.4,35Z" transform="translate(1.76 -5.28)"/><path class="cls-18" d="M66.1,33.5a.4.4,0,1,0,.4.4C66.4,33.7,66.3,33.5,66.1,33.5Z" transform="translate(1.76 -5.28)"/><path class="cls-19" d="M38,11.6H52.1a.58.58,0,0,1,.6.6V16a5.77,5.77,0,0,0,1.8,2.5c.1.1.6.5.3.6s-.5-.1-.6-.1c-.8-.2-1.5-.5-2.3-.7-.3-.1-.7-.2-1-.3H38a.58.58,0,0,1-.6-.6V12.2C37.3,11.9,37.6,11.6,38,11.6Z" transform="translate(1.76 -5.28)"/><path class="cls-4" d="M39.5,13.4a.72.72,0,0,1,.7.4c.2.2.3.4.6.4a.68.68,0,0,0,.6-.4,1,1,0,0,1,.7-.4.72.72,0,0,1,.7.4c.2.2.3.4.6.4a.68.68,0,0,0,.6-.4,1,1,0,0,1,.7-.4.72.72,0,0,1,.7.4c.2.2.3.4.6.4a.68.68,0,0,0,.6-.4,1,1,0,0,1,.7-.4.72.72,0,0,1,.7.4c.2.2.3.4.6.4a.68.68,0,0,0,.6-.4,1,1,0,0,1,.7-.4h0v.1h0a.68.68,0,0,0-.6.4,1,1,0,0,1-.7.4.72.72,0,0,1-.7-.4c-.2-.2-.3-.4-.6-.4a.68.68,0,0,0-.6.4,1,1,0,0,1-.7.4.72.72,0,0,1-.7-.4c-.2-.2-.3-.4-.6-.4a.68.68,0,0,0-.6.4,1,1,0,0,1-.7.4.72.72,0,0,1-.7-.4c-.2-.2-.3-.4-.6-.4a.68.68,0,0,0-.6.4,1,1,0,0,1-.7.4.72.72,0,0,1-.7-.4c-.2-.2-.3-.4-.6-.4h0v-.1Z" transform="translate(1.76 -5.28)"/><path class="cls-4" d="M40.9,16.2a.68.68,0,0,0,.6-.4,1,1,0,0,1,.7-.4.72.72,0,0,1,.7.4c.2.2.3.4.6.4a.68.68,0,0,0,.6-.4,1,1,0,0,1,.7-.4.72.72,0,0,1,.7.4c.2.2.3.4.6.4a.68.68,0,0,0,.6-.4,1,1,0,0,1,.7-.4.72.72,0,0,1,.7.4c.2.2.3.4.6.4a.68.68,0,0,0,.6-.4l.1-.1v.2h0a1,1,0,0,1-.7.4.72.72,0,0,1-.7-.4c-.2-.2-.3-.4-.6-.4a.68.68,0,0,0-.6.4,1,1,0,0,1-.7.4.72.72,0,0,1-.7-.4c-.2-.2-.3-.4-.6-.4a.68.68,0,0,0-.6.4,1,1,0,0,1-.7.4.72.72,0,0,1-.7-.4c-.2-.2-.3-.4-.6-.4a.68.68,0,0,0-.6.4,1,1,0,0,1-.7.4.72.72,0,0,1-.7-.4h0v-.2l.1.1A.57.57,0,0,0,40.9,16.2Z" transform="translate(1.76 -5.28)"/><path id="SVGID" class="cls-20" d="M19.1,87.1h-.7c-4.9.1-8.2-2.1-9.7-6.8A24.07,24.07,0,0,1,7,72.8c0-2.2.9-4.1,1.2-6.2.6-4.2,1.9-8.4,2.4-12.5.4-3.7,4.6-5.7,7.7-6.7a17.91,17.91,0,0,1,10-.4c2.4.7,4.8,1.5,7.4.9,5.8-1.4,10.8-4.3,16.9-2.5,2.4.7,4.5,1.9,7.1,2.2,3.6.5,7.2-.1,10.8-.6s9.7-1.1,12,2.8a17.52,17.52,0,0,1,1.7,7.5c.1,3.2,0,6.5.1,9.7.1,2.3.4,4.6.3,7-.1,4-.5,9.5-4.4,11.7-5.3,3-12.8,1.7-18.6,1.2a173.57,173.57,0,0,0-20.4-.2C33.7,87.2,26.4,87,19.1,87.1Z" transform="translate(1.76 -5.28)"/><g class="cls-21"><path class="cls-22" d="M-1.2,75.6c14.2.5,28.5-1.3,42.8-.7,12.2.5,24.9.9,37.1.4,2.5-.1,6.8-.4,8.7,1.5,1.3,1.3,1.6,4.3,1.9,5.9.8,4.5,1.1,8-3.1,10.9-4.9,3.4-12.5,2.9-18.1,3.2-8.2.4-16.4,1-24.7,1.1A157.16,157.16,0,0,1,17.7,96c-4.6-.7-6.7-2.7-10-5.9C3.8,86.5-3.9,83-1.2,75.6Z" transform="translate(1.76 -5.28)"/></g><path class="cls-23" d="M16.2,61.4c-1.2.2-1.5,2.1-1.7,3a9.08,9.08,0,0,1-.3,2.3,5,5,0,0,0-.1,2.1,2.31,2.31,0,0,0,1.1,2,4.78,4.78,0,0,0,2.9,0,15.14,15.14,0,0,1,3-.2c2.3,0,4.5-.1,6.8-.1,6.6-.2,13.3-.2,20-.2,4.7,0,9.6.3,14.3-.2,2.6-.3,6,1.1,6.2-3.2.1-3.3-3.8-2.9-5.8-3-4.2-.2-8.5.2-12.7.2-4.9,0-9.7.3-14.6,0a55.58,55.58,0,0,0-10-.1,22.34,22.34,0,0,1-3.7.2,7.1,7.1,0,0,1-3.9-1.6C17.3,62.3,16.9,61.9,16.2,61.4Z" transform="translate(1.76 -5.28)"/><path class="cls-24" d="M64.1,52.3h.8c1.6.1,3.2.1,4.7.1a3,3,0,0,1,2.8,1.8c.3,1.2-1.3,2.7-1.9,3.7a15.2,15.2,0,0,0-1.8,4.6c-.3,1.1,0,1.9-1.3,2.2-2,.4-4.3.1-6.4.3a55.8,55.8,0,0,1-10,.4c-3.7-.3-7.1-.8-10.7-.2a30.71,30.71,0,0,1-5.3.6H32.8c-1.7-.1-3.4,0-5.1,0a19.7,19.7,0,0,0-3.4.4c-1,.1-2,.1-3.1.2l-2.3.3c-.7.1-1.5,0-2.2.1a5.45,5.45,0,0,1-2.2-.1c-1.1-.3-.9-1.9-.9-2.9a8.68,8.68,0,0,0-.3-3.6,17.6,17.6,0,0,1-1.6-4c-.3-2.1,1-2.9,3-3.4a38.22,38.22,0,0,1,9.6-1.1l4.1-.3c3.9-.2,7.8.1,11.6,0,1.7,0,3.3,0,5,.1s3.7.1,5.5.1a33.79,33.79,0,0,1,4.5,0c1.3.1,2.7.4,4.1.5C60.8,52.2,62.5,52.3,64.1,52.3Z" transform="translate(1.76 -5.28)"/><path class="cls-25" d="M16.1,70.5A3.09,3.09,0,0,0,13.9,72c-.8,1.3-.5,3.3-.2,4.7a12.33,12.33,0,0,0,1.1,3.4c.7,1,2,.8,3.1.7A159.32,159.32,0,0,1,34.8,80c3.3-.1,6.5-.1,9.8-.1s6.7.4,10.1.2c2.8-.1,5.5.1,8.2.1,2.1,0,3.3.4,4.1-1.9a7.76,7.76,0,0,0,.4-4.5c-.4-1.4-.3-3.5-1.9-4a18.28,18.28,0,0,0-5.2-.4c-2.1,0-4.3-.1-6.4,0-3.9.1-7.8.3-11.8.4-8.3.2-16.6-.4-24.9.4C16.9,70.3,16.5,70.4,16.1,70.5Z" transform="translate(1.76 -5.28)"/><path class="cls-26" d="M11.2,71.5c.1-3-4.5-3.1-4.5-6s5.3-3.1,6.8-1.6c3.2,3.2,3.1,7.7,3,11.9,0,1.5-.5,3.7-1.8,4.7-1.1.8-3.2.6-3.8-.7s0-3.3,0-4.7S11.3,71.8,11.2,71.5Z" transform="translate(1.76 -5.28)"/><path class="cls-26" d="M70.9,70.8c-.1-3,4.5-3.1,4.5-6s-5.3-3.1-6.8-1.6c-3.2,3.2-3.1,7.7-3,11.9,0,1.5.5,3.7,1.8,4.7,1.1.8,3.2.6,3.8-.7s0-3.3,0-4.7A20.54,20.54,0,0,0,70.9,70.8Z" transform="translate(1.76 -5.28)"/><path class="cls-27" d="M15.8,67.3c-.7.4-.3,1.5.1,1.9a1.33,1.33,0,0,0,1.9.3c.3-.2.7-.3,1-.5s.7-.5.9-.5.4.3.6.5a1.08,1.08,0,0,0,.7.3,10.14,10.14,0,0,0,5.9-1.4l1.2-.6c.4-.2.8-.5,1.2-.7.2-.1.3-.2.5-.3.5-.6-.7-.3-.9-.3-1.4.2-2.7.7-4,1a10,10,0,0,1-4.2-.2c-1.1-.2-2.4.3-3.6.3A3.92,3.92,0,0,0,15.8,67.3Z" transform="translate(1.76 -5.28)"/><path class="cls-28" d="M57.4,65.9c.4.4-.1,1.5,0,2.1s.3,1.1.9,1.2a5,5,0,0,0,2.4-.3c.9-.2,2,0,2.8-.4.4-.2,1.3-.5,1.4-1a3.26,3.26,0,0,0-1.7,0,8.77,8.77,0,0,1-3.6.2c-.7-.2-.9-.7-1.3-1.1S57.6,65.8,57.4,65.9Z" transform="translate(1.76 -5.28)"/><path class="cls-29" d="M14.3,56.5a4.65,4.65,0,0,0-2,.3,12,12,0,0,0-2.7.8,9.23,9.23,0,0,0-2.9,2.3,17.89,17.89,0,0,1,4.7,3,55.57,55.57,0,0,1,3.9,4.4c1,1.5,2.2,2.4,3.7,1a15.6,15.6,0,0,0,2.3-2.8c1-1.5-.2-2.9-1-4.1-1-1.6-2.7-2.4-4.2-3.4C15.4,57.5,15,56.8,14.3,56.5Z" transform="translate(1.76 -5.28)"/><path class="cls-30" d="M20.8,53.3a2.64,2.64,0,0,0-1.3-.8,7.79,7.79,0,0,0-3.7.3c-1.7.4-4.5,1-5.8,2.1a24.43,24.43,0,0,0,2.9,2.7,8.88,8.88,0,0,1,2.6,2.5c.6,1,1.2,2.1,1.9,3.1.5.7.8,1.5,1.3,2.2a7.46,7.46,0,0,1,.7,1.2c.8,1.4.7,2.3,2.5,2.2a16.8,16.8,0,0,0,3.8-1.2c1.3-.4,2.5-.9,3.8-1.3.6-.2,1.7-.5,1.6-1.2a6.94,6.94,0,0,1-3.4-2.2c-1.2-1.4-2.4-2.6-3.5-4.1a30.87,30.87,0,0,1-2.6-3.7A15.86,15.86,0,0,0,20.8,53.3Z" transform="translate(1.76 -5.28)"/><path class="cls-27" d="M30.4,65.2c-.7-.3-1.3-.6-2-.9a18.66,18.66,0,0,0-2.2-.7,6.47,6.47,0,0,1-1.3-.4c-.4-.2-.6-.6-.9-.8a10.54,10.54,0,0,1-1.1-.7,6.15,6.15,0,0,1-2.2-2.8c-.4-.8-.4-1.9-1-2.7-.1-.2-.6-.5-.9-.3s0,.6.1.8c.2.5.5.7.7,1.2a2.45,2.45,0,0,1-.5,2.3c-.3.4-.8.9-.4,1.4s1.5.4,2.1.5a5.67,5.67,0,0,1,2.7,1.3,2.92,2.92,0,0,0,1.2.7,9.38,9.38,0,0,1,1.5.6,11.5,11.5,0,0,0,1.7.6,7.54,7.54,0,0,1,1.3.6c.2.1.5.2.6.4s.1.4.3.5a2.7,2.7,0,0,0,1.1.5l2.5.6a11.53,11.53,0,0,0,4.9-.2,7.44,7.44,0,0,0,2.7-1.6c.4-.3,1.6-1.3.6-1.6a4.94,4.94,0,0,0-2.4.5,33.82,33.82,0,0,1-3.4,1.1,7.66,7.66,0,0,1-4.5-.3A13.39,13.39,0,0,1,30.4,65.2Z" transform="translate(1.76 -5.28)"/><path class="cls-31" d="M30.4,40.8v-.2a2,2,0,0,0-.2-1.5c-.3-.5-1.5-1.4-1.2-1.6s1.1.6,1.3.4-.3-2.7,0-2.8.4,2.1.6,2,.2-2.4.5-2.4,0,2.2.2,2.2.5-1.8.8-1.7-.4,2.3-.2,2.4.6-1.2,1-1.1c.2.1-.7,1.9-.7,2.1a9.83,9.83,0,0,0-.5,1.6c-.1.4.2,1.2-.1,1.5s-.8.1-1.1.2-.6.4-.8.3a.3.3,0,0,1,0-.4A1.16,1.16,0,0,0,30.4,40.8Z" transform="translate(1.76 -5.28)"/><path class="cls-10" d="M56.9,62.9c.1-.1.5.2.6.3a.83.83,0,0,0,.8.3c.3-.1.6.1.9.1.1.3-.5.5-.7.4a.75.75,0,0,0-.5.1c-.1.1-.2.3-.3.4-.2.4-.4.9-.6,1.3-.4-.4-1.1-.5-1.6-.8a8.34,8.34,0,0,1,.8-1.2A7,7,0,0,0,56.9,62.9Z" transform="translate(1.76 -5.28)"/><path class="cls-32" d="M57.7,65.2a10.63,10.63,0,0,0,.9-1.1,10.47,10.47,0,0,0,.8-1.1c.1.1.1.3.2.4s.3.3.4.4c.3.3.7.6,1,.9a5.07,5.07,0,0,0,1.6.9c.2.1.3.1.3.3a2.2,2.2,0,0,1-.1.8c-.2.7-.9.9-1.5,1.2a8.45,8.45,0,0,1-1.7.5c-.7.1-1.9.2-2-.8,0-.4.2-.8.2-1.3A4.48,4.48,0,0,0,57.7,65.2Z" transform="translate(1.76 -5.28)"/><path class="cls-29" d="M64,67.9h0a2.54,2.54,0,0,1-.7.2,10.1,10.1,0,0,0-1.7.3c-.6.1-1.1.3-1.7.4-.4.1-.9.3-1.2,0a2.07,2.07,0,0,1-.6-1c-.2-.7-.2-1.1-.9-1.6-.2-.1-.4-.2-.4-.4a3.18,3.18,0,0,1,.3-.9,3.59,3.59,0,0,1,.7-1,2.41,2.41,0,0,1,.6-.8c.2.2.3.5.5.7s.7.6,1,.9a3.86,3.86,0,0,0,2.2,1.1c1,0,2-.6,3-.5a1.13,1.13,0,0,1,.9,1.6,1.21,1.21,0,0,1-.7.7C64.8,67.7,64.5,67.8,64,67.9Z" transform="translate(1.76 -5.28)"/><path class="cls-33" d="M45.3,56.3a4.48,4.48,0,0,1,1.1-.1,5.64,5.64,0,0,1,1.2.4,7.06,7.06,0,0,1,2.6,1.6,36.17,36.17,0,0,0,3.2,2.2,3.59,3.59,0,0,1,1,.7c.1.1.2.3.4.4a2.19,2.19,0,0,1,.5.3,6.73,6.73,0,0,0,1.1.7,4.81,4.81,0,0,1,1.1.9,4.05,4.05,0,0,0-.5.9c-.2.4-.4.9-.6,1.3a4.35,4.35,0,0,1-.4.7,1.44,1.44,0,0,1-.3.2,4,4,0,0,1-1.1,0,9,9,0,0,1-1.6-.3A17.38,17.38,0,0,1,48.2,64a11.11,11.11,0,0,0-1.6-.7c-.3-.2-.5-.4-.8-.4a1.78,1.78,0,0,0-1,.4A12.38,12.38,0,0,0,43,64.7a11.71,11.71,0,0,1-3.4,2,13.72,13.72,0,0,1-3.4.7,15.14,15.14,0,0,1-3-.2c-.3,0-2.1-.5-1.9-.7a9.14,9.14,0,0,0,.7-1.4c.4-.8.9-1.6,1.3-2.4.7-1.4,1.1-2.8,1.9-4.1.2-.3.1-.3.4-.2a2.12,2.12,0,0,1,.7.3,6.26,6.26,0,0,0,3.8-.4c.9-.3,1.8-.5,2.7-.9a3.63,3.63,0,0,1,2.5-1.1Z" transform="translate(1.76 -5.28)"/><path class="cls-34" d="M38,59l-2.8,4.3c-.1.2.1.3.2.3L42,61l3.3-5c.1-.1,0-.2-.1-.2l-6.8,2.8A.78.78,0,0,0,38,59Z" transform="translate(1.76 -5.28)"/><path class="cls-35" d="M42,60.9,45.3,56a1.61,1.61,0,0,0,.3-.9l-.1-4.8c0-.2-.2-.3-.4-.1L42,54.6a1.69,1.69,0,0,0-.3,1Z" transform="translate(1.76 -5.28)"/><path class="cls-31" d="M34.1,60.1l.2-.2a4.81,4.81,0,0,1,1.6-.8c.4-.1.7-.3,1.1-.4h1.1c.2,0,.3.1.5.1a.6.6,0,0,1,.4.1c.2.1.1.2-.1.3h-.3a1.48,1.48,0,0,0-.7.1c.2-.1.4,0,.5,0s.4,0,.5.1a.76.76,0,0,1-.2.4c-.3.2-1-.2-1.2.3.1,0,.2-.1.4-.1a.6.6,0,0,1,.4.1c.1.1.1.2,0,.2h-.2a1.27,1.27,0,0,0-.6.1c-.2.1-.3.1-.5.2s-.5.3-.8.4-.6,0-.9.1-.8.6-1.1.5-.1-.3-.1-.5v-.6C33.9,60.4,34,60.2,34.1,60.1Z" transform="translate(1.76 -5.28)"/><path class="cls-36" d="M23.2,50.6c.9-.1,1.8-1.1,2.4-1.7.8-.8,1.7-1.4,2.5-2.2,1.3-1.3,1.5-3.3,1.7-5,.1-.3,0-.8.1-1.1s.2-.4.7-.4c.8,0,1.9-.3,2.3.5a4.84,4.84,0,0,1,.1,2.4,14.6,14.6,0,0,1-1,3.4,19.75,19.75,0,0,1-4.5,6.1c.5.4.2.3.7.7a10.46,10.46,0,0,1,1.7,1.9c1.2,1.6,3.1,3.1,5.2,3.1a6,6,0,0,1-.6,1.9c-.1.3-.4.5-.4.9,0,.2.2.9.1,1a.6.6,0,0,1-.4.1.76.76,0,0,0-.4.2,5,5,0,0,0-.8,1.2c-.3.5-.5,1-.8,1.5a10.91,10.91,0,0,1-.6,1.1c-.2.1-.8-.3-1.1-.4a4.35,4.35,0,0,1-1.5-.8c-.2-.2-.6-.6-.8-.6s-.8.2-1.2.1a7.56,7.56,0,0,1-2.2-1.1c-.5-.3-1-.5-1.5-.8a7,7,0,0,1-2.6-3.3A13.16,13.16,0,0,1,19.1,55c0-.7-.3-2.1,0-2.7s1.9-.5,2.5-.8C22.2,51.4,23,51.1,23.2,50.6Z" transform="translate(1.76 -5.28)"/><path class="cls-37" d="M19.5,51.5c-.9-.2-.8,1.2-.4,1.6-.4.1-.5.8-.5,1.1.1.5.6.5.8.8a5.34,5.34,0,0,1,.2,2.2,11.7,11.7,0,0,1-.5,2,11.94,11.94,0,0,0-.8,1.6c0,1.1,2.7.9,3.4.9a16.1,16.1,0,0,0,.6-6.9c0-.3-.2-.6-.2-.9s.3-.4.4-.5a12.49,12.49,0,0,0,1.2-.8,4.49,4.49,0,0,0,1.1-1.3c.1-.2.1-.3.2-.4a1.45,1.45,0,0,0,.2-.7,1.41,1.41,0,0,0,.1-.9.22.22,0,0,0-.2-.2l-.3-.1c.6-.8-1.3-1.5-1.7-.5a3.89,3.89,0,0,0-.2,1.5,1.4,1.4,0,0,1-.3.9,2.57,2.57,0,0,1-1.2.5A2.48,2.48,0,0,1,19.5,51.5Z" transform="translate(1.76 -5.28)"/><path class="cls-31" d="M19.1,44.3c.4-1.4,2.4-1.3,3.3-.5,1.1,1,1.2,2.7,1.3,4.1a19.67,19.67,0,0,1-.3,2.4c-.1.7-.2,1-.9,1.3a5,5,0,0,1-2.4.3,2.77,2.77,0,0,1-.9-.1,2,2,0,0,1-.6-.7,2.65,2.65,0,0,1-.5-.6,6.07,6.07,0,0,1-.7-1c-.1-.2-.1-.5-.2-.7a2.54,2.54,0,0,1-.2-.7,1.43,1.43,0,0,1,.6-1.2,2,2,0,0,0,.4-.8,3,3,0,0,1,.6-1.1C18.7,44.7,19,44.5,19.1,44.3Z" transform="translate(1.76 -5.28)"/><path class="cls-9" d="M14.1,44.8a6.34,6.34,0,0,0,.1,4.3c.4,1.3-.6,2.9-1,4.2-.5,1.5-1.5,3.6.1,4.7.6.4.9.2,1.5,0s.2,0,.7.4c1.2.9,1.7-.8,2.2-1.4.3-.5.9-.2,1.3-.4.6-.3.5-.9.2-1.4-.5-.9-.2-1.5-.2-2.5,0-.2.1-.5.1-.7s-.2-.5-.2-.7a4.87,4.87,0,0,1-.4-1.1,1.37,1.37,0,0,0-.5-.8c-.3-.3-.7-.6-.8-1a2.2,2.2,0,0,1,.1-.8.52.52,0,0,1,.8,0c.2-.3.1-.8.2-1.2a2.39,2.39,0,0,1,.7-1.3,1.52,1.52,0,0,0,.6-1c0-.3-.2-.4-.3-.6a3.55,3.55,0,0,0-.4-.9,2.09,2.09,0,0,0-.4-.6,1.08,1.08,0,0,0-.7-.3,1.7,1.7,0,0,0-1,0A3.15,3.15,0,0,0,15.1,43,6.37,6.37,0,0,0,14.1,44.8Z" transform="translate(1.76 -5.28)"/><path class="cls-9" d="M18.1,42c.1-.4.7-.5,1-.5a2.54,2.54,0,0,1,1.2.2,4.49,4.49,0,0,1,2.4,2.1,3.12,3.12,0,0,1,.7,1.8,4.49,4.49,0,0,0-.6-1.2,2.22,2.22,0,0,0-1.3-.8,11,11,0,0,1-1.8.2,1.94,1.94,0,0,1-1.1-.9A1.93,1.93,0,0,1,18.1,42Z" transform="translate(1.76 -5.28)"/><path class="cls-38" d="M28.2,64.4h0c-.1-.1,0-.1,0-.1s3.2-.5,4.6-1.6h.1v.1a12.05,12.05,0,0,1-4.7,1.6Z" transform="translate(1.76 -5.28)"/><path class="cls-38" d="M28,60.9h0a2.15,2.15,0,0,1-1.1-.2,3.33,3.33,0,0,1-1.1-.9,5.24,5.24,0,0,0-1.1-1l-.1-.1c-.5-.4-1-.8-1.4-1.1v-.1h.1a13.44,13.44,0,0,1,1.4,1.1l.1.1a5.73,5.73,0,0,1,1.1,1.1,4.3,4.3,0,0,0,1,.9,1.8,1.8,0,0,0,1,.2,2.35,2.35,0,0,0,.8-.2c.1,0,.1,0,.2-.1.7-.2,1.4-.4,2.2-.6a11.21,11.21,0,0,1,2.4-.3.1.1,0,0,1,0,.2q-1.05.15-2.4.3a10.52,10.52,0,0,0-2.1.6c-.1,0-.1,0-.2.1Z" transform="translate(1.76 -5.28)"/><path class="cls-39" d="M20,54.8a1.21,1.21,0,0,1-.5-.1s-.1,0,0-.1,0-.1.1,0a2.41,2.41,0,0,0,2.1-.6h.1v.1A2.75,2.75,0,0,1,20,54.8Z" transform="translate(1.76 -5.28)"/><path class="cls-39" d="M19.9,53.3h0c-.1-.1-.1-.1,0-.1s4-1,4.5-3.6a.1.1,0,1,1,.2,0c-.6,2.7-4.6,3.7-4.7,3.7Z" transform="translate(1.76 -5.28)"/><path class="cls-40" d="M18.1,45.4h0c-.1-.1-.1-.1,0-.1a1.85,1.85,0,0,0,.7-.9c.1-.9-.9-1.7-.9-1.7v-.1H18s1,.9.9,1.8a1.52,1.52,0,0,1-.8,1Z" transform="translate(1.76 -5.28)"/><path class="cls-40" d="M14.9,48.9h0c-1.2-2.3.2-5,.2-5h.1V44s-1.4,2.6-.2,4.9Z" transform="translate(1.76 -5.28)"/><path class="cls-40" d="M16.9,50.9h0a5.32,5.32,0,0,1-1.1-5.1s.1-.1.1,0,.1.1,0,.1a5.46,5.46,0,0,0,1.1,5Z" transform="translate(1.76 -5.28)"/><path class="cls-40" d="M17.6,53.3h0a3.15,3.15,0,0,0-.7-3.2V50H17c-.1.1,1.4,1.4.6,3.3Z" transform="translate(1.76 -5.28)"/><path class="cls-40" d="M16.1,56.5h0c-.1-2-.6-2.4-.6-2.4V54h.1c.1-.1.6.4.5,2.5C16.2,56.4,16.2,56.5,16.1,56.5Z" transform="translate(1.76 -5.28)"/><path class="cls-40" d="M16.1,57.8h0a2.35,2.35,0,0,1-.6-2.1s0-.1.1,0,.1,0,0,.1a2.11,2.11,0,0,0,.5,1.9c.1,0,.1.1,0,.1Z" transform="translate(1.76 -5.28)"/><path class="cls-40" d="M21.5,43.1h0A3.41,3.41,0,0,0,19.3,42a.1.1,0,0,1,0-.2h0a3.55,3.55,0,0,1,2.3,1.1c0,.1,0,.1-.1.2Z" transform="translate(1.76 -5.28)"/><path class="cls-38" d="M30.6,47.1h0C29.2,46.9,29,46,29,45.9a.1.1,0,0,1,.2,0A1.65,1.65,0,0,0,30.7,47c-.1,0,0,.1-.1.1Z" transform="translate(1.76 -5.28)"/><path class="cls-41" d="M45.7,62.5h0a1.74,1.74,0,0,1-.1-1.4s.1-.1.1,0,.1.1,0,.1a1.72,1.72,0,0,0,0,1.3Z" transform="translate(1.76 -5.28)"/><path class="cls-41" d="M54.5,61.8h0c-.1,0-7.1-3.5-8.3-3.5a3.16,3.16,0,0,0-1.9.7h-.1v-.1a3.27,3.27,0,0,1,2-.7c1.2,0,8,3.3,8.3,3.5.1-.1.1,0,0,.1C54.6,61.7,54.6,61.8,54.5,61.8Z" transform="translate(1.76 -5.28)"/><path class="cls-42" d="M60.6,68.2h0a2.09,2.09,0,0,0-2-1.1.1.1,0,1,1,0-.2c-.1.1,1.5-.1,2,1.3Z" transform="translate(1.76 -5.28)"/><path class="cls-42" d="M65,67.3h0a1.76,1.76,0,0,1-.3-1.6s.1-.1.1,0,.1.1,0,.1a1.39,1.39,0,0,0,.3,1.4.1.1,0,0,1-.1.1Z" transform="translate(1.76 -5.28)"/><path class="cls-38" d="M27.3,52.6h0a3.3,3.3,0,0,0-1.3-.9s-.1-.1,0-.1.1-.1.1,0,1,.4,1.2,1Z" transform="translate(1.76 -5.28)"/><path class="cls-8" d="M36.8,59.4h0a1.06,1.06,0,0,1,.9-.3v.1c0,.1,0,0-.1,0a1,1,0,0,0-.8.2Z" transform="translate(1.76 -5.28)"/><path class="cls-8" d="M36.8,59.8h0a1.77,1.77,0,0,1,1.6-.3v.1h-.1a1.64,1.64,0,0,0-1.5.2Z" transform="translate(1.76 -5.28)"/><path class="cls-8" d="M36.6,60.5h0c.3-.5.6-.5.6-.5h0c.1.1-.2.1-.6.5Z" transform="translate(1.76 -5.28)"/><path class="cls-8" d="M31.4,39h0a2,2,0,0,0-.1-.5.52.52,0,0,0-.5-.1h-.1l-.3-.2v-.1h.1l.3.2c.1,0,.4,0,.5.1s.2.3.1.6Z" transform="translate(1.76 -5.28)"/><path class="cls-43" d="M18,48.9c-.1-.1-.2-.1-.3-.2s-.1-.2-.2-.3-.1,0-.1,0c0,.2.3.6.5.6S18,49,18,48.9Z" transform="translate(1.76 -5.28)"/><path class="cls-43" d="M22.2,48.2c-.1.1-.2.3-.3.4a.1.1,0,0,0,.1.1c.1-.1.2-.3.3-.4S22.2,48.1,22.2,48.2Z" transform="translate(1.76 -5.28)"/><path class="cls-43" d="M22.5,47.5c-.2-.2-.4-.3-.6-.5s-.4-.5-.6-.7c0-.1-.2,0-.1.1a5.5,5.5,0,0,0,.7.9c.1.1.3.2.4.3.3.3.2.6.1.9,0,.1.1.1.1,0A.67.67,0,0,0,22.5,47.5Z" transform="translate(1.76 -5.28)"/><path class="cls-9" d="M22.5,44.9a1.29,1.29,0,0,0-1.2.4c-.1.1,0,.3.2.2s.3-.2.5-.2.4,0,.5-.1A.15.15,0,0,0,22.5,44.9Z" transform="translate(1.76 -5.28)"/><path class="cls-9" d="M20.2,46.2a1.19,1.19,0,0,0-1,.8c0,.2.2.3.3.2s.2-.3.4-.4a2.19,2.19,0,0,1,.5-.3C20.4,46.4,20.3,46.2,20.2,46.2Z" transform="translate(1.76 -5.28)"/><path class="cls-44" d="M22.7,45.8c-.2,0-.3.1-.4.1s-.3.2-.4.4,0,.1.1.1c.2-.2.4-.5.7-.5C22.7,45.9,22.8,45.8,22.7,45.8Z" transform="translate(1.76 -5.28)"/><path class="cls-44" d="M22,46.5h0a.1.1,0,0,1-.1-.1.78.78,0,0,1,.4-.4.76.76,0,0,1,.4-.2h0a.1.1,0,0,1,.1.1c0,.1,0,.1-.1.1-.3,0-.5.2-.7.5Zm.6-.7c-.1,0-.2.1-.3.2s-.3.3-.4.4v.1h0a4.51,4.51,0,0,1,.7-.7Z" transform="translate(1.76 -5.28)"/><path class="cls-44" d="M20.8,47a1.35,1.35,0,0,0-.9.9c0,.1.1.1.1,0a2.19,2.19,0,0,1,.3-.5,1.76,1.76,0,0,0,.5-.4Z" transform="translate(1.76 -5.28)"/><path class="cls-44" d="M19.9,48h0a1.08,1.08,0,0,1,.8-1h0a.1.1,0,0,1,.1.1v.1h-.1c-.2.1-.3.1-.4.2a5.92,5.92,0,0,0-.4.6Zm.9-1h0a1.06,1.06,0,0,0-.9.9h0a2.19,2.19,0,0,1,.3-.5,2.09,2.09,0,0,0,.6-.4Z" transform="translate(1.76 -5.28)"/><path class="cls-43" d="M22.4,49.5a2,2,0,0,1-.8.4,1.39,1.39,0,0,1-.9,0c-.1,0-.1.1,0,.2a1.73,1.73,0,0,0,1.8-.5C22.5,49.5,22.5,49.4,22.4,49.5Z" transform="translate(1.76 -5.28)"/><path class="cls-45" d="M78.9,66.1c-.6-.2-.9-.7-1.3-1.2-.9-1.1-4.3-4-2.9-5.9a3.84,3.84,0,0,1,2.5-1.3c1.9-.3,3,.8,3.2,3.2,0,1.5.7,5.8-1.5,5.2Z" transform="translate(1.76 -5.28)"/><path class="cls-45" d="M82.2,61.6c-.2-.7-.3-1.4-.5-2a13.72,13.72,0,0,1-.7-3.4c0-.6-.3-2.1.1-2.6.5-.7,2.4-.5,3.1-.3,2.8,1,1.6,4.6,1,6.6-.2.6-1.3,4.9-2.3,4.2a1.09,1.09,0,0,1-.4-.9c-.1-.4-.1-.7-.2-1.1C82.3,61.9,82.2,61.8,82.2,61.6Z" transform="translate(1.76 -5.28)"/><path class="cls-46" d="M83.3,55.8c-.1-.1-.2.1-.1.1,1,1.2,0,2.6-.1,3.9,0,.7.1,1.4.1,2.1a13.4,13.4,0,0,1-.1,2,11.7,11.7,0,0,1-.5,2,12.66,12.66,0,0,0-.6,1.8,7.4,7.4,0,0,0,.2,3.9c.1.2.4.2.4-.1-.1-.7-.2-1.4-.3-2.2a5.58,5.58,0,0,1,.3-2.2c.2-.7.5-1.4.7-2.1a11.8,11.8,0,0,0,.4-2,6.7,6.7,0,0,0,0-2,8.09,8.09,0,0,1,0-2.2C83.7,58,84.2,56.7,83.3,55.8Z" transform="translate(1.76 -5.28)"/><path class="cls-46" d="M79.7,65.5c-.6-1.8-1.2-3.9-2.6-5.4-.1-.1-.3,0-.2.2a9.39,9.39,0,0,1,1.4,2.6c.3.9.7,1.9,1,2.9.6,2.1,1.2,4.2,1.6,6.4,0,.2.5.2.4-.1A21.27,21.27,0,0,0,79.7,65.5Z" transform="translate(1.76 -5.28)"/><path class="cls-47" d="M78,69.6c2.3,0,4.7-.2,7-.2.1,1.9.1,3.9.1,5.8,0,2.2-.6,4.1-3.6,4.1A4.83,4.83,0,0,1,78,77.9c-1-1.2-.4-3.1-.3-4.5C77.7,72.5,78,70.6,78,69.6Z" transform="translate(1.76 -5.28)"/><circle class="cls-5" cx="37.96" cy="150.62" r="1.5"/><circle class="cls-5" cx="46.76" cy="150.62" r="1.5"/><circle class="cls-5" cx="55.66" cy="150.62" r="1.5"/><path class="cls-48" d="M47.2,155.9a2.1,2.1,0,1,1-2.1-2.1A2.11,2.11,0,0,1,47.2,155.9Z" transform="translate(1.76 -5.28)"/><rect class="cls-1" x="5.76" y="111.12" width="82" height="17.7"/><text class="cls-49" transform="translate(17.08 117.03)">Resu<tspan class="cls-50" x="16.74" y="0">l</tspan><tspan x="18.63" y="0">ts de</tspan><tspan class="cls-50" x="35.81" y="0">l</tspan><tspan x="37.7" y="0">ive</tspan><tspan class="cls-51" x="47.59" y="0">r</tspan><tspan x="50.07" y="0">ed </tspan></text><text class="cls-49" transform="translate(20.55 126.46)">secu<tspan class="cls-51" x="15.86" y="0">r</tspan><tspan x="18.34" y="0">ely to you</tspan></text><path class="cls-52" d="M42.56,23.3a1.47,1.47,0,0,0-.68.18,1.34,1.34,0,0,0-.43.39,1.59,1.59,0,0,0-.31.71.13.13,0,0,0,0,.06.36.36,0,0,1-.19.24.26.26,0,0,1-.23,0,.29.29,0,0,1-.18-.19.31.31,0,0,1,0-.19,2.68,2.68,0,0,1,.07-.27,2.5,2.5,0,0,1,.31-.66,2.06,2.06,0,0,1,.54-.56,2,2,0,0,1,.69-.31l.22,0,.21,0h.36l.32.07a2,2,0,0,1,.8.48,2.35,2.35,0,0,1,.41.58,2.68,2.68,0,0,1,.24.67,1.55,1.55,0,0,1,.06.31c0,.06,0,.12,0,.18s0,.21,0,.32,0,.17,0,.26v.26a.08.08,0,0,0,0,0,2.85,2.85,0,0,1,.23.26,3.08,3.08,0,0,1,.55,1.1,2.21,2.21,0,0,1,.08.35l0,.24a2.43,2.43,0,0,1,0,.27,2.17,2.17,0,0,1,0,.26,3.54,3.54,0,0,1-.08.45,3.5,3.5,0,0,1-.32.81,3.1,3.1,0,0,1-1,1.07,3.17,3.17,0,0,1-.93.39l-.25.05-.16,0a2.88,2.88,0,0,1-.41,0h-.16l-.14,0h-.13L41.75,31a3,3,0,0,1-1.1-.57,3.15,3.15,0,0,1-.88-1.13,2.36,2.36,0,0,1-.21-.65,2.56,2.56,0,0,1-.05-.27c0-.05,0-.1,0-.16s0-.24,0-.36,0-.13,0-.19a1.25,1.25,0,0,1,0-.19,2.07,2.07,0,0,1,.1-.43A3.1,3.1,0,0,1,42.06,25l.21,0h.14a1.5,1.5,0,0,1,.3,0h.14L43,25l.16,0,.39.1a3.76,3.76,0,0,1,.55.23l0,0V25a2.45,2.45,0,0,0,0-.27,2.14,2.14,0,0,0-.21-.68,1.83,1.83,0,0,0-.37-.46,1.46,1.46,0,0,0-.56-.27l-.21,0h-.11M45,28.07a2.46,2.46,0,1,0-4.2,1.73,2.41,2.41,0,0,0,1.73.73A2.46,2.46,0,0,0,45,28.07Z" transform="translate(1.76 -5.28)"/><path class="cls-53" d="M45,28.07a2.46,2.46,0,0,1-2.47,2.46,2.41,2.41,0,0,1-1.73-.73,2.45,2.45,0,0,1-.72-1.75,2.46,2.46,0,1,1,4.92,0Zm-1.94.51H44a.51.51,0,0,0,.28-.15.41.41,0,0,0,.11-.28V28a.4.4,0,0,0,0-.15.44.44,0,0,0-.17-.19.53.53,0,0,0-.3-.09H43.1v-.76a.68.68,0,0,0,0-.14.49.49,0,0,0-.11-.23.43.43,0,0,0-.31-.14h-.18a.46.46,0,0,0-.19.08.43.43,0,0,0-.15.2.64.64,0,0,0,0,.23c0,.24,0,.47,0,.71a.08.08,0,0,1,0,0h-.76a.58.58,0,0,0-.19,0,.51.51,0,0,0-.24.17.32.32,0,0,0-.08.21v.19a.3.3,0,0,0,0,.16.47.47,0,0,0,.13.15.53.53,0,0,0,.32.1h.77a.08.08,0,0,1,0,0c0,.24,0,.48,0,.72a.88.88,0,0,0,0,.16.58.58,0,0,0,.14.24.41.41,0,0,0,.28.11h.18a.4.4,0,0,0,.21-.09.49.49,0,0,0,.14-.21.46.46,0,0,0,0-.21v-.76Z" transform="translate(1.76 -5.28)"/><path class="cls-54" d="M43.1,28.58v.76a.46.46,0,0,1,0,.21.49.49,0,0,1-.14.21.4.4,0,0,1-.21.09h-.18a.41.41,0,0,1-.28-.11.58.58,0,0,1-.14-.24.43.43,0,0,1,0-.16v-.72a.08.08,0,0,0,0,0h-.77a.53.53,0,0,1-.32-.1.47.47,0,0,1-.13-.15.3.3,0,0,1,0-.16V28a.32.32,0,0,1,.08-.21.51.51,0,0,1,.24-.17.58.58,0,0,1,.19,0h.76a.08.08,0,0,0,0,0c0-.24,0-.47,0-.71a.64.64,0,0,1,0-.23.43.43,0,0,1,.15-.2.46.46,0,0,1,.19-.08h.18a.43.43,0,0,1,.31.14.49.49,0,0,1,.11.23.68.68,0,0,1,0,.14v.76h.77a.53.53,0,0,1,.3.09.44.44,0,0,1,.17.19.4.4,0,0,1,0,.15v.14a.41.41,0,0,1-.11.28.48.48,0,0,1-.28.15H43.1Z" transform="translate(1.76 -5.28)"/><path class="cls-52" d="M42.58,23.3h-.11l-.2,0a1.29,1.29,0,0,0-.56.28,1.33,1.33,0,0,0-.37.45,2.16,2.16,0,0,0-.22.68,2.45,2.45,0,0,0,0,.27v.29a0,0,0,0,0,0,0l0,0a3.25,3.25,0,0,1,.54-.23l.39-.1.16,0,.14,0h.15a1.4,1.4,0,0,1,.29,0H43l.22,0a2.92,2.92,0,0,1,.4.1,3.1,3.1,0,0,1,2,2,3,3,0,0,1,.11.43l0,.19c0,.06,0,.13,0,.19a2.16,2.16,0,0,1,0,.36c0,.06,0,.11,0,.16a2.51,2.51,0,0,1,0,.27,2.77,2.77,0,0,1-.22.65,3,3,0,0,1-.87,1.13,2.94,2.94,0,0,1-1.11.57l-.32.08H43l-.14,0h-.16a3,3,0,0,1-.42,0l-.16,0-.25-.05a3.12,3.12,0,0,1-2.28-2.27,2.34,2.34,0,0,1-.07-.45,2.11,2.11,0,0,1,0-.26,2.44,2.44,0,0,1,0-.27,1,1,0,0,1,0-.24,2.17,2.17,0,0,1,.07-.35,3.1,3.1,0,0,1,.56-1.1,1.86,1.86,0,0,1,.23-.26.06.06,0,0,0,0,0V25.3c0-.11,0-.21,0-.32a1.1,1.1,0,0,0,0-.18l.06-.31a2.68,2.68,0,0,1,.24-.67,2.39,2.39,0,0,1,.42-.58,2,2,0,0,1,.79-.48l.32-.07h.36l.22,0,.21,0a2,2,0,0,1,1.23.87,2.22,2.22,0,0,1,.31.66c0,.09.05.18.08.27a.31.31,0,0,1,0,.19.27.27,0,0,1-.18.19.27.27,0,0,1-.23,0,.37.37,0,0,1-.18-.24.13.13,0,0,1,0-.06,1.66,1.66,0,0,0-.06-.21,1.57,1.57,0,0,0-.25-.5,1.38,1.38,0,0,0-.44-.39,1.47,1.47,0,0,0-.68-.18m0,7.23a2.48,2.48,0,0,0,2.45-2.48,2.46,2.46,0,1,0-2.45,2.48Z" transform="translate(1.76 -5.28)"/></svg>