<?xml version="1.0" encoding="utf-8"?>
<!-- Generator: Adobe Illustrator 23.0.4, SVG Export Plug-In . SVG Version: 6.00 Build 0)  -->
<svg version="1.1" id="Layer_1" xmlns="http://www.w3.org/2000/svg" xmlns:xlink="http://www.w3.org/1999/xlink" x="0px" y="0px"
	 viewBox="0 0 90 160" style="enable-background:new 0 0 90 160;" xml:space="preserve">
<style type="text/css">
	.st0{clip-path:url(#SVGID_2_);}
	.st1{fill:#F3F5FA;}
	.st2{clip-path:url(#SVGID_4_);}
	.st3{fill:#EDF1FA;}
	.st4{clip-path:url(#SVGID_6_);}
	.st5{clip-path:url(#SVGID_8_);}
	.st6{clip-path:url(#SVGID_10_);}
	.st7{fill:#D2DCFA;}
	.st8{clip-path:url(#SVGID_12_);}
	.st9{clip-path:url(#SVGID_14_);}
	.st10{clip-path:url(#SVGID_16_);}
	.st11{clip-path:url(#SVGID_18_);}
	.st12{clip-path:url(#SVGID_20_);}
	.st13{clip-path:url(#SVGID_22_);}
	.st14{clip-path:url(#SVGID_24_);}
	.st15{clip-path:url(#SVGID_26_);}
	.st16{clip-path:url(#SVGID_28_);}
	.st17{clip-path:url(#SVGID_30_);}
	.st18{clip-path:url(#SVGID_32_);}
	.st19{clip-path:url(#SVGID_34_);}
	.st20{clip-path:url(#SVGID_36_);}
	.st21{clip-path:url(#SVGID_38_);}
	.st22{clip-path:url(#SVGID_40_);}
	.st23{clip-path:url(#SVGID_42_);}
	.st24{clip-path:url(#SVGID_44_);}
	.st25{clip-path:url(#SVGID_46_);}
	.st26{clip-path:url(#SVGID_48_);}
	.st27{clip-path:url(#SVGID_50_);}
	.st28{clip-path:url(#SVGID_52_);}
	.st29{fill:#56ACBB;}
	.st30{fill:#C8D3D7;}
	.st31{fill:#687AAE;}
	.st32{fill:#B3C5FA;}
	.st33{fill:#919C79;}
	.st34{fill:#FFA486;}
	.st35{fill:#7F2D15;}
	.st36{fill:#333333;}
	.st37{fill:#F48161;}
	.st38{fill:#642416;}
	.st39{fill:#778062;}
	.st40{fill:#FFFFFF;}
	.st41{fill:#1A1A1A;}
	.st42{fill:#C0E2EA;}
	.st43{fill:#6A4222;}
	.st44{fill:#55331E;}
	.st45{opacity:0.3;}
	.st46{fill:#835646;}
	.st47{fill:#603813;}
	.st48{fill:#F46F45;}
	.st49{fill:#4D4D4D;}
	.st50{fill:#808080;}
	.st51{fill:#E4E4E4;}
	.st52{fill:#7D90C9;}
	.st53{fill:none;}
	.st54{font-family:'Avenir-Light';}
	.st55{font-size:7.9048px;}
</style>
<g>
	<g>
		<g>
			<defs>
				<rect id="SVGID_1_" x="3.2" y="0" width="84.1" height="102.1"/>
			</defs>
			<clipPath id="SVGID_2_">
				<use xlink:href="#SVGID_1_"  style="overflow:visible;"/>
			</clipPath>
			<g class="st0">
				<g>
					<path class="st1" d="M34.9,16.3c2.7,4.8,7.2,5.7,12,3.3c3.3-1.7,6.8-4.5,10.4-6.3c-1.4-3.8,0.3-8.4-4.9-9.6
						c-10-2.3-15.1,4.1-17.8,11.8C34.6,15.7,34.8,16,34.9,16.3z"/>
				</g>
				<g>
					<path class="st1" d="M18.2,44.1c2.2-3.3,5-6.3,6.9-9.8c-0.1,0-0.1,0-0.1,0c-4.7,0.5-11.9,4.1-13.6,9.1c-1.2,3.8,0.2,8,2.3,11.6
						C14.3,51.1,15.9,47.5,18.2,44.1z"/>
				</g>
				<g>
					<path class="st1" d="M58.4,15.2c-0.2-0.3-0.4-0.5-0.6-0.8c-5.6,2.7-10.9,8.8-17.3,7.9c-3-0.4-5.2-2.3-6.7-4.9
						c-0.9,2.9-1.4,6-1.8,8.7c-0.8,6-1,7.4-6,8c-1.1,2.3-2.5,4.6-4.2,6.7c-2.6,3.4-5,6.9-6.3,11c-0.5,1.6-0.8,3.1-1,4.7
						c0.8,1.2,1.7,2.4,2.5,3.4c0.2,0.2,0.3,0.4,0.5,0.6c1.2-2.7,2.3-5.5,3.9-8c3.6-5.7,8.6-9.7,15-12c7.5-2.7,14.3-4.6,18-12.4
						c1.7-3.6,2.7-8.5,5.3-11.7C59.3,16.1,58.8,15.7,58.4,15.2z"/>
				</g>
				<g>
					<path class="st1" d="M63.1,32.5c-2.5,2.3-6,4.6-7.1,8c-0.6,2.1-0.5,5,2.2,4.6c3.1-0.5,7-3,10.7-4.4c4.7-5.8,9.3-11.5,4-18.2
						c-0.8-1-1.7-1.7-2.8-2.2C69,24.8,66.8,29.2,63.1,32.5z"/>
				</g>
				<g>
					<path class="st1" d="M64.4,43.7c-2.1,1-6.2,3.7-8.5,2c-3.7-2.7,0.7-8.8,2.8-10.9c2.8-2.7,5.9-4.8,7.8-8.3
						c1.2-2.1,2.1-4.4,2.8-6.7c-2.7-1.1-5.9-1.4-8.4-2.7c-1.8,2.2-2.7,5.3-3.6,7.8c-1,2.9-2.2,5.8-4.2,8.3
						C49,38.4,42.8,39.8,36.9,42c-7.6,2.7-13.1,8.3-16.3,15.7c-0.6,1.4-1.2,2.7-1.8,4c1.3,1.2,3,2.7,4.5,4.2
						c4-5.1,10.2-8.8,16.2-9.4c3.4-0.3,6.8,0.5,10.3,0.7c4.1,0.3,7.4-0.8,10.5-3.5c0.8-0.7,1.5-1.3,2.3-1.9c0.6-3.5,2.9-6.7,5.4-9.8
						C66.7,42.5,65.5,43.1,64.4,43.7z"/>
				</g>
				<g>
					<path class="st1" d="M23.3,86.2c4.5-3.5,9.7-5.8,15.4-6.4c5.6-0.6,11.2,0.3,16.7,0.9c5.4,0.6,11.5,1.7,16.6-0.9
						c2.5-1.3,5.3-3.5,6.7-6.2c-0.8-1-1.6-2-2.5-3c-2.2-2.4-5.5-4.8-8.4-7.5c-6.4,0.1-12.8,2.3-18.7,4.8c-8.3,3.5-17.5,9-26.9,9.6
						c-1.1,0.8-2.1,1.5-2.7,2.1c-2.4,2.4-3.7,4.7-3.9,8.2c-0.1,1.8,0,3.9,0.4,6C18.1,90.9,20.6,88.4,23.3,86.2z"/>
				</g>
				<g>
					<path class="st1" d="M24.8,75.6c11.4-1.7,22.2-9.3,33.4-12.3c2.6-0.7,5.5-1.3,8.3-1.5c-1.8-1.8-3.2-3.8-3.7-5.9
						c-0.2-0.8-0.3-1.6-0.3-2.4c-0.9,0.8-1.9,1.6-2.9,2.3c-4.5,3.3-9.4,2.6-14.6,2c-6-0.7-11.2,0.6-16.1,4.2
						c-1.8,1.3-3.5,2.9-4.9,4.6c1.7,1.9,3.1,3.8,3,5.4C26.9,73.3,26,74.5,24.8,75.6z"/>
				</g>
				<g>
					<path class="st1" d="M22.4,103.7c6.3-6.6,15.9-10.2,25.2-11.1c7.5-0.7,15.2-1.3,22.2-4.3c4.8-2.1,8.7-5.3,11.8-9.2
						c-0.5-1.4-1.2-2.7-2-4c-2.6,4.5-8.6,7.5-13.3,7.8C53.7,83.3,41,77.8,29,84c-5.1,2.6-9.4,6.5-12.6,11.2c0.7,2.7,1.9,5.2,3.6,6.9
						C20.5,102.6,21.3,103.1,22.4,103.7z"/>
				</g>
				<g>
					<path class="st1" d="M73.5,87.9c-5.7,3.2-12.3,4.5-18.7,5.3c-8.3,1-16.2,1.3-23.8,5.3c-2.9,1.5-5.6,3.4-7.8,5.7
						c6.7,3.3,20.6,7.5,22.8,3.8c4.1,0.7,8.6-4.7,14.3-5.8c5.8-1,9.9,0.2,15-4c4.1-3.3,6.9-7.8,7.2-13c0.1-1.6-0.1-3.1-0.4-4.6
						C79.7,83.6,76.9,86.1,73.5,87.9z"/>
				</g>
			</g>
		</g>
		<g>
			<defs>
				<rect id="SVGID_3_" x="3.2" y="0" width="84.1" height="102.1"/>
			</defs>
			<clipPath id="SVGID_4_">
				<use xlink:href="#SVGID_3_"  style="overflow:visible;"/>
			</clipPath>
			<g class="st2">
				<path class="st3" d="M77.3,46.5c-3.6-1.1-7.4,1.2-10.1,3.4C60.1,55.7,55.4,64,52.7,72.7c-3.6,12-3.3,24.7-2.3,37
					c0,0.2,0.2,0.3,0.3,0.2c0,0.6,0,1.3,0.1,1.9c0,0.5,0.8,0.5,0.7,0c-0.4-5.7,1.7-11,4.3-16c2.6-5,5.4-9.8,8.4-14.6
					c2.9-4.6,6.1-9.1,9.3-13.5c2.9-3.9,6-8,7.2-12.8C81.5,51.8,81,47.6,77.3,46.5z M79,57.8c-1.9,4.3-4.9,8-7.6,11.8
					c-3,4.1-5.9,8.4-8.6,12.7c-3,4.8-5.9,9.7-8.4,14.8c-1.8,3.6-3.2,7.5-3.6,11.4c-1.3-18.9-0.5-40,13.2-54.7
					c2.9-3.1,6.7-6.7,11.2-6.9c2.3-0.1,4.4,1,5.1,3.3C80.9,52.7,80,55.5,79,57.8z"/>
			</g>
		</g>
		<g>
			<defs>
				<rect id="SVGID_5_" x="3.2" y="0" width="84.1" height="102.1"/>
			</defs>
			<clipPath id="SVGID_6_">
				<use xlink:href="#SVGID_5_"  style="overflow:visible;"/>
			</clipPath>
			<g class="st4">
				<path class="st3" d="M78.4,59.5c-3-1.3-6.4,0.7-8.8,2.5c-5.9,4.2-9.9,10.5-12.4,17.3c-2.8,7.7-3.4,15.9-3.4,24.1
					c-1,2.2-1.6,4.6-1.3,7.1c0.1,0.5,0.9,0.5,0.8,0c-0.2-1.6,0-3.1,0.5-4.6c0,1.2,0.1,2.4,0.1,3.6c0,0.3,0.5,0.3,0.5,0
					c0-1.7-0.1-3.4,0-5.1c0.9-2.1,2.2-4,3.7-5.7c2.9-3.5,6.1-6.7,9.2-10c3.2-3.5,6.6-6.9,9.6-10.5c2.3-2.8,4.3-5.9,4.8-9.6
					C82.2,65.4,81.7,60.9,78.4,59.5z M80.3,71.1c-1.4,3.8-4.2,6.8-6.9,9.7c-3,3.2-5.9,6.4-8.9,9.6c-3.2,3.4-7.5,7.3-10,11.8
					c0.3-13.4,2.5-27.4,12.6-37c2.4-2.3,6.1-5.5,9.8-5.2C81.9,60.4,81.5,67.7,80.3,71.1z"/>
			</g>
		</g>
		<g>
			<defs>
				<rect id="SVGID_7_" x="3.2" y="0" width="84.1" height="102.1"/>
			</defs>
			<clipPath id="SVGID_8_">
				<use xlink:href="#SVGID_7_"  style="overflow:visible;"/>
			</clipPath>
			<g class="st5">
				<path class="st1" d="M7.9,31.4c2.6,0.3,4.9,2.7,7.5,2.9c3.4,0.3,5.5-2.3,7.8-4.6c1.7-1.7,7.7-6.5,6.1-9.5
					c-1.1-2.1-5-1.4-6.7-0.3c-4.3,2.8-0.9,9.5-6.9,10.6C13.5,30.9,8,27.6,7.9,31.4z"/>
			</g>
		</g>
		<g>
			<defs>
				<rect id="SVGID_9_" x="3.2" y="0" width="84.1" height="102.1"/>
			</defs>
			<clipPath id="SVGID_10_">
				<use xlink:href="#SVGID_9_"  style="overflow:visible;"/>
			</clipPath>
			<g class="st6">
				<path class="st7" d="M14.4,62.9c-0.3-1.4-1.3-2.4-2.2-3.5c-2.6-3.1-3.6-7-3-11c0-0.2-0.3-0.3-0.3-0.1C8.3,51.3,8.7,54.3,10,57
					c0.7,1.4,1.6,2.5,2.6,3.6c1.7,2.1,1.6,4.1,1.2,6.6c0,0.3,0.5,0.4,0.5,0.1C14.6,65.9,14.8,64.4,14.4,62.9z"/>
			</g>
		</g>
		<g>
			<defs>
				<rect id="SVGID_11_" x="3.2" y="0" width="84.1" height="102.1"/>
			</defs>
			<clipPath id="SVGID_12_">
				<use xlink:href="#SVGID_11_"  style="overflow:visible;"/>
			</clipPath>
			<g class="st8">
				<path class="st1" d="M50.7,0.5c-4-1.1-8.5-0.4-11.5,2.6c-0.2,0.2,0.1,0.5,0.3,0.3C42.5,0.9,46.3,0,50,0.9
					c3.8,0.9,7.7,3.2,7.4,7.5c0,0.4,0.6,0.4,0.6,0C58.6,4,54.5,1.6,50.7,0.5z"/>
			</g>
		</g>
		<g>
			<defs>
				<rect id="SVGID_13_" x="3.2" y="0" width="84.1" height="102.1"/>
			</defs>
			<clipPath id="SVGID_14_">
				<use xlink:href="#SVGID_13_"  style="overflow:visible;"/>
			</clipPath>
			<g class="st9">
				<path class="st7" d="M78.5,50.5c-1.1,0.1-2.1,0.4-3,0.9c-0.5-0.5-1.2-0.8-2.1-0.8c-3.4-0.1-6.9,3.3-8.9,5.7
					c-0.1,0.2,0.1,0.4,0.3,0.3c1.3-1.4,2.7-2.6,4.3-3.7c1.4-0.9,4.6-2.8,6.1-1.3c-1.2,0.8-2.1,1.9-2.6,3.4c-0.2,0.7-0.5,1.6,0.4,1.9
					c1,0.4,2.2-0.4,2.7-1.1c0.9-1.2,0.9-2.8,0.3-3.8c0.8-0.4,1.7-0.7,2.6-0.8C78.9,51.1,78.9,50.4,78.5,50.5z M75.7,52.6
					c0.2,0.5,0.1,1.4-0.1,1.9c-0.2,0.6-1,1.7-1.7,1.9c-1.9,0.3-0.4-2.2-0.1-2.6c0.5-0.6,1-1.1,1.6-1.6
					C75.5,52.3,75.6,52.4,75.7,52.6z"/>
			</g>
		</g>
		<g>
			<defs>
				<rect id="SVGID_15_" x="3.2" y="0" width="84.1" height="102.1"/>
			</defs>
			<clipPath id="SVGID_16_">
				<use xlink:href="#SVGID_15_"  style="overflow:visible;"/>
			</clipPath>
			<g class="st10">
				<path class="st7" d="M83.4,67.8C83.4,67.8,83.4,67.8,83.4,67.8c-0.3-0.2-0.7-0.1-0.7,0.3c0,0.4,0.4,0.5,0.7,0.3c0,0,0,0,0,0
					C83.8,68.4,83.8,67.9,83.4,67.8z"/>
			</g>
		</g>
		<g>
			<defs>
				<rect id="SVGID_17_" x="3.2" y="0" width="84.1" height="102.1"/>
			</defs>
			<clipPath id="SVGID_18_">
				<use xlink:href="#SVGID_17_"  style="overflow:visible;"/>
			</clipPath>
			<g class="st11">
				<path class="st7" d="M82.8,70.3c-0.5-0.3-0.9,0.4-0.5,0.8c0.2,0.1,0.3,0.1,0.5,0.1c0.1,0,0.3-0.2,0.3-0.4
					C83.1,70.5,83,70.4,82.8,70.3z"/>
			</g>
		</g>
		<g>
			<defs>
				<rect id="SVGID_19_" x="3.2" y="0" width="84.1" height="102.1"/>
			</defs>
			<clipPath id="SVGID_20_">
				<use xlink:href="#SVGID_19_"  style="overflow:visible;"/>
			</clipPath>
			<g class="st12">
				<path class="st7" d="M82.2,72.2c-0.1,0-0.1,0-0.2,0c-0.4,0.1-0.4,0.6,0,0.6c0.1,0,0.2,0,0.2,0C82.5,72.7,82.5,72.3,82.2,72.2z"
					/>
			</g>
		</g>
		<g>
			<defs>
				<rect id="SVGID_21_" x="3.2" y="0" width="84.1" height="102.1"/>
			</defs>
			<clipPath id="SVGID_22_">
				<use xlink:href="#SVGID_21_"  style="overflow:visible;"/>
			</clipPath>
			<g class="st13">
				<path class="st7" d="M82.1,76.2c-0.3-0.7-1.3-1.3-0.4-2c0.3-0.2-0.1-0.7-0.4-0.5c-0.5,0.4-0.8,1-0.6,1.6
					c0.1,0.3,0.4,0.5,0.6,0.8c0.4,0.6,0.3,1.2,0.3,1.8c0,0.3,0.4,0.4,0.5,0.1C82.2,77.5,82.3,76.8,82.1,76.2z"/>
			</g>
		</g>
		<g>
			<defs>
				<rect id="SVGID_23_" x="3.2" y="0" width="84.1" height="102.1"/>
			</defs>
			<clipPath id="SVGID_24_">
				<use xlink:href="#SVGID_23_"  style="overflow:visible;"/>
			</clipPath>
			<g class="st14">
				<path class="st7" d="M13.5,57.9c-0.4,0-0.4,0.7,0,0.7C13.9,58.5,13.9,57.9,13.5,57.9z"/>
			</g>
		</g>
		<g>
			<defs>
				<rect id="SVGID_25_" x="3.2" y="0" width="84.1" height="102.1"/>
			</defs>
			<clipPath id="SVGID_26_">
				<use xlink:href="#SVGID_25_"  style="overflow:visible;"/>
			</clipPath>
			<g class="st15">
				<path class="st7" d="M14.2,59.2c-0.4,0-0.4,0.7,0,0.7C14.6,59.9,14.6,59.2,14.2,59.2z"/>
			</g>
		</g>
		<g>
			<defs>
				<rect id="SVGID_27_" x="3.2" y="0" width="84.1" height="102.1"/>
			</defs>
			<clipPath id="SVGID_28_">
				<use xlink:href="#SVGID_27_"  style="overflow:visible;"/>
			</clipPath>
			<g class="st16">
				<path class="st7" d="M14.9,60.4c-0.4,0-0.4,0.6,0,0.6S15.3,60.4,14.9,60.4z"/>
			</g>
		</g>
		<g>
			<defs>
				<rect id="SVGID_29_" x="3.2" y="0" width="84.1" height="102.1"/>
			</defs>
			<clipPath id="SVGID_30_">
				<use xlink:href="#SVGID_29_"  style="overflow:visible;"/>
			</clipPath>
			<g class="st17">
				<path class="st7" d="M15.1,62.6c0,0,0,0.1,0,0.1c0,0.3,0.6,0.3,0.6,0c0,0,0-0.1,0-0.1C15.8,62.1,15,62.1,15.1,62.6z"/>
			</g>
		</g>
		<g>
			<defs>
				<rect id="SVGID_31_" x="3.2" y="0" width="84.1" height="102.1"/>
			</defs>
			<clipPath id="SVGID_32_">
				<use xlink:href="#SVGID_31_"  style="overflow:visible;"/>
			</clipPath>
			<g class="st18">
				<path class="st7" d="M15.5,64.3c-0.4,0-0.4,0.6,0,0.6C15.9,64.9,15.9,64.3,15.5,64.3z"/>
			</g>
		</g>
		<g>
			<defs>
				<rect id="SVGID_33_" x="3.2" y="0" width="84.1" height="102.1"/>
			</defs>
			<clipPath id="SVGID_34_">
				<use xlink:href="#SVGID_33_"  style="overflow:visible;"/>
			</clipPath>
			<g class="st19">
				<path class="st7" d="M15.1,66.2c-0.4,0-0.4,0.7,0,0.7C15.5,66.9,15.5,66.2,15.1,66.2z"/>
			</g>
		</g>
		<g>
			<defs>
				<rect id="SVGID_35_" x="3.2" y="0" width="84.1" height="102.1"/>
			</defs>
			<clipPath id="SVGID_36_">
				<use xlink:href="#SVGID_35_"  style="overflow:visible;"/>
			</clipPath>
			<g class="st20">
				<path class="st7" d="M11.4,61.4c-0.3-0.3-0.7,0.1-0.4,0.4c2,2.2,0.2,5,0.2,7.5c0,0.4,0.6,0.4,0.7,0
					C12.2,66.8,13.7,63.4,11.4,61.4z"/>
			</g>
		</g>
		<g>
			<defs>
				<rect id="SVGID_37_" x="3.2" y="0" width="84.1" height="102.1"/>
			</defs>
			<clipPath id="SVGID_38_">
				<use xlink:href="#SVGID_37_"  style="overflow:visible;"/>
			</clipPath>
			<g class="st21">
				<path class="st7" d="M31.4,21.9c-1.6,2-2.4,3.9-2.8,6.4c-0.5,3-4.3,5.6-7.4,5c-0.3-0.1-0.5,0.4-0.1,0.5c2.2,0.6,5.5-1,7-2.7
					c0.8-0.9,1-1.9,1.2-3c0.3-2.4,1.3-3.9,2.7-5.8C32.1,22,31.6,21.6,31.4,21.9z"/>
			</g>
		</g>
		<g>
			<defs>
				<rect id="SVGID_39_" x="3.2" y="0" width="84.1" height="102.1"/>
			</defs>
			<clipPath id="SVGID_40_">
				<use xlink:href="#SVGID_39_"  style="overflow:visible;"/>
			</clipPath>
			<g class="st22">
				<path class="st7" d="M24.4,30.8C24.4,30.8,24.4,30.9,24.4,30.8c-0.1,0.1-0.1,0.3-0.1,0.4c0,0,0,0,0.1,0.1
					c0.2,0.3,0.8,0.2,0.8-0.2C25.2,30.6,24.7,30.5,24.4,30.8z"/>
			</g>
		</g>
		<g>
			<defs>
				<rect id="SVGID_41_" x="3.2" y="0" width="84.1" height="102.1"/>
			</defs>
			<clipPath id="SVGID_42_">
				<use xlink:href="#SVGID_41_"  style="overflow:visible;"/>
			</clipPath>
			<g class="st23">
				<path class="st7" d="M26.4,28.9c-0.5,0-0.5,0.7,0,0.7C26.9,29.6,26.9,28.9,26.4,28.9z"/>
			</g>
		</g>
		<g>
			<defs>
				<rect id="SVGID_43_" x="3.2" y="0" width="84.1" height="102.1"/>
			</defs>
			<clipPath id="SVGID_44_">
				<use xlink:href="#SVGID_43_"  style="overflow:visible;"/>
			</clipPath>
			<g class="st24">
				<path class="st7" d="M27.4,27.4c-0.1-0.3-0.5-0.3-0.6,0c0,0.1,0,0.2,0,0.3c0,0.4,0.6,0.4,0.6,0C27.4,27.6,27.4,27.5,27.4,27.4z"
					/>
			</g>
		</g>
		<g>
			<defs>
				<rect id="SVGID_45_" x="3.2" y="0" width="84.1" height="102.1"/>
			</defs>
			<clipPath id="SVGID_46_">
				<use xlink:href="#SVGID_45_"  style="overflow:visible;"/>
			</clipPath>
			<g class="st25">
				<path class="st7" d="M29.4,30.6c-0.3,0-0.3,0.4,0,0.4C29.7,31.1,29.7,30.6,29.4,30.6z"/>
			</g>
		</g>
		<g>
			<defs>
				<rect id="SVGID_47_" x="3.2" y="0" width="84.1" height="102.1"/>
			</defs>
			<clipPath id="SVGID_48_">
				<use xlink:href="#SVGID_47_"  style="overflow:visible;"/>
			</clipPath>
			<g class="st26">
				<path class="st7" d="M29.9,27.9c-0.4,0-0.4,0.6,0,0.6C30.3,28.5,30.3,27.9,29.9,27.9z"/>
			</g>
		</g>
		<g>
			<defs>
				<rect id="SVGID_49_" x="3.2" y="0" width="84.1" height="102.1"/>
			</defs>
			<clipPath id="SVGID_50_">
				<use xlink:href="#SVGID_49_"  style="overflow:visible;"/>
			</clipPath>
			<g class="st27">
				<path class="st7" d="M30.8,25.8c-0.4,0-0.4,0.6,0,0.6C31.2,26.4,31.2,25.8,30.8,25.8z"/>
			</g>
		</g>
		<g>
			<defs>
				<rect id="SVGID_51_" x="3.2" y="0" width="84.1" height="102.1"/>
			</defs>
			<clipPath id="SVGID_52_">
				<use xlink:href="#SVGID_51_"  style="overflow:visible;"/>
			</clipPath>
			<g class="st28">
				<path class="st1" d="M19.1,23.8c-1.5,0.3-1.7,1.9-2.5,2.9c-0.6,0.9-1.4,1.6-2.5,1.3c-0.5-0.1-0.9-0.5-1.4-0.7
					c-0.5-0.2-0.8-0.3-1.3-0.1c-0.2,0.1-0.2,0.4,0,0.4c1.4,0.3,2.6,1.5,4,1c2-0.7,2-3.6,3.8-4.2C19.6,24.2,19.5,23.7,19.1,23.8z"/>
			</g>
		</g>
	</g>
	<g>
		<g>
			<path class="st29" d="M78.7,89.8h-18c-0.5,0-0.8-0.4-0.8-0.8v-4.9c-0.5-1.2-1.3-2.4-2.3-3.2c-0.1-0.1-0.8-0.6-0.4-0.8
				c0.2-0.1,0.6,0.1,0.8,0.1c1,0.3,2,0.6,2.9,0.9c0.4,0.1,0.8,0.3,1.3,0.4h16.5c0.5,0,0.8,0.4,0.8,0.8v6.6
				C79.5,89.4,79.2,89.8,78.7,89.8z"/>
		</g>
		<g>
			<g>
				<path class="st30" d="M76.8,87.5c-0.5,0-0.7-0.3-0.9-0.5c-0.2-0.3-0.4-0.5-0.8-0.5c-0.4,0-0.6,0.2-0.8,0.5
					c-0.2,0.3-0.5,0.5-0.9,0.5s-0.7-0.3-0.9-0.5c-0.2-0.3-0.4-0.5-0.8-0.5c-0.4,0-0.6,0.2-0.8,0.5c-0.2,0.3-0.5,0.5-0.9,0.5
					S69,87.3,68.8,87c-0.2-0.3-0.4-0.5-0.8-0.5c-0.4,0-0.6,0.2-0.8,0.5c-0.2,0.3-0.5,0.5-0.9,0.5s-0.7-0.3-0.9-0.5
					c-0.2-0.3-0.4-0.5-0.8-0.5c-0.4,0-0.6,0.2-0.8,0.5c-0.2,0.3-0.5,0.5-0.9,0.5h-0.1v-0.2h0.1c0.4,0,0.6-0.2,0.8-0.5
					c0.2-0.3,0.5-0.5,0.9-0.5c0.5,0,0.7,0.3,0.9,0.5c0.2,0.3,0.4,0.5,0.8,0.5c0.4,0,0.6-0.2,0.8-0.5c0.2-0.3,0.5-0.5,0.9-0.5
					s0.7,0.3,0.9,0.5c0.2,0.3,0.4,0.5,0.8,0.5c0.4,0,0.6-0.2,0.8-0.5c0.2-0.3,0.5-0.5,0.9-0.5s0.7,0.3,0.9,0.5
					c0.2,0.3,0.4,0.5,0.8,0.5c0.4,0,0.6-0.2,0.8-0.5c0.2-0.3,0.5-0.5,0.9-0.5s0.7,0.3,0.9,0.5c0.2,0.3,0.4,0.5,0.8,0.5h0.1
					L76.8,87.5L76.8,87.5z"/>
			</g>
			<g>
				<path class="st30" d="M75,83.9c-0.4,0-0.6,0.2-0.8,0.5c-0.2,0.3-0.5,0.5-0.9,0.5s-0.7-0.3-0.9-0.5c-0.2-0.3-0.4-0.5-0.8-0.5
					c-0.4,0-0.6,0.2-0.8,0.5c-0.2,0.3-0.5,0.5-0.9,0.5s-0.7-0.3-0.9-0.5c-0.2-0.3-0.4-0.5-0.8-0.5c-0.4,0-0.6,0.2-0.8,0.5
					c-0.2,0.3-0.5,0.5-0.9,0.5s-0.7-0.3-0.9-0.5c-0.2-0.3-0.4-0.5-0.8-0.5c-0.4,0-0.6,0.2-0.8,0.5l-0.1,0.2v-0.3l0,0
					c0.2-0.3,0.5-0.5,0.9-0.5c0.5,0,0.7,0.3,0.9,0.5c0.2,0.3,0.4,0.5,0.8,0.5c0.4,0,0.6-0.2,0.8-0.5c0.2-0.3,0.5-0.5,0.9-0.5
					s0.7,0.3,0.9,0.5c0.2,0.3,0.4,0.5,0.8,0.5c0.4,0,0.6-0.2,0.8-0.5c0.2-0.3,0.5-0.5,0.9-0.5s0.7,0.3,0.9,0.5
					c0.2,0.3,0.4,0.5,0.8,0.5c0.4,0,0.6-0.2,0.8-0.5c0.2-0.3,0.5-0.5,0.9-0.5s0.7,0.3,0.9,0.5l0,0v0.3l-0.1-0.2
					C75.6,84.2,75.4,83.9,75,83.9z"/>
			</g>
		</g>
	</g>
	<g>
		<g>
			<path class="st31" d="M15.4,40.9h19.1c0.5,0,0.9-0.4,0.9-0.9v-5.2c0.5-1.3,1.4-2.5,2.5-3.4c0.2-0.1,0.8-0.7,0.4-0.8
				c-0.2-0.1-0.6,0.1-0.9,0.1c-1,0.3-2.1,0.7-3.1,1c-0.4,0.1-0.9,0.3-1.4,0.4H15.4c-0.5,0-0.9,0.4-0.9,0.9v7
				C14.6,40.5,14.9,40.9,15.4,40.9z"/>
		</g>
		<g>
			<g>
				<path class="st30" d="M17.5,38.5c0.5,0,0.8-0.3,1-0.6c0.2-0.3,0.4-0.5,0.9-0.5s0.6,0.2,0.9,0.5c0.2,0.3,0.5,0.6,1,0.6
					c0.5,0,0.8-0.3,1-0.6c0.2-0.3,0.4-0.5,0.9-0.5s0.6,0.2,0.9,0.5c0.2,0.3,0.5,0.6,1,0.6c0.5,0,0.8-0.3,1-0.6
					c0.2-0.3,0.4-0.5,0.9-0.5s0.6,0.2,0.9,0.5c0.2,0.3,0.5,0.6,1,0.6s0.8-0.3,1-0.6c0.2-0.3,0.4-0.5,0.9-0.5s0.6,0.2,0.9,0.5
					c0.2,0.3,0.5,0.6,1,0.6h0.1v-0.2h-0.1c-0.4,0-0.6-0.2-0.9-0.5c-0.2-0.3-0.5-0.6-1-0.6s-0.8,0.3-1,0.6c-0.2,0.3-0.4,0.5-0.9,0.5
					s-0.6-0.2-0.9-0.5c-0.2-0.3-0.5-0.6-1-0.6c-0.5,0-0.8,0.3-1,0.6c-0.2,0.3-0.4,0.5-0.9,0.5s-0.6-0.2-0.9-0.5
					c-0.2-0.3-0.5-0.6-1-0.6c-0.5,0-0.8,0.3-1,0.6c-0.2,0.3-0.4,0.5-0.9,0.5s-0.6-0.2-0.9-0.5c-0.2-0.3-0.5-0.6-1-0.6
					c-0.5,0-0.8,0.3-1,0.6c-0.2,0.3-0.4,0.5-0.9,0.5h-0.1L17.5,38.5L17.5,38.5z"/>
			</g>
			<g>
				<path class="st30" d="M19.4,34.7c0.4,0,0.6,0.2,0.9,0.5c0.2,0.3,0.5,0.6,1,0.6s0.8-0.3,1-0.6c0.2-0.3,0.4-0.5,0.9-0.5
					s0.6,0.2,0.9,0.5c0.2,0.3,0.5,0.6,1,0.6s0.8-0.3,1-0.6c0.2-0.3,0.4-0.5,0.9-0.5s0.6,0.2,0.9,0.5c0.2,0.3,0.5,0.6,1,0.6
					s0.8-0.3,1-0.6c0.2-0.3,0.4-0.5,0.9-0.5s0.6,0.2,0.9,0.5l0.2,0.2v-0.3l0,0c-0.2-0.3-0.5-0.6-1-0.6s-0.8,0.3-1,0.6
					c-0.2,0.3-0.4,0.5-0.9,0.5s-0.6-0.2-0.9-0.5c-0.2-0.3-0.5-0.6-1-0.6s-0.8,0.3-1,0.6c-0.2,0.3-0.4,0.5-0.9,0.5s-0.6-0.2-0.9-0.5
					c-0.2-0.3-0.5-0.6-1-0.6c-0.5,0-0.8,0.3-1,0.6c-0.2,0.3-0.4,0.5-0.9,0.5s-0.6-0.2-0.9-0.5c-0.2-0.3-0.5-0.6-1-0.6
					c-0.5,0-0.8,0.3-1,0.6l0,0v0.3l0.2-0.2C18.7,34.9,18.9,34.7,19.4,34.7z"/>
			</g>
		</g>
	</g>
	<g>
		<g>
			<path class="st32" d="M55.6,66.2h-13c-3.3-2.7-7.5-4.4-12-4.4c-10.3,0-18.7,8.4-18.7,18.7s8.4,18.7,18.7,18.7s18.7-8.4,18.7-18.7
				c0-2.5-0.5-4.8-1.4-7L55.6,66.2z"/>
		</g>
		<g>
			<g>
				<g>
					<path class="st33" d="M35,98.6c0.6-0.4,1-1,1.1-1.8c0.2-1.8,1.2-3.3,1.7-5c0.4-1.3,0.9-2.9,0.9-4.1c0.2,0.7,0.3,1.4,0.4,2.1
						c0.1,0.5,0.2,0.9,0.4,1.4c0.1,0.4,0.2,0.8,0.3,1.1c0.1,0.2,0.1,0.4,0.2,0.6c0,0.1,0.1,0.2,0.1,0.2l0,0c0,0.1,0.1,0.1,0.1,0.2
						c0.1,0.1,0.2,0.2,0.3,0.2c0,0,0,0,0,0c0.3,0.1,0.6,0.2,0.9,0.2c0.3,0.1,0.6,0.1,0.9,0.1c0,0,0.1,0,0.1,0l0,0
						c0.4,0,0.7,0.1,1.1,0.1c0.2,0,0.3,0,0.5,0c0,0,0,0,0.1,0c0.2,0,0.5-0.1,0.7-0.2c0,0,0,0,0,0l0,0c0.2-0.2,0.2-0.5,0.1-0.8
						c0,0,0-0.1,0-0.1l0,0c0,0,0-0.1,0-0.1l0,0c0,0,0-0.1,0-0.1c-0.1-0.7-0.2-1.3-0.4-2c-0.2-0.7-0.1-1.5-0.2-2.2
						c-0.1-1.6-0.3-3.2-0.5-4.7c-0.4-2.7-0.6-5.7-1.9-8.2c-0.7-1.3-1.9-1.7-3.2-2.2c-1.3-0.5-2.4-1-3.7-1.4
						c-0.4-0.1-0.7-0.2-1.1-0.3l0,0c-0.1,0-0.1,0-0.2,0c-0.5-0.1-1.1-0.2-1.7-0.2c-0.9-0.1-1.7-0.1-2.5,0c-0.5,0-1.1,0.1-1.6,0.1
						l0,0c-0.2,0-0.4,0-0.7,0.1l0,0c-0.1,0-0.3,0-0.4,0c-0.1,0-0.1,0-0.2,0c-0.4,0.1-0.8,0.1-1.1,0.2c-0.7,0-1.5,0.8-2.2,1.2
						c-0.1,0.1-0.2,0.1-0.3,0.1c-1.1,0.5-2.7,0.9-3.6,1.7c-2.1,1.9-1.3,5.6-1,8c0.3,1.9,0.2,4.2,0.8,6.1l0,0
						c0.1,0.5,0.3,0.9,0.5,1.3c0.7,1.2,1.5,2.4,2.4,3.5c0.3,0.5,0.6,0.9,0.8,1.4l0,0c0.3,0.6,0.5,1.1,0.7,1.8
						c0.1,0.3,0.2,0.6,0.3,0.9c1.6,0.6,3.2,1,4.9,1.2c0.2,0,0.3,0,0.4,0c0.3,0,1.4,0,1.7,0c0.4,0,0.8,0,1.9-0.1
						c0.5,0,1.1-0.1,1.5-0.1L35,98.6z"/>
				</g>
			</g>
			<g>
				<g>
					<path class="st34" d="M34.6,65.9c0-0.3,0.4-1.1,0.9-0.9c0.5,0.2,0.3,1.2,0.3,1.5c-0.1,0.4-0.2,1-0.8,0.8
						c-0.4-0.1-0.4-0.5-0.5-0.8C34.4,66.3,34.5,66.1,34.6,65.9z"/>
				</g>
			</g>
			<g>
				<g>
					<path class="st34" d="M27.5,71.9c0,0.1,0,0.2,0,0.4c0,0.3,0,0.6,0.1,0.9c0.1,0.6,0.3,1.2,0.3,1.8c0.1,0.6,0.2,1.2,0.3,1.9
						c0.2,1,0.9,1.3,1.6,1.7c0.3,0.2,0.7,0.4,1,0.6c0.2,0.1,0.6,0.4,0.8,0.4c0.2,0,0.3-0.4,0.3-0.5c0.2-0.3,0.3-0.6,0.6-0.9
						c0.3-0.3,0.6-0.7,0.9-1c0.2-0.2,0.5-0.5,0.6-0.7c0.1-0.3-0.1-0.7-0.1-1c0-0.3,0-0.6-0.1-0.9c0-0.3-0.1-0.6-0.1-0.9
						c-0.1-1-0.2-2-0.2-3.1c-0.5,0.2-0.9,0.5-1.4,0.7c-0.7,0.3-1.5,0.4-2.2,0.4c-0.4,0-0.8,0.1-1.1,0.1c-0.2,0-0.4,0-0.7,0
						c-0.1,0-0.2,0-0.3,0C27.6,71.9,27.5,71.9,27.5,71.9z"/>
				</g>
			</g>
			<g>
				<g>
					<path class="st34" d="M26.2,61.7c-0.3,0.8-0.2,1.9-0.6,2.8c-0.4,1-1,1.6-0.8,2.6c0.2,0.8,0.6,2,1.1,2.7
						c0.7,1.1,1.1,2.1,2.3,2.7c1.3,0.6,3.1,0.4,4.3-0.2c1.3-0.6,1.9-1.8,2.3-3.1c0.3-1.3,0.2-2.7,0.2-4c0-1.1,0.2-2.3-0.2-3.3
						c-0.8-1.9-3.4-2.3-5.2-2.1c-0.9,0.1-1.7,0.5-2.6,0.9C26.3,61.3,26.3,61.3,26.2,61.7z"/>
				</g>
			</g>
			<g>
				<g>
					<path class="st35" d="M24.8,66.7c-0.6,0.2-0.5-4-0.4-4.5c0.2-0.9,0.6-1.8,1.2-2.6c0.6-0.9,1.7-1.9,2.7-2.2
						c0.8-0.3,1.8-0.5,2.7-0.5c-0.2,0.2-0.6,0.3-0.8,0.5c0.9-0.3,2.9-0.7,3.8,0c-0.4,0.1-0.9,0.2-1.3,0.4c0.6,0.1,2.1,0.6,2.3,1.3
						C34.7,59.2,34.3,59,34,59c0.9,0.8,1.3,1.6,1.5,2.8c0.1,0.3,0.3,1.2,0.1,1.5c-0.3,0.4-0.7-0.6-0.9-0.8c-0.2-0.2-0.4-0.5-0.5-0.7
						c-0.1-0.1-0.2-0.5-0.4-0.6c-0.2-0.1-0.6,0.2-0.8,0.3c-0.5,0.2-1.1,0.2-1.6,0.3c-1.3,0.2-2.4-0.1-3.7-0.1
						c-0.4,0-0.7-0.2-0.9,0.1c-0.1,0.2-0.1,0.7-0.1,0.9C26.5,64.1,26.1,65.8,24.8,66.7z"/>
				</g>
			</g>
			<g>
				<g>
					<path class="st34" d="M40.1,93.5c-0.2-0.4,0.8-0.9,1-1c0.6-0.3,1.2-0.3,1.9-0.4c0.5,0,1,0.2,1.5,0.4c0.2,0.1,0.4,0.3,0.4,0.6
						c0.1,0.7-0.6,0.6-1.1,0.6C42.5,93.7,41.3,93.9,40.1,93.5z"/>
				</g>
			</g>
			<g>
				<g>
					<path class="st34" d="M45.4,95.2c-0.1,0.2-0.1,0.4-0.2,0.5c-0.1,0.2-0.1,0.3-0.3,0.3c-0.1,0-0.3,0-0.5,0
						c-0.1,0-0.2-0.1-0.3-0.1c-0.1-0.1-0.1-0.2-0.2-0.3c0,0-0.3,0.4-0.3,0.5c-0.2,0.1-0.5,0.1-0.7,0.1c-0.1,0-0.1,0-0.2,0
						c-0.1,0-0.1-0.1-0.2-0.1c-0.1-0.1-0.1-0.1-0.2-0.2c0,0-0.2,0.3-0.3,0.3c-0.1,0.1-0.3,0.1-0.4,0.1c-0.1,0-0.3,0-0.4-0.1
						c-0.1-0.1-0.2-0.3-0.3-0.2c-0.1,0.1-0.2,0.2-0.3,0.3c-0.1,0.1-0.3,0-0.5,0c-0.2,0-0.3-0.1-0.4-0.3c-0.1-0.2-0.1-0.4-0.1-0.6
						c-0.1-0.3-0.1-0.5-0.1-0.8c0-0.3,0.1-0.6,0.2-0.9c0.1-0.2,0.1-0.5,0.4-0.6c0.2-0.1,0.3,0,0.5,0.1c0.1,0.1,0.2,0.1,0.3,0.1
						c0.1,0,0.2-0.2,0.3-0.3c0.1-0.1,0.3-0.1,0.4-0.1c0.2,0,0.3,0.2,0.5,0.3c0.1,0.1,0.2,0.2,0.4,0.1c0.2,0,0.4-0.3,0.6-0.4
						c0.2-0.1,0.4-0.1,0.5,0s0.3,0.3,0.4,0.4c0.2,0.1,0.4,0.1,0.5-0.1c0.1-0.2,0.2-0.3,0.5-0.4c0.3-0.1,0.5,0.2,0.6,0.5
						C45.7,93.9,45.6,94.6,45.4,95.2z"/>
				</g>
			</g>
			<g>
				<g>
					<path class="st36" d="M24.2,65C24.2,65,24.2,65,24.2,65c-0.4,0-0.3,1.1-0.3,1.3c0,0.4-0.1,1.1,0.1,1.5c0.1,0.2,0.3,0.4,0.4,0.6
						c0.1,0.2,0.3,0.4,0.5,0.7c0.1,0.2,0.2,0.4,0.4,0.6c0.2,0.3,0.4,0.5,0.5,0.8c0.2,0.3,0.3,0.5,0.5,0.8c0.2,0.2,0.3,0.5,0.5,0.7
						c0.1,0.2,0.2,0.4,0.4,0.3c0.6-0.1,0.4-1.3,0.4-1.7c0-0.8,0.1-1.2-0.3-1.8c-0.3-0.5-0.7-0.9-1.1-1.4c-0.4-0.4-0.7-0.8-1.1-1.3
						c-0.2-0.2-0.3-0.4-0.5-0.6C24.6,65.3,24.4,65,24.2,65z"/>
				</g>
			</g>
			<g>
				<g>
					<path class="st34" d="M19,91.7c-0.2-0.5-0.4-0.9-0.3-1.5c0.1-0.8,0.4-1.7,0.7-2.5c0.5-1.3,1.1-2.6,1.7-3.9
						c0.6-1.4,1.3-2.6,1.8-4c0.4-1.1,0.8-2.1,0.8-3.3c0-1-0.3-1.9-0.5-2.8c-0.2-1-0.3-2.1-0.3-3.1c0.1-1.5,0.5-3.2,2.1-3.7
						c0.3-0.1,0.6-0.1,0.9-0.2c0.3,0,1,0,0.7,0.5c-0.1,0.2-0.3,0.1-0.1,0.3c0.2,0.1,0.4,0,0.6,0.1c0.1,0.1,0.2,0.2,0.3,0.3
						c0.1,0.1,0.2,0.2,0.2,0.4c0,0.2,0,0.3-0.2,0.3c-0.3,0.1-0.5,0-0.8,0.3c-0.2,0.2-0.4,0.5-0.5,0.8c0.3-0.2,0.6-0.5,0.9-0.6
						c0.2,0,0.4,0,0.6,0c0.3,0,1,0,1.1,0.4c0.1,0.4-0.6,0.4-0.8,0.4c-0.5,0-0.9,0-1.3,0.4c-0.4,0.4-0.2,0.9-0.2,1.4
						c0,0.5,0.1,0.9,0.2,1.4c0.4,1.4-0.2,2.7-0.5,4.1c-0.8,2.6-0.6,4.9-0.6,7.6c0,1.5,0.6,2.6,0.8,4c0.4,1.9,0.2,3-0.9,4.5
						c-0.8,1.1-1.7,2.5-3.2,1.8c-1-0.5-1.9-1.3-2.5-2.3C19.5,92.4,19.3,92,19,91.7z"/>
				</g>
			</g>
			<g>
				<g>
					<g>
						<path class="st37" d="M40.8,95.7c-0.1,0-0.1,0-0.1-0.1V94c0-0.1,0-0.1,0.1-0.1c0.1,0,0.1,0,0.1,0.1v1.6
							C40.9,95.6,40.8,95.7,40.8,95.7z"/>
					</g>
				</g>
				<g>
					<g>
						<path class="st37" d="M42.3,95.6c-0.1,0-0.1,0-0.1-0.1v-1.7c0-0.1,0-0.1,0.1-0.1s0.1,0,0.1,0.1v1.7
							C42.4,95.6,42.4,95.6,42.3,95.6z"/>
					</g>
				</g>
				<g>
					<g>
						<path class="st37" d="M43.9,95.4c-0.1,0-0.1,0-0.1-0.1v-1.4c0-0.1,0-0.1,0.1-0.1s0.1,0,0.1,0.1v1.4C44,95.3,44,95.4,43.9,95.4
							z"/>
					</g>
				</g>
				<g>
					<g>
						<path class="st37" d="M30.2,73.1c-1.5,0-2.1-0.4-2.1-0.5c0,0-0.1-0.1,0-0.1c0,0,0.1-0.1,0.1,0c0,0,0.8,0.5,2.5,0.4
							c1.7-0.1,2.3-0.8,2.4-0.8c0,0,0.1,0,0.1,0c0,0,0,0.1,0,0.1c0,0-0.7,0.7-2.5,0.8C30.5,73,30.4,73.1,30.2,73.1z"/>
					</g>
				</g>
				<g>
					<g>
						<path class="st37" d="M40.6,93.3C40.6,93.3,40.6,93.3,40.6,93.3c-0.1,0-0.2-0.1-0.2-0.1c0-0.1,0.1-0.1,0.1-0.1
							c0.1,0,0.2,0,0.3-0.1c0.1,0,0.2-0.1,0.3-0.1c0.2-0.1,0.4,0,0.6,0c0.1,0,0.2,0.1,0.3,0.1c0.1,0,0.2,0,0.3-0.1
							c0.1,0,0.2-0.1,0.4-0.1c0.2,0,0.4,0.1,0.6,0.1c0.1,0,0.1,0,0.2,0.1c0.1,0,0.3,0,0.4,0c0.1,0,0.3-0.1,0.4-0.1c0,0,0.1,0,0.1,0
							c0,0,0,0.1,0,0.1c-0.1,0.1-0.3,0.2-0.5,0.2c-0.1,0-0.3,0-0.5-0.1c-0.1,0-0.1,0-0.2-0.1C43.2,93.1,43,93,42.8,93
							c-0.1,0-0.2,0-0.3,0.1c-0.1,0-0.2,0.1-0.4,0.1c-0.2,0-0.3,0-0.4-0.1c-0.2,0-0.3-0.1-0.4,0c-0.1,0-0.2,0.1-0.2,0.1
							C40.9,93.2,40.8,93.3,40.6,93.3z"/>
					</g>
				</g>
				<g>
					<g>
						<path class="st38" d="M30.2,61.4c-1.4,0-2.1-0.3-2.2-0.3C28,61,28,61,28,60.9c0-0.1,0.1-0.1,0.1-0.1c0,0,1.6,0.6,4.2,0.1
							c0.1,0,0.1,0,0.1,0.1c0,0.1,0,0.1-0.1,0.1C31.6,61.3,30.8,61.4,30.2,61.4z"/>
					</g>
				</g>
				<g>
					<g>
						<path class="st38" d="M30.9,57.9L30.9,57.9l-0.1-0.2c0.3-0.2,0.9-0.6,2.1-0.5c0.1,0,0.1,0.1,0.1,0.1c0,0.1-0.1,0.1-0.1,0.1
							C31.7,57.3,31.1,57.7,30.9,57.9z M30.8,57.8L30.8,57.8L30.8,57.8z"/>
					</g>
				</g>
				<g>
					<g>
						<path class="st38" d="M34.1,58.6C34.1,58.6,34.1,58.6,34.1,58.6c-0.6-0.3-1.5-0.3-1.5-0.3c-0.1,0-0.1,0-0.1-0.1
							c0-0.1,0-0.1,0.1-0.1c0,0,1,0,1.6,0.3C34.2,58.5,34.2,58.5,34.1,58.6C34.2,58.6,34.2,58.6,34.1,58.6z"/>
					</g>
				</g>
				<g>
					<g>
						<path class="st38" d="M27.4,58.4C27.3,58.4,27.3,58.4,27.4,58.4c-0.1-0.1-0.1-0.1-0.1-0.2c0,0,0.9-0.9,2.7-1.1
							c0.1,0,0.1,0,0.1,0.1c0,0.1,0,0.1-0.1,0.1C28.3,57.5,27.4,58.3,27.4,58.4C27.4,58.4,27.4,58.4,27.4,58.4z"/>
					</g>
				</g>
				<g>
					<g>
						<path class="st38" d="M25.2,65.5C25.2,65.5,25.2,65.5,25.2,65.5c-0.1,0-0.1-0.1-0.1-0.2c0.6-1,1-3.2,1-3.3
							c0-0.1,0.1-0.1,0.1-0.1s0.1,0.1,0.1,0.1C26.3,62.2,25.9,64.4,25.2,65.5C25.3,65.5,25.2,65.5,25.2,65.5z"/>
					</g>
				</g>
				<g>
					<g>
						<path class="st38" d="M24.8,65.2C24.8,65.2,24.8,65.2,24.8,65.2c-0.1,0-0.1-0.1-0.1-0.2c0.3-0.4,0.6-1.6,0.6-1.7
							c0-0.1,0.1-0.1,0.1-0.1c0.1,0,0.1,0.1,0.1,0.1C25.5,63.5,25.2,64.7,24.8,65.2C24.9,65.2,24.9,65.2,24.8,65.2z"/>
					</g>
				</g>
				<g>
					<g>
						<path class="st37" d="M26.5,67.4C26.5,67.4,26.5,67.3,26.5,67.4c-0.1-0.1-0.1-0.2-0.1-0.2c0.1-0.1,0.2-0.2,0.2-0.2
							c0-0.1-0.1-0.1-0.1-0.1c-0.1,0-0.1-0.1,0-0.1c0-0.1,0.1-0.1,0.1,0c0,0,0.2,0.1,0.2,0.3C26.9,67.1,26.8,67.2,26.5,67.4
							C26.6,67.4,26.6,67.4,26.5,67.4z"/>
					</g>
				</g>
				<g>
					<g>
						<path class="st37" d="M27.5,68.6c-0.1,0-0.1,0-0.1-0.1c0-0.1,0-0.1,0.1-0.1c0.1,0,0.1,0,0.1-0.1c0.1-0.1,0.1-0.3,0.1-0.4
							c0-0.2-0.3-0.4-0.5-0.5c0,0-0.1-0.1,0-0.1c0,0,0.1-0.1,0.1,0s0.5,0.3,0.5,0.7c0,0.2,0,0.5-0.1,0.6
							C27.7,68.6,27.6,68.6,27.5,68.6C27.5,68.6,27.5,68.6,27.5,68.6z"/>
					</g>
				</g>
				<g>
					<g>
						<path class="st37" d="M27.9,70C27.9,70,27.9,70,27.9,70c-0.1-0.1-0.1-0.2,0-0.2c0.1-0.1,0.3-0.1,0.4-0.1c0.1,0,0.2,0,0.3,0
							c0.1-0.1,0.1-0.1,0.1-0.2c0-0.1-0.1-0.2-0.2-0.2c0,0-0.1-0.1,0-0.1c0,0,0.1-0.1,0.1,0c0,0,0.3,0.2,0.3,0.4
							c0,0.1,0,0.2-0.2,0.3C28.6,70,28.4,70,28.3,70C28.2,70,28.1,70,27.9,70C28,70,28,70,27.9,70z"/>
					</g>
				</g>
				<g>
					<g>
						<path class="st37" d="M24.1,69.2C24.1,69.2,24.1,69.2,24.1,69.2c-0.1,0-0.1-0.1-0.1-0.1c0.3-2,2-1.9,2-1.9
							c0.1,0,0.1,0.1,0.1,0.1c0,0.1-0.1,0.1-0.1,0.1c-0.1,0-1.5-0.1-1.8,1.7C24.2,69.2,24.2,69.2,24.1,69.2z"/>
					</g>
				</g>
				<g>
					<g>
						<path class="st37" d="M24.8,70C24.8,70,24.8,70,24.8,70c-0.1,0-0.1-0.1-0.1-0.1c0.3-2,1.9-1.9,2-1.9c0.1,0,0.1,0.1,0.1,0.1
							c0,0.1-0.1,0.1-0.1,0.1c-0.1,0-1.5-0.1-1.7,1.7C24.9,69.9,24.9,70,24.8,70z"/>
					</g>
				</g>
				<g>
					<g>
						<path class="st37" d="M25.6,70.8C25.5,70.8,25.5,70.7,25.6,70.8c-0.2-0.7,0.3-1,0.3-1c0,0,0.1,0,0.1,0c0,0,0,0.1,0,0.1
							c0,0-0.4,0.3-0.3,0.7C25.7,70.7,25.7,70.8,25.6,70.8C25.6,70.8,25.6,70.8,25.6,70.8z"/>
					</g>
				</g>
				<g>
					<g>
						<path class="st39" d="M38.7,87.5C38.7,87.5,38.7,87.5,38.7,87.5c-0.1,0-0.1-0.1-0.1-0.1c1.4-4.6,0.8-9.1,0.8-9.1
							c0-0.1,0-0.1,0.1-0.1c0.1,0,0.1,0,0.1,0.1C39.6,78.3,40.3,82.7,38.7,87.5C38.8,87.5,38.8,87.5,38.7,87.5z"/>
					</g>
				</g>
				<g>
					<g>
						<path class="st39" d="M32.6,84.4c-0.1,0-0.2,0-0.3,0c-0.4,0-0.5-0.2-0.5-0.5c-0.1-0.5-0.1-1-0.1-1.5l0-0.3c0-0.1,0-0.3,0-0.4
							c0-0.3,0-0.7-0.1-0.9c0,0,0-0.1,0-0.1c0,0,0.1,0,0.1,0c0.1,0.2,0.1,0.6,0.1,1c0,0.2,0,0.3,0,0.4l0,0.3c0,0.5,0.1,1,0.1,1.5
							c0,0.3,0.1,0.3,0.3,0.4c0.1,0,0.5,0,0.7-0.1c0.3-0.2,0.2-0.8,0.1-1.2c0-0.1,0-0.2,0-0.2c0-0.2-0.1-0.5-0.1-0.7
							c-0.1-0.5-0.2-1-0.2-1.5c0-0.3,0-0.5,0-0.8c0-0.3,0-0.6,0-1c0-0.1,0-0.1,0.1-0.1c0.1,0,0.1,0,0.1,0.1c0,0.3,0,0.6,0,0.9
							c0,0.3,0,0.5,0,0.8c0,0.5,0.1,1,0.2,1.4c0,0.2,0.1,0.5,0.1,0.7c0,0.1,0,0.1,0,0.2c0.1,0.5,0.2,1.2-0.2,1.4
							C33,84.4,32.8,84.4,32.6,84.4z"/>
					</g>
				</g>
				<g>
					<g>
						<path class="st39" d="M41.5,90.1c-0.4,0-0.8,0-1.1-0.1c-0.3-0.1-0.6-0.1-0.8-0.3c0,0-0.1,0-0.1-0.1c-0.1,0-0.1-0.1-0.2-0.1
							c-0.1,0-0.1-0.1-0.1-0.1c0-0.1,0.1-0.1,0.1-0.1c0.1,0,0.2,0.1,0.3,0.1c0,0,0.1,0,0.1,0.1c0.2,0.1,0.4,0.2,0.7,0.3
							c0.5,0.1,1.1,0.1,1.6,0.1c0.5,0,1.2-0.2,1.6-0.5c0,0,0.1,0,0.1,0c0,0,0,0.1,0,0.1c-0.4,0.3-1.2,0.5-1.7,0.5
							C41.9,90.1,41.7,90.1,41.5,90.1z"/>
					</g>
				</g>
				<g>
					<g>
						<path class="st39" d="M41.5,89.8c-0.1,0-0.1,0-0.1-0.1c0-0.1,0-0.1,0.1-0.1c0.3,0,0.7,0,1.1-0.1c0.7-0.2,0.8-0.3,0.8-0.4
							c0-0.1,0.1-0.1,0.1-0.1c0.1,0,0.1,0.1,0.1,0.1c-0.1,0.3-0.5,0.4-1,0.5C42.2,89.8,41.8,89.8,41.5,89.8z"/>
					</g>
				</g>
				<g>
					<g>
						<path class="st39" d="M41,90.5L41,90.5c-0.3,0-0.5,0-0.8-0.1c-0.1,0-0.1,0-0.2-0.1c-0.1,0-0.2-0.1-0.2,0c-0.1,0-0.1,0-0.1-0.1
							c0-0.1,0-0.1,0.1-0.1c0.1,0,0.2,0,0.4,0c0.1,0,0.1,0,0.1,0c0.2,0,0.5,0.1,0.7,0.1c0.1,0,0.1,0,0.1,0.1
							C41.1,90.4,41,90.5,41,90.5z"/>
					</g>
				</g>
				<g>
					<g>
						<path class="st37" d="M32.2,77.1C32.2,77.1,32.2,77.1,32.2,77.1c-0.1-0.1-0.1-0.1-0.1-0.2c0.2-0.3,1-0.7,1.4-0.7c0,0,0,0,0,0
							c0.1,0,0.1,0,0.1,0.1s0,0.1-0.1,0.1C33.2,76.4,32.5,76.7,32.2,77.1C32.3,77,32.3,77.1,32.2,77.1z"/>
					</g>
				</g>
				<g>
					<g>
						<path class="st37" d="M30.2,77.3C30.2,77.3,30.2,77.3,30.2,77.3c-0.7-0.3-1.4-0.4-1.9-0.4c-0.1,0-0.1,0-0.1-0.1s0-0.1,0.1-0.1
							c0.6,0,1.3,0,2,0.4C30.3,77.1,30.4,77.2,30.2,77.3C30.3,77.3,30.3,77.3,30.2,77.3z"/>
					</g>
				</g>
				<g>
					<g>
						<g>
							<path class="st37" d="M31.9,66.8c-0.1-0.4-0.3-0.9-0.5-1.2c0,0-0.1,0-0.1,0c0.1,0.5,0.3,1.1,0.5,1.6c0.1,0.2,0.2,0.6,0.1,0.8
								c-0.1,0.3-0.7,0.2-1,0.2c-0.1,0-0.1,0.1,0,0.1c0.5,0,1.2,0.1,1.2-0.5C32.1,67.5,32,67.2,31.9,66.8z"/>
						</g>
					</g>
					<g>
						<g>
							<path class="st40" d="M32.2,69.3c0-0.1-0.1-0.1-0.2-0.1c-0.1,0-0.2,0.1-0.2,0.1c-0.3,0.2-0.7,0.2-1.1,0.2
								c-0.2,0-0.4-0.1-0.6-0.1c-0.1,0-0.2-0.1-0.3-0.1c-0.2-0.1-0.3,0.1-0.3,0.3c0,0.3,0.1,0.6,0.3,0.8c0.3,0.2,0.7,0.3,1,0.2
								C31.7,70.6,32.2,70.2,32.2,69.3z"/>
						</g>
					</g>
					<g>
						<g>
							<path class="st35" d="M29.3,64.1c-0.3-0.2-0.7-0.2-1-0.2c-0.4,0-0.7,0.1-1,0.3c-0.3,0.2-0.2,0.6,0.2,0.6
								c0.3-0.1,0.6-0.1,0.9-0.1s0.6,0.1,0.9,0C29.6,64.6,29.5,64.3,29.3,64.1z"/>
						</g>
					</g>
					<g>
						<g>
							<path class="st35" d="M34,64c-0.2-0.2-0.5-0.3-0.8-0.3c-0.3,0-0.7,0-0.9,0.2c-0.3,0.2-0.2,0.8,0.2,0.7c0.2,0,0.5-0.1,0.7-0.2
								c0.2,0,0.5,0,0.7-0.1C34,64.3,34.1,64.1,34,64z"/>
						</g>
					</g>
					<g>
						<g>
							<path class="st37" d="M31,67.9c-0.1,0-0.1,0-0.2-0.1c-0.1,0-0.1-0.1-0.2-0.1c0,0-0.1,0.1,0,0.1c0,0.1,0.1,0.1,0.2,0.2
								c0.1,0,0.2,0.1,0.3,0.1C31.1,68.1,31.1,67.9,31,67.9z"/>
						</g>
					</g>
					<g>
						<g>
							<path class="st41" d="M33.1,65.6c0-0.1-0.1-0.3-0.3-0.3s-0.3,0.1-0.3,0.3c0,0.1,0,0.3,0.1,0.4c0.1,0.1,0.2,0.1,0.3,0
								C33.1,65.9,33.1,65.7,33.1,65.6z"/>
						</g>
					</g>
					<g>
						<g>
							<path class="st41" d="M28.7,65.8c-0.1-0.3-0.5-0.3-0.5,0c0,0.1,0,0.3,0,0.4c0.1,0.2,0.3,0.2,0.5,0
								C28.7,66.1,28.7,65.9,28.7,65.8z"/>
						</g>
					</g>
					<g>
						<g>
							<path class="st37" d="M35.1,67.1C35,67.1,35,67,35.1,67.1L35,65.5c0,0,0-0.1,0.1-0.1s0.1,0,0.1,0.1L35.1,67.1
								C35.2,67,35.1,67.1,35.1,67.1z"/>
						</g>
					</g>
				</g>
			</g>
		</g>
	</g>
	<g>
		<g>
			<path class="st42" d="M65.7,14c-5.8,0-10.9,2.5-14.5,6.5H38.4l8.5,8.2c-0.4,1.5-0.5,3-0.5,4.6c0,10.6,8.6,19.3,19.3,19.3
				c10.6,0,19.3-8.6,19.3-19.3C84.9,22.6,76.3,14,65.7,14z"/>
		</g>
		<g>
			<g>
				<g>
					<path class="st40" d="M75.6,49.8c-1.5,0.9-3.2,1.6-4.9,2.1l-2.5,0.5c-1.6,0.1-3.3,0.1-4.9,0c-0.1,0-0.1,0-0.2,0
						c-2-0.3-3.9-0.8-5.6-1.6c0,0,0,0,0-0.1c-0.2-0.5-0.4-0.9-0.5-1.4c-0.7-0.2-1.7-0.7-2.2-1.2c-0.1-0.1-0.3-0.3-0.4-0.5
						c0-0.1,0-0.1,0-0.2l0,0c0-0.2,0.1-0.3,0.1-0.5c0.2-0.4,0.4-0.9,0.5-1.3c0.1-0.3,0.1-0.6,0.1-0.9c0-0.2,0-0.3-0.1-0.4
						c0,0,0,0,0,0c0,0,0-0.1,0-0.1l0,0c-0.1-0.2-0.1-0.3-0.2-0.5c-0.4-1.1-0.8-2.2-1.2-3.2c-0.3-0.7-0.6-1.2-0.7-1.8
						c0-0.1,0-0.3-0.1-0.4c-0.2-2-0.4-4.2,0.3-6.2c0.4-1.1,1.2-1.5,2.1-2.1c0.6-0.4,1.2-0.8,1.8-1.1c0.1,0,0.1-0.1,0.2-0.1
						c0.9-0.3,1.8-0.2,2.7-0.4c0.8-0.1,1.6-0.3,2.3-0.4c0.6-0.1,1.1-0.2,1.7-0.2l0,0c0.3,0,0.6-0.1,0.9-0.1c1.3-0.1,3-0.4,4.3,0.1
						c0.1,0,0.1,0,0.2,0.1c0.1,0,0.2,0.1,0.3,0.1c0.3,0.2,0.6,0.4,0.9,0.7c0.6,0.6,1,1.4,1.2,2.1l0,0c0,0,0,0.1,0,0.1
						c0.7,2.2,0.8,4.6,1.2,7c0.2,1.3,0.8,2.4,1.3,3.6c0.1,0.2,0.1,0.4,0.2,0.6c0.1,0.3,0.2,0.5,0.2,0.8c0.1,0.4,0.2,0.8,0.3,1.2
						c0,0,0,0.1,0,0.1l0,0c0.3,1.5,0.3,3.1,0.5,4.7C75.5,49.2,75.5,49.5,75.6,49.8z"/>
				</g>
			</g>
			<g>
				<g>
					<path class="st34" d="M64.1,27.5C64,28.4,63.7,29.3,63,30c-0.4,0.4-0.8,0.6-1.1,1.1c-0.4,0.6-0.3,1.3-0.3,2
						c0,0.3,0,0.7,0.2,0.9c0.2,0.2,0.4,0.4,0.6,0.5c0.8,0.4,1.8,0.4,2.7,0.4c1.4,0,2.8-0.1,4.2-0.5c0.3-0.1,0.5-0.2,0.7-0.4
						c0.2-0.2,0.3-0.5,0.4-0.8c0.2-0.7,0.2-1.4-0.1-2.1c-0.3-0.8-0.9-1.5-1-2.4c-0.1-1.3,1-2.4,0.9-3.7c0-0.2,0-0.3-0.1-0.5
						c-0.1-0.2-0.4-0.3-0.6-0.3c-1-0.2-2.1-0.1-3.1,0.1c-0.5,0.1-2.4,0.2-2.6,0.6c-0.1,0.2,0.2,1,0.2,1.3
						C64.1,26.6,64.1,27.1,64.1,27.5z"/>
				</g>
			</g>
			<g>
				<g>
					<path class="st34" d="M60.9,18.4c0.1,1.2,0.4,2.3,0.8,3.5c0.3,0.9,0.6,1.8,1.2,2.5c0.7,1,1.9,1.5,2.9,2.1
						c0.7,0.4,1.5,0.8,2.4,0.7c0.9-0.1,1.8-0.7,2.3-1.5c0.5-0.8,0.8-1.7,1.1-2.6c0.3-1.1,0.6-2.3,0.7-3.4c0.1-1.1,0.1-2.4-0.7-3.2
						c-0.3-0.3-0.7-0.6-1.1-0.8c-1.1-0.7-2.2-1.2-3.4-1.7c-1.1-0.5-2.5-1.1-3.7-1.2c-1-0.1-1.6,1.3-1.9,2.1
						C61,16,60.8,17.2,60.9,18.4z"/>
				</g>
			</g>
			<g>
				<g>
					<path class="st43" d="M62.2,16.2c-0.7,1.3-0.8,2.9-0.5,4.3c0.3,1.5,0.9,2.8,1.7,4.1c0.2,0.3,0.4,0.7,0.6,1
						c0.1,0.3,0.2,0.7,0.2,1.1c0,1.6-0.5,3.1-1.6,4.3s-2.5,1.9-4,2.1c-0.6,0.1-1.3,0-1.7-0.5c-0.2-0.3-0.2-0.6-0.2-1
						c0-1.1,0.3-2.1,0.5-3.2c0.9-4.7-0.3-9.8,1.2-14.4c0.3-0.9,0.6-2.1,1.5-2.4c1.1-0.4,1.8-0.5,2.6,0.2
						C63.9,13,62.9,14.9,62.2,16.2z"/>
				</g>
			</g>
			<g>
				<g>
					<path class="st43" d="M63.4,14.6c-0.9-0.7-2.1-2.5-1.3-3.2c0.5-0.6,1.4-0.8,2.1-0.9c1.2-0.1,2.5-0.1,3.7,0.3
						c1.7,0.5,3.1,1.9,4.1,3.4c1,1.5,1.5,3.2,2.1,5c0.2,0.7,0.4,1.4,0.8,2c0.2,0.3,1.6,1.7,0.4,1.7c-0.3,0-0.6-0.3-0.9-0.5
						c-0.3-0.2-0.7-0.4-1-0.6c-0.6-0.4-1.2-0.9-1.5-1.6c-0.6-1-0.6-2.4-1.6-3.1c-0.3-0.3-0.8-0.4-1.2-0.5c-1.5-0.5-3-0.9-4.5-1.4
						C64.3,15,63.8,14.9,63.4,14.6z"/>
				</g>
			</g>
			<g>
				<g>
					<path class="st40" d="M73.6,42.8c0.1,0.2,0.3,0.4,0.4,0.5c0.2,0.2,0.4,0.4,0.6,0.5c0.3,0.3,0.7,0.5,1.1,0.6
						c0.5,0.2,0.9,0.4,1.4,0.6c0.4,0.1,1,0.4,1.4,0.1c0.5-0.5,0.8-1.2,1-1.9c0.8-2.3,1-5.1,1.1-7.6c0.1-2.6-0.3-4.9-1.4-7.2
						c-0.5-1-1.1-2.4-2.4-2.6c-1.1-0.2-2,0.3-2.4,1.4c-0.2,0.5-0.3,1-0.5,1.5c-0.3,0.7-0.4,1.4-0.3,2.2c0.1,0.5,0.3,1.1,0.6,1.6
						c0.2,0.2,0.3,0.4,0.5,0.6c0.7,0.7,0.8,1.6,1.3,2.5c0.3,0.5,0.6,1,0.8,1.5c0.2,0.6,0.3,1.2,0.2,1.8c-0.2,1.1-0.7,2.6-1.8,3.1
						c-0.4,0.2-1-0.1-1.4,0.2C73.5,42.4,73.5,42.6,73.6,42.8z"/>
				</g>
			</g>
			<g>
				<g>
					<path class="st43" d="M74.8,22c0.1,0.2,0.2,0.3,0.4,0.5c0.3,0.5,0.8,0.9,1.3,1.2c0.5,0.2,1.1,0.3,1.5,0.7
						c0.5,0.4,0.6,1.1,0.6,1.7c0,0.6-0.2,1.2-0.4,1.9c-0.3,1.3-0.2,2.7,0.3,3.9c0.4,1.1,1,2.2,0.5,3.3c-0.1,0.2-0.3,0.5-0.5,0.6
						c-0.3,0.2-0.8,0.1-1.1-0.2c-0.3-0.2-0.5-0.5-0.8-0.8c-0.5-0.7-0.9-1.5-1.6-2.1c-0.6-0.6-1.3-1-2.1-1.4
						c-0.6-0.3-1.3-0.4-1.9-0.7c-0.6-0.3-1.2-0.7-1.5-1.3c-0.6-1-0.3-2.3,0.1-3.4c0.4-1.3,0.8-2.6,1.2-3.8c0.2-0.5,0.3-1,0.5-1.5
						c0.1-0.3,0.1-0.5,0.2-0.8c0-0.3,0-0.5,0-0.8c0-0.1,0-0.2,0.1-0.3c0,0,0-0.1,0.1-0.1s0.1,0,0.1,0c0.2,0.1,0.3,0.2,0.4,0.3
						c0.1,0.1,0.1,0.3,0.2,0.4c0,0.1,0.1,0.1,0.2,0.2c0.2,0.2,0.4,0.3,0.6,0.5c0.4,0.4,0.8,0.8,1.1,1.2C74.4,21.5,74.6,21.8,74.8,22
						z"/>
				</g>
			</g>
			<g>
				<g>
					<g>
						<path class="st34" d="M71.8,22.1c0.3,0.5,0.1,1.5-0.1,2c-0.2,0.6-0.8,0.8-1.1,1.4c-0.8,1.3,0.1,3.3,0.1,4.7
							c0,1.1,0.1,2.3,0.3,3.4c0.3,1.7,0.5,3.5,1.2,5.2c0.4,1.1,0.6,3.4,1.8,4.1c1.3,0.7,2.7-0.8,3.2-1.8c0.3-0.6,0.5-1.4,0.5-2.1
							c0-1.6-1.1-2.2-1.8-3.4c-0.4-0.6-0.6-1.4-1-2c-0.4-0.7-0.9-1.3-1.2-2.1c-0.5-1.2-0.8-2.5-0.7-3.8c0.1-1.2,1.1-1.9,1.4-3.1
							c0.2-0.6,0-1.1-0.1-1.8c0-0.2,0-0.4-0.1-0.6c-0.2-0.9-0.5-1.8-1.3-2.4c-0.3-0.2-0.7-0.4-1.1-0.6c-0.2-0.1-0.7-0.7-1-0.6
							c-0.3,0.2,0.4,0.7,0.4,0.7c-0.2,0.2-2.2-0.3-1.5,0.5c0.3,0.4,1.7,0.2,1.7,0.9c0,0.2-1.4,0.4-1.6,0.4c-0.2,0.1-0.2,0.4,0,0.5
							c0.2,0.2,0.3,0,0.6,0C71,21.6,71.6,21.6,71.8,22.1z"/>
					</g>
				</g>
				<g>
					<g>
						<path class="st36" d="M71.6,20.7C71.6,20.7,71.6,20.6,71.6,20.7C71.6,20.6,71.6,20.6,71.6,20.7c0-0.1,0-0.1-0.1-0.1
							c0,0,0,0,0,0c0,0,0,0,0-0.1c0,0,0,0-0.1,0c0,0,0,0-0.1,0c0,0,0,0,0,0c0,0,0,0,0,0l0,0c0,0,0,0,0,0c0,0,0,0-0.1,0
							c0,0,0,0-0.1,0c0,0,0,0-0.1,0c0,0-0.1,0-0.1,0c0,0,0,0,0,0c0,0,0,0-0.1,0h0c-0.1,0-0.2,0-0.3-0.1c0,0,0,0-0.1,0c0,0,0,0,0,0
							l0,0c0,0.1,0,0.1,0,0.2c0,0.1,0,0.3,0.1,0.4c0,0.1,0,0.2,0,0.3c0,0,0,0.1,0,0.1c0,0,0.1,0,0.1,0c0,0,0,0,0,0c0,0,0.1,0,0.1,0
							c0,0,0,0,0,0c0.1,0,0.2,0,0.2-0.1l0,0c0,0,0,0,0,0c0,0,0.1,0,0.1,0c0,0,0.1,0,0.1,0c0,0,0,0,0,0c0,0,0.1,0,0.1-0.1
							c0,0,0,0,0,0l0,0l0,0C71.6,20.8,71.6,20.7,71.6,20.7z M72,23.1C72,23.1,72,23.1,72,23.1L72,23.1c0-0.3,0-0.6-0.1-0.8l0,0v0
							c0,0,0,0,0,0c0-0.1,0-0.1-0.1-0.2c0,0,0,0,0,0c0,0,0-0.1-0.1-0.1c0,0,0,0,0,0s0,0,0,0c-0.1-0.1-0.1-0.1-0.2-0.1
							c0,0-0.1,0-0.1,0c0,0-0.1,0-0.1,0c0,0-0.1,0-0.1,0c-0.1,0-0.1,0-0.2,0c0,0,0,0-0.1,0c0,0-0.1,0-0.1,0c0,0-0.1,0-0.1,0
							c0,0.1,0,0.3,0,0.4c0,0.1,0,0.1,0,0.2l0,0c0.1,0.6,0,1.3,0,1.9c0,0.2-0.1,0.6,0.1,0.8c0,0,0,0,0,0c0,0,0,0,0,0
							c0.2,0.1,0.6,0,0.8-0.1c0.2-0.1,0.3-0.3,0.3-0.5C72.1,24,72,23.5,72,23.1z"/>
					</g>
				</g>
			</g>
			<g>
				<g>
					<path class="st29" d="M70.7,50.3c0,0.5,0,1,0,1.6l-2.5,0.5c-0.8,0.1-1.7,0.2-2.5,0.2c-0.8,0-1.6-0.1-2.4-0.1c0,0,0,0,0,0
						c-0.1-0.6-0.1-1.3-0.1-1.9c0-0.7,0-1.4,0-2.1c0-1.1,0-2.1,0-3.2c0-2.1-0.1-4.2-0.4-6.3c-0.3-1.8-1-3.6-1.2-5.3l0,0
						c0.2,0.2,0.2,0.2,0.4,0.3c0,0,0.3,0.1,0.3,0.1c0.1,0,0.4,0.1,0.7,0.2c1.1,0.2,2.2,0.2,3.3,0.2c0.8,0,1.6-0.2,2.4-0.3
						c0.5-0.1,1.1-0.4,1.5-0.7l0,0c-0.3,2.2-0.5,5.3-0.6,7.5c-0.1,1.3,0.2,2.4,0.3,3.7c0.1,1.2,0.3,2.3,0.4,3.5
						c0,0.3,0.1,0.5,0.1,0.8C70.7,49.3,70.8,49.8,70.7,50.3z"/>
				</g>
			</g>
			<g>
				<g>
					<path class="st34" d="M58.4,47.3c-0.2,0.9-0.8,1-1.5,1.1c-0.9,0.1-1.5,0-2.2-0.6c-0.6-0.5-0.9-1.2-1.1-2
						c-0.1-0.5-0.2-0.9-0.4-1.4c-0.1-0.4-0.3-0.9-0.6-1.3c-0.4-0.6-0.7-0.5-1.3-0.3c0,0,0,0,0,0c-0.6,0.3-1.2,0.6-1.9,0.8
						c-0.3,0.1-0.6,0.2-0.9,0.3c0,0-0.1,0-0.1,0.1c-0.1,0-0.2,0.1-0.3,0.1c-0.1,0-0.2,0-0.3-0.1c-0.1-0.1-0.1-0.2,0-0.3
						c0,0,0.1,0,0.2-0.1c0,0,0.1-0.1,0.1-0.1c-0.1,0-0.2,0-0.3,0.1c-0.1,0-0.2,0-0.3,0.1c-0.1,0-0.3,0.1-0.4,0.1c-0.1,0-0.3,0-0.4,0
						c-0.3,0-0.6-0.2-0.8-0.3c-0.1-0.1-0.5-0.3-0.4-0.5c0.1-0.1,0.3-0.2,0.4-0.2c0.1,0,0.2,0,0.3,0c0.1,0,0.2,0,0.2,0
						c0,0,0.1,0,0.1-0.1c0.1,0,0.2-0.1,0.3-0.1c0,0,0.1-0.1,0.2-0.1c0.1-0.1-0.2,0-0.3,0c-0.2,0-0.3,0.1-0.5,0.1
						c-0.3,0.1-0.7,0.2-1,0c-0.3-0.1-0.2-0.4,0-0.6c0.2-0.2,0.6-0.2,0.9-0.2c0.4-0.1,1.2,0,1.6-0.3c0.3-0.3,0.2-0.4-0.1-0.5
						c-0.4-0.1-2.7,0.4-2.4-0.8c0.1-0.5,0.5-0.5,0.9-0.5c0.5,0,0.8,0.1,1.2,0c0.7-0.2,1.4-0.7,2-1c0.7-0.3,1.4-0.5,2.2-0.3
						c0.7,0.2,1.7,0.2,2.3,0.7c0.5,0.3,0.5,1,0.8,1.4c0.3,0.5,0.7,1.1,1,1.6c0.5,0.6,0.9,1.2,1.4,1.7c0.5,0.4,0.9,0.7,1.1,1.4
						C58.3,45.8,58.5,46.7,58.4,47.3z"/>
				</g>
			</g>
			<g>
				<g>
					<g>
						<path class="st37" d="M67.9,31.8C67.8,31.8,67.8,31.8,67.9,31.8c-0.1-0.1-0.1-0.2-0.1-0.2c0,0,0.8-0.6,2.2-0.9
							c0.1,0,0.1,0,0.1,0.1c0,0.1,0,0.1-0.1,0.1C68.7,31.2,67.9,31.8,67.9,31.8C67.9,31.8,67.9,31.8,67.9,31.8z"/>
					</g>
				</g>
				<g>
					<g>
						<path class="st37" d="M64.9,32C64.9,32,64.9,32,64.9,32c-0.8-0.4-1.6-0.6-2.3-0.7c-0.1,0-0.1-0.1-0.1-0.1
							c0-0.1,0.1-0.1,0.1-0.1c0.8,0.1,1.5,0.3,2.3,0.7C65,31.8,65.1,31.9,64.9,32C65,32,65,32,64.9,32z"/>
					</g>
				</g>
				<g>
					<g>
						<path class="st37" d="M67.6,27.3c-0.9,0-3.3-1.6-3.4-1.6c0,0-0.1-0.1,0-0.1c0,0,0.1-0.1,0.1,0c0,0,2.5,1.6,3.3,1.6
							c0.9,0,1.4-0.3,1.4-0.3c0.1,0,0.1,0,0.1,0c0,0.1,0,0.1,0,0.1C69.1,27,68.5,27.3,67.6,27.3z"/>
					</g>
				</g>
				<g>
					<g>
						<path class="st37" d="M47.2,42.5C47.2,42.5,47.2,42.5,47.2,42.5c-0.1-0.1-0.1-0.2,0-0.2c0,0,1-0.3,1.3-0.7c0,0,0.1,0,0.2,0
							c0,0,0,0.1,0,0.2C48.3,42.2,47.3,42.5,47.2,42.5C47.3,42.5,47.3,42.5,47.2,42.5z"/>
					</g>
				</g>
				<g>
					<g>
						<path class="st37" d="M46.5,43.5c0,0-0.1,0-0.1-0.1c0-0.1,0-0.1,0.1-0.1c0,0,1.9-0.4,2.4-1.1c0,0,0.1-0.1,0.2,0
							c0,0,0.1,0.1,0,0.2C48.5,43.1,46.6,43.5,46.5,43.5C46.6,43.5,46.6,43.5,46.5,43.5z"/>
					</g>
				</g>
				<g>
					<g>
						<path class="st37" d="M48.5,43.5C48.5,43.5,48.5,43.5,48.5,43.5c-0.1-0.1-0.1-0.2,0-0.2c0,0,1.4-0.5,2-1.3c0,0,0.1-0.1,0.2,0
							c0,0,0.1,0.1,0,0.2C50,43,48.6,43.5,48.5,43.5C48.6,43.5,48.6,43.5,48.5,43.5z"/>
					</g>
				</g>
				<g>
					<g>
						<path d="M58.4,44.2c0,0-0.1,0-0.1-0.1c-1.2-5.3-0.6-8.6-0.6-8.7c0-0.1,0.1-0.1,0.1-0.1c0.1,0,0.1,0.1,0.1,0.1
							c0,0-0.6,3.4,0.6,8.6C58.6,44.1,58.5,44.2,58.4,44.2C58.5,44.2,58.5,44.2,58.4,44.2z"/>
					</g>
				</g>
				<g>
					<g>
						<path d="M75.3,44.5C75.3,44.5,75.3,44.5,75.3,44.5c-0.8-0.5-1.1-1.2-1.2-1.2c0-0.1,0-0.1,0.1-0.1c0.1,0,0.1,0,0.1,0.1
							c0,0,0.3,0.6,1,1.1C75.4,44.3,75.4,44.4,75.3,44.5C75.4,44.5,75.4,44.5,75.3,44.5z"/>
					</g>
				</g>
				<g>
					<g>
						<path d="M76.1,35.7C76.1,35.7,76,35.7,76.1,35.7C75.7,35,75.7,34,75.7,34c0-0.1,0-0.1,0.1-0.1c0.1,0,0.1,0,0.1,0.1
							c0,0,0,0.9,0.3,1.6C76.3,35.6,76.2,35.7,76.1,35.7C76.2,35.7,76.1,35.7,76.1,35.7z"/>
					</g>
				</g>
				<g>
					<g>
						<path class="st44" d="M70,15.9C70,15.9,70,15.9,70,15.9c-5.1-0.9-6.6-2.9-6.7-3c0,0,0-0.1,0-0.1c0,0,0.1,0,0.2,0
							c0,0,1.6,2.1,6.5,3c0.1,0,0.1,0.1,0.1,0.1C70.1,15.9,70.1,15.9,70,15.9z"/>
					</g>
				</g>
				<g>
					<g>
						<path class="st44" d="M70.8,15.3C70.8,15.3,70.8,15.3,70.8,15.3c-2.7-0.3-4.7-2-4.7-2c0,0-0.1-0.1,0-0.2c0,0,0.1-0.1,0.2,0
							c0,0,2,1.6,4.6,1.9c0.1,0,0.1,0.1,0.1,0.1C70.9,15.3,70.8,15.3,70.8,15.3z"/>
					</g>
				</g>
				<g>
					<g>
						<path class="st44" d="M58.4,19.2L58.4,19.2c-0.1,0-0.1,0-0.1-0.1c0-5.4,2.7-6.4,2.8-6.4c0.1,0,0.1,0,0.1,0.1
							c0,0.1,0,0.1-0.1,0.1C61.2,12.9,58.6,13.9,58.4,19.2C58.5,19.2,58.5,19.2,58.4,19.2z"/>
					</g>
				</g>
				<g>
					<g>
						<path class="st44" d="M58.9,24.1c-0.1,0-0.1,0-0.1-0.1c-0.1-4.1,0.7-6.4,0.7-6.4c0-0.1,0.1-0.1,0.1-0.1c0.1,0,0.1,0.1,0.1,0.1
							c0,0-0.8,2.3-0.7,6.4C59,24,58.9,24.1,58.9,24.1L58.9,24.1z"/>
					</g>
				</g>
				<g>
					<g>
						<path class="st44" d="M59.2,32C59.2,32,59.1,32,59.2,32c-0.1-0.1-0.1-0.2,0-0.2c4.2-1.6,3-5.5,2.9-5.7c0-0.1,0-0.1,0.1-0.1
							c0.1,0,0.1,0,0.1,0.1C62.3,26.1,63.6,30.3,59.2,32C59.2,32,59.2,32,59.2,32z"/>
					</g>
				</g>
				<g>
					<g>
						<path class="st44" d="M57.8,31.8c0,0-0.1,0-0.1-0.1c0-0.1,0-0.1,0.1-0.1c1.9-0.5,3-2.1,3-2.2c0-0.1,0.1-0.1,0.1,0
							c0.1,0,0.1,0.1,0,0.1C60.9,29.6,59.8,31.3,57.8,31.8C57.8,31.8,57.8,31.8,57.8,31.8z"/>
					</g>
				</g>
				<g>
					<g>
						<path class="st44" d="M58.6,30.7c-0.1,0-0.1,0-0.1-0.1c0-0.1,0-0.1,0.1-0.1c0,0,0.6-0.1,1.1-0.6c0,0,0.1,0,0.2,0
							c0,0,0,0.1,0,0.2C59.3,30.6,58.7,30.7,58.6,30.7C58.6,30.7,58.6,30.7,58.6,30.7z"/>
					</g>
				</g>
				<g>
					<g>
						<path class="st44" d="M76.9,27.9C76.9,27.9,76.9,27.9,76.9,27.9c-0.1-0.1-0.1-0.1-0.1-0.2c0.6-0.9,0.8-1.5,0.5-2.1
							c-0.4-0.9-2-1-2.1-1c-0.1,0-0.1-0.1-0.1-0.1c0-0.1,0.1-0.1,0.1-0.1c0.1,0,1.8,0.1,2.2,1.1C77.9,26.2,77.7,27,76.9,27.9
							C77,27.9,77,27.9,76.9,27.9z"/>
					</g>
				</g>
				<g>
					<g>
						<path class="st44" d="M75.3,32.4C75.3,32.4,75.3,32.4,75.3,32.4c-1.8-1.8-1.7-4.2-1.7-4.3c0-0.1,0-0.1,0.1-0.1
							c0.1,0,0.1,0.1,0.1,0.1c0,0-0.1,2.4,1.6,4.1C75.4,32.2,75.4,32.3,75.3,32.4C75.4,32.4,75.3,32.4,75.3,32.4z"/>
					</g>
				</g>
				<g>
					<g>
						<path class="st44" d="M77.3,34.7C77.3,34.7,77.3,34.7,77.3,34.7c-0.9-2.4-2.1-3.4-2.1-3.4c0,0-0.1-0.1,0-0.2
							c0,0,0.1-0.1,0.2,0c0,0,1.2,1,2,3.4C77.5,34.6,77.4,34.7,77.3,34.7C77.4,34.7,77.4,34.7,77.3,34.7z"/>
					</g>
				</g>
				<g>
					<g>
						<path class="st44" d="M68.4,11.7C68.4,11.7,68.4,11.7,68.4,11.7c-2.7-1.2-4.3-0.2-4.3-0.2c-0.1,0-0.1,0-0.1,0
							c0-0.1,0-0.1,0-0.1c0.1,0,1.7-1,4.4,0.2C68.5,11.5,68.6,11.6,68.4,11.7C68.5,11.7,68.5,11.7,68.4,11.7z"/>
					</g>
				</g>
				<g>
					<g>
						<path class="st37" d="M72.6,23.5C72.6,23.5,72.6,23.5,72.6,23.5c-0.1,0-0.1-0.1-0.1-0.1c0.6-1.5-0.6-2.2-0.7-2.2
							c-0.1,0-0.1-0.1,0-0.1s0.1-0.1,0.1,0C72,20.9,73.4,21.7,72.6,23.5C72.7,23.4,72.7,23.5,72.6,23.5z"/>
					</g>
				</g>
				<g>
					<g>
						<path class="st37" d="M73.6,22.8L73.6,22.8c-0.1,0-0.1-0.1-0.1-0.1c0.1-1.9-1.8-3-1.8-3.1c-0.1,0-0.1-0.1,0-0.1
							c0-0.1,0.1-0.1,0.1,0c0,0,2.1,1.2,1.9,3.3C73.7,22.8,73.6,22.8,73.6,22.8z"/>
					</g>
				</g>
				<g>
					<g>
						<path class="st37" d="M71.3,19.4C71.3,19.4,71.3,19.4,71.3,19.4c-0.4-0.2-0.6-0.3-0.6-0.6c0-0.2,0.1-0.3,0.2-0.3
							c0,0,0.1,0,0.2,0c0,0,0,0.1,0,0.1c0,0-0.1,0.1-0.1,0.2c0,0.1,0.1,0.2,0.5,0.4c0.1,0,0.1,0.1,0.1,0.1
							C71.4,19.4,71.4,19.4,71.3,19.4z"/>
					</g>
				</g>
				<g>
					<g>
						<path class="st37" d="M70.4,20.2C70.4,20.2,70.4,20.2,70.4,20.2c-0.3,0-0.6-0.2-0.7-0.3c-0.1-0.2,0-0.4,0-0.5
							c0-0.1,0.1-0.1,0.1-0.1c0.1,0,0.1,0.1,0.1,0.1c0,0-0.1,0.1,0,0.3c0.1,0.1,0.2,0.2,0.5,0.2c0.1,0,0.1,0.1,0.1,0.1
							C70.5,20.2,70.4,20.2,70.4,20.2z"/>
					</g>
				</g>
				<g>
					<g>
						<path class="st37" d="M70.2,22c-0.1,0-0.1,0-0.2,0c-0.2-0.1-0.2-0.3-0.2-0.3c0-0.1,0-0.1,0.1-0.1c0.1,0,0.1,0,0.1,0.1
							c0,0,0,0.1,0.1,0.2c0.1,0,0.2,0,0.4-0.1c0.1,0,0.1,0,0.1,0c0,0.1,0,0.1,0,0.1C70.5,21.9,70.3,22,70.2,22z"/>
					</g>
				</g>
				<g>
					<g>
						<path d="M78.8,41.6C78.8,41.6,78.8,41.6,78.8,41.6c-0.1,0-0.1-0.1-0.1-0.1c0.1-1.4-0.3-2.2-0.8-2.9c0,0,0-0.1,0-0.1
							c0,0,0.1,0,0.1,0C78.5,39.1,79.1,40.1,78.8,41.6C78.9,41.5,78.9,41.6,78.8,41.6z"/>
					</g>
				</g>
				<g>
					<g>
						<path d="M58.1,49.6c-0.4,0-0.7-0.1-0.7-0.1c-0.1,0-0.1-0.1-0.1-0.1c0-0.1,0.1-0.1,0.1-0.1c0,0,0.4,0.2,0.9,0.1
							c0.4,0,0.9-0.9,1.1-1.2c0-0.1,0.1-0.1,0.1,0c0.1,0,0.1,0.1,0,0.1c-0.1,0.1-0.7,1.3-1.2,1.3C58.2,49.6,58.2,49.6,58.1,49.6z"/>
					</g>
				</g>
				<g class="st45">
					<g>
						<path class="st46" d="M53.2,44.4c-0.2-0.4-0.3-0.9-0.6-1.3c-0.1-0.2-0.3-0.4-0.5-0.5c-0.3-0.1-0.5,0.1-0.7,0.2
							c0-0.1,0.3-0.2,0.4-0.3c0.2-0.1,0.3-0.3,0.5-0.4c0.1-0.1,0.5-0.7,0.6-0.2c0,0.1,0,0.2,0,0.4c0,0.4,0.1,0.8,0.2,1.2
							c0,0.1,0,0.3,0.1,0.5C53.2,44.1,53.1,44.3,53.2,44.4z"/>
					</g>
				</g>
			</g>
			<g>
				<g>
					<g>
						<path class="st43" d="M69.6,17.7c-0.4-0.4-1.2-0.3-1.7-0.2c-0.5,0.1-1,0.4-1.1,0.9c0,0.2,0.2,0.3,0.3,0.2
							c0.3-0.2,0.6-0.4,1-0.5c0.4-0.1,0.8,0,1.3,0C69.6,18.2,69.7,17.9,69.6,17.7z"/>
					</g>
				</g>
				<g>
					<g>
						<path class="st47" d="M68.6,19.3c0-0.1-0.2-0.2-0.3-0.2c-0.2,0-0.2,0.2-0.3,0.3c0,0.2,0.1,0.4,0.2,0.5c0.2,0.1,0.3,0,0.4-0.2
							C68.7,19.6,68.6,19.4,68.6,19.3z"/>
					</g>
				</g>
				<g>
					<g>
						<path class="st47" d="M64.3,20c-0.6-0.1-0.2,1.1,0.3,0.7C64.8,20.5,64.6,20,64.3,20z"/>
					</g>
				</g>
				<g>
					<g>
						<path class="st48" d="M66.6,22.5c-0.1,0-0.2-0.1-0.3-0.1c-0.1,0-0.1,0.1,0,0.1c0.1,0,0.2,0.1,0.3,0.1
							C66.7,22.7,66.7,22.6,66.6,22.5z"/>
					</g>
					<g>
						<path class="st48" d="M66.6,22.7C66.6,22.7,66.6,22.7,66.6,22.7c-0.1,0-0.2,0-0.3-0.1l0,0c-0.1,0-0.1-0.1-0.1-0.2
							c0-0.1,0.1-0.1,0.1-0.1c0.1,0,0.2,0,0.3,0.1l0,0c0.1,0,0.1,0.1,0.1,0.1C66.7,22.7,66.7,22.7,66.6,22.7z M66.3,22.5
							C66.3,22.5,66.3,22.5,66.3,22.5C66.3,22.5,66.3,22.6,66.3,22.5L66.3,22.5c0.1,0.1,0.2,0.1,0.3,0.1c0,0,0,0,0,0l0,0
							C66.5,22.6,66.4,22.5,66.3,22.5C66.3,22.5,66.3,22.5,66.3,22.5z"/>
					</g>
				</g>
				<g>
					<g>
						<path class="st48" d="M67.5,22.2c-0.1,0-0.1,0.1-0.2,0.2c-0.1,0.1,0,0.2,0.1,0.1c0.1-0.1,0.1-0.1,0.2-0.2
							C67.7,22.2,67.6,22.1,67.5,22.2z"/>
					</g>
					<g>
						<path class="st48" d="M67.3,22.5c0,0-0.1,0-0.1-0.1c0-0.1,0-0.1,0-0.2c0.1-0.1,0.1-0.1,0.2-0.2c0.1,0,0.1,0,0.2,0
							c0,0.1,0,0.1,0,0.2C67.6,22.4,67.5,22.5,67.3,22.5C67.4,22.5,67.4,22.5,67.3,22.5z M67.5,22.2C67.5,22.2,67.5,22.2,67.5,22.2
							L67.5,22.2c-0.1,0.1-0.2,0.1-0.2,0.2c0,0,0,0,0,0c0,0,0,0,0,0C67.4,22.4,67.5,22.3,67.5,22.2C67.6,22.3,67.6,22.2,67.5,22.2
							C67.6,22.2,67.6,22.2,67.5,22.2z"/>
					</g>
				</g>
				<g>
					<g>
						<path class="st43" d="M64.7,18.6c-0.4-0.2-0.9-0.2-1.4,0c-0.5,0.2-0.8,0.6-0.9,1c0,0.1,0,0.3,0.1,0.3c0.1,0,0.1,0.1,0.2,0.1
							c0.1,0,0.2,0,0.2-0.1c0.1-0.1,0.1-0.1,0.2-0.2c0.2-0.2,0.4-0.3,0.6-0.4c0.2-0.1,0.4-0.1,0.7-0.1c0.1,0,0.2,0,0.3,0
							c0.2,0,0.3-0.1,0.3-0.3C64.9,18.8,64.8,18.6,64.7,18.6z"/>
					</g>
				</g>
				<g>
					<g>
						<path class="st48" d="M66.3,19.9c0-0.1-0.2,0-0.2,0.1c0.3,0.6,0.5,1.3,0.7,1.9c0,0.1,0.1,0,0.1,0
							C66.8,21.2,66.6,20.5,66.3,19.9z"/>
					</g>
				</g>
				<g>
					<g>
						<path class="st48" d="M68.1,24.1c-0.7,0.4-1.4,0.4-2.2,0.3c-0.1,0-0.1,0.1,0,0.1c0.8,0.2,1.7,0.2,2.4-0.3
							C68.2,24.2,68.2,24.1,68.1,24.1z"/>
					</g>
					<g>
						<path class="st48" d="M66.8,24.7c-0.3,0-0.7-0.1-1-0.1c-0.1,0-0.1-0.1-0.1-0.1c0-0.1,0.1-0.1,0.1-0.1c0.8,0.1,1.5,0.2,2.2-0.3
							l0,0c0.1,0,0.1,0,0.2,0c0,0.1,0,0.1,0,0.2C67.8,24.6,67.3,24.7,66.8,24.7z M65.9,24.4C65.8,24.4,65.8,24.5,65.9,24.4
							C65.8,24.5,65.8,24.5,65.9,24.4c0.7,0.2,1.6,0.3,2.3-0.3c0,0,0,0,0,0c0,0,0,0,0,0C67.4,24.6,66.6,24.6,65.9,24.4L65.9,24.4z"
							/>
					</g>
				</g>
			</g>
		</g>
		<g>
			<g>
				<path class="st49" d="M70.4,30.3c-0.1-0.1-0.2-0.2-0.3-0.3c0,0,0,0,0,0c-0.1,0-0.1,0.1-0.1,0.2c1,3-0.2,5.4-1,8.2
					c-0.1,0.3,0.3,0.5,0.5,0.2C70.7,36.2,71.4,33,70.4,30.3C70.4,30.3,70.4,30.3,70.4,30.3z"/>
			</g>
			<g>
				<path class="st49" d="M66.2,34.3c-0.7-1.4-2.4-1.4-3.7-0.8c-0.3-0.6-0.5-1.2-0.6-1.9c-0.1,0.1-0.2,0.2-0.4,0.3
					c0,0-0.1,0.1-0.1,0.1c0.1,0.6,0.3,1.2,0.6,1.7c-0.1,0.1-0.2,0.1-0.4,0.2c-2.9,1.8,0.3,8.6,3.1,9.1c0.3,0.1,0.4-0.3,0.1-0.4
					c-2.4-0.8-5.3-6.6-2.7-8.2c1.1-0.7,2.7-0.8,3.5,0.4c0.3,0.6,0.4,1.3,0.5,2c0.3,1.6,0.4,3.2,0.4,4.8c0,0.2,0.3,0.2,0.3,0
					C67.1,39.3,67.3,36.3,66.2,34.3z"/>
			</g>
			<g>
				<path class="st50" d="M70.8,38.5c0-0.4-0.2-0.8-0.5-1.1c-0.2-0.1-0.3-0.2-0.5-0.3c-0.1,0-0.1-0.1-0.2-0.1c-0.1,0-0.3,0-0.4,0
					c-0.1,0-0.2,0-0.3,0c0,0,0,0-0.1,0c-0.2,0.1-0.4,0.2-0.6,0.4c-0.5,0.6-0.5,1.6,0.1,2.2c0.6,0.6,1.5,0.4,2-0.1
					C70.6,39.2,70.8,38.9,70.8,38.5z"/>
			</g>
			<g>
				<path class="st51" d="M69.9,38.4c-0.1-0.2-0.2-0.3-0.4-0.4c-0.2-0.1-0.5,0-0.6,0.2c-0.1,0.1-0.2,0.3-0.2,0.4c0,0.1,0,0.1,0,0.2
					c0,0.1,0.1,0.2,0.2,0.3c0,0,0,0.1,0.1,0.1c0.2,0.2,0.5,0.2,0.7,0.1c0.2-0.1,0.3-0.3,0.3-0.5C70,38.5,70,38.4,69.9,38.4z"/>
			</g>
			<g>
				<path class="st51" d="M66.6,41c-0.2-0.2-0.5,0-0.4,0.3c0.1,0.1,0.1,0.3,0.2,0.4c0,0.1,0.1,0.2,0.3,0.2c0,0,0.1,0,0.1,0
					c0.1,0,0.2-0.1,0.2-0.3C66.9,41.4,66.7,41.1,66.6,41z"/>
			</g>
			<g>
				<path class="st51" d="M65.2,42.5c0-0.1,0-0.2,0-0.3c0-0.3-0.4-0.3-0.5-0.1c-0.1,0.2-0.1,0.3,0,0.5c0,0.2,0.1,0.4,0.3,0.4
					c0.2,0.1,0.3-0.1,0.3-0.3C65.3,42.7,65.2,42.6,65.2,42.5z"/>
			</g>
		</g>
	</g>
</g>
<g>
	<g>
		<path class="st7" d="M38.7,154.9c0,0.8-0.7,1.5-1.5,1.5c-0.8,0-1.5-0.7-1.5-1.5c0-0.8,0.7-1.5,1.5-1.5
			C38,153.3,38.7,154,38.7,154.9z"/>
	</g>
	<g>
		<circle class="st7" cx="46.1" cy="154.9" r="1.5"/>
	</g>
	<g>
		<circle class="st7" cx="55" cy="154.9" r="1.5"/>
	</g>
	<g>
		<path class="st52" d="M39.3,154.9c0,1.2-1,2.1-2.1,2.1c-1.2,0-2.1-1-2.1-2.1s1-2.1,2.1-2.1C38.4,152.7,39.3,153.7,39.3,154.9z"/>
	</g>
</g>
<rect x="5.6" y="114.5" class="st53" width="78.2" height="17.8"/>
<text transform="matrix(1 0 0 1 16.3506 120.4385)" class="st54 st55">Easy, online test </text>
<text transform="matrix(1 0 0 1 23.2412 129.9248)" class="st54 st55">consultation</text>
</svg>
