<svg id="Layer_1" data-name="Layer 1" xmlns="http://www.w3.org/2000/svg" xmlns:xlink="http://www.w3.org/1999/xlink" viewBox="0 0 4434 2670"><defs><clipPath id="clip-path"><path d="M1352.64,1050.5c44.09,52.49,67.19,119,56,188.27-4.2,42,32.2,67.18,60.19,99.38,17.5,28,1.4,38.49-19.6,51.09-21,11.9-27.29,13.3-27.29,35.7,0,16.09,22.39,21,11.2,59.49-5.6,18.89-25.2,29.39-25.2,46.89.7,13.3,5.6,25.19,7,36.39,12.6,79.79-133,49-177.07,39.9-19.6,63-46.89,163.77-21.7,222.56-65.09,52.49-191.77-59.49-310.75-61.59,25.2-95.88,14.7-182,0-233.76C871.12,1560,787.83,1211.47,964.9,1050.5c59.49-53.9,289.06-18.9,387.74,0Z" style="fill:#fad6a1;clip-rule:evenodd"/></clipPath><clipPath id="clip-path-2"><path d="M962.1,1776.28c-18.89-4.2-37.79-7.7-56.69-7.7,25.2-95.88,14.7-182,0-233.76-19.6-86.79,24.5-20.3,30.8-3.5,25.89,65.09,32.89,192.47,25.89,245Z" style="fill:#e6c491;clip-rule:evenodd"/></clipPath><clipPath id="clip-path-3"><path d="M2070.72,1367.54c-39.19-39.89-120.38-113.38-167.27-102.18L1739,1303.16c-14,3.49-21.7,16.09-21.7,30.09,0,23.8,36.39,44.79,58.79,42l88.19-11.19,19.59,42-184.07.7v53.19h7.7a4.52,4.52,0,0,1,4.2,4.2c0,2.8-2.1,4.9-4.2,4.9h-7.7v74.89h28c2.8,0,4.9,2.1,4.9,4.2,0,2.8-7,4.89-4.9,4.89h7v74.89h10.5c2.8,0,4.9,2.1,4.9,4.2a4.78,4.78,0,0,1-4.9,4.9h-10.5v74.89h196c121.78,0,128.78-39.19,184.07-39.19h98.68v-266h-84.69c-23.79,0-42.69-23.8-58.09-39.2Z" style="fill:#fad6a1;clip-rule:evenodd"/></clipPath><clipPath id="clip-path-4"><path d="M1888.75,1299.66c-35,37.09-35.69,15.39-25.89,35,25.89,51.79,35,70,51.09,126.68,29.39,101.48,41.29,206.47,41.29,312.15a24.8,24.8,0,0,1-24.49,24.5H1813.86c-13.29,0-23.79-11.2-23.79-24.5,0-90.29-9.8-180.57-35-266.66-28.69-100.08-70.68-199.47-180.57-221.86-9.79-2.1-88.18-4.9-90.28-14.7l-32.9-142.78c-4.2-20.29,11.9-32.89,22.4-32.89h343.64c10.5,0,32.2,13.3,35.7,23.8l51.79,123.18c10.5,23.79,2.1,39.19-16.1,58.09Z" style="fill:#d4e4f7;clip-rule:evenodd"/></clipPath><clipPath id="clip-path-5"><path d="M1813.86,1386.44H1671.09a42.12,42.12,0,0,0-42,42h0a42.12,42.12,0,0,0,42,42h142.77a42.12,42.12,0,0,0,42-42h0a42.12,42.12,0,0,0-42-42Z" style="fill:#e6c491;clip-rule:evenodd"/></clipPath><clipPath id="clip-path-6"><path d="M1847.46,1466.93H1684.39c-21,0-37.8,18.9-37.8,42h0c0,23.1,16.8,42,37.8,42h163.07c20.3,0,37.09-18.9,37.09-42h0c0-23.09-16.79-42-37.09-42Z" style="fill:#e6c491;clip-rule:evenodd"/></clipPath><clipPath id="clip-path-7"><path d="M1818.76,1547.42h-119c-20.29,0-37.09,18.89-37.09,42h0c0,23.1,16.8,42,37.09,42h119c20.3,0,37.1-18.89,37.1-42h0c0-23.1-16.8-42-37.1-42Z" style="fill:#e6c491;clip-rule:evenodd"/></clipPath><clipPath id="clip-path-8"><path d="M1819.46,1627.9h-88.18c-21,0-37.8,18.9-37.8,42h0c0,23.09,16.8,42,37.8,42h88.18c20.3,0,37.1-18.9,37.1-42h0c0-23.1-16.8-42-37.1-42Z" style="fill:#e6c491;clip-rule:evenodd"/></clipPath></defs><path d="M3760.25,765.64H792c-69.29,0-126.68,57.39-126.68,126.68v885.36c0,70,57.39,126.68,126.68,126.68H3760.25c69.29,0,126-56.69,126-126.68V892.32c0-69.29-56.69-126.68-126-126.68Z" style="fill:#26b2fc;fill-rule:evenodd"/><path d="M1136.37,2066c402.44,0,730.69-328.24,730.69-730.68s-328.25-730.68-730.69-730.68S405.69,932.91,405.69,1335.35,733.94,2066,1136.37,2066Z" style="fill:#fff;fill-rule:evenodd"/><path d="M1352.64,1050.5c44.09,52.49,67.19,119,56,188.27-4.2,42,32.2,67.18,60.19,99.38,17.5,28,1.4,38.49-19.6,51.09-21,11.9-27.29,13.3-27.29,35.7,0,16.09,22.39,21,11.2,59.49-5.6,18.89-25.2,29.39-25.2,46.89.7,13.3,5.6,25.19,7,36.39,12.6,79.79-133,49-177.07,39.9-19.6,63-46.89,163.77-21.7,222.56-65.09,52.49-191.77-59.49-310.75-61.59,25.2-95.88,14.7-182,0-233.76C871.12,1560,787.83,1211.47,964.9,1050.5c59.49-53.9,289.06-18.9,387.74,0Z" style="fill:#fad6a1;fill-rule:evenodd"/><g style="clip-path:url(#clip-path)"><path d="M1495.42,1417.24c44.09,88.18-14.7,205.76-95.19,311.45-86.08-9.1-268.75-88.19-333.84-156.08-21.7-22.39-44.1-51.79-63.69-81.88a8.74,8.74,0,0,1,2.1-11.2c4.19-2.1,9.09-1.4,11.89,2.1,37.1,56.69,77,78.38,81.19,78.38,14-.7,9.8-72.08,20.3-130.88,5.6-31.49,28-84.68,31.49-94.48,163.08,46.89,271.56,81.89,345.75,82.59Z" style="fill:#e6c491;fill-rule:evenodd"/></g><path d="M1335.84,1216.37c-16.8,1.4-78.39,16.8-88.18,30.09-7.7,9.8-9.1,26.6-7,35,4.2,15.4,22.39,18.9,42,14.7,24.5-4.9,44.79,2.8,68.59,11.89,29.39,10.5,30.09,20.3,45.49,45.5,7.7,13.29,50.39,5.6,11.9-35-7.7-8.4-16.8-17.49-19.6-23.79-10.49-21.7-3.5-37.1-4.2-53.89-.7-42.7-21.69-26.6-49-24.5Z" style="fill:#e6c491;fill-rule:evenodd"/><path d="M962.1,1776.28c-18.89-4.2-37.79-7.7-56.69-7.7,25.2-95.88,14.7-182,0-233.76-19.6-86.79,24.5-20.3,30.8-3.5,25.89,65.09,32.89,192.47,25.89,245Z" style="fill:#e6c491;fill-rule:evenodd"/><g style="clip-path:url(#clip-path-2)"><path d="M1495.42,1417.24c44.09,88.18-14.7,205.76-95.19,311.45-86.08-9.1-268.75-88.19-333.84-156.08-21.7-22.39-44.1-51.79-63.69-81.88a8.74,8.74,0,0,1,2.1-11.2c4.19-2.1,9.09-1.4,11.89,2.1,37.1,56.69,77,78.38,81.19,78.38,14-.7,9.8-72.08,20.3-130.88,5.6-31.49,28-84.68,31.49-94.48,163.08,46.89,271.56,81.89,345.75,82.59Z" style="fill:#e6c491;fill-rule:evenodd"/></g><path d="M1054.49,1474.63c21.69-84.69-27.3-133.68-31.5-138.58-60.89-67.89-139.28-41.29-142.07-.7-2.8,35,23.09,65.09,55.29,133,4.2,10.5,26.59,38.49,42.69,47.59,25.9,13.3,66.49-15.4,75.59-41.29Z" style="fill:#e6c491;fill-rule:evenodd"/><path d="M1036.29,1314.35C997.1,1299.66,943.21,1483,942.51,1490c-7,39.89-27.3,56.69-29.4,58.09-6.3,2.8-22.4.7-26.6-1.4-13.29-5.6-20.29-26.6-35.69-56-42-77.69-105.68-213.47-105-271.56,2.8-265.26,305.15-386.34,527-308.65,106.39,34.29,216.27,84,101.49,169.37-53.2-14-123.18-39.89-178.48-18.9-42.69,16.1-44.09,59.49-38.49,126.68,2.1,28.7-49.69,35.7-39.19,66.49,14,42.7,18.89,49,3.5,63.69-39.2,37.8-68.59,2.1-85.39-3.5Z" style="fill:#15283b;fill-rule:evenodd"/><path d="M1134.27,1330.45c-14.69-2.1-30.09-4.2-50.39-7.7-23.79-4.2-53.89-9.8-95.18-17.5-4.2-.7-7.7-4.89-6.3-9.09a7.91,7.91,0,0,1,9.1-7c40.59,7.7,70.69,13.3,95.18,17.49,22.4,3.5,39.2,6.3,54.59,8.4.7-.7,2.1-.7,3.5-.7,84.69,9.1,147.68,11.9,198.07,11.9,51.09-.7,89.59-4.9,126-11.9,3.5-.7,7,1.4,9.1,4.2,30.79,42,37.09,95.89,26.59,154-9.09,57.39-34.29,119-65.08,178.47-1.4,3.5-4.2,4.9-7.7,5.6h-1.4c-58.09,4.2-155.38,11.9-298.85-74.19a.69.69,0,0,0-.7-.7c-16.1-4.2-35-14.7-55.3-29.39-25.19-18.2-52.49-43.4-77-69.29-2.8-2.8-2.8-8.4,0-11.2,3.5-3.5,8.4-2.8,11.89,0,23.8,25.19,50.4,49.69,74.89,67.19,14.7,11.2,28.7,19.59,40.6,23.79-2.8-29.39-7-110.58,8.39-232.36Z" style="fill:#d4e4f7;fill-rule:evenodd"/><path d="M1500.32,1363.35c10.49,32.89,11.19,70,4.19,109.18-9.09,57.39-34.29,119-65.08,178.47-1.4,3.5-4.2,4.9-7.7,5.6h-1.4c-45.5,3.5-114.08,8.4-209.27-29.4,20.3.7,37.09,1.4,46.19,1.4,18.9,0,114.08-14.69,123.18-17.49,56.69-15.4,104.29-172.88,109.89-247.76Z" style="fill:#a6bfde;fill-rule:evenodd"/><path d="M1060.09,1451.53c23.09-84-21-135.78-24.5-140.68-49-72.78-123.18-52.49-129.48-12.59-4.9,34.29,15.4,66.49,38.5,137.17,2.79,9.8,21,39.9,35,50.4,22.4,15.39,75.59-15.4,80.49-34.3Z" style="fill:#fad6a1;fill-rule:evenodd"/><path d="M1216.16,1819c62.29,49.69,113.38,126.68,152.58,209.27A733.63,733.63,0,0,1,764,1964.55c37.1-127.38,90.29-172.87,135.78-213.47,119,2.1,251.26,119.68,316.35,67.89Z" style="fill:#15283b;fill-rule:evenodd"/><path d="M1136.37,653.66C948.1,653.66,778,730,654.15,853.13,531,977,454.68,1147.08,454.68,1335.35S531,1693.69,654.15,1816.87c123.88,123.18,294,199.47,482.22,199.47s358.35-76.29,481.53-199.47,199.46-293.25,199.46-481.52S1741.08,977,1617.9,853.13C1494.72,730,1324.64,653.66,1136.37,653.66ZM584.86,783.84C725.54,642.46,920.81,555,1136.37,555s410.14,87.48,551.52,228.86c141.37,140.68,228.16,335.94,228.16,551.51s-86.79,410.13-228.16,551.51S1351.94,2115,1136.37,2115s-410.83-86.78-551.51-228.16C443.49,1745.48,356,1550.92,356,1335.35s87.49-410.83,228.86-551.51Z" style="fill:#26b2fc;fill-rule:evenodd"/><path d="M1730.58,1498.42c-.7-83.28-27.3-142.77-79.09-179.17,15.4,50.39,24.5,106.39,26.6,168.68,35.69,8.39,53.19,11.19,52.49,10.49Z" style="fill:#274161;fill-rule:evenodd"/><path d="M2070.72,1367.54c-39.19-39.89-120.38-113.38-167.27-102.18L1739,1303.16c-14,3.49-21.7,16.09-21.7,30.09,0,23.8,36.39,44.79,58.79,42l88.19-11.19,19.59,42-184.07.7v53.19h7.7a4.52,4.52,0,0,1,4.2,4.2c0,2.8-2.1,4.9-4.2,4.9h-7.7v74.89h28c2.8,0,4.9,2.1,4.9,4.2,0,2.8-7,4.89-4.9,4.89h7v74.89h10.5c2.8,0,4.9,2.1,4.9,4.2a4.78,4.78,0,0,1-4.9,4.9h-10.5v74.89h196c121.78,0,128.78-39.19,184.07-39.19h98.68v-266h-84.69c-23.79,0-42.69-23.8-58.09-39.2Z" style="fill:#fad6a1;fill-rule:evenodd"/><g style="clip-path:url(#clip-path-3)"><path d="M1855.86,1259.06c-24.5,43.4-30.8,23.1-16.8,39.2,37.79,44.09,39.89,33.59,69.29,84,23.8,40.6,21,81.19,39.19,124.58,21.7,53.89,110.59,92.39,89.59,194.57-2.8,13.3-4.9,25.9-17.5,29.4l-113.38,28.69c-13.3,3.5-26.6-4.9-29.4-17.5-22.39-87.48-54.59-172.17-99.38-250.56-52.49-89.58-117.58-175.67-229.56-170.07-10.5.7-86.79,16.8-91.69,8.4l-66.49-130.88c-9.1-18.19,3.5-34.29,13.3-37.09l333.15-84.69c9.8-2.8,34.29,5.6,40.59,14l80.49,107.08c15.4,20.3,11.2,37.1-1.4,60.89Z" style="fill:#e6c491;fill-rule:evenodd"/></g><path d="M1888.75,1299.66c-35,37.09-35.69,15.39-25.89,35,25.89,51.79,35,70,51.09,126.68,29.39,101.48,41.29,206.47,41.29,312.15a24.8,24.8,0,0,1-24.49,24.5H1813.86c-13.29,0-23.79-11.2-23.79-24.5,0-90.29-9.8-180.57-35-266.66-28.69-100.08-70.68-199.47-180.57-221.86-9.79-2.1-88.18-4.9-90.28-14.7l-32.9-142.78c-4.2-20.29,11.9-32.89,22.4-32.89h343.64c10.5,0,32.2,13.3,35.7,23.8l51.79,123.18c10.5,23.79,2.1,39.19-16.1,58.09Z" style="fill:#d4e4f7;fill-rule:evenodd"/><g style="clip-path:url(#clip-path-4)"><path d="M2081.92,1410.94c-.7,0-.7-.7-1.4-1.4-27.29-30.1-128.08-130.88-182-118.28l-165.17,37.79c-14,3.5-21,16.1-21,30.8,0,23.79,36.4,44.79,58.09,42l113.38-14,77.69,81.89Z" style="fill:#a6bfde;fill-rule:evenodd"/></g><path d="M1492.62,1094.59l42,186.87c-23.8-2.1-47.59,2.8-50.39-11.2l-32.9-142.78c-4.2-20.29,11.9-32.89,22.4-32.89Z" style="fill:#274161;fill-rule:evenodd"/><path d="M1789.37,1740.58h52.49c25.2,0,46.19-21,46.19-46.89h0c0-18.19-11.2-34.29-26.59-42a46.29,46.29,0,0,0,25.89-42h0a45.46,45.46,0,0,0-18.89-37.1h1.4a46.14,46.14,0,0,0,46.19-46.19h0c0-25.9-20.3-46.89-46.19-46.89h-1.4c11.19-8.4,18.89-22.4,18.89-37.1h0a46.89,46.89,0,0,0-46.89-46.89h-126c16.1,35.69,30.1,72.79,40.59,111.28,21.7,75.59,32.2,154.68,34.3,233.76Z" style="fill:#a6bfde;fill-rule:evenodd"/><path d="M1817.36,1759.48h137.88v14a24.8,24.8,0,0,1-24.49,24.5H1813.86c-13.29,0-23.79-11.2-23.79-24.5,0-7.7,0-15.4-.7-23.1,5.6,5.6,13.3,9.1,28,9.1Z" style="fill:#274161;fill-rule:evenodd"/><path d="M1888.75,1299.66c-9.1,9.09-15.39,14.69-19.59,18.19l-25.2,1.4c4.9-25.19,14-63,5.6-87.48l-46.19-137.18c32.89-4.2,42,4.2,49.69,23.8l51.79,123.18c10.5,23.79,2.1,39.19-16.1,58.09Z" style="fill:#274161;fill-rule:evenodd"/><path d="M1813.86,1386.44H1671.09a42.12,42.12,0,0,0-42,42h0a42.12,42.12,0,0,0,42,42h142.77a42.12,42.12,0,0,0,42-42h0a42.12,42.12,0,0,0-42-42Z" style="fill:#e6c491;fill-rule:evenodd"/><g style="clip-path:url(#clip-path-5)"><path d="M1800.57,1378.74H1671.09c-21,0-38.5,16.1-38.5,35.7h0c0,18.89,17.5,35,38.5,35h129.48c21,0,38.49-16.1,38.49-35h0c0-19.6-17.5-35.7-38.49-35.7Z" style="fill:#fad6a1;fill-rule:evenodd"/></g><path d="M1847.46,1466.93H1684.39c-21,0-37.8,18.9-37.8,42h0c0,23.1,16.8,42,37.8,42h163.07c20.3,0,37.09-18.9,37.09-42h0c0-23.09-16.79-42-37.09-42Z" style="fill:#e6c491;fill-rule:evenodd"/><g style="clip-path:url(#clip-path-6)"><path d="M1831.36,1461.33H1675.29c-19.6,0-35.7,16.1-35.7,36.39h0a35.85,35.85,0,0,0,35.7,35.7h156.07a35.85,35.85,0,0,0,35.7-35.7h0c0-20.29-16.1-36.39-35.7-36.39Z" style="fill:#fad6a1;fill-rule:evenodd"/></g><path d="M1818.76,1547.42h-119c-20.29,0-37.09,18.89-37.09,42h0c0,23.1,16.8,42,37.09,42h119c20.3,0,37.1-18.89,37.1-42h0c0-23.1-16.8-42-37.1-42Z" style="fill:#e6c491;fill-rule:evenodd"/><g style="clip-path:url(#clip-path-7)"><path d="M1804.07,1542.52H1683.69c-21,0-37.8,16.09-37.8,35h0c0,18.9,16.8,34.3,37.8,34.3h120.38c20.29,0,37.79-15.4,37.79-34.3h0c0-18.9-17.5-35-37.79-35Z" style="fill:#fad6a1;fill-rule:evenodd"/></g><path d="M1819.46,1627.9h-88.18c-21,0-37.8,18.9-37.8,42h0c0,23.09,16.8,42,37.8,42h88.18c20.3,0,37.1-18.9,37.1-42h0c0-23.1-16.8-42-37.1-42Z" style="fill:#e6c491;fill-rule:evenodd"/><g style="clip-path:url(#clip-path-8)"><path d="M1795,1620.2h-89.59c-21.69,0-38.49,16.1-38.49,35.7h0c0,20.3,16.8,36.39,38.49,36.39H1795c21,0,38.49-16.09,38.49-36.39h0c0-19.6-17.5-35.7-38.49-35.7Z" style="fill:#fad6a1;fill-rule:evenodd"/></g><path d="M2086.82,1385c0-.7-.7-.7-.7-1.4-28-30.09-128.08-130.88-182.67-118.28L1739,1303.16c-14,3.49-21.7,16.09-21.7,30.09,0,23.8,36.39,44.79,58.79,42l112.68-14,77.69,82.58Z" style="fill:#fad6a1;fill-rule:evenodd"/><path d="M1642.39,1053.3a12.31,12.31,0,0,1-4.9,16.79c-6.3,3.5-13.29,1.4-16.79-4.9A553.3,553.3,0,0,0,1417,857.33C1333.74,807.64,1237.16,781,1136.37,781c-153.27,0-291.85,61.59-391.93,162.37-100.79,100.09-162.38,238.66-162.38,391.94s61.59,291.85,162.38,391.94c100.08,100.08,238.66,162.37,391.93,162.37a552.63,552.63,0,0,0,277.86-74.89c83.29-48.29,154-117.58,203-204.36,3.5-5.6,11.19-7.7,16.79-4.2,6.3,3.5,8.4,11.19,4.9,16.79a577,577,0,0,1-502.52,291.16c-160.27,0-305.15-64.39-409.43-169.38-105-105-170.07-249.86-170.07-409.43a580.68,580.68,0,0,1,579.5-579.51,581.38,581.38,0,0,1,293.26,79.79c87.48,51.79,161.67,126,212.76,217.67Z" style="fill:#26b2fc;fill-rule:evenodd"/><path d="M2390.57,1037.9h54.59c20.3,0,36.4,7.7,36.4,30.79,0,21.7-14.7,29.4-36.4,29.4h-54.59ZM2322,1152.68h126c56,0,102.19-18.9,102.19-81.19,0-30.09-17.5-53.89-45.5-62.29,21-10.5,35-29.39,35-53.19,0-54.59-49.69-66.49-95.19-65.79H2322Zm68.59-209.27h52.49c14.7,0,28,6.3,28,25.2s-16.1,25.2-28,25.2h-52.49Zm186.87,78.39c0,75.59,46.19,136.48,128.78,136.48,83.29,0,129.48-60.89,129.48-136.48,0-76.29-46.19-136.48-129.48-136.48-82.59,0-128.78,60.19-128.78,136.48Zm67.89,0c0-39.19,16.8-77.69,60.89-77.69s61.59,38.5,61.59,77.69c0,38.49-17.5,77.69-61.59,77.69s-60.89-39.2-60.89-77.69Zm227.46,130.88h112.69c79.78,0,128.78-46.19,128.78-132.28,0-81.19-48.3-130.18-128.78-130.18H2872.79ZM2941.38,949h32.2c46.89,0,72.09,23.8,72.09,71.39,0,52.49-20.3,72.79-72.09,73.49h-32.2Zm439.53-58.79h-77.69L3250.73,997.3l-51.79-107.08h-77.69l95.19,165.18v97.28H3285V1055.4Z" style="fill:#fff"/><path d="M3626.57,949.71h-41.29V888.12h-67.19v61.59H3484.5v43.4h33.59v91c0,55.29,14.7,72.09,71.39,72.09,12.6,0,24.49-2.1,37.09-2.1v-49.69c-6.3,0-11.9,1.4-17.49,1.4-14.7,0-23.8-3.5-23.8-19.6V993.11h41.29Zm23.1-10.5a63.17,63.17,0,0,0,63,63c34.29,0,62.29-28.69,62.29-63s-28-63-62.29-63a63.17,63.17,0,0,0-63,63Zm63,35c-19.6,0-31.5-15.4-31.5-35s11.9-35,31.5-35c18.9,0,30.79,15.4,30.79,35s-11.89,35-30.79,35Z" style="fill:#fff"/><path d="M2564.14,1331.15c-1.4-63-63-99.38-119.68-99.38-79.08,0-130.88,60.89-130.88,136.47,0,76.29,51.8,137.18,130.88,137.18,66.49,0,116.18-39.89,119.68-107.78h-67.89c-2.79,30.1-21,49-53.19,49-44.09,0-60.89-39.19-60.89-78.39,0-38.49,16.8-77.68,60.89-77.68,28.7,0,49,14,53.19,40.59Zm35.7,168.67h68.59V1391.34H2758v108.48h68.59V1237.37H2758v95.88h-89.58v-95.88h-68.59Zm272.95,0h212.77V1441H2941.38v-50.39h128.08v-52.49H2941.38V1292h140.68v-54.59H2872.79Zm494.12-168.67c-2.09-63-63-99.38-119.68-99.38-79.08,0-130.88,60.89-130.88,136.47,0,76.29,51.8,137.18,130.88,137.18,66.49,0,116.19-39.89,119.68-107.78h-68.58c-2.1,30.1-21,49-52.5,49-44.09,0-60.89-39.19-60.89-78.39,0-38.49,16.8-77.68,60.89-77.68,28.7,0,49,14,52.5,40.59Zm36.4,168.67h68.59v-81.18l28-29.4,70,110.58h85.39L3546.09,1341l96.58-103.58H3558l-86.08,100.78V1237.37h-68.59Z" style="fill:#fff"/><path d="M2313.58,1781.88h38.5V1633.5h-38.5Zm57.4-50.39c0,38.49,30.09,53.19,64.38,53.19,32.2,0,64.39-11.9,64.39-49.69,0-26.6-21.69-36.4-43.39-42.7-21-5.6-42.69-7.7-42.69-19.59,0-9.8,10.5-12.6,18.9-12.6,11.89,0,24.49,4.2,23.79,18.19h38.5c0-33.59-30.1-48.29-59.5-48.29-28,0-60.19,12.6-60.19,45.5,0,27.29,22.4,36.39,43.4,42.69s42.69,8.4,42.69,21.69c0,10.5-12.6,14.7-23.8,14.7-16.79,0-27.29-5.6-28-23.09ZM2583,1781.88h38.49V1728h29.4c18.2,0,21,15.39,21.7,30.09.7,4.2,1.4,18.9,4.2,23.8h38.49c-5.6-5.6-5.6-27.3-6.3-33.6-1.4-14-5.6-31.49-21.7-35.69h0c15.4-6.3,23.1-21.7,23.1-37.79,0-29.4-25.2-41.3-51.79-41.3H2583Zm38.49-117.58h30.8c11.2,0,19.6,4.9,19.6,16.09s-6.3,17.5-17.5,17.5h-32.9Zm111.29,117.58H2853.2v-33.6H2772v-28h72.09v-30.1H2772V1664.3h79.09v-30.8H2732.82Zm282.75-2.8-18.2-17.5c11.9-14,18.9-32.89,18.9-53.89,0-43.39-26.59-77.69-73.49-77.69s-72.79,34.3-72.79,77.69c0,42.69,25.9,77,72.79,77,13.3,0,24.5-2.8,34.3-7.7l20.29,20.3Zm-76.29-39.9,11.2,11.2a25.16,25.16,0,0,1-7.7,1.4c-24.49,0-34.29-22.39-34.29-44.09,0-22.4,9.8-44.09,34.29-44.09,25.2,0,34.3,21.69,34.3,44.09,0,9.8-1.4,19.6-6.3,28l-14.7-14.7Zm226.07-105.68h-39.2v88.89c0,19.59-7,29.39-25.89,29.39s-25.9-9.8-25.9-29.39V1633.5h-38.49v86.79c0,43.39,19.59,64.39,64.39,64.39s65.09-21,65.09-64.39Zm25.19,148.38h39.2V1633.5h-39.2Zm65.79,0h38.5V1728h29.39c18.2,0,20.3,15.39,21.7,30.09,0,4.2.7,18.9,4.2,23.8h38.49c-5.6-5.6-6.3-27.3-6.3-33.6-1.4-14-6.3-31.49-21.69-35.69h0c15.39-6.3,23.09-21.7,23.09-37.79,0-29.4-25.89-41.3-51.79-41.3h-75.59Zm38.5-117.58h30.79c10.5,0,19.6,4.9,19.6,16.09s-6.3,17.5-18.2,17.5h-32.19Zm111.28,117.58h120.38v-33.6H3444.6v-28h72.79v-30.1H3444.6V1664.3h79.79v-30.8H3406.11Zm142.08,0h64.39c44.79,0,72.08-26.6,72.08-74.89,0-46.19-26.59-73.49-72.08-73.49h-64.39Zm39.19-115.48h18.2c25.89,0,40.59,13.29,40.59,40.59,0,29.4-11.2,40.59-40.59,41.29h-18.2Z" style="fill:#15283b"/><path d="M1606,2115c-13.3,0-24.5-10.49-24.5-23.79s11.2-23.8,24.5-23.8H3802.24c62.29,0,119.69-25.89,161-67.19s67.19-98,67.19-161V831.43a228.2,228.2,0,0,0-228.17-228.16H1606a24.8,24.8,0,0,1-24.5-24.5c0-13.3,11.2-23.79,24.5-23.79H3802.24a272.86,272.86,0,0,1,194.57,81.18c50.4,49.69,81.19,119,81.19,195.27V1839.27A276,276,0,0,1,3802.24,2115Z" style="fill:#26b2fc;fill-rule:evenodd"/><path d="M948.1,1294.76c21-5.6,46.2-4.2,65.79,41.29,8.4,20.3,25.2,32.89-6.29,68.59-18.2,20.3,40.59,47.59-5.6,49.69-11.9,0-21.7-32.89-19.6-44.79,6.3-35.7,3.5-28-27.3-52.49-25.89-20.3-21-58.09-7-62.29Z" style="fill:#e6c491;fill-rule:evenodd"/><rect width="4434" height="2670" style="fill:none"/><path d="M1743.44,1140.44a29.59,29.59,0,0,0-13.82,3.67,28.29,28.29,0,0,0-8.87,7.89,34.84,34.84,0,0,0-5.16,10.19,36.39,36.39,0,0,0-1.12,4.25c-.08.39-.11.79-.21,1.17a7.32,7.32,0,0,1-3.76,4.89,5.75,5.75,0,0,1-8.3-3.42,6.87,6.87,0,0,1-.11-4c.49-1.83,1-3.67,1.54-5.49a53,53,0,0,1,6.28-13.36,42.12,42.12,0,0,1,10.88-11.35,38.76,38.76,0,0,1,14.11-6.21c1.44-.3,2.88-.55,4.34-.73s3-.25,4.44-.3h1.4a13.85,13.85,0,0,1,1.44,0l.71,0c1.23,0,2.45.17,3.67.34a39.81,39.81,0,0,1,6.54,1.45,38.86,38.86,0,0,1,16.09,9.7A45.7,45.7,0,0,1,1782,1151a58.3,58.3,0,0,1,4.86,13.55c.48,2.06.87,4.15,1.16,6.25.16,1.23.28,2.48.4,3.72.22,2.15.3,4.31.32,6.47,0,1.75,0,3.49,0,5.24s0,3.49,0,5.24a1.08,1.08,0,0,0,.34.84,60.5,60.5,0,0,1,4.68,5.3,62.45,62.45,0,0,1,12.78,29.51c.25,1.61.43,3.22.53,4.84.12,1.85.23,3.69.18,5.53s-.13,3.48-.3,5.22a63.66,63.66,0,0,1-1.53,9.09,62.16,62.16,0,0,1-6.65,16.42,62.86,62.86,0,0,1-20.93,21.74,62,62,0,0,1-18.73,8c-1.7.41-3.41.74-5.12,1-1.08.17-2.16.28-3.25.4a58.48,58.48,0,0,1-8.37.33c-1.07,0-2.14-.11-3.21-.2s-1.93-.16-2.89-.27-1.73-.23-2.59-.38a63.06,63.06,0,0,1-51.2-49.17q-.59-2.75-.91-5.52c-.12-1.06-.19-2.12-.28-3.19a61.51,61.51,0,0,1-.08-7.31c0-1.31.18-2.62.3-3.92s.3-2.6.53-3.89a60.4,60.4,0,0,1,2.15-8.7A63.24,63.24,0,0,1,1725,1176.5a58.79,58.79,0,0,1,8.18-2c1.43-.25,2.86-.47,4.3-.61l2.9-.23a57.2,57.2,0,0,1,6-.08c1,0,2,.11,3,.19s1.86.15,2.78.27c1.1.15,2.2.3,3.29.5a65.86,65.86,0,0,1,7.83,2,62.59,62.59,0,0,1,11.14,4.77,1.1,1.1,0,0,0,.62.23,1.78,1.78,0,0,0,.07-.39c0-2,.05-3.91,0-5.89a45.07,45.07,0,0,0-.44-5.32,41.29,41.29,0,0,0-4.3-13.78,30.18,30.18,0,0,0-7.55-9.33,27.52,27.52,0,0,0-11.32-5.54,32.47,32.47,0,0,0-4.16-.67c-.75-.08-1.51-.1-2.26-.14m48.75,96.73a50,50,0,0,0-99.9-.41,50,50,0,1,0,99.9.5Z" style="fill:#005c9d;fill-rule:evenodd"/><path d="M1793.81,1237.16a50,50,0,0,1-50.06,49.9h-.08a50,50,0,0,1-49.76-50.32,50,50,0,0,1,99.9.42Zm-39.42,10.43a1.81,1.81,0,0,1,.73-.06h14.52a12.65,12.65,0,0,0,2.6-.24,10.5,10.5,0,0,0,5.68-3,7.94,7.94,0,0,0,2.27-5.59v-2.85a7.65,7.65,0,0,0-.66-3.06,8.89,8.89,0,0,0-3.46-3.92,11.22,11.22,0,0,0-6.09-1.73h-15.06c-.17,0-.35,0-.5,0a1.72,1.72,0,0,1-.11-.87v-14.57a12.26,12.26,0,0,0-.3-2.83,10.52,10.52,0,0,0-2.41-4.73,7.84,7.84,0,0,0-6.23-2.81h-2.68a8.52,8.52,0,0,0-1,0,7.94,7.94,0,0,0-3.75,1.56,9.85,9.85,0,0,0-3.14,4.18,11.65,11.65,0,0,0-.86,4.52v15.17a2,2,0,0,1-.1.35h-15.49a11.63,11.63,0,0,0-3.74.61,10,10,0,0,0-4.87,3.35,7.31,7.31,0,0,0-1.62,4.41c0,1.29,0,2.58,0,3.86a6.78,6.78,0,0,0,1,3.22,8.69,8.69,0,0,0,2.66,2.93,11.12,11.12,0,0,0,6.53,2c4.89,0,9.79,0,14.69,0h.6a1.61,1.61,0,0,1,.33.06,2.16,2.16,0,0,1,.07.8V1263a12.17,12.17,0,0,0,.38,3.12,10.36,10.36,0,0,0,2.79,4.9,7.74,7.74,0,0,0,5.67,2.32h2.92a5,5,0,0,0,.77,0,8,8,0,0,0,4.27-1.92,10,10,0,0,0,2.81-4.07,11.77,11.77,0,0,0,.76-4.31v-15.11C1754.33,1247.8,1754.36,1247.7,1754.39,1247.59Z" style="fill:#fff;fill-rule:evenodd"/><path d="M1754.39,1247.59c0,.11-.05.22-.07.33s0,.44,0,.65V1263a11.68,11.68,0,0,1-.76,4.3,10.12,10.12,0,0,1-2.81,4.08,8,8,0,0,1-4.27,1.92,4.91,4.91,0,0,1-.77,0h-2.91a7.73,7.73,0,0,1-5.68-2.33,10.39,10.39,0,0,1-2.79-4.9,12,12,0,0,1-.38-3.11v-14.64a2.16,2.16,0,0,0-.07-.8l-.33-.06h-.6c-4.9,0-9.8,0-14.7,0a11.07,11.07,0,0,1-6.53-2,9,9,0,0,1-2.66-2.92,6.78,6.78,0,0,1-1-3.22c0-1.29,0-2.58,0-3.87a7.29,7.29,0,0,1,1.63-4.38,9.94,9.94,0,0,1,4.87-3.36,11.9,11.9,0,0,1,3.74-.6h15.48a1.4,1.4,0,0,0,.1-.35v-15.18a11.64,11.64,0,0,1,.87-4.51,9.77,9.77,0,0,1,3.14-4.18,7.8,7.8,0,0,1,3.75-1.56,8.44,8.44,0,0,1,1,0h2.67a7.92,7.92,0,0,1,6.24,2.82,10.64,10.64,0,0,1,2.41,4.72,12.29,12.29,0,0,1,.3,2.84v14.57a1.79,1.79,0,0,0,.1.86c.16,0,.33,0,.5,0H1770a11.22,11.22,0,0,1,6.09,1.73,8.92,8.92,0,0,1,3.46,3.91,7.72,7.72,0,0,1,.66,3.06v2.86a7.9,7.9,0,0,1-2.27,5.58,10.4,10.4,0,0,1-5.69,3,12.65,12.65,0,0,1-2.6.24h-14.52A1.81,1.81,0,0,0,1754.39,1247.59Z" style="fill:#26b2fc;fill-rule:evenodd"/><path d="M1743.81,1136.45c-.75,0-1.5,0-2.25.13a34.32,34.32,0,0,0-4.16.67,27.56,27.56,0,0,0-11.33,5.54,30.18,30.18,0,0,0-7.55,9.33,41.2,41.2,0,0,0-4.29,13.78,43.36,43.36,0,0,0-.44,5.33c0,2,0,3.92,0,5.89a1.68,1.68,0,0,0,.07.39,1.1,1.1,0,0,0,.62-.23,62.81,62.81,0,0,1,19-6.72c1.09-.2,2.19-.35,3.29-.5.92-.11,1.85-.2,2.78-.27s2-.18,3-.19a57.39,57.39,0,0,1,6,.08l2.9.24c1.44.12,2.87.34,4.3.6a59.14,59.14,0,0,1,8.18,2,63.26,63.26,0,0,1,40.89,40.59,60.79,60.79,0,0,1,2.13,8.71c.22,1.29.39,2.59.53,3.89s.27,2.61.3,3.91a61.65,61.65,0,0,1-.08,7.32c-.09,1.06-.15,2.13-.28,3.19q-.34,2.77-.91,5.52a61.7,61.7,0,0,1-4.36,13.24,63.23,63.23,0,0,1-40.17,34.42,68.24,68.24,0,0,1-6.66,1.5c-.85.15-1.72.27-2.58.37s-1.93.21-2.9.28-2.14.17-3.21.19a58.2,58.2,0,0,1-8.35-.33c-1.08-.12-2.17-.23-3.25-.4q-2.58-.4-5.11-1a62.17,62.17,0,0,1-18.76-7.94,62.91,62.91,0,0,1-20.93-21.73,62,62,0,0,1-6.62-16.43,64.62,64.62,0,0,1-1.55-9.07c-.17-1.74-.24-3.48-.3-5.22s.06-3.69.18-5.53c.1-1.62.3-3.24.53-4.85a62.8,62.8,0,0,1,12.79-29.5,60.43,60.43,0,0,1,4.68-5.31,1.07,1.07,0,0,0,.34-.84c0-1.74,0-3.49,0-5.23s-.06-3.49,0-5.24a63.57,63.57,0,0,1,.33-6.47c.12-1.24.23-2.49.4-3.73q.44-3.15,1.15-6.25a58.79,58.79,0,0,1,4.87-13.55,45.63,45.63,0,0,1,8.49-11.77,38.89,38.89,0,0,1,16.08-9.7,40.72,40.72,0,0,1,6.55-1.44c1.22-.18,2.44-.29,3.67-.35.23,0,.47,0,.71,0q.72,0,1.44,0h1.39c1.49.06,3,.14,4.45.3a42.06,42.06,0,0,1,4.33.73,38.85,38.85,0,0,1,14.1,6.19,42.31,42.31,0,0,1,10.89,11.35,52.94,52.94,0,0,1,6.27,13.36c.57,1.81,1,3.66,1.54,5.5a6.75,6.75,0,0,1-.12,4,5.65,5.65,0,0,1-3.63,3.82,5.71,5.71,0,0,1-4.66-.4,7.27,7.27,0,0,1-3.76-4.89c-.1-.38-.13-.78-.21-1.17a36.39,36.39,0,0,0-1.12-4.25,35.09,35.09,0,0,0-5.16-10.19,28.29,28.29,0,0,0-8.87-7.89,29.7,29.7,0,0,0-13.82-3.67m-.23,146.63a50,50,0,0,0,49.76-50.32,50,50,0,1,0-49.76,50.32Z" style="fill:#005c9d;fill-rule:evenodd"/></svg>